%TF.GenerationSoftware,KiCad,Pcbnew,9.0.4*%
%TF.CreationDate,2025-12-21T11:21:01-08:00*%
%TF.ProjectId,wind board,77696e64-2062-46f6-9172-642e6b696361,rev?*%
%TF.SameCoordinates,Original*%
%TF.FileFunction,Soldermask,Bot*%
%TF.FilePolarity,Negative*%
%FSLAX46Y46*%
G04 Gerber Fmt 4.6, Leading zero omitted, Abs format (unit mm)*
G04 Created by KiCad (PCBNEW 9.0.4) date 2025-12-21 11:21:01*
%MOMM*%
%LPD*%
G01*
G04 APERTURE LIST*
%ADD10R,1.000000X1.000000*%
%ADD11C,3.600000*%
%ADD12C,5.700000*%
%ADD13C,4.700000*%
%ADD14C,7.600000*%
%ADD15R,1.700000X1.700000*%
%ADD16C,1.700000*%
%ADD17C,0.650000*%
%ADD18O,2.100000X1.000000*%
%ADD19O,1.600000X1.000000*%
G04 APERTURE END LIST*
D10*
%TO.C,TP1*%
X166800000Y-84850000D03*
%TD*%
D11*
%TO.C,REF\u002A\u002A*%
X103000000Y-111000000D03*
D12*
X103000000Y-111000000D03*
%TD*%
D13*
%TO.C,J4*%
X111000000Y-110000000D03*
D14*
X111000000Y-110000000D03*
%TD*%
D10*
%TO.C,TP7*%
X139400000Y-83100000D03*
%TD*%
%TO.C,TP5*%
X137937500Y-65800000D03*
%TD*%
%TO.C,TP14*%
X120800000Y-66900000D03*
%TD*%
%TO.C,TP10*%
X145350000Y-93150000D03*
%TD*%
%TO.C,TP13*%
X104850000Y-93950000D03*
%TD*%
D15*
%TO.C,J3*%
X153210000Y-98100000D03*
D16*
X155750000Y-98100000D03*
X158290000Y-98100000D03*
X160830000Y-98100000D03*
%TD*%
D10*
%TO.C,TP8*%
X124100000Y-91100000D03*
%TD*%
D17*
%TO.C,J1*%
X104340000Y-59810000D03*
X104340000Y-65590000D03*
D18*
X104870000Y-58380000D03*
D19*
X100690000Y-58380000D03*
D18*
X104870000Y-67020000D03*
D19*
X100690000Y-67020000D03*
%TD*%
D10*
%TO.C,TP15*%
X117500000Y-79100000D03*
%TD*%
%TO.C,TP12*%
X102450000Y-93950000D03*
%TD*%
%TO.C,TP4*%
X131800000Y-64800000D03*
%TD*%
D11*
%TO.C,REF\u002A\u002A*%
X103000000Y-54000000D03*
D12*
X103000000Y-54000000D03*
%TD*%
D10*
%TO.C,TP9*%
X123000000Y-87600000D03*
%TD*%
D11*
%TO.C,REF\u002A\u002A*%
X165000000Y-54000000D03*
D12*
X165000000Y-54000000D03*
%TD*%
D11*
%TO.C,REF\u002A\u002A*%
X165000000Y-111000000D03*
D12*
X165000000Y-111000000D03*
%TD*%
D10*
%TO.C,TP6*%
X137350000Y-83100000D03*
%TD*%
D15*
%TO.C,J2*%
X134720000Y-94700000D03*
D16*
X137260000Y-94700000D03*
X139800000Y-94700000D03*
%TD*%
D13*
%TO.C,J5*%
X157000000Y-110000000D03*
D14*
X157000000Y-110000000D03*
%TD*%
D15*
%TO.C,J6*%
X111860000Y-96600000D03*
D16*
X114400000Y-96600000D03*
X116940000Y-96600000D03*
%TD*%
D10*
%TO.C,TP11*%
X147400000Y-93150000D03*
%TD*%
M02*
