%TF.GenerationSoftware,KiCad,Pcbnew,9.0.4*%
%TF.CreationDate,2025-10-17T12:14:48-07:00*%
%TF.ProjectId,wind board,77696e64-2062-46f6-9172-642e6b696361,rev?*%
%TF.SameCoordinates,Original*%
%TF.FileFunction,Soldermask,Top*%
%TF.FilePolarity,Negative*%
%FSLAX46Y46*%
G04 Gerber Fmt 4.6, Leading zero omitted, Abs format (unit mm)*
G04 Created by KiCad (PCBNEW 9.0.4) date 2025-10-17 12:14:48*
%MOMM*%
%LPD*%
G01*
G04 APERTURE LIST*
G04 Aperture macros list*
%AMRoundRect*
0 Rectangle with rounded corners*
0 $1 Rounding radius*
0 $2 $3 $4 $5 $6 $7 $8 $9 X,Y pos of 4 corners*
0 Add a 4 corners polygon primitive as box body*
4,1,4,$2,$3,$4,$5,$6,$7,$8,$9,$2,$3,0*
0 Add four circle primitives for the rounded corners*
1,1,$1+$1,$2,$3*
1,1,$1+$1,$4,$5*
1,1,$1+$1,$6,$7*
1,1,$1+$1,$8,$9*
0 Add four rect primitives between the rounded corners*
20,1,$1+$1,$2,$3,$4,$5,0*
20,1,$1+$1,$4,$5,$6,$7,0*
20,1,$1+$1,$6,$7,$8,$9,0*
20,1,$1+$1,$8,$9,$2,$3,0*%
G04 Aperture macros list end*
%ADD10RoundRect,0.225000X-0.225000X-0.250000X0.225000X-0.250000X0.225000X0.250000X-0.225000X0.250000X0*%
%ADD11RoundRect,0.135000X-0.135000X-0.185000X0.135000X-0.185000X0.135000X0.185000X-0.135000X0.185000X0*%
%ADD12RoundRect,0.225000X0.250000X-0.225000X0.250000X0.225000X-0.250000X0.225000X-0.250000X-0.225000X0*%
%ADD13RoundRect,0.218750X-0.256250X0.218750X-0.256250X-0.218750X0.256250X-0.218750X0.256250X0.218750X0*%
%ADD14RoundRect,0.140000X-0.140000X-0.170000X0.140000X-0.170000X0.140000X0.170000X-0.140000X0.170000X0*%
%ADD15R,1.000000X1.000000*%
%ADD16RoundRect,0.140000X0.170000X-0.140000X0.170000X0.140000X-0.170000X0.140000X-0.170000X-0.140000X0*%
%ADD17R,1.750000X0.450000*%
%ADD18C,3.600000*%
%ADD19C,5.700000*%
%ADD20RoundRect,0.225000X0.225000X0.250000X-0.225000X0.250000X-0.225000X-0.250000X0.225000X-0.250000X0*%
%ADD21RoundRect,0.135000X-0.185000X0.135000X-0.185000X-0.135000X0.185000X-0.135000X0.185000X0.135000X0*%
%ADD22C,4.700000*%
%ADD23C,7.600000*%
%ADD24RoundRect,0.140000X0.140000X0.170000X-0.140000X0.170000X-0.140000X-0.170000X0.140000X-0.170000X0*%
%ADD25RoundRect,0.218750X0.256250X-0.218750X0.256250X0.218750X-0.256250X0.218750X-0.256250X-0.218750X0*%
%ADD26RoundRect,0.140000X-0.170000X0.140000X-0.170000X-0.140000X0.170000X-0.140000X0.170000X0.140000X0*%
%ADD27R,0.780000X0.780000*%
%ADD28RoundRect,0.225000X-0.250000X0.225000X-0.250000X-0.225000X0.250000X-0.225000X0.250000X0.225000X0*%
%ADD29RoundRect,0.135000X0.135000X0.185000X-0.135000X0.185000X-0.135000X-0.185000X0.135000X-0.185000X0*%
%ADD30RoundRect,0.250000X0.325000X0.650000X-0.325000X0.650000X-0.325000X-0.650000X0.325000X-0.650000X0*%
%ADD31RoundRect,0.100000X-0.712500X-0.100000X0.712500X-0.100000X0.712500X0.100000X-0.712500X0.100000X0*%
%ADD32RoundRect,0.100000X-0.100000X0.637500X-0.100000X-0.637500X0.100000X-0.637500X0.100000X0.637500X0*%
%ADD33RoundRect,0.200000X-0.275000X0.200000X-0.275000X-0.200000X0.275000X-0.200000X0.275000X0.200000X0*%
%ADD34RoundRect,0.218750X-0.218750X-0.256250X0.218750X-0.256250X0.218750X0.256250X-0.218750X0.256250X0*%
%ADD35RoundRect,0.225000X-0.375000X0.225000X-0.375000X-0.225000X0.375000X-0.225000X0.375000X0.225000X0*%
%ADD36R,1.700000X1.700000*%
%ADD37C,1.700000*%
%ADD38RoundRect,0.200000X0.275000X-0.200000X0.275000X0.200000X-0.275000X0.200000X-0.275000X-0.200000X0*%
%ADD39R,1.450000X0.600000*%
%ADD40R,1.450000X0.300000*%
%ADD41O,2.100000X1.000000*%
%ADD42O,1.600000X1.000000*%
%ADD43RoundRect,0.093750X-0.106250X0.093750X-0.106250X-0.093750X0.106250X-0.093750X0.106250X0.093750X0*%
%ADD44R,1.600000X1.000000*%
%ADD45RoundRect,0.135000X0.185000X-0.135000X0.185000X0.135000X-0.185000X0.135000X-0.185000X-0.135000X0*%
%ADD46RoundRect,0.150000X-0.825000X-0.150000X0.825000X-0.150000X0.825000X0.150000X-0.825000X0.150000X0*%
%ADD47R,0.881065X0.192474*%
%ADD48R,0.192474X0.881065*%
%ADD49R,2.849999X2.849999*%
%ADD50RoundRect,0.150000X-0.512500X-0.150000X0.512500X-0.150000X0.512500X0.150000X-0.512500X0.150000X0*%
%ADD51RoundRect,0.250000X0.450000X0.350000X-0.450000X0.350000X-0.450000X-0.350000X0.450000X-0.350000X0*%
%ADD52RoundRect,0.250000X-0.475000X0.250000X-0.475000X-0.250000X0.475000X-0.250000X0.475000X0.250000X0*%
%ADD53RoundRect,0.102000X-0.250000X-0.175000X0.250000X-0.175000X0.250000X0.175000X-0.250000X0.175000X0*%
%ADD54RoundRect,0.102000X-0.150000X-0.200000X0.150000X-0.200000X0.150000X0.200000X-0.150000X0.200000X0*%
%ADD55RoundRect,0.102000X-0.990000X-1.225000X0.990000X-1.225000X0.990000X1.225000X-0.990000X1.225000X0*%
%ADD56RoundRect,0.102000X-0.215000X-0.190000X0.215000X-0.190000X0.215000X0.190000X-0.215000X0.190000X0*%
%ADD57R,0.609600X0.228600*%
%ADD58RoundRect,0.112500X-0.112500X0.187500X-0.112500X-0.187500X0.112500X-0.187500X0.112500X0.187500X0*%
%ADD59RoundRect,0.102000X-0.925000X-1.700000X0.925000X-1.700000X0.925000X1.700000X-0.925000X1.700000X0*%
G04 APERTURE END LIST*
D10*
%TO.C,C48*%
X107875000Y-57550000D03*
X109425000Y-57550000D03*
%TD*%
%TO.C,C47*%
X110175000Y-67350000D03*
X111725000Y-67350000D03*
%TD*%
D11*
%TO.C,R3*%
X164390000Y-70050000D03*
X165410000Y-70050000D03*
%TD*%
D12*
%TO.C,C34*%
X108500000Y-82775000D03*
X108500000Y-81225000D03*
%TD*%
D13*
%TO.C,D4*%
X136550000Y-69312500D03*
X136550000Y-70887500D03*
%TD*%
D14*
%TO.C,C43*%
X155120000Y-55150000D03*
X156080000Y-55150000D03*
%TD*%
D15*
%TO.C,TP1*%
X166800000Y-84850000D03*
%TD*%
D16*
%TO.C,C6*%
X122900000Y-72480000D03*
X122900000Y-71520000D03*
%TD*%
D17*
%TO.C,U7*%
X105400000Y-69350000D03*
X105400000Y-70000000D03*
X105400000Y-70650000D03*
X105400000Y-71300000D03*
X105400000Y-71950000D03*
X105400000Y-72600000D03*
X105400000Y-73250000D03*
X105400000Y-73900000D03*
X105400000Y-74550000D03*
X105400000Y-75200000D03*
X105400000Y-75850000D03*
X105400000Y-76500000D03*
X105400000Y-77150000D03*
X105400000Y-77800000D03*
X112600000Y-77800000D03*
X112600000Y-77150000D03*
X112600000Y-76500000D03*
X112600000Y-75850000D03*
X112600000Y-75200000D03*
X112600000Y-74550000D03*
X112600000Y-73900000D03*
X112600000Y-73250000D03*
X112600000Y-72600000D03*
X112600000Y-71950000D03*
X112600000Y-71300000D03*
X112600000Y-70650000D03*
X112600000Y-70000000D03*
X112600000Y-69350000D03*
%TD*%
D18*
%TO.C,REF\u002A\u002A*%
X103000000Y-111000000D03*
D19*
X103000000Y-111000000D03*
%TD*%
D20*
%TO.C,C56*%
X150325000Y-62400000D03*
X148775000Y-62400000D03*
%TD*%
D21*
%TO.C,R5*%
X135300000Y-73390000D03*
X135300000Y-74410000D03*
%TD*%
D22*
%TO.C,J4*%
X111000000Y-110000000D03*
D23*
X111000000Y-110000000D03*
%TD*%
D24*
%TO.C,C20*%
X163480000Y-91500000D03*
X162520000Y-91500000D03*
%TD*%
D25*
%TO.C,D7*%
X115300000Y-85587500D03*
X115300000Y-84012500D03*
%TD*%
D26*
%TO.C,C53*%
X142900000Y-59420000D03*
X142900000Y-60380000D03*
%TD*%
%TO.C,C42*%
X139100000Y-110020000D03*
X139100000Y-110980000D03*
%TD*%
D27*
%TO.C,D10*%
X109930000Y-98300000D03*
X108030000Y-98300000D03*
X108980000Y-100590000D03*
%TD*%
D15*
%TO.C,TP7*%
X146000000Y-82600000D03*
%TD*%
D11*
%TO.C,R2*%
X139540000Y-53450000D03*
X140560000Y-53450000D03*
%TD*%
%TO.C,R4*%
X164390000Y-71050000D03*
X165410000Y-71050000D03*
%TD*%
D15*
%TO.C,TP5*%
X137937500Y-65800000D03*
%TD*%
D26*
%TO.C,C50*%
X134250000Y-53320000D03*
X134250000Y-54280000D03*
%TD*%
D12*
%TO.C,C7*%
X133900000Y-73950000D03*
X133900000Y-72400000D03*
%TD*%
D28*
%TO.C,C29*%
X147800000Y-101125000D03*
X147800000Y-102675000D03*
%TD*%
D15*
%TO.C,TP14*%
X120800000Y-66900000D03*
%TD*%
D29*
%TO.C,R19*%
X116010000Y-81300000D03*
X114990000Y-81300000D03*
%TD*%
D12*
%TO.C,C18*%
X157800000Y-83275000D03*
X157800000Y-81725000D03*
%TD*%
D26*
%TO.C,C51*%
X145400000Y-59420000D03*
X145400000Y-60380000D03*
%TD*%
D12*
%TO.C,C22*%
X156000000Y-83250000D03*
X156000000Y-81700000D03*
%TD*%
D17*
%TO.C,U2*%
X124800000Y-69350000D03*
X124800000Y-70000000D03*
X124800000Y-70650000D03*
X124800000Y-71300000D03*
X124800000Y-71950000D03*
X124800000Y-72600000D03*
X124800000Y-73250000D03*
X124800000Y-73900000D03*
X124800000Y-74550000D03*
X124800000Y-75200000D03*
X124800000Y-75850000D03*
X124800000Y-76500000D03*
X124800000Y-77150000D03*
X124800000Y-77800000D03*
X132000000Y-77800000D03*
X132000000Y-77150000D03*
X132000000Y-76500000D03*
X132000000Y-75850000D03*
X132000000Y-75200000D03*
X132000000Y-74550000D03*
X132000000Y-73900000D03*
X132000000Y-73250000D03*
X132000000Y-72600000D03*
X132000000Y-71950000D03*
X132000000Y-71300000D03*
X132000000Y-70650000D03*
X132000000Y-70000000D03*
X132000000Y-69350000D03*
%TD*%
D27*
%TO.C,D12*%
X147850000Y-99090000D03*
X149750000Y-99090000D03*
X148800000Y-96800000D03*
%TD*%
D16*
%TO.C,C49*%
X152950000Y-57780000D03*
X152950000Y-56820000D03*
%TD*%
D26*
%TO.C,C14*%
X137400000Y-79100000D03*
X137400000Y-80060000D03*
%TD*%
D14*
%TO.C,C46*%
X155570000Y-60250000D03*
X156530000Y-60250000D03*
%TD*%
D25*
%TO.C,D1*%
X162900000Y-73787500D03*
X162900000Y-72212500D03*
%TD*%
%TO.C,D2*%
X164500000Y-73787500D03*
X164500000Y-72212500D03*
%TD*%
D30*
%TO.C,C57*%
X151125000Y-68350000D03*
X148175000Y-68350000D03*
%TD*%
D31*
%TO.C,U1*%
X139400000Y-72927500D03*
X139400000Y-73562500D03*
X139400000Y-74197500D03*
X139400000Y-74832500D03*
X139400000Y-75467500D03*
X139400000Y-76102500D03*
X139400000Y-76737500D03*
X139400000Y-77372500D03*
X144675000Y-77372500D03*
X144675000Y-76737500D03*
X144675000Y-76102500D03*
X144675000Y-75467500D03*
X144675000Y-74832500D03*
X144675000Y-74197500D03*
X144675000Y-73562500D03*
X144675000Y-72927500D03*
%TD*%
D26*
%TO.C,C31*%
X114500000Y-75620000D03*
X114500000Y-76580000D03*
%TD*%
D27*
%TO.C,D14*%
X128245000Y-95195000D03*
X128245000Y-93295000D03*
X125955000Y-94245000D03*
%TD*%
D28*
%TO.C,C28*%
X146300000Y-101125000D03*
X146300000Y-102675000D03*
%TD*%
D15*
%TO.C,TP10*%
X150500000Y-92000000D03*
%TD*%
D30*
%TO.C,FB1*%
X154275000Y-101300000D03*
X151325000Y-101300000D03*
%TD*%
D16*
%TO.C,C19*%
X159500000Y-82760000D03*
X159500000Y-81800000D03*
%TD*%
D32*
%TO.C,U4*%
X131925000Y-85137500D03*
X131275000Y-85137500D03*
X130625000Y-85137500D03*
X129975000Y-85137500D03*
X129325000Y-85137500D03*
X128675000Y-85137500D03*
X128025000Y-85137500D03*
X127375000Y-85137500D03*
X126725000Y-85137500D03*
X126075000Y-85137500D03*
X126075000Y-90862500D03*
X126725000Y-90862500D03*
X127375000Y-90862500D03*
X128025000Y-90862500D03*
X128675000Y-90862500D03*
X129325000Y-90862500D03*
X129975000Y-90862500D03*
X130625000Y-90862500D03*
X131275000Y-90862500D03*
X131925000Y-90862500D03*
%TD*%
%TO.C,U8*%
X111925000Y-85137500D03*
X111275000Y-85137500D03*
X110625000Y-85137500D03*
X109975000Y-85137500D03*
X109325000Y-85137500D03*
X108675000Y-85137500D03*
X108025000Y-85137500D03*
X107375000Y-85137500D03*
X106725000Y-85137500D03*
X106075000Y-85137500D03*
X106075000Y-90862500D03*
X106725000Y-90862500D03*
X107375000Y-90862500D03*
X108025000Y-90862500D03*
X108675000Y-90862500D03*
X109325000Y-90862500D03*
X109975000Y-90862500D03*
X110625000Y-90862500D03*
X111275000Y-90862500D03*
X111925000Y-90862500D03*
%TD*%
D16*
%TO.C,C2*%
X143200000Y-71860000D03*
X143200000Y-70900000D03*
%TD*%
D33*
%TO.C,R12*%
X122600000Y-98375000D03*
X122600000Y-100025000D03*
%TD*%
D14*
%TO.C,C32*%
X102720000Y-71300000D03*
X103680000Y-71300000D03*
%TD*%
D28*
%TO.C,C21*%
X163400000Y-81825000D03*
X163400000Y-83375000D03*
%TD*%
D34*
%TO.C,D15*%
X162625000Y-88100000D03*
X164200000Y-88100000D03*
%TD*%
D11*
%TO.C,R8*%
X139540000Y-52200000D03*
X140560000Y-52200000D03*
%TD*%
D32*
%TO.C,U5*%
X160925000Y-85137500D03*
X160275000Y-85137500D03*
X159625000Y-85137500D03*
X158975000Y-85137500D03*
X158325000Y-85137500D03*
X157675000Y-85137500D03*
X157025000Y-85137500D03*
X156375000Y-85137500D03*
X155725000Y-85137500D03*
X155075000Y-85137500D03*
X155075000Y-90862500D03*
X155725000Y-90862500D03*
X156375000Y-90862500D03*
X157025000Y-90862500D03*
X157675000Y-90862500D03*
X158325000Y-90862500D03*
X158975000Y-90862500D03*
X159625000Y-90862500D03*
X160275000Y-90862500D03*
X160925000Y-90862500D03*
%TD*%
D26*
%TO.C,C1*%
X146500000Y-74740000D03*
X146500000Y-75700000D03*
%TD*%
D35*
%TO.C,D6*%
X137200000Y-108750000D03*
X137200000Y-112050000D03*
%TD*%
D15*
%TO.C,TP13*%
X107300000Y-94000000D03*
%TD*%
D26*
%TO.C,C26*%
X130600000Y-102070000D03*
X130600000Y-103030000D03*
%TD*%
D36*
%TO.C,J3*%
X153220000Y-95000000D03*
D37*
X155760000Y-95000000D03*
X158300000Y-95000000D03*
X160840000Y-95000000D03*
%TD*%
D27*
%TO.C,D11*%
X161800000Y-99300000D03*
X159900000Y-99300000D03*
X160850000Y-101590000D03*
%TD*%
D16*
%TO.C,C17*%
X163500000Y-76280000D03*
X163500000Y-75320000D03*
%TD*%
D33*
%TO.C,R13*%
X133110000Y-107900000D03*
X133110000Y-109550000D03*
%TD*%
D16*
%TO.C,C40*%
X116400000Y-77100000D03*
X116400000Y-76140000D03*
%TD*%
D30*
%TO.C,C58*%
X151075000Y-64650000D03*
X148125000Y-64650000D03*
%TD*%
D38*
%TO.C,R14*%
X131600000Y-109550000D03*
X131600000Y-107900000D03*
%TD*%
D15*
%TO.C,TP8*%
X124100000Y-91100000D03*
%TD*%
D13*
%TO.C,D3*%
X134900000Y-69312500D03*
X134900000Y-70887500D03*
%TD*%
D29*
%TO.C,R9*%
X143020000Y-112100000D03*
X142000000Y-112100000D03*
%TD*%
D16*
%TO.C,C35*%
X110000000Y-82300000D03*
X110000000Y-81340000D03*
%TD*%
D39*
%TO.C,J1*%
X105785000Y-59450000D03*
X105785000Y-60250000D03*
D40*
X105785000Y-61450000D03*
X105785000Y-62450000D03*
X105785000Y-62950000D03*
X105785000Y-63950000D03*
D39*
X105785000Y-65150000D03*
X105785000Y-65950000D03*
X105785000Y-65950000D03*
X105785000Y-65150000D03*
D40*
X105785000Y-64450000D03*
X105785000Y-63450000D03*
X105785000Y-61950000D03*
X105785000Y-60950000D03*
D39*
X105785000Y-60250000D03*
X105785000Y-59450000D03*
D41*
X104870000Y-58380000D03*
D42*
X100690000Y-58380000D03*
D41*
X104870000Y-67020000D03*
D42*
X100690000Y-67020000D03*
%TD*%
D15*
%TO.C,TP15*%
X117500000Y-79100000D03*
%TD*%
D28*
%TO.C,C30*%
X149300000Y-101125000D03*
X149300000Y-102675000D03*
%TD*%
D26*
%TO.C,C36*%
X113600000Y-91020000D03*
X113600000Y-91980000D03*
%TD*%
D11*
%TO.C,R1*%
X146140000Y-53150000D03*
X147160000Y-53150000D03*
%TD*%
D15*
%TO.C,TP12*%
X104900000Y-94000000D03*
%TD*%
%TO.C,TP4*%
X131800000Y-64800000D03*
%TD*%
D43*
%TO.C,U12*%
X113100000Y-59450000D03*
X112450000Y-59450000D03*
X111800000Y-59450000D03*
X111800000Y-61225000D03*
X112450000Y-61225000D03*
X113100000Y-61225000D03*
D44*
X112450000Y-60337500D03*
%TD*%
D26*
%TO.C,C41*%
X149900000Y-110650000D03*
X149900000Y-111610000D03*
%TD*%
D12*
%TO.C,C10*%
X129000000Y-82775000D03*
X129000000Y-81225000D03*
%TD*%
D45*
%TO.C,R11*%
X128600000Y-103410000D03*
X128600000Y-102390000D03*
%TD*%
D26*
%TO.C,C8*%
X133700000Y-76220000D03*
X133700000Y-77180000D03*
%TD*%
D11*
%TO.C,R10*%
X139540000Y-54700000D03*
X140560000Y-54700000D03*
%TD*%
D28*
%TO.C,C12*%
X132500000Y-81025000D03*
X132500000Y-82575000D03*
%TD*%
D26*
%TO.C,C54*%
X141650000Y-59420000D03*
X141650000Y-60380000D03*
%TD*%
D18*
%TO.C,REF\u002A\u002A*%
X103000000Y-54000000D03*
D19*
X103000000Y-54000000D03*
%TD*%
D46*
%TO.C,U10*%
X127100000Y-53210000D03*
X127100000Y-54480000D03*
X127100000Y-55750000D03*
X127100000Y-57020000D03*
X132050000Y-57020000D03*
X132050000Y-55750000D03*
X132050000Y-54480000D03*
X132050000Y-53210000D03*
%TD*%
D15*
%TO.C,TP9*%
X123000000Y-87600000D03*
%TD*%
D16*
%TO.C,C3*%
X144300000Y-71880000D03*
X144300000Y-70920000D03*
%TD*%
D26*
%TO.C,C23*%
X139900000Y-79140000D03*
X139900000Y-80100000D03*
%TD*%
%TO.C,C25*%
X131600000Y-102070000D03*
X131600000Y-103030000D03*
%TD*%
D47*
%TO.C,U9*%
X153965531Y-55150000D03*
X153965531Y-54750001D03*
X153965531Y-54349999D03*
X153965531Y-53950000D03*
X153965531Y-53550000D03*
X153965531Y-53150001D03*
X153965531Y-52749999D03*
X153965531Y-52350000D03*
D48*
X153350000Y-51734467D03*
X152950001Y-51734467D03*
X152549999Y-51734467D03*
X152150000Y-51734467D03*
X151750000Y-51734467D03*
X151350001Y-51734467D03*
X150949999Y-51734467D03*
X150550000Y-51734467D03*
D47*
X149934467Y-52350000D03*
X149934467Y-52749999D03*
X149934467Y-53150001D03*
X149934467Y-53550000D03*
X149934467Y-53950000D03*
X149934467Y-54349999D03*
X149934467Y-54750001D03*
X149934467Y-55150000D03*
D48*
X150550000Y-55765531D03*
X150949999Y-55765531D03*
X151350001Y-55765531D03*
X151750000Y-55765531D03*
X152150000Y-55765531D03*
X152549999Y-55765531D03*
X152950001Y-55765531D03*
X153350000Y-55765531D03*
D49*
X151950000Y-53750000D03*
%TD*%
D28*
%TO.C,C37*%
X112425000Y-81025000D03*
X112425000Y-82575000D03*
%TD*%
D12*
%TO.C,C4*%
X129800000Y-66075000D03*
X129800000Y-64525000D03*
%TD*%
D14*
%TO.C,C44*%
X155120000Y-54200000D03*
X156080000Y-54200000D03*
%TD*%
D17*
%TO.C,U3*%
X153800000Y-71200000D03*
X153800000Y-71850000D03*
X153800000Y-72500000D03*
X153800000Y-73150000D03*
X153800000Y-73800000D03*
X153800000Y-74450000D03*
X153800000Y-75100000D03*
X153800000Y-75750000D03*
X153800000Y-76400000D03*
X153800000Y-77050000D03*
X153800000Y-77700000D03*
X153800000Y-78350000D03*
X153800000Y-79000000D03*
X153800000Y-79650000D03*
X161000000Y-79650000D03*
X161000000Y-79000000D03*
X161000000Y-78350000D03*
X161000000Y-77700000D03*
X161000000Y-77050000D03*
X161000000Y-76400000D03*
X161000000Y-75750000D03*
X161000000Y-75100000D03*
X161000000Y-74450000D03*
X161000000Y-73800000D03*
X161000000Y-73150000D03*
X161000000Y-72500000D03*
X161000000Y-71850000D03*
X161000000Y-71200000D03*
%TD*%
D26*
%TO.C,C27*%
X132600000Y-102070000D03*
X132600000Y-103030000D03*
%TD*%
D12*
%TO.C,C13*%
X127050000Y-82775000D03*
X127050000Y-81225000D03*
%TD*%
D50*
%TO.C,U11*%
X155562500Y-57050000D03*
X155562500Y-58950000D03*
X157837500Y-58000000D03*
%TD*%
D14*
%TO.C,C9*%
X130040000Y-79700000D03*
X131000000Y-79700000D03*
%TD*%
D18*
%TO.C,REF\u002A\u002A*%
X165000000Y-54000000D03*
D19*
X165000000Y-54000000D03*
%TD*%
D51*
%TO.C,Y1*%
X150000000Y-71600000D03*
X147800000Y-71600000D03*
X147800000Y-73300000D03*
X150000000Y-73300000D03*
%TD*%
D27*
%TO.C,D13*%
X140250000Y-88755000D03*
X138350000Y-88755000D03*
X139300000Y-91045000D03*
%TD*%
D12*
%TO.C,C38*%
X106800000Y-82775000D03*
X106800000Y-81225000D03*
%TD*%
D16*
%TO.C,C45*%
X159400000Y-58000000D03*
X159400000Y-57040000D03*
%TD*%
D52*
%TO.C,C24*%
X146900000Y-58700000D03*
X146900000Y-60600000D03*
%TD*%
D20*
%TO.C,C55*%
X150325000Y-60650000D03*
X148775000Y-60650000D03*
%TD*%
D53*
%TO.C,Q1*%
X141990000Y-108775000D03*
X141990000Y-109425000D03*
X141990000Y-110075000D03*
X141990000Y-110725000D03*
D54*
X144890000Y-110725000D03*
X144890000Y-110075000D03*
X144890000Y-109425000D03*
X144890000Y-108775000D03*
D55*
X143750000Y-109750000D03*
D56*
X143390000Y-108335000D03*
X143390000Y-111165000D03*
%TD*%
D26*
%TO.C,C11*%
X133800000Y-90620000D03*
X133800000Y-91580000D03*
%TD*%
D12*
%TO.C,C33*%
X116100000Y-73475000D03*
X116100000Y-71925000D03*
%TD*%
D57*
%TO.C,U6*%
X130269300Y-100900126D03*
X130269300Y-100400000D03*
X130269300Y-99899874D03*
X128770700Y-99899874D03*
X128770700Y-100400000D03*
X128770700Y-100900126D03*
%TD*%
D18*
%TO.C,REF\u002A\u002A*%
X165000000Y-111000000D03*
D19*
X165000000Y-111000000D03*
%TD*%
D15*
%TO.C,TP6*%
X142600000Y-82600000D03*
%TD*%
D26*
%TO.C,C52*%
X144150000Y-59420000D03*
X144150000Y-60380000D03*
%TD*%
D12*
%TO.C,C5*%
X135637500Y-66075000D03*
X135637500Y-64525000D03*
%TD*%
D29*
%TO.C,R18*%
X116010000Y-82500000D03*
X114990000Y-82500000D03*
%TD*%
D24*
%TO.C,C15*%
X164105000Y-78400000D03*
X163145000Y-78400000D03*
%TD*%
D14*
%TO.C,C16*%
X155520000Y-69350000D03*
X156480000Y-69350000D03*
%TD*%
D11*
%TO.C,R7*%
X162890000Y-86800000D03*
X163910000Y-86800000D03*
%TD*%
D27*
%TO.C,D9*%
X116100000Y-98300000D03*
X114200000Y-98300000D03*
X115150000Y-100590000D03*
%TD*%
D36*
%TO.C,J2*%
X137540000Y-94000000D03*
D37*
X135000000Y-94000000D03*
X132460000Y-94000000D03*
%TD*%
D21*
%TO.C,R6*%
X136500000Y-73390000D03*
X136500000Y-74410000D03*
%TD*%
D25*
%TO.C,D8*%
X117100000Y-85587500D03*
X117100000Y-84012500D03*
%TD*%
D58*
%TO.C,D5*%
X124600000Y-98350000D03*
X124600000Y-100450000D03*
%TD*%
D59*
%TO.C,L1*%
X138525000Y-100400000D03*
X144075000Y-100400000D03*
%TD*%
D26*
%TO.C,C39*%
X115200000Y-77900000D03*
X115200000Y-78860000D03*
%TD*%
D22*
%TO.C,J5*%
X157000000Y-110000000D03*
D23*
X157000000Y-110000000D03*
%TD*%
D36*
%TO.C,J6*%
X117000000Y-94800000D03*
D37*
X114460000Y-94800000D03*
X111920000Y-94800000D03*
%TD*%
D15*
%TO.C,TP11*%
X148500000Y-92000000D03*
%TD*%
M02*
