M48
; DRILL file {KiCad 9.0.4} date 2025-12-21T11:21:01-0800
; FORMAT={-:-/ absolute / inch / decimal}
; #@! TF.CreationDate,2025-12-21T11:21:01-08:00
; #@! TF.GenerationSoftware,Kicad,Pcbnew,9.0.4
; #@! TF.FileFunction,Plated,1,2,PTH
FMAT,2
INCH
; #@! TA.AperFunction,Plated,PTH,ViaDrill
T1C0.0118
; #@! TA.AperFunction,Plated,PTH,ViaDrill
T2C0.0197
; #@! TA.AperFunction,Plated,PTH,ComponentDrill
T3C0.0197
; #@! TA.AperFunction,Plated,PTH,ComponentDrill
T4C0.0236
; #@! TA.AperFunction,Plated,PTH,ViaDrill
T5C0.0276
; #@! TA.AperFunction,Plated,PTH,ComponentDrill
T6C0.0394
; #@! TA.AperFunction,Plated,PTH,ComponentDrill
T7C0.1260
; #@! TA.AperFunction,Plated,PTH,ComponentDrill
T8C0.1693
%
G90
G05
T1
X4.0433Y-2.8386
X4.1181Y-3.1969
X4.2047Y-2.8819
X4.226Y-2.3386
X4.226Y-2.5984
X4.2579Y-3.5295
X4.3268Y-2.9114
X4.3268Y-2.9587
X4.3445Y-2.2657
X4.3602Y-2.9114
X4.3602Y-2.9587
X4.3819Y-3.2795
X4.382Y-3.2313
X4.4091Y-3.9409
X4.4291Y-2.6516
X4.4961Y-3.126
X4.5433Y-2.9803
X4.563Y-2.5531
X4.5669Y-2.3839
X4.5709Y-2.7874
X4.622Y-2.9803
X4.6492Y-3.9409
X4.7421Y-3.6791
X4.7992Y-2.815
X4.8268Y-3.9803
X4.8386Y-2.8858
X4.9055Y-3.9921
X4.9488Y-3.1969
X5.0571Y-2.1457
X5.0571Y-2.1949
X5.0571Y-2.2441
X5.0587Y-2.0949
X5.0591Y-2.5413
X5.0638Y-3.874
X5.0992Y-3.874
X5.1063Y-3.748
X5.1346Y-3.874
X5.1417Y-4.0886
X5.1427Y-3.5305
X5.1685Y-3.2181
X5.1685Y-3.2709
X5.1811Y-4.0886
X5.1811Y-4.3543
X5.189Y-2.6306
X5.189Y-2.67
X5.2205Y-4.0886
X5.2598Y-2.8071
X5.2815Y-2.5413
X5.2854Y-2.1693
X5.2913Y-3.0
X5.315Y-4.2913
X5.4094Y-3.189
X5.4567Y-3.1024
X5.4764Y-4.3976
X5.5079Y-3.1929
X5.5591Y-3.1339
X5.5906Y-2.4252
X5.5906Y-2.4508
X5.5906Y-2.4764
X5.5906Y-2.5039
X5.5906Y-2.5295
X5.5906Y-2.5551
X5.5906Y-2.5807
X5.5906Y-2.6063
X5.5906Y-2.6339
X5.5906Y-2.6594
X5.5906Y-2.685
X5.5906Y-2.7106
X5.5906Y-2.7362
X5.5906Y-4.1929
X5.6024Y-2.7913
X5.6457Y-3.2205
X5.6894Y-4.4094
X5.7165Y-2.7913
X5.7244Y-2.0925
X5.7441Y-3.9016
X5.7598Y-2.8465
X5.7598Y-4.0906
X5.8071Y-3.0502
X5.8189Y-4.0906
X5.8228Y-2.9449
X5.8583Y-2.1811
X5.8701Y-2.9449
X5.878Y-4.0906
X5.9016Y-4.4449
X5.937Y-3.3484
X5.9409Y-3.5433
X6.0492Y-3.374
X6.0533Y-2.2775
X6.0807Y-2.3209
X6.1083Y-2.6969
X6.126Y-2.9567
X6.1417Y-2.0
X6.1417Y-2.0256
X6.1417Y-2.0512
X6.1417Y-2.0768
X6.1417Y-2.1024
X6.1811Y-2.0
X6.1811Y-2.0256
X6.1811Y-2.0512
X6.1811Y-2.0768
X6.1811Y-2.1024
X6.2126Y-3.1024
X6.2126Y-3.1339
X6.2146Y-2.372
X6.2205Y-2.0
X6.2205Y-2.0256
X6.2205Y-2.0512
X6.2205Y-2.0768
X6.2205Y-2.1024
X6.2598Y-2.0
X6.2598Y-2.0256
X6.2598Y-2.0512
X6.2598Y-2.0768
X6.2598Y-2.1024
X6.2598Y-2.2283
X6.2835Y-2.8642
X6.2992Y-2.0
X6.2992Y-2.0256
X6.2992Y-2.0512
X6.2992Y-2.0768
X6.2992Y-2.1024
X6.3386Y-2.0
X6.3386Y-2.0256
X6.3386Y-2.0512
X6.3386Y-2.0768
X6.3386Y-2.1024
X6.3681Y-4.0098
X6.374Y-3.252
X6.4646Y-3.1339
X6.4685Y-2.9646
T2
X5.3465Y-3.5394
X5.5984Y-3.5443
X6.5748Y-3.5433
T3
X4.0335Y-3.6988
X4.128Y-3.6988
X4.626Y-3.1142
X4.7559Y-2.6339
X4.8425Y-3.4488
X4.8858Y-3.5866
X5.189Y-2.5512
X5.4075Y-3.2717
X5.4306Y-2.5906
X5.4882Y-3.2717
X5.7224Y-3.6673
X5.8031Y-3.6673
X6.5669Y-3.3406
T5
X4.4272Y-2.2815
T6
X4.4039Y-3.8031
X4.5039Y-3.8031
X4.6039Y-3.8031
X5.3039Y-3.7283
X5.4039Y-3.7283
X5.5039Y-3.7283
X6.0319Y-3.8622
X6.1319Y-3.8622
X6.2319Y-3.8622
X6.3319Y-3.8622
T7
X4.0551Y-2.126
X4.0551Y-4.3701
X6.4961Y-2.126
X6.4961Y-4.3701
T8
X4.3701Y-4.3307
X6.1811Y-4.3307
T4
G00X3.976Y-2.2984
M15
G01X3.9524Y-2.2984
M16
G05
G00X3.976Y-2.6386
M15
G01X3.9524Y-2.6386
M16
G05
G00X4.1504Y-2.2984
M15
G01X4.1071Y-2.2984
M16
G05
G00X4.1504Y-2.6386
M15
G01X4.1071Y-2.6386
M16
G05
M30
