%TF.GenerationSoftware,KiCad,Pcbnew,9.0.4*%
%TF.CreationDate,2025-12-21T11:21:01-08:00*%
%TF.ProjectId,wind board,77696e64-2062-46f6-9172-642e6b696361,rev?*%
%TF.SameCoordinates,Original*%
%TF.FileFunction,Copper,L2,Bot*%
%TF.FilePolarity,Positive*%
%FSLAX46Y46*%
G04 Gerber Fmt 4.6, Leading zero omitted, Abs format (unit mm)*
G04 Created by KiCad (PCBNEW 9.0.4) date 2025-12-21 11:21:01*
%MOMM*%
%LPD*%
G01*
G04 APERTURE LIST*
%TA.AperFunction,ComponentPad*%
%ADD10R,1.000000X1.000000*%
%TD*%
%TA.AperFunction,ComponentPad*%
%ADD11C,3.600000*%
%TD*%
%TA.AperFunction,ConnectorPad*%
%ADD12C,5.700000*%
%TD*%
%TA.AperFunction,ComponentPad*%
%ADD13C,4.700000*%
%TD*%
%TA.AperFunction,ConnectorPad*%
%ADD14C,7.600000*%
%TD*%
%TA.AperFunction,ComponentPad*%
%ADD15R,1.700000X1.700000*%
%TD*%
%TA.AperFunction,ComponentPad*%
%ADD16C,1.700000*%
%TD*%
%TA.AperFunction,HeatsinkPad*%
%ADD17O,2.100000X1.000000*%
%TD*%
%TA.AperFunction,HeatsinkPad*%
%ADD18O,1.600000X1.000000*%
%TD*%
%TA.AperFunction,ViaPad*%
%ADD19C,0.600000*%
%TD*%
%TA.AperFunction,ViaPad*%
%ADD20C,1.000000*%
%TD*%
%TA.AperFunction,Conductor*%
%ADD21C,0.400000*%
%TD*%
%TA.AperFunction,Conductor*%
%ADD22C,0.350000*%
%TD*%
%TA.AperFunction,Conductor*%
%ADD23C,1.000000*%
%TD*%
%TA.AperFunction,Conductor*%
%ADD24C,0.200000*%
%TD*%
%TA.AperFunction,Conductor*%
%ADD25C,0.250000*%
%TD*%
G04 APERTURE END LIST*
D10*
%TO.P,TP1,1,1*%
%TO.N,+5V*%
X166800000Y-84850000D03*
%TD*%
D11*
%TO.P,REF\u002A\u002A,1*%
%TO.N,~*%
X103000000Y-111000000D03*
D12*
X103000000Y-111000000D03*
%TD*%
D13*
%TO.P,J4,1,Pin_1*%
%TO.N,~*%
X111000000Y-110000000D03*
D14*
X111000000Y-110000000D03*
%TD*%
D10*
%TO.P,TP7,1,1*%
%TO.N,Net-(U1-DP1+)*%
X139400000Y-83100000D03*
%TD*%
%TO.P,TP5,1,1*%
%TO.N,Net-(U1-DM2-)*%
X137937500Y-65800000D03*
%TD*%
%TO.P,TP14,1,1*%
%TO.N,/DM3-*%
X120800000Y-66900000D03*
%TD*%
%TO.P,TP10,1,1*%
%TO.N,Net-(U3-TXD)*%
X145350000Y-93150000D03*
%TD*%
%TO.P,TP13,1,1*%
%TO.N,Net-(U7-RXD)*%
X104850000Y-93950000D03*
%TD*%
D15*
%TO.P,J3,1,Pin_1*%
%TO.N,/WG_+12V*%
X153210000Y-98100000D03*
D16*
%TO.P,J3,2,Pin_2*%
%TO.N,~*%
X155750000Y-98100000D03*
%TO.P,J3,3,Pin_3*%
%TO.N,Net-(J3-Pin_3)*%
X158290000Y-98100000D03*
%TO.P,J3,4,Pin_4*%
%TO.N,~*%
X160830000Y-98100000D03*
%TD*%
D10*
%TO.P,TP8,1,1*%
%TO.N,Net-(U2-TXD)*%
X124100000Y-91100000D03*
%TD*%
D17*
%TO.P,J1,S1,SHIELD*%
%TO.N,~*%
X104870000Y-58380000D03*
D18*
X100690000Y-58380000D03*
D17*
X104870000Y-67020000D03*
D18*
X100690000Y-67020000D03*
%TD*%
D10*
%TO.P,TP15,1,1*%
%TO.N,/DM3+*%
X117500000Y-79100000D03*
%TD*%
%TO.P,TP12,1,1*%
%TO.N,Net-(U7-TXD)*%
X102450000Y-93950000D03*
%TD*%
%TO.P,TP4,1,1*%
%TO.N,Net-(U1-DP2+)*%
X131800000Y-64800000D03*
%TD*%
D11*
%TO.P,REF\u002A\u002A,1*%
%TO.N,~*%
X103000000Y-54000000D03*
D12*
X103000000Y-54000000D03*
%TD*%
D10*
%TO.P,TP9,1,1*%
%TO.N,Net-(U2-RXD)*%
X123000000Y-87600000D03*
%TD*%
D11*
%TO.P,REF\u002A\u002A,1*%
%TO.N,~*%
X165000000Y-54000000D03*
D12*
X165000000Y-54000000D03*
%TD*%
D11*
%TO.P,REF\u002A\u002A,1*%
%TO.N,~*%
X165000000Y-111000000D03*
D12*
X165000000Y-111000000D03*
%TD*%
D10*
%TO.P,TP6,1,1*%
%TO.N,Net-(U1-DM1-)*%
X137350000Y-83100000D03*
%TD*%
D15*
%TO.P,J2,1,Pin_1*%
%TO.N,Net-(J2-Pin_1)*%
X134720000Y-94700000D03*
D16*
%TO.P,J2,2,Pin_2*%
%TO.N,~*%
X137260000Y-94700000D03*
%TO.P,J2,3,Pin_3*%
%TO.N,Net-(J2-Pin_3)*%
X139800000Y-94700000D03*
%TD*%
D13*
%TO.P,J5,1,Pin_1*%
%TO.N,Net-(J5-Pin_1)*%
X157000000Y-110000000D03*
D14*
X157000000Y-110000000D03*
%TD*%
D15*
%TO.P,J6,1,Pin_1*%
%TO.N,Net-(J6-Pin_1)*%
X111860000Y-96600000D03*
D16*
%TO.P,J6,2,Pin_2*%
%TO.N,~*%
X114400000Y-96600000D03*
%TO.P,J6,3,Pin_3*%
%TO.N,Net-(J6-Pin_3)*%
X116940000Y-96600000D03*
%TD*%
D10*
%TO.P,TP11,1,1*%
%TO.N,Net-(U3-RXD)*%
X147400000Y-93150000D03*
%TD*%
D19*
%TO.N,+5V*%
X153650000Y-85700000D03*
X120450000Y-93450000D03*
D20*
X167000000Y-90000000D03*
X135800000Y-89900000D03*
X142200000Y-90025000D03*
D19*
X150900000Y-90000000D03*
X121900000Y-71500000D03*
%TO.N,~*%
X107340000Y-59400000D03*
X102700000Y-72100000D03*
X111990000Y-100100000D03*
X158000000Y-51450000D03*
X161000000Y-51450000D03*
X159000000Y-53400000D03*
X134250000Y-55100000D03*
X159600000Y-72750000D03*
X159000000Y-52100000D03*
X156000000Y-53400000D03*
X149100000Y-74800000D03*
X155150000Y-68500000D03*
X149300000Y-103900000D03*
X129700000Y-95200000D03*
X128450000Y-54500000D03*
X155600000Y-75100000D03*
X145900000Y-99100000D03*
X157850000Y-60250000D03*
X139900000Y-81100000D03*
X142000000Y-68850000D03*
X142000000Y-67550000D03*
X142000000Y-66200000D03*
X159000000Y-50800000D03*
X150800000Y-85050000D03*
X114200000Y-79400000D03*
X146300000Y-103900000D03*
X142000000Y-65550000D03*
X125700000Y-81200000D03*
X108150000Y-89650000D03*
X142000000Y-69500000D03*
X146300000Y-72300000D03*
X164200000Y-79600000D03*
X131600000Y-103850000D03*
X142000000Y-62250000D03*
X147800000Y-103900000D03*
X160000000Y-52750000D03*
X134150000Y-64550000D03*
X145400000Y-53150000D03*
X106800000Y-73200000D03*
X137400000Y-81000000D03*
X142000000Y-64900000D03*
X133600000Y-71300000D03*
X142000000Y-62900000D03*
X156000000Y-51450000D03*
X160000000Y-51450000D03*
X142000000Y-61600000D03*
X116100000Y-70800000D03*
X142000000Y-68200000D03*
X156000000Y-52750000D03*
X142000000Y-64250000D03*
X122900000Y-73300000D03*
X158000000Y-53400000D03*
X157000000Y-51450000D03*
X161750000Y-101850000D03*
X147900000Y-74800000D03*
X160000000Y-52100000D03*
X132600000Y-103850000D03*
X130420000Y-98400000D03*
X112500000Y-67350000D03*
X128490000Y-53210000D03*
X130600000Y-103850000D03*
X160000000Y-50800000D03*
X161000000Y-52100000D03*
X161000000Y-53400000D03*
X110350000Y-57550000D03*
X149900000Y-112900000D03*
X142300000Y-70900000D03*
X143400000Y-81800000D03*
X134400000Y-76200000D03*
X118090000Y-100100000D03*
D20*
X112450000Y-57950000D03*
D19*
X164300000Y-75300000D03*
X160000000Y-53400000D03*
X142000000Y-66900000D03*
X147500000Y-77475000D03*
X158000000Y-52750000D03*
X128450000Y-55750000D03*
X159000000Y-51450000D03*
X128620000Y-98400000D03*
X159000000Y-56600000D03*
X128450000Y-57000000D03*
X122600000Y-101100000D03*
X156000000Y-52100000D03*
X157000000Y-52100000D03*
X115400000Y-75700000D03*
X142000000Y-63600000D03*
X161000000Y-52750000D03*
X157000000Y-52750000D03*
X124600000Y-101400000D03*
X117400000Y-75700000D03*
X144510000Y-112000000D03*
X157000000Y-53400000D03*
X131600000Y-110600000D03*
X139100000Y-111700000D03*
X161900000Y-82600000D03*
X129520000Y-98400000D03*
X104600000Y-81200000D03*
X156000000Y-50800000D03*
X158000000Y-52100000D03*
X153752696Y-57847304D03*
X157000000Y-50800000D03*
X107340000Y-66000000D03*
X145200000Y-70900000D03*
X159000000Y-52750000D03*
X161000000Y-50800000D03*
X158000000Y-50800000D03*
X128500000Y-64550000D03*
X130625000Y-89675000D03*
%TO.N,Net-(U1-DP1+)*%
X157800000Y-79600000D03*
X141200000Y-79600000D03*
%TO.N,Net-(U1-DM1-)*%
X157800000Y-78799997D03*
X138600000Y-78800000D03*
%TO.N,Net-(U4-C1+)*%
X131280000Y-81740000D03*
X131280000Y-83080000D03*
%TO.N,Net-(U1-DP2+)*%
X131800000Y-67817500D03*
X131800000Y-66817500D03*
%TO.N,Net-(C28-Pad1)*%
X135000000Y-109000000D03*
X142000000Y-106500000D03*
%TO.N,Net-(U8-C1+)*%
X111303005Y-82075000D03*
X111300000Y-83300000D03*
%TO.N,Net-(D7-K)*%
X110750000Y-73950000D03*
X110750000Y-75150000D03*
%TO.N,Net-(D8-K)*%
X109900000Y-73950000D03*
X109900000Y-75150000D03*
%TO.N,+3V3*%
X154450000Y-58950000D03*
X148800000Y-55400000D03*
%TO.N,/USB_C_PD/CC2*%
X116000000Y-60550000D03*
X115900000Y-64850000D03*
%TD*%
D21*
%TO.N,+5V*%
X120450000Y-72950000D02*
X120450000Y-93450000D01*
D22*
X121900000Y-71500000D02*
X120450000Y-72950000D01*
D23*
X153650000Y-90000000D02*
X167000000Y-90000000D01*
D24*
X153650000Y-85700000D02*
X153650000Y-90000000D01*
D23*
X135900000Y-90000000D02*
X150900000Y-90000000D01*
X135800000Y-89900000D02*
X135900000Y-90000000D01*
X150900000Y-90000000D02*
X153650000Y-90000000D01*
D24*
%TO.N,Net-(U1-DP1+)*%
X157800000Y-79600000D02*
X141200000Y-79600000D01*
%TO.N,Net-(U1-DM1-)*%
X138600003Y-78799997D02*
X138600000Y-78800000D01*
X157800000Y-78799997D02*
X144000000Y-78799997D01*
X138600003Y-78799997D02*
X144000000Y-78799997D01*
%TO.N,Net-(U4-C1+)*%
X131280000Y-83080000D02*
X131280000Y-81740000D01*
%TO.N,Net-(U1-DP2+)*%
X131800000Y-67817500D02*
X131800000Y-66817500D01*
D22*
%TO.N,Net-(C28-Pad1)*%
X137500000Y-106500000D02*
X135000000Y-109000000D01*
X142000000Y-106500000D02*
X137500000Y-106500000D01*
D24*
%TO.N,Net-(U8-C1+)*%
X111300000Y-83300000D02*
X111300000Y-82078005D01*
X111300000Y-82078005D02*
X111303005Y-82075000D01*
%TO.N,Net-(D7-K)*%
X110750000Y-75150000D02*
X110750000Y-73950000D01*
%TO.N,Net-(D8-K)*%
X109900000Y-75150000D02*
X109900000Y-73950000D01*
D25*
%TO.N,+3V3*%
X154450000Y-58950000D02*
X152350000Y-58950000D01*
X152350000Y-58950000D02*
X148800000Y-55400000D01*
D24*
%TO.N,/USB_C_PD/CC2*%
X116000000Y-64750000D02*
X115900000Y-64850000D01*
X116000000Y-60550000D02*
X116000000Y-64750000D01*
%TD*%
%TA.AperFunction,Conductor*%
%TO.N,~*%
G36*
X165528384Y-50475544D02*
G01*
X165832168Y-50491468D01*
X165845075Y-50492825D01*
X165931600Y-50506529D01*
X166142334Y-50539907D01*
X166155017Y-50542602D01*
X166445740Y-50620503D01*
X166458085Y-50624514D01*
X166739070Y-50732375D01*
X166750905Y-50737645D01*
X167019087Y-50874291D01*
X167030322Y-50880779D01*
X167282727Y-51044693D01*
X167293228Y-51052322D01*
X167527129Y-51241732D01*
X167536774Y-51250417D01*
X167749582Y-51463225D01*
X167758267Y-51472870D01*
X167947677Y-51706771D01*
X167955306Y-51717272D01*
X168119220Y-51969677D01*
X168125710Y-51980917D01*
X168262349Y-52249083D01*
X168267628Y-52260940D01*
X168375485Y-52541915D01*
X168379496Y-52554259D01*
X168457395Y-52844975D01*
X168460093Y-52857671D01*
X168507174Y-53154923D01*
X168508531Y-53167830D01*
X168524456Y-53471626D01*
X168524626Y-53478117D01*
X168524626Y-111521874D01*
X168524456Y-111528365D01*
X168508531Y-111832169D01*
X168507174Y-111845076D01*
X168460093Y-112142328D01*
X168457395Y-112155024D01*
X168379496Y-112445740D01*
X168375485Y-112458084D01*
X168267628Y-112739059D01*
X168262349Y-112750916D01*
X168125710Y-113019082D01*
X168119220Y-113030322D01*
X167955306Y-113282727D01*
X167947677Y-113293228D01*
X167758267Y-113527129D01*
X167749582Y-113536774D01*
X167536774Y-113749582D01*
X167527129Y-113758267D01*
X167293228Y-113947677D01*
X167282727Y-113955306D01*
X167030322Y-114119220D01*
X167019082Y-114125710D01*
X166750916Y-114262349D01*
X166739059Y-114267628D01*
X166458084Y-114375485D01*
X166445740Y-114379496D01*
X166155024Y-114457395D01*
X166142328Y-114460093D01*
X165845076Y-114507174D01*
X165832169Y-114508531D01*
X165528384Y-114524455D01*
X165521893Y-114524625D01*
X157466072Y-114524625D01*
X157399033Y-114504940D01*
X157353278Y-114452136D01*
X157343334Y-114382978D01*
X157372359Y-114319422D01*
X157431137Y-114281648D01*
X157455265Y-114277097D01*
X157455723Y-114277056D01*
X157561863Y-114267771D01*
X157931685Y-114202561D01*
X158294417Y-114105367D01*
X158647298Y-113976929D01*
X158987642Y-113818224D01*
X159312858Y-113630460D01*
X159620473Y-113415066D01*
X159908144Y-113173682D01*
X160173682Y-112908144D01*
X160415066Y-112620473D01*
X160630460Y-112312858D01*
X160818224Y-111987642D01*
X160976929Y-111647298D01*
X161105367Y-111294417D01*
X161202561Y-110931685D01*
X161267771Y-110561863D01*
X161300500Y-110187764D01*
X161300500Y-109812236D01*
X161267771Y-109438137D01*
X161202561Y-109068315D01*
X161135902Y-108819542D01*
X161105369Y-108705589D01*
X160976931Y-108352706D01*
X160818228Y-108012366D01*
X160818220Y-108012351D01*
X160806429Y-107991930D01*
X160630460Y-107687142D01*
X160630452Y-107687131D01*
X160630448Y-107687124D01*
X160415065Y-107379525D01*
X160243867Y-107175500D01*
X160173682Y-107091856D01*
X159908144Y-106826318D01*
X159797524Y-106733497D01*
X159620474Y-106584934D01*
X159312875Y-106369551D01*
X159312864Y-106369544D01*
X159312858Y-106369540D01*
X159216233Y-106313753D01*
X158987648Y-106181779D01*
X158987633Y-106181771D01*
X158647293Y-106023068D01*
X158294410Y-105894630D01*
X157931692Y-105797441D01*
X157931695Y-105797441D01*
X157931685Y-105797439D01*
X157879471Y-105788232D01*
X157561865Y-105732229D01*
X157187767Y-105699500D01*
X157187764Y-105699500D01*
X156812236Y-105699500D01*
X156812232Y-105699500D01*
X156438134Y-105732229D01*
X156068320Y-105797438D01*
X156068317Y-105797438D01*
X156068315Y-105797439D01*
X156068310Y-105797440D01*
X156068307Y-105797441D01*
X155705589Y-105894630D01*
X155352706Y-106023068D01*
X155012366Y-106181771D01*
X155012351Y-106181779D01*
X154687150Y-106369535D01*
X154687124Y-106369551D01*
X154379525Y-106584934D01*
X154091853Y-106826320D01*
X153826320Y-107091853D01*
X153584934Y-107379525D01*
X153369551Y-107687124D01*
X153369535Y-107687150D01*
X153181779Y-108012351D01*
X153181771Y-108012366D01*
X153023068Y-108352706D01*
X152894630Y-108705589D01*
X152797441Y-109068307D01*
X152797438Y-109068320D01*
X152732229Y-109438134D01*
X152699500Y-109812232D01*
X152699500Y-110187767D01*
X152732229Y-110561865D01*
X152797438Y-110931679D01*
X152797441Y-110931692D01*
X152894630Y-111294410D01*
X153023068Y-111647293D01*
X153181771Y-111987633D01*
X153181776Y-111987642D01*
X153369540Y-112312858D01*
X153369544Y-112312864D01*
X153369551Y-112312875D01*
X153584934Y-112620474D01*
X153759407Y-112828402D01*
X153826318Y-112908144D01*
X154091856Y-113173682D01*
X154211468Y-113274048D01*
X154379525Y-113415065D01*
X154687124Y-113630448D01*
X154687131Y-113630452D01*
X154687142Y-113630460D01*
X154893467Y-113749582D01*
X155012351Y-113818220D01*
X155012366Y-113818228D01*
X155352706Y-113976931D01*
X155616479Y-114072936D01*
X155705583Y-114105367D01*
X155705584Y-114105367D01*
X155705589Y-114105369D01*
X155819542Y-114135902D01*
X156068315Y-114202561D01*
X156438137Y-114267771D01*
X156544222Y-114277052D01*
X156544735Y-114277097D01*
X156609804Y-114302549D01*
X156650783Y-114359140D01*
X156654661Y-114428902D01*
X156620207Y-114489686D01*
X156558360Y-114522194D01*
X156533928Y-114524625D01*
X102478123Y-114524625D01*
X102471633Y-114524455D01*
X102167832Y-114508532D01*
X102154926Y-114507175D01*
X102044506Y-114489686D01*
X101857670Y-114460093D01*
X101844975Y-114457395D01*
X101554259Y-114379496D01*
X101541915Y-114375485D01*
X101260940Y-114267628D01*
X101249083Y-114262349D01*
X100980917Y-114125710D01*
X100969677Y-114119220D01*
X100717272Y-113955306D01*
X100706771Y-113947677D01*
X100472870Y-113758267D01*
X100463225Y-113749582D01*
X100250417Y-113536774D01*
X100241732Y-113527129D01*
X100052322Y-113293228D01*
X100044693Y-113282727D01*
X99880779Y-113030322D01*
X99874289Y-113019082D01*
X99817763Y-112908144D01*
X99737645Y-112750905D01*
X99732375Y-112739070D01*
X99624514Y-112458084D01*
X99620503Y-112445740D01*
X99542602Y-112155017D01*
X99539906Y-112142328D01*
X99492825Y-111845075D01*
X99491468Y-111832168D01*
X99475544Y-111528384D01*
X99475374Y-111521893D01*
X99475374Y-108921153D01*
X134199500Y-108921153D01*
X134199500Y-109078846D01*
X134230261Y-109233489D01*
X134230264Y-109233501D01*
X134290602Y-109379172D01*
X134290609Y-109379185D01*
X134378210Y-109510288D01*
X134378213Y-109510292D01*
X134489707Y-109621786D01*
X134489711Y-109621789D01*
X134620814Y-109709390D01*
X134620827Y-109709397D01*
X134766498Y-109769735D01*
X134766503Y-109769737D01*
X134921153Y-109800499D01*
X134921156Y-109800500D01*
X134921158Y-109800500D01*
X135078844Y-109800500D01*
X135078845Y-109800499D01*
X135233497Y-109769737D01*
X135379179Y-109709394D01*
X135510289Y-109621789D01*
X135621789Y-109510289D01*
X135709394Y-109379179D01*
X135769737Y-109233497D01*
X135774300Y-109210552D01*
X135806684Y-109148642D01*
X135808178Y-109147121D01*
X137743482Y-107211819D01*
X137804805Y-107178334D01*
X137831163Y-107175500D01*
X141532480Y-107175500D01*
X141599519Y-107195185D01*
X141601372Y-107196399D01*
X141620813Y-107209389D01*
X141620815Y-107209390D01*
X141620821Y-107209394D01*
X141620823Y-107209395D01*
X141620827Y-107209397D01*
X141766498Y-107269735D01*
X141766503Y-107269737D01*
X141921153Y-107300499D01*
X141921156Y-107300500D01*
X141921158Y-107300500D01*
X142078844Y-107300500D01*
X142078845Y-107300499D01*
X142233497Y-107269737D01*
X142346166Y-107223067D01*
X142379172Y-107209397D01*
X142379172Y-107209396D01*
X142379179Y-107209394D01*
X142510289Y-107121789D01*
X142621789Y-107010289D01*
X142709394Y-106879179D01*
X142769737Y-106733497D01*
X142800500Y-106578842D01*
X142800500Y-106421158D01*
X142800500Y-106421155D01*
X142800499Y-106421153D01*
X142769738Y-106266510D01*
X142769737Y-106266503D01*
X142769735Y-106266498D01*
X142709397Y-106120827D01*
X142709390Y-106120814D01*
X142621789Y-105989711D01*
X142621786Y-105989707D01*
X142510292Y-105878213D01*
X142510288Y-105878210D01*
X142379185Y-105790609D01*
X142379172Y-105790602D01*
X142233501Y-105730264D01*
X142233489Y-105730261D01*
X142078845Y-105699500D01*
X142078842Y-105699500D01*
X141921158Y-105699500D01*
X141921155Y-105699500D01*
X141766510Y-105730261D01*
X141766498Y-105730264D01*
X141620827Y-105790602D01*
X141620813Y-105790610D01*
X141601372Y-105803601D01*
X141534695Y-105824480D01*
X141532480Y-105824500D01*
X137433464Y-105824500D01*
X137302971Y-105850457D01*
X137302963Y-105850459D01*
X137180034Y-105901378D01*
X137180024Y-105901383D01*
X137069394Y-105975304D01*
X137069390Y-105975307D01*
X134852935Y-108191762D01*
X134791612Y-108225247D01*
X134789449Y-108225698D01*
X134766503Y-108230262D01*
X134766500Y-108230263D01*
X134620827Y-108290602D01*
X134620814Y-108290609D01*
X134489711Y-108378210D01*
X134489707Y-108378213D01*
X134378213Y-108489707D01*
X134378210Y-108489711D01*
X134290609Y-108620814D01*
X134290602Y-108620827D01*
X134230264Y-108766498D01*
X134230261Y-108766510D01*
X134199500Y-108921153D01*
X99475374Y-108921153D01*
X99475374Y-95702135D01*
X110509500Y-95702135D01*
X110509500Y-97497870D01*
X110509501Y-97497876D01*
X110515908Y-97557483D01*
X110566202Y-97692328D01*
X110566206Y-97692335D01*
X110652452Y-97807544D01*
X110652455Y-97807547D01*
X110767664Y-97893793D01*
X110767671Y-97893797D01*
X110902517Y-97944091D01*
X110902516Y-97944091D01*
X110909444Y-97944835D01*
X110962127Y-97950500D01*
X112757872Y-97950499D01*
X112817483Y-97944091D01*
X112952331Y-97893796D01*
X113067546Y-97807546D01*
X113153796Y-97692331D01*
X113204091Y-97557483D01*
X113210500Y-97497873D01*
X113210499Y-97473979D01*
X113213330Y-97460963D01*
X113223940Y-97441525D01*
X113230179Y-97420275D01*
X113246803Y-97399643D01*
X113246808Y-97399636D01*
X113246811Y-97399634D01*
X113246818Y-97399626D01*
X113917037Y-96729408D01*
X113934075Y-96792993D01*
X113999901Y-96907007D01*
X114092993Y-97000099D01*
X114207007Y-97065925D01*
X114270590Y-97082962D01*
X113638282Y-97715269D01*
X113638282Y-97715270D01*
X113692449Y-97754624D01*
X113881782Y-97851095D01*
X114083870Y-97916757D01*
X114293754Y-97950000D01*
X114506246Y-97950000D01*
X114716127Y-97916757D01*
X114716130Y-97916757D01*
X114918217Y-97851095D01*
X115107554Y-97754622D01*
X115161716Y-97715270D01*
X115161717Y-97715270D01*
X114529408Y-97082962D01*
X114592993Y-97065925D01*
X114707007Y-97000099D01*
X114800099Y-96907007D01*
X114865925Y-96792993D01*
X114882962Y-96729408D01*
X115515270Y-97361717D01*
X115515270Y-97361716D01*
X115554622Y-97307555D01*
X115559232Y-97298507D01*
X115607205Y-97247709D01*
X115675025Y-97230912D01*
X115741161Y-97253447D01*
X115780204Y-97298504D01*
X115784949Y-97307817D01*
X115909890Y-97479786D01*
X116060213Y-97630109D01*
X116232179Y-97755048D01*
X116232181Y-97755049D01*
X116232184Y-97755051D01*
X116421588Y-97851557D01*
X116623757Y-97917246D01*
X116833713Y-97950500D01*
X116833714Y-97950500D01*
X117046286Y-97950500D01*
X117046287Y-97950500D01*
X117256243Y-97917246D01*
X117458412Y-97851557D01*
X117647816Y-97755051D01*
X117734138Y-97692335D01*
X117819786Y-97630109D01*
X117819788Y-97630106D01*
X117819792Y-97630104D01*
X117970104Y-97479792D01*
X117970106Y-97479788D01*
X117970109Y-97479786D01*
X118095048Y-97307820D01*
X118095050Y-97307817D01*
X118095051Y-97307816D01*
X118148898Y-97202135D01*
X151859500Y-97202135D01*
X151859500Y-98997870D01*
X151859501Y-98997876D01*
X151865908Y-99057483D01*
X151916202Y-99192328D01*
X151916206Y-99192335D01*
X152002452Y-99307544D01*
X152002455Y-99307547D01*
X152117664Y-99393793D01*
X152117671Y-99393797D01*
X152252517Y-99444091D01*
X152252516Y-99444091D01*
X152259444Y-99444835D01*
X152312127Y-99450500D01*
X154107872Y-99450499D01*
X154167483Y-99444091D01*
X154302331Y-99393796D01*
X154417546Y-99307546D01*
X154503796Y-99192331D01*
X154554091Y-99057483D01*
X154560500Y-98997873D01*
X154560499Y-98973979D01*
X154563330Y-98960963D01*
X154573940Y-98941525D01*
X154580179Y-98920275D01*
X154596803Y-98899643D01*
X154596808Y-98899636D01*
X154596811Y-98899634D01*
X154596818Y-98899626D01*
X155267036Y-98229407D01*
X155284075Y-98292993D01*
X155349901Y-98407007D01*
X155442993Y-98500099D01*
X155557007Y-98565925D01*
X155620590Y-98582962D01*
X154988282Y-99215269D01*
X154988282Y-99215270D01*
X155042449Y-99254624D01*
X155231782Y-99351095D01*
X155433870Y-99416757D01*
X155643754Y-99450000D01*
X155856246Y-99450000D01*
X156066127Y-99416757D01*
X156066130Y-99416757D01*
X156268217Y-99351095D01*
X156457554Y-99254622D01*
X156511716Y-99215270D01*
X156511717Y-99215270D01*
X155879408Y-98582962D01*
X155942993Y-98565925D01*
X156057007Y-98500099D01*
X156150099Y-98407007D01*
X156215925Y-98292993D01*
X156232962Y-98229409D01*
X156865270Y-98861717D01*
X156865270Y-98861716D01*
X156904622Y-98807555D01*
X156909232Y-98798507D01*
X156957205Y-98747709D01*
X157025025Y-98730912D01*
X157091161Y-98753447D01*
X157130204Y-98798504D01*
X157134949Y-98807817D01*
X157259890Y-98979786D01*
X157410213Y-99130109D01*
X157582179Y-99255048D01*
X157582181Y-99255049D01*
X157582184Y-99255051D01*
X157771588Y-99351557D01*
X157973757Y-99417246D01*
X158183713Y-99450500D01*
X158183714Y-99450500D01*
X158396286Y-99450500D01*
X158396287Y-99450500D01*
X158606243Y-99417246D01*
X158808412Y-99351557D01*
X158997816Y-99255051D01*
X159084138Y-99192335D01*
X159169786Y-99130109D01*
X159169788Y-99130106D01*
X159169792Y-99130104D01*
X159320104Y-98979792D01*
X159320106Y-98979788D01*
X159320109Y-98979786D01*
X159405890Y-98861717D01*
X159445051Y-98807816D01*
X159449793Y-98798508D01*
X159497763Y-98747711D01*
X159565583Y-98730911D01*
X159631719Y-98753445D01*
X159670763Y-98798500D01*
X159675373Y-98807547D01*
X159714728Y-98861716D01*
X160347037Y-98229408D01*
X160364075Y-98292993D01*
X160429901Y-98407007D01*
X160522993Y-98500099D01*
X160637007Y-98565925D01*
X160700590Y-98582962D01*
X160068282Y-99215269D01*
X160068282Y-99215270D01*
X160122449Y-99254624D01*
X160311782Y-99351095D01*
X160513870Y-99416757D01*
X160723754Y-99450000D01*
X160936246Y-99450000D01*
X161146127Y-99416757D01*
X161146130Y-99416757D01*
X161348217Y-99351095D01*
X161537554Y-99254622D01*
X161591716Y-99215270D01*
X161591717Y-99215270D01*
X160959408Y-98582962D01*
X161022993Y-98565925D01*
X161137007Y-98500099D01*
X161230099Y-98407007D01*
X161295925Y-98292993D01*
X161312962Y-98229408D01*
X161945270Y-98861717D01*
X161945270Y-98861716D01*
X161984622Y-98807554D01*
X162081095Y-98618217D01*
X162146757Y-98416130D01*
X162146757Y-98416127D01*
X162180000Y-98206246D01*
X162180000Y-97993753D01*
X162146757Y-97783872D01*
X162146757Y-97783869D01*
X162081095Y-97581782D01*
X161984624Y-97392449D01*
X161945270Y-97338282D01*
X161945269Y-97338282D01*
X161312962Y-97970590D01*
X161295925Y-97907007D01*
X161230099Y-97792993D01*
X161137007Y-97699901D01*
X161022993Y-97634075D01*
X160959409Y-97617037D01*
X161591716Y-96984728D01*
X161537550Y-96945375D01*
X161348217Y-96848904D01*
X161146129Y-96783242D01*
X160936246Y-96750000D01*
X160723754Y-96750000D01*
X160513872Y-96783242D01*
X160513869Y-96783242D01*
X160311782Y-96848904D01*
X160122439Y-96945380D01*
X160068282Y-96984727D01*
X160068282Y-96984728D01*
X160700591Y-97617037D01*
X160637007Y-97634075D01*
X160522993Y-97699901D01*
X160429901Y-97792993D01*
X160364075Y-97907007D01*
X160347037Y-97970591D01*
X159714728Y-97338282D01*
X159714727Y-97338282D01*
X159675380Y-97392440D01*
X159675376Y-97392446D01*
X159670760Y-97401505D01*
X159622781Y-97452297D01*
X159554959Y-97469087D01*
X159488826Y-97446543D01*
X159449794Y-97401493D01*
X159445051Y-97392184D01*
X159445049Y-97392181D01*
X159445048Y-97392179D01*
X159320109Y-97220213D01*
X159169786Y-97069890D01*
X158997820Y-96944951D01*
X158808414Y-96848444D01*
X158808413Y-96848443D01*
X158808412Y-96848443D01*
X158606243Y-96782754D01*
X158606241Y-96782753D01*
X158606240Y-96782753D01*
X158444957Y-96757208D01*
X158396287Y-96749500D01*
X158183713Y-96749500D01*
X158135042Y-96757208D01*
X157973760Y-96782753D01*
X157771585Y-96848444D01*
X157582179Y-96944951D01*
X157410213Y-97069890D01*
X157259890Y-97220213D01*
X157134949Y-97392182D01*
X157130202Y-97401499D01*
X157082227Y-97452293D01*
X157014405Y-97469087D01*
X156948271Y-97446548D01*
X156909234Y-97401495D01*
X156904626Y-97392452D01*
X156865270Y-97338282D01*
X156865269Y-97338282D01*
X156232962Y-97970590D01*
X156215925Y-97907007D01*
X156150099Y-97792993D01*
X156057007Y-97699901D01*
X155942993Y-97634075D01*
X155879409Y-97617037D01*
X156511716Y-96984728D01*
X156457550Y-96945375D01*
X156268217Y-96848904D01*
X156066129Y-96783242D01*
X155856246Y-96750000D01*
X155643754Y-96750000D01*
X155433872Y-96783242D01*
X155433869Y-96783242D01*
X155231782Y-96848904D01*
X155042439Y-96945380D01*
X154988282Y-96984727D01*
X154988282Y-96984728D01*
X155620591Y-97617037D01*
X155557007Y-97634075D01*
X155442993Y-97699901D01*
X155349901Y-97792993D01*
X155284075Y-97907007D01*
X155267037Y-97970591D01*
X154596818Y-97300372D01*
X154563333Y-97239049D01*
X154563330Y-97239036D01*
X154560499Y-97226015D01*
X154560499Y-97202128D01*
X154554091Y-97142517D01*
X154525524Y-97065925D01*
X154503798Y-97007673D01*
X154503793Y-97007664D01*
X154417547Y-96892455D01*
X154417544Y-96892452D01*
X154302335Y-96806206D01*
X154302328Y-96806202D01*
X154167482Y-96755908D01*
X154167483Y-96755908D01*
X154107883Y-96749501D01*
X154107881Y-96749500D01*
X154107873Y-96749500D01*
X154107864Y-96749500D01*
X152312129Y-96749500D01*
X152312123Y-96749501D01*
X152252516Y-96755908D01*
X152117671Y-96806202D01*
X152117664Y-96806206D01*
X152002455Y-96892452D01*
X152002452Y-96892455D01*
X151916206Y-97007664D01*
X151916202Y-97007671D01*
X151865908Y-97142517D01*
X151859501Y-97202116D01*
X151859500Y-97202135D01*
X118148898Y-97202135D01*
X118191557Y-97118412D01*
X118257246Y-96916243D01*
X118290500Y-96706287D01*
X118290500Y-96493713D01*
X118257246Y-96283757D01*
X118191557Y-96081588D01*
X118095051Y-95892184D01*
X118095049Y-95892181D01*
X118095048Y-95892179D01*
X117970109Y-95720213D01*
X117819786Y-95569890D01*
X117647820Y-95444951D01*
X117458414Y-95348444D01*
X117458413Y-95348443D01*
X117458412Y-95348443D01*
X117256243Y-95282754D01*
X117256241Y-95282753D01*
X117256240Y-95282753D01*
X117094957Y-95257208D01*
X117046287Y-95249500D01*
X116833713Y-95249500D01*
X116785042Y-95257208D01*
X116623760Y-95282753D01*
X116421585Y-95348444D01*
X116232179Y-95444951D01*
X116060213Y-95569890D01*
X115909890Y-95720213D01*
X115784949Y-95892182D01*
X115780202Y-95901499D01*
X115732227Y-95952293D01*
X115664405Y-95969087D01*
X115598271Y-95946548D01*
X115559234Y-95901495D01*
X115554626Y-95892452D01*
X115515270Y-95838282D01*
X115515269Y-95838282D01*
X114882962Y-96470590D01*
X114865925Y-96407007D01*
X114800099Y-96292993D01*
X114707007Y-96199901D01*
X114592993Y-96134075D01*
X114529409Y-96117037D01*
X115161716Y-95484728D01*
X115107550Y-95445375D01*
X114918217Y-95348904D01*
X114716129Y-95283242D01*
X114506246Y-95250000D01*
X114293754Y-95250000D01*
X114083872Y-95283242D01*
X114083869Y-95283242D01*
X113881782Y-95348904D01*
X113692439Y-95445380D01*
X113638282Y-95484727D01*
X113638282Y-95484728D01*
X114270591Y-96117037D01*
X114207007Y-96134075D01*
X114092993Y-96199901D01*
X113999901Y-96292993D01*
X113934075Y-96407007D01*
X113917037Y-96470591D01*
X113246818Y-95800372D01*
X113213333Y-95739049D01*
X113213330Y-95739036D01*
X113210499Y-95726015D01*
X113210499Y-95702128D01*
X113204091Y-95642517D01*
X113175926Y-95567002D01*
X113153798Y-95507673D01*
X113153793Y-95507664D01*
X113067547Y-95392455D01*
X113067544Y-95392452D01*
X112952335Y-95306206D01*
X112952328Y-95306202D01*
X112817482Y-95255908D01*
X112817483Y-95255908D01*
X112757883Y-95249501D01*
X112757881Y-95249500D01*
X112757873Y-95249500D01*
X112757864Y-95249500D01*
X110962129Y-95249500D01*
X110962123Y-95249501D01*
X110902516Y-95255908D01*
X110767671Y-95306202D01*
X110767664Y-95306206D01*
X110652455Y-95392452D01*
X110652452Y-95392455D01*
X110566206Y-95507664D01*
X110566202Y-95507671D01*
X110515908Y-95642517D01*
X110509501Y-95702116D01*
X110509500Y-95702135D01*
X99475374Y-95702135D01*
X99475374Y-93402135D01*
X101449500Y-93402135D01*
X101449500Y-94497870D01*
X101449501Y-94497876D01*
X101455908Y-94557483D01*
X101506202Y-94692328D01*
X101506206Y-94692335D01*
X101592452Y-94807544D01*
X101592455Y-94807547D01*
X101707664Y-94893793D01*
X101707671Y-94893797D01*
X101842517Y-94944091D01*
X101842516Y-94944091D01*
X101849444Y-94944835D01*
X101902127Y-94950500D01*
X102997872Y-94950499D01*
X103057483Y-94944091D01*
X103192331Y-94893796D01*
X103307546Y-94807546D01*
X103393796Y-94692331D01*
X103444091Y-94557483D01*
X103450500Y-94497873D01*
X103450499Y-93402135D01*
X103849500Y-93402135D01*
X103849500Y-94497870D01*
X103849501Y-94497876D01*
X103855908Y-94557483D01*
X103906202Y-94692328D01*
X103906206Y-94692335D01*
X103992452Y-94807544D01*
X103992455Y-94807547D01*
X104107664Y-94893793D01*
X104107671Y-94893797D01*
X104242517Y-94944091D01*
X104242516Y-94944091D01*
X104249444Y-94944835D01*
X104302127Y-94950500D01*
X105397872Y-94950499D01*
X105457483Y-94944091D01*
X105592331Y-94893796D01*
X105707546Y-94807546D01*
X105793796Y-94692331D01*
X105844091Y-94557483D01*
X105850500Y-94497873D01*
X105850499Y-93402128D01*
X105848469Y-93383242D01*
X105847940Y-93378318D01*
X105847169Y-93371153D01*
X119649500Y-93371153D01*
X119649500Y-93528846D01*
X119680261Y-93683489D01*
X119680264Y-93683501D01*
X119740602Y-93829172D01*
X119740609Y-93829185D01*
X119828210Y-93960288D01*
X119828213Y-93960292D01*
X119939707Y-94071786D01*
X119939711Y-94071789D01*
X120070814Y-94159390D01*
X120070827Y-94159397D01*
X120124402Y-94181588D01*
X120216503Y-94219737D01*
X120371153Y-94250499D01*
X120371156Y-94250500D01*
X120371158Y-94250500D01*
X120528844Y-94250500D01*
X120528845Y-94250499D01*
X120683497Y-94219737D01*
X120829179Y-94159394D01*
X120960289Y-94071789D01*
X121071789Y-93960289D01*
X121159394Y-93829179D01*
X121159395Y-93829176D01*
X121159397Y-93829173D01*
X121170596Y-93802135D01*
X133369500Y-93802135D01*
X133369500Y-95597870D01*
X133369501Y-95597876D01*
X133375908Y-95657483D01*
X133426202Y-95792328D01*
X133426206Y-95792335D01*
X133512452Y-95907544D01*
X133512455Y-95907547D01*
X133627664Y-95993793D01*
X133627671Y-95993797D01*
X133762517Y-96044091D01*
X133762516Y-96044091D01*
X133769444Y-96044835D01*
X133822127Y-96050500D01*
X135617872Y-96050499D01*
X135677483Y-96044091D01*
X135812331Y-95993796D01*
X135927546Y-95907546D01*
X136013796Y-95792331D01*
X136064091Y-95657483D01*
X136070500Y-95597873D01*
X136070499Y-95573979D01*
X136073330Y-95560963D01*
X136083940Y-95541525D01*
X136090179Y-95520275D01*
X136106803Y-95499643D01*
X136106808Y-95499636D01*
X136106811Y-95499634D01*
X136106818Y-95499626D01*
X136777037Y-94829408D01*
X136794075Y-94892993D01*
X136859901Y-95007007D01*
X136952993Y-95100099D01*
X137067007Y-95165925D01*
X137130590Y-95182962D01*
X136498282Y-95815269D01*
X136498282Y-95815270D01*
X136552449Y-95854624D01*
X136741782Y-95951095D01*
X136943870Y-96016757D01*
X137153754Y-96050000D01*
X137366246Y-96050000D01*
X137576127Y-96016757D01*
X137576130Y-96016757D01*
X137778217Y-95951095D01*
X137967554Y-95854622D01*
X138021716Y-95815270D01*
X138021717Y-95815270D01*
X137389408Y-95182962D01*
X137452993Y-95165925D01*
X137567007Y-95100099D01*
X137660099Y-95007007D01*
X137725925Y-94892993D01*
X137742962Y-94829408D01*
X138375270Y-95461717D01*
X138375270Y-95461716D01*
X138414622Y-95407555D01*
X138419232Y-95398507D01*
X138467205Y-95347709D01*
X138535025Y-95330912D01*
X138601161Y-95353447D01*
X138640204Y-95398504D01*
X138644949Y-95407817D01*
X138769890Y-95579786D01*
X138920213Y-95730109D01*
X139092179Y-95855048D01*
X139092181Y-95855049D01*
X139092184Y-95855051D01*
X139281588Y-95951557D01*
X139483757Y-96017246D01*
X139693713Y-96050500D01*
X139693714Y-96050500D01*
X139906286Y-96050500D01*
X139906287Y-96050500D01*
X140116243Y-96017246D01*
X140318412Y-95951557D01*
X140507816Y-95855051D01*
X140594138Y-95792335D01*
X140679786Y-95730109D01*
X140679788Y-95730106D01*
X140679792Y-95730104D01*
X140830104Y-95579792D01*
X140830106Y-95579788D01*
X140830109Y-95579786D01*
X140955048Y-95407820D01*
X140955050Y-95407817D01*
X140955051Y-95407816D01*
X141051557Y-95218412D01*
X141117246Y-95016243D01*
X141150500Y-94806287D01*
X141150500Y-94593713D01*
X141117246Y-94383757D01*
X141051557Y-94181588D01*
X140955051Y-93992184D01*
X140955049Y-93992181D01*
X140955048Y-93992179D01*
X140830109Y-93820213D01*
X140679786Y-93669890D01*
X140507820Y-93544951D01*
X140318414Y-93448444D01*
X140318413Y-93448443D01*
X140318412Y-93448443D01*
X140116243Y-93382754D01*
X140116241Y-93382753D01*
X140116240Y-93382753D01*
X139954957Y-93357208D01*
X139906287Y-93349500D01*
X139693713Y-93349500D01*
X139645042Y-93357208D01*
X139483760Y-93382753D01*
X139281585Y-93448444D01*
X139092179Y-93544951D01*
X138920213Y-93669890D01*
X138769890Y-93820213D01*
X138644949Y-93992182D01*
X138640202Y-94001499D01*
X138592227Y-94052293D01*
X138524405Y-94069087D01*
X138458271Y-94046548D01*
X138419234Y-94001495D01*
X138414626Y-93992452D01*
X138375270Y-93938282D01*
X138375269Y-93938282D01*
X137742962Y-94570590D01*
X137725925Y-94507007D01*
X137660099Y-94392993D01*
X137567007Y-94299901D01*
X137452993Y-94234075D01*
X137389409Y-94217037D01*
X138021716Y-93584728D01*
X137967550Y-93545375D01*
X137778217Y-93448904D01*
X137576129Y-93383242D01*
X137366246Y-93350000D01*
X137153754Y-93350000D01*
X136943872Y-93383242D01*
X136943869Y-93383242D01*
X136741782Y-93448904D01*
X136552439Y-93545380D01*
X136498282Y-93584727D01*
X136498282Y-93584728D01*
X137130591Y-94217037D01*
X137067007Y-94234075D01*
X136952993Y-94299901D01*
X136859901Y-94392993D01*
X136794075Y-94507007D01*
X136777037Y-94570591D01*
X136106818Y-93900372D01*
X136073333Y-93839049D01*
X136073330Y-93839036D01*
X136070499Y-93826015D01*
X136070499Y-93802128D01*
X136064091Y-93742517D01*
X136035926Y-93667002D01*
X136013798Y-93607673D01*
X136013793Y-93607664D01*
X135927547Y-93492455D01*
X135927544Y-93492452D01*
X135812335Y-93406206D01*
X135812328Y-93406202D01*
X135677482Y-93355908D01*
X135677483Y-93355908D01*
X135617883Y-93349501D01*
X135617881Y-93349500D01*
X135617873Y-93349500D01*
X135617864Y-93349500D01*
X133822129Y-93349500D01*
X133822123Y-93349501D01*
X133762516Y-93355908D01*
X133627671Y-93406202D01*
X133627664Y-93406206D01*
X133512455Y-93492452D01*
X133512452Y-93492455D01*
X133426206Y-93607664D01*
X133426202Y-93607671D01*
X133375908Y-93742517D01*
X133369501Y-93802116D01*
X133369500Y-93802135D01*
X121170596Y-93802135D01*
X121191630Y-93751354D01*
X121191630Y-93751353D01*
X121195290Y-93742517D01*
X121219737Y-93683497D01*
X121250500Y-93528842D01*
X121250500Y-93371158D01*
X121250500Y-93371155D01*
X121250499Y-93371153D01*
X121219738Y-93216510D01*
X121219737Y-93216503D01*
X121159939Y-93072136D01*
X121150500Y-93024684D01*
X121150500Y-92602135D01*
X144349500Y-92602135D01*
X144349500Y-93697870D01*
X144349501Y-93697876D01*
X144355908Y-93757483D01*
X144406202Y-93892328D01*
X144406206Y-93892335D01*
X144492452Y-94007544D01*
X144492455Y-94007547D01*
X144607664Y-94093793D01*
X144607671Y-94093797D01*
X144742517Y-94144091D01*
X144742516Y-94144091D01*
X144749444Y-94144835D01*
X144802127Y-94150500D01*
X145897872Y-94150499D01*
X145957483Y-94144091D01*
X146092331Y-94093796D01*
X146207546Y-94007546D01*
X146275734Y-93916457D01*
X146331667Y-93874588D01*
X146401359Y-93869604D01*
X146462682Y-93903089D01*
X146474261Y-93916452D01*
X146542454Y-94007546D01*
X146588643Y-94042123D01*
X146657664Y-94093793D01*
X146657671Y-94093797D01*
X146792517Y-94144091D01*
X146792516Y-94144091D01*
X146799444Y-94144835D01*
X146852127Y-94150500D01*
X147947872Y-94150499D01*
X148007483Y-94144091D01*
X148142331Y-94093796D01*
X148257546Y-94007546D01*
X148343796Y-93892331D01*
X148394091Y-93757483D01*
X148400500Y-93697873D01*
X148400499Y-92602128D01*
X148394091Y-92542517D01*
X148352272Y-92430395D01*
X148343797Y-92407671D01*
X148343793Y-92407664D01*
X148257547Y-92292455D01*
X148257544Y-92292452D01*
X148142335Y-92206206D01*
X148142328Y-92206202D01*
X148007482Y-92155908D01*
X148007483Y-92155908D01*
X147947883Y-92149501D01*
X147947881Y-92149500D01*
X147947873Y-92149500D01*
X147947864Y-92149500D01*
X146852129Y-92149500D01*
X146852123Y-92149501D01*
X146792516Y-92155908D01*
X146657671Y-92206202D01*
X146657664Y-92206206D01*
X146542455Y-92292452D01*
X146542452Y-92292455D01*
X146474266Y-92383540D01*
X146418332Y-92425411D01*
X146348641Y-92430395D01*
X146287318Y-92396909D01*
X146275734Y-92383540D01*
X146207547Y-92292455D01*
X146207544Y-92292452D01*
X146092335Y-92206206D01*
X146092328Y-92206202D01*
X145957482Y-92155908D01*
X145957483Y-92155908D01*
X145897883Y-92149501D01*
X145897881Y-92149500D01*
X145897873Y-92149500D01*
X145897864Y-92149500D01*
X144802129Y-92149500D01*
X144802123Y-92149501D01*
X144742516Y-92155908D01*
X144607671Y-92206202D01*
X144607664Y-92206206D01*
X144492455Y-92292452D01*
X144492452Y-92292455D01*
X144406206Y-92407664D01*
X144406202Y-92407671D01*
X144355908Y-92542517D01*
X144349501Y-92602116D01*
X144349501Y-92602123D01*
X144349500Y-92602135D01*
X121150500Y-92602135D01*
X121150500Y-90552135D01*
X123099500Y-90552135D01*
X123099500Y-91647870D01*
X123099501Y-91647876D01*
X123105908Y-91707483D01*
X123156202Y-91842328D01*
X123156206Y-91842335D01*
X123242452Y-91957544D01*
X123242455Y-91957547D01*
X123357664Y-92043793D01*
X123357671Y-92043797D01*
X123492517Y-92094091D01*
X123492516Y-92094091D01*
X123499444Y-92094835D01*
X123552127Y-92100500D01*
X124647872Y-92100499D01*
X124707483Y-92094091D01*
X124842331Y-92043796D01*
X124957546Y-91957546D01*
X125043796Y-91842331D01*
X125094091Y-91707483D01*
X125100500Y-91647873D01*
X125100499Y-90552128D01*
X125094091Y-90492517D01*
X125049852Y-90373907D01*
X125043797Y-90357671D01*
X125043793Y-90357664D01*
X124957547Y-90242455D01*
X124957544Y-90242452D01*
X124842335Y-90156206D01*
X124842328Y-90156202D01*
X124707482Y-90105908D01*
X124707483Y-90105908D01*
X124647883Y-90099501D01*
X124647881Y-90099500D01*
X124647873Y-90099500D01*
X124647864Y-90099500D01*
X123552129Y-90099500D01*
X123552123Y-90099501D01*
X123492516Y-90105908D01*
X123357671Y-90156202D01*
X123357664Y-90156206D01*
X123242455Y-90242452D01*
X123242452Y-90242455D01*
X123156206Y-90357664D01*
X123156202Y-90357671D01*
X123105908Y-90492517D01*
X123101042Y-90537782D01*
X123099501Y-90552123D01*
X123099500Y-90552135D01*
X121150500Y-90552135D01*
X121150500Y-89998543D01*
X134799499Y-89998543D01*
X134837947Y-90191829D01*
X134837950Y-90191839D01*
X134913364Y-90373907D01*
X134913371Y-90373920D01*
X135022859Y-90537780D01*
X135022860Y-90537781D01*
X135022861Y-90537782D01*
X135122860Y-90637781D01*
X135122861Y-90637782D01*
X135262218Y-90777139D01*
X135426086Y-90886632D01*
X135486442Y-90911632D01*
X135608164Y-90962051D01*
X135801454Y-91000499D01*
X135801457Y-91000500D01*
X135801459Y-91000500D01*
X135998540Y-91000500D01*
X141963566Y-91000500D01*
X141987756Y-91002882D01*
X142016006Y-91008502D01*
X142101456Y-91025500D01*
X142101459Y-91025500D01*
X142298543Y-91025500D01*
X142374551Y-91010380D01*
X142412243Y-91002882D01*
X142436434Y-91000500D01*
X167098543Y-91000500D01*
X167228582Y-90974632D01*
X167291835Y-90962051D01*
X167473914Y-90886632D01*
X167637782Y-90777139D01*
X167777139Y-90637782D01*
X167777140Y-90637781D01*
X167777141Y-90637780D01*
X167886628Y-90473920D01*
X167886628Y-90473919D01*
X167886632Y-90473914D01*
X167962051Y-90291835D01*
X167981942Y-90191839D01*
X168000500Y-90098543D01*
X168000500Y-89901456D01*
X167962052Y-89708170D01*
X167962051Y-89708169D01*
X167962051Y-89708165D01*
X167962049Y-89708160D01*
X167886635Y-89526092D01*
X167886628Y-89526079D01*
X167777139Y-89362218D01*
X167777136Y-89362214D01*
X167637785Y-89222863D01*
X167637781Y-89222860D01*
X167473920Y-89113371D01*
X167473907Y-89113364D01*
X167291839Y-89037950D01*
X167291829Y-89037947D01*
X167098543Y-88999500D01*
X167098541Y-88999500D01*
X154374500Y-88999500D01*
X154307461Y-88979815D01*
X154261706Y-88927011D01*
X154250500Y-88875500D01*
X154250500Y-86279765D01*
X154270185Y-86212726D01*
X154271398Y-86210874D01*
X154359390Y-86079185D01*
X154359390Y-86079184D01*
X154359394Y-86079179D01*
X154419737Y-85933497D01*
X154450500Y-85778842D01*
X154450500Y-85621158D01*
X154450500Y-85621155D01*
X154450499Y-85621153D01*
X154419738Y-85466510D01*
X154419737Y-85466503D01*
X154416001Y-85457483D01*
X154359397Y-85320827D01*
X154359390Y-85320814D01*
X154271789Y-85189711D01*
X154271786Y-85189707D01*
X154160292Y-85078213D01*
X154160288Y-85078210D01*
X154029185Y-84990609D01*
X154029172Y-84990602D01*
X153883501Y-84930264D01*
X153883489Y-84930261D01*
X153728845Y-84899500D01*
X153728842Y-84899500D01*
X153571158Y-84899500D01*
X153571155Y-84899500D01*
X153416510Y-84930261D01*
X153416498Y-84930264D01*
X153270827Y-84990602D01*
X153270814Y-84990609D01*
X153139711Y-85078210D01*
X153139707Y-85078213D01*
X153028213Y-85189707D01*
X153028210Y-85189711D01*
X152940609Y-85320814D01*
X152940602Y-85320827D01*
X152880264Y-85466498D01*
X152880261Y-85466510D01*
X152849500Y-85621153D01*
X152849500Y-85778846D01*
X152880261Y-85933489D01*
X152880264Y-85933501D01*
X152940602Y-86079172D01*
X152940609Y-86079185D01*
X153028602Y-86210874D01*
X153049480Y-86277551D01*
X153049500Y-86279765D01*
X153049500Y-88875500D01*
X153029815Y-88942539D01*
X152977011Y-88988294D01*
X152925500Y-88999500D01*
X136265099Y-88999500D01*
X136217646Y-88990061D01*
X136145167Y-88960039D01*
X136145165Y-88960038D01*
X136091836Y-88937949D01*
X136091832Y-88937948D01*
X136091828Y-88937946D01*
X135995188Y-88918724D01*
X135898544Y-88899500D01*
X135898541Y-88899500D01*
X135701459Y-88899500D01*
X135701455Y-88899500D01*
X135604812Y-88918724D01*
X135508167Y-88937947D01*
X135508161Y-88937949D01*
X135454834Y-88960037D01*
X135454834Y-88960038D01*
X135409315Y-88978892D01*
X135326089Y-89013366D01*
X135326079Y-89013371D01*
X135162218Y-89122860D01*
X135162214Y-89122863D01*
X135022860Y-89262217D01*
X134913371Y-89426080D01*
X134913366Y-89426089D01*
X134861592Y-89551085D01*
X134837949Y-89608162D01*
X134837947Y-89608170D01*
X134830821Y-89643992D01*
X134830792Y-89644142D01*
X134830720Y-89644505D01*
X134799500Y-89801459D01*
X134799500Y-89998541D01*
X134799500Y-89998543D01*
X134799499Y-89998543D01*
X121150500Y-89998543D01*
X121150500Y-87052135D01*
X121999500Y-87052135D01*
X121999500Y-88147870D01*
X121999501Y-88147876D01*
X122005908Y-88207483D01*
X122056202Y-88342328D01*
X122056206Y-88342335D01*
X122142452Y-88457544D01*
X122142455Y-88457547D01*
X122257664Y-88543793D01*
X122257671Y-88543797D01*
X122392517Y-88594091D01*
X122392516Y-88594091D01*
X122399444Y-88594835D01*
X122452127Y-88600500D01*
X123547872Y-88600499D01*
X123607483Y-88594091D01*
X123742331Y-88543796D01*
X123857546Y-88457546D01*
X123943796Y-88342331D01*
X123994091Y-88207483D01*
X124000500Y-88147873D01*
X124000499Y-87052128D01*
X123994091Y-86992517D01*
X123943796Y-86857669D01*
X123943795Y-86857668D01*
X123943793Y-86857664D01*
X123857547Y-86742455D01*
X123857544Y-86742452D01*
X123742335Y-86656206D01*
X123742328Y-86656202D01*
X123607482Y-86605908D01*
X123607483Y-86605908D01*
X123547883Y-86599501D01*
X123547881Y-86599500D01*
X123547873Y-86599500D01*
X123547864Y-86599500D01*
X122452129Y-86599500D01*
X122452123Y-86599501D01*
X122392516Y-86605908D01*
X122257671Y-86656202D01*
X122257664Y-86656206D01*
X122142455Y-86742452D01*
X122142452Y-86742455D01*
X122056206Y-86857664D01*
X122056202Y-86857671D01*
X122005908Y-86992517D01*
X121999501Y-87052116D01*
X121999501Y-87052123D01*
X121999500Y-87052135D01*
X121150500Y-87052135D01*
X121150500Y-84302135D01*
X165799500Y-84302135D01*
X165799500Y-85397870D01*
X165799501Y-85397876D01*
X165805908Y-85457483D01*
X165856202Y-85592328D01*
X165856206Y-85592335D01*
X165942452Y-85707544D01*
X165942455Y-85707547D01*
X166057664Y-85793793D01*
X166057671Y-85793797D01*
X166192517Y-85844091D01*
X166192516Y-85844091D01*
X166199444Y-85844835D01*
X166252127Y-85850500D01*
X167347872Y-85850499D01*
X167407483Y-85844091D01*
X167542331Y-85793796D01*
X167657546Y-85707546D01*
X167743796Y-85592331D01*
X167794091Y-85457483D01*
X167800500Y-85397873D01*
X167800499Y-84302128D01*
X167794091Y-84242517D01*
X167743796Y-84107669D01*
X167743795Y-84107668D01*
X167743793Y-84107664D01*
X167657547Y-83992455D01*
X167657544Y-83992452D01*
X167542335Y-83906206D01*
X167542328Y-83906202D01*
X167407482Y-83855908D01*
X167407483Y-83855908D01*
X167347883Y-83849501D01*
X167347881Y-83849500D01*
X167347873Y-83849500D01*
X167347864Y-83849500D01*
X166252129Y-83849500D01*
X166252123Y-83849501D01*
X166192516Y-83855908D01*
X166057671Y-83906202D01*
X166057664Y-83906206D01*
X165942455Y-83992452D01*
X165942452Y-83992455D01*
X165856206Y-84107664D01*
X165856202Y-84107671D01*
X165805908Y-84242517D01*
X165799501Y-84302116D01*
X165799501Y-84302123D01*
X165799500Y-84302135D01*
X121150500Y-84302135D01*
X121150500Y-81661153D01*
X130479500Y-81661153D01*
X130479500Y-81818846D01*
X130510261Y-81973489D01*
X130510264Y-81973501D01*
X130570602Y-82119172D01*
X130570609Y-82119185D01*
X130649595Y-82237395D01*
X130652976Y-82242455D01*
X130658602Y-82250874D01*
X130664252Y-82268920D01*
X130674477Y-82284830D01*
X130678928Y-82315789D01*
X130679480Y-82317551D01*
X130679500Y-82319765D01*
X130679500Y-82500234D01*
X130659815Y-82567273D01*
X130658602Y-82569125D01*
X130570609Y-82700814D01*
X130570602Y-82700827D01*
X130510264Y-82846498D01*
X130510261Y-82846510D01*
X130479500Y-83001153D01*
X130479500Y-83158846D01*
X130510261Y-83313489D01*
X130510264Y-83313501D01*
X130570602Y-83459172D01*
X130570609Y-83459185D01*
X130658210Y-83590288D01*
X130658213Y-83590292D01*
X130769707Y-83701786D01*
X130769711Y-83701789D01*
X130900814Y-83789390D01*
X130900827Y-83789397D01*
X130985787Y-83824588D01*
X131046503Y-83849737D01*
X131201153Y-83880499D01*
X131201156Y-83880500D01*
X131201158Y-83880500D01*
X131358844Y-83880500D01*
X131358845Y-83880499D01*
X131513497Y-83849737D01*
X131659179Y-83789394D01*
X131790289Y-83701789D01*
X131901789Y-83590289D01*
X131989394Y-83459179D01*
X132049737Y-83313497D01*
X132080500Y-83158842D01*
X132080500Y-83001158D01*
X132080500Y-83001155D01*
X132080499Y-83001153D01*
X132049738Y-82846510D01*
X132049737Y-82846503D01*
X132026213Y-82789711D01*
X131989397Y-82700827D01*
X131989390Y-82700814D01*
X131933853Y-82617697D01*
X131901398Y-82569125D01*
X131896078Y-82552135D01*
X136349500Y-82552135D01*
X136349500Y-83647870D01*
X136349501Y-83647876D01*
X136355908Y-83707483D01*
X136406202Y-83842328D01*
X136406206Y-83842335D01*
X136492452Y-83957544D01*
X136492455Y-83957547D01*
X136607664Y-84043793D01*
X136607671Y-84043797D01*
X136742517Y-84094091D01*
X136742516Y-84094091D01*
X136749444Y-84094835D01*
X136802127Y-84100500D01*
X137897872Y-84100499D01*
X137957483Y-84094091D01*
X138092331Y-84043796D01*
X138207546Y-83957546D01*
X138275734Y-83866457D01*
X138331667Y-83824588D01*
X138401359Y-83819604D01*
X138462682Y-83853089D01*
X138474261Y-83866452D01*
X138542454Y-83957546D01*
X138588643Y-83992123D01*
X138657664Y-84043793D01*
X138657671Y-84043797D01*
X138792517Y-84094091D01*
X138792516Y-84094091D01*
X138799444Y-84094835D01*
X138852127Y-84100500D01*
X139947872Y-84100499D01*
X140007483Y-84094091D01*
X140142331Y-84043796D01*
X140257546Y-83957546D01*
X140343796Y-83842331D01*
X140394091Y-83707483D01*
X140400500Y-83647873D01*
X140400499Y-82552128D01*
X140394091Y-82492517D01*
X140379789Y-82454172D01*
X140343797Y-82357671D01*
X140343793Y-82357664D01*
X140257547Y-82242455D01*
X140257544Y-82242452D01*
X140142335Y-82156206D01*
X140142328Y-82156202D01*
X140007482Y-82105908D01*
X140007483Y-82105908D01*
X139947883Y-82099501D01*
X139947881Y-82099500D01*
X139947873Y-82099500D01*
X139947864Y-82099500D01*
X138852129Y-82099500D01*
X138852123Y-82099501D01*
X138792516Y-82105908D01*
X138657671Y-82156202D01*
X138657664Y-82156206D01*
X138542455Y-82242452D01*
X138542452Y-82242455D01*
X138474266Y-82333540D01*
X138418332Y-82375411D01*
X138348641Y-82380395D01*
X138287318Y-82346909D01*
X138275734Y-82333540D01*
X138207547Y-82242455D01*
X138207544Y-82242452D01*
X138092335Y-82156206D01*
X138092328Y-82156202D01*
X137957482Y-82105908D01*
X137957483Y-82105908D01*
X137897883Y-82099501D01*
X137897881Y-82099500D01*
X137897873Y-82099500D01*
X137897864Y-82099500D01*
X136802129Y-82099500D01*
X136802123Y-82099501D01*
X136742516Y-82105908D01*
X136607671Y-82156202D01*
X136607664Y-82156206D01*
X136492455Y-82242452D01*
X136492452Y-82242455D01*
X136406206Y-82357664D01*
X136406202Y-82357671D01*
X136355908Y-82492517D01*
X136349898Y-82548422D01*
X136349501Y-82552123D01*
X136349500Y-82552135D01*
X131896078Y-82552135D01*
X131880520Y-82502448D01*
X131880500Y-82500234D01*
X131880500Y-82319765D01*
X131900185Y-82252726D01*
X131901398Y-82250874D01*
X131907024Y-82242455D01*
X131989394Y-82119179D01*
X132049737Y-81973497D01*
X132080500Y-81818842D01*
X132080500Y-81661158D01*
X132080500Y-81661155D01*
X132080499Y-81661153D01*
X132061315Y-81564711D01*
X132049737Y-81506503D01*
X132027663Y-81453211D01*
X131989397Y-81360827D01*
X131989390Y-81360814D01*
X131901789Y-81229711D01*
X131901786Y-81229707D01*
X131790292Y-81118213D01*
X131790288Y-81118210D01*
X131659185Y-81030609D01*
X131659172Y-81030602D01*
X131513501Y-80970264D01*
X131513489Y-80970261D01*
X131358845Y-80939500D01*
X131358842Y-80939500D01*
X131201158Y-80939500D01*
X131201155Y-80939500D01*
X131046510Y-80970261D01*
X131046498Y-80970264D01*
X130900827Y-81030602D01*
X130900814Y-81030609D01*
X130769711Y-81118210D01*
X130769707Y-81118213D01*
X130658213Y-81229707D01*
X130658210Y-81229711D01*
X130570609Y-81360814D01*
X130570602Y-81360827D01*
X130510264Y-81506498D01*
X130510261Y-81506510D01*
X130479500Y-81661153D01*
X121150500Y-81661153D01*
X121150500Y-78721153D01*
X137799500Y-78721153D01*
X137799500Y-78878846D01*
X137830261Y-79033489D01*
X137830264Y-79033501D01*
X137890602Y-79179172D01*
X137890609Y-79179185D01*
X137978210Y-79310288D01*
X137978213Y-79310292D01*
X138089707Y-79421786D01*
X138089711Y-79421789D01*
X138220814Y-79509390D01*
X138220827Y-79509397D01*
X138366498Y-79569735D01*
X138366503Y-79569737D01*
X138521153Y-79600499D01*
X138521156Y-79600500D01*
X138521158Y-79600500D01*
X138678844Y-79600500D01*
X138678845Y-79600499D01*
X138833497Y-79569737D01*
X138979179Y-79509394D01*
X138979185Y-79509390D01*
X139110879Y-79421395D01*
X139177556Y-79400517D01*
X139179770Y-79400497D01*
X140275500Y-79400497D01*
X140342539Y-79420182D01*
X140388294Y-79472986D01*
X140399500Y-79524497D01*
X140399500Y-79678846D01*
X140430261Y-79833489D01*
X140430264Y-79833501D01*
X140490602Y-79979172D01*
X140490609Y-79979185D01*
X140578210Y-80110288D01*
X140578213Y-80110292D01*
X140689707Y-80221786D01*
X140689711Y-80221789D01*
X140820814Y-80309390D01*
X140820827Y-80309397D01*
X140966498Y-80369735D01*
X140966503Y-80369737D01*
X141121153Y-80400499D01*
X141121156Y-80400500D01*
X141121158Y-80400500D01*
X141278844Y-80400500D01*
X141278845Y-80400499D01*
X141433497Y-80369737D01*
X141579179Y-80309394D01*
X141579185Y-80309390D01*
X141710875Y-80221398D01*
X141777553Y-80200520D01*
X141779766Y-80200500D01*
X157220234Y-80200500D01*
X157287273Y-80220185D01*
X157289125Y-80221398D01*
X157420814Y-80309390D01*
X157420827Y-80309397D01*
X157566498Y-80369735D01*
X157566503Y-80369737D01*
X157721153Y-80400499D01*
X157721156Y-80400500D01*
X157721158Y-80400500D01*
X157878844Y-80400500D01*
X157878845Y-80400499D01*
X158033497Y-80369737D01*
X158179179Y-80309394D01*
X158310289Y-80221789D01*
X158421789Y-80110289D01*
X158509394Y-79979179D01*
X158569737Y-79833497D01*
X158600500Y-79678842D01*
X158600500Y-79521158D01*
X158600500Y-79521155D01*
X158600499Y-79521153D01*
X158580734Y-79421789D01*
X158569737Y-79366503D01*
X158520423Y-79247449D01*
X158512955Y-79177981D01*
X158520421Y-79152551D01*
X158569737Y-79033494D01*
X158600500Y-78878839D01*
X158600500Y-78721155D01*
X158600500Y-78721153D01*
X158600500Y-78721152D01*
X158600499Y-78721150D01*
X158569738Y-78566507D01*
X158569737Y-78566500D01*
X158563779Y-78552116D01*
X158509397Y-78420824D01*
X158509390Y-78420811D01*
X158421789Y-78289708D01*
X158421786Y-78289704D01*
X158310292Y-78178210D01*
X158310288Y-78178207D01*
X158179185Y-78090606D01*
X158179172Y-78090599D01*
X158033501Y-78030261D01*
X158033489Y-78030258D01*
X157878845Y-77999497D01*
X157878842Y-77999497D01*
X157721158Y-77999497D01*
X157721155Y-77999497D01*
X157566510Y-78030258D01*
X157566498Y-78030261D01*
X157420827Y-78090599D01*
X157420814Y-78090606D01*
X157289125Y-78178599D01*
X157222447Y-78199477D01*
X157220234Y-78199497D01*
X139179761Y-78199497D01*
X139112722Y-78179812D01*
X139110870Y-78178599D01*
X138979185Y-78090609D01*
X138979172Y-78090602D01*
X138833501Y-78030264D01*
X138833489Y-78030261D01*
X138678845Y-77999500D01*
X138678842Y-77999500D01*
X138521158Y-77999500D01*
X138521155Y-77999500D01*
X138366510Y-78030261D01*
X138366498Y-78030264D01*
X138220827Y-78090602D01*
X138220814Y-78090609D01*
X138089711Y-78178210D01*
X138089707Y-78178213D01*
X137978213Y-78289707D01*
X137978210Y-78289711D01*
X137890609Y-78420814D01*
X137890602Y-78420827D01*
X137830264Y-78566498D01*
X137830261Y-78566510D01*
X137799500Y-78721153D01*
X121150500Y-78721153D01*
X121150500Y-73256162D01*
X121170185Y-73189123D01*
X121186815Y-73168485D01*
X122047064Y-72308235D01*
X122108385Y-72274752D01*
X122110490Y-72274313D01*
X122133497Y-72269737D01*
X122279179Y-72209394D01*
X122410289Y-72121789D01*
X122521789Y-72010289D01*
X122609394Y-71879179D01*
X122669737Y-71733497D01*
X122700500Y-71578842D01*
X122700500Y-71421158D01*
X122700500Y-71421155D01*
X122700499Y-71421153D01*
X122669737Y-71266503D01*
X122669735Y-71266498D01*
X122609397Y-71120827D01*
X122609390Y-71120814D01*
X122521789Y-70989711D01*
X122521786Y-70989707D01*
X122410292Y-70878213D01*
X122410288Y-70878210D01*
X122279185Y-70790609D01*
X122279172Y-70790602D01*
X122133501Y-70730264D01*
X122133489Y-70730261D01*
X121978845Y-70699500D01*
X121978842Y-70699500D01*
X121821158Y-70699500D01*
X121821155Y-70699500D01*
X121666510Y-70730261D01*
X121666498Y-70730264D01*
X121520827Y-70790602D01*
X121520814Y-70790609D01*
X121389711Y-70878210D01*
X121389707Y-70878213D01*
X121278213Y-70989707D01*
X121278210Y-70989711D01*
X121190609Y-71120814D01*
X121190602Y-71120827D01*
X121130263Y-71266500D01*
X121130262Y-71266503D01*
X121125698Y-71289449D01*
X121093311Y-71351359D01*
X121091762Y-71352935D01*
X120118642Y-72326055D01*
X120099853Y-72341476D01*
X120003454Y-72405888D01*
X119905888Y-72503454D01*
X119905885Y-72503458D01*
X119829228Y-72618182D01*
X119829221Y-72618195D01*
X119776421Y-72745667D01*
X119776418Y-72745677D01*
X119749500Y-72881004D01*
X119749500Y-93024684D01*
X119740061Y-93072136D01*
X119680264Y-93216498D01*
X119680261Y-93216510D01*
X119649500Y-93371153D01*
X105847169Y-93371153D01*
X105846553Y-93365428D01*
X105844091Y-93342517D01*
X105808298Y-93246552D01*
X105793797Y-93207671D01*
X105793793Y-93207664D01*
X105707547Y-93092455D01*
X105707544Y-93092452D01*
X105592335Y-93006206D01*
X105592328Y-93006202D01*
X105457482Y-92955908D01*
X105457483Y-92955908D01*
X105397883Y-92949501D01*
X105397881Y-92949500D01*
X105397873Y-92949500D01*
X105397864Y-92949500D01*
X104302129Y-92949500D01*
X104302123Y-92949501D01*
X104242516Y-92955908D01*
X104107671Y-93006202D01*
X104107664Y-93006206D01*
X103992455Y-93092452D01*
X103992452Y-93092455D01*
X103906206Y-93207664D01*
X103906202Y-93207671D01*
X103855908Y-93342517D01*
X103849501Y-93402116D01*
X103849500Y-93402135D01*
X103450499Y-93402135D01*
X103450499Y-93402128D01*
X103444091Y-93342517D01*
X103397093Y-93216510D01*
X103393797Y-93207671D01*
X103393793Y-93207664D01*
X103307547Y-93092455D01*
X103307544Y-93092452D01*
X103192335Y-93006206D01*
X103192328Y-93006202D01*
X103057482Y-92955908D01*
X103057483Y-92955908D01*
X102997883Y-92949501D01*
X102997881Y-92949500D01*
X102997873Y-92949500D01*
X102997864Y-92949500D01*
X101902129Y-92949500D01*
X101902123Y-92949501D01*
X101842516Y-92955908D01*
X101707671Y-93006202D01*
X101707664Y-93006206D01*
X101592455Y-93092452D01*
X101592452Y-93092455D01*
X101506206Y-93207664D01*
X101506202Y-93207671D01*
X101455908Y-93342517D01*
X101449501Y-93402116D01*
X101449500Y-93402135D01*
X99475374Y-93402135D01*
X99475374Y-83221153D01*
X110499500Y-83221153D01*
X110499500Y-83378846D01*
X110530261Y-83533489D01*
X110530264Y-83533501D01*
X110590602Y-83679172D01*
X110590609Y-83679185D01*
X110678210Y-83810288D01*
X110678213Y-83810292D01*
X110789707Y-83921786D01*
X110789711Y-83921789D01*
X110920814Y-84009390D01*
X110920827Y-84009397D01*
X111066498Y-84069735D01*
X111066503Y-84069737D01*
X111188938Y-84094091D01*
X111221153Y-84100499D01*
X111221156Y-84100500D01*
X111221158Y-84100500D01*
X111378844Y-84100500D01*
X111378845Y-84100499D01*
X111533497Y-84069737D01*
X111679179Y-84009394D01*
X111810289Y-83921789D01*
X111921789Y-83810289D01*
X112009394Y-83679179D01*
X112069737Y-83533497D01*
X112100500Y-83378842D01*
X112100500Y-83221158D01*
X112100500Y-83221155D01*
X112100499Y-83221153D01*
X112069738Y-83066510D01*
X112069737Y-83066503D01*
X112069735Y-83066498D01*
X112009397Y-82920827D01*
X112009390Y-82920814D01*
X111921398Y-82789125D01*
X111915747Y-82771078D01*
X111905523Y-82755169D01*
X111901071Y-82724207D01*
X111900520Y-82722447D01*
X111900500Y-82720234D01*
X111900500Y-82659259D01*
X111920185Y-82592220D01*
X111921519Y-82590427D01*
X111921410Y-82590354D01*
X112012395Y-82454185D01*
X112012395Y-82454184D01*
X112012399Y-82454179D01*
X112072742Y-82308497D01*
X112103505Y-82153842D01*
X112103505Y-81996158D01*
X112103505Y-81996155D01*
X112103504Y-81996153D01*
X112072743Y-81841510D01*
X112072742Y-81841503D01*
X112063357Y-81818846D01*
X112012402Y-81695827D01*
X112012395Y-81695814D01*
X111924794Y-81564711D01*
X111924791Y-81564707D01*
X111813297Y-81453213D01*
X111813293Y-81453210D01*
X111682190Y-81365609D01*
X111682177Y-81365602D01*
X111536506Y-81305264D01*
X111536494Y-81305261D01*
X111381850Y-81274500D01*
X111381847Y-81274500D01*
X111224163Y-81274500D01*
X111224160Y-81274500D01*
X111069515Y-81305261D01*
X111069503Y-81305264D01*
X110923832Y-81365602D01*
X110923819Y-81365609D01*
X110792716Y-81453210D01*
X110792712Y-81453213D01*
X110681218Y-81564707D01*
X110681215Y-81564711D01*
X110593614Y-81695814D01*
X110593607Y-81695827D01*
X110533269Y-81841498D01*
X110533266Y-81841510D01*
X110502505Y-81996153D01*
X110502505Y-82153846D01*
X110533266Y-82308489D01*
X110533269Y-82308501D01*
X110593607Y-82454172D01*
X110593614Y-82454185D01*
X110678602Y-82581377D01*
X110684252Y-82599423D01*
X110694477Y-82615333D01*
X110698928Y-82646292D01*
X110699480Y-82648054D01*
X110699500Y-82650268D01*
X110699500Y-82720234D01*
X110679815Y-82787273D01*
X110678602Y-82789125D01*
X110590609Y-82920814D01*
X110590602Y-82920827D01*
X110530264Y-83066498D01*
X110530261Y-83066510D01*
X110499500Y-83221153D01*
X99475374Y-83221153D01*
X99475374Y-78552135D01*
X116499500Y-78552135D01*
X116499500Y-79647870D01*
X116499501Y-79647876D01*
X116505908Y-79707483D01*
X116556202Y-79842328D01*
X116556206Y-79842335D01*
X116642452Y-79957544D01*
X116642455Y-79957547D01*
X116757664Y-80043793D01*
X116757671Y-80043797D01*
X116892517Y-80094091D01*
X116892516Y-80094091D01*
X116899444Y-80094835D01*
X116952127Y-80100500D01*
X118047872Y-80100499D01*
X118107483Y-80094091D01*
X118242331Y-80043796D01*
X118357546Y-79957546D01*
X118443796Y-79842331D01*
X118494091Y-79707483D01*
X118500500Y-79647873D01*
X118500499Y-78552128D01*
X118494091Y-78492517D01*
X118467352Y-78420827D01*
X118443797Y-78357671D01*
X118443793Y-78357664D01*
X118357547Y-78242455D01*
X118357544Y-78242452D01*
X118242335Y-78156206D01*
X118242328Y-78156202D01*
X118107482Y-78105908D01*
X118107483Y-78105908D01*
X118047883Y-78099501D01*
X118047881Y-78099500D01*
X118047873Y-78099500D01*
X118047864Y-78099500D01*
X116952129Y-78099500D01*
X116952123Y-78099501D01*
X116892516Y-78105908D01*
X116757671Y-78156202D01*
X116757664Y-78156206D01*
X116642455Y-78242452D01*
X116642452Y-78242455D01*
X116556206Y-78357664D01*
X116556202Y-78357671D01*
X116505908Y-78492517D01*
X116499501Y-78552116D01*
X116499501Y-78552123D01*
X116499500Y-78552135D01*
X99475374Y-78552135D01*
X99475374Y-73871153D01*
X109099500Y-73871153D01*
X109099500Y-74028846D01*
X109130261Y-74183489D01*
X109130264Y-74183501D01*
X109190602Y-74329172D01*
X109190609Y-74329185D01*
X109278602Y-74460874D01*
X109284252Y-74478920D01*
X109294477Y-74494830D01*
X109298928Y-74525789D01*
X109299480Y-74527551D01*
X109299500Y-74529765D01*
X109299500Y-74570234D01*
X109279815Y-74637273D01*
X109278602Y-74639125D01*
X109190609Y-74770814D01*
X109190602Y-74770827D01*
X109130264Y-74916498D01*
X109130261Y-74916510D01*
X109099500Y-75071153D01*
X109099500Y-75228846D01*
X109130261Y-75383489D01*
X109130264Y-75383501D01*
X109190602Y-75529172D01*
X109190609Y-75529185D01*
X109278210Y-75660288D01*
X109278213Y-75660292D01*
X109389707Y-75771786D01*
X109389711Y-75771789D01*
X109520814Y-75859390D01*
X109520827Y-75859397D01*
X109666498Y-75919735D01*
X109666503Y-75919737D01*
X109821153Y-75950499D01*
X109821156Y-75950500D01*
X109821158Y-75950500D01*
X109978844Y-75950500D01*
X109978845Y-75950499D01*
X110133497Y-75919737D01*
X110198033Y-75893005D01*
X110277548Y-75860070D01*
X110347017Y-75852601D01*
X110372452Y-75860070D01*
X110516498Y-75919735D01*
X110516503Y-75919737D01*
X110671153Y-75950499D01*
X110671156Y-75950500D01*
X110671158Y-75950500D01*
X110828844Y-75950500D01*
X110828845Y-75950499D01*
X110983497Y-75919737D01*
X111129179Y-75859394D01*
X111260289Y-75771789D01*
X111371789Y-75660289D01*
X111459394Y-75529179D01*
X111519737Y-75383497D01*
X111550500Y-75228842D01*
X111550500Y-75071158D01*
X111550500Y-75071155D01*
X111550499Y-75071153D01*
X111519738Y-74916510D01*
X111519737Y-74916503D01*
X111519735Y-74916498D01*
X111459397Y-74770827D01*
X111459390Y-74770814D01*
X111371398Y-74639125D01*
X111365747Y-74621078D01*
X111355523Y-74605169D01*
X111351071Y-74574207D01*
X111350520Y-74572447D01*
X111350500Y-74570234D01*
X111350500Y-74529765D01*
X111370185Y-74462726D01*
X111371398Y-74460874D01*
X111459390Y-74329185D01*
X111459390Y-74329184D01*
X111459394Y-74329179D01*
X111519737Y-74183497D01*
X111550500Y-74028842D01*
X111550500Y-73871158D01*
X111550500Y-73871155D01*
X111550499Y-73871153D01*
X111519738Y-73716510D01*
X111519737Y-73716503D01*
X111519735Y-73716498D01*
X111459397Y-73570827D01*
X111459390Y-73570814D01*
X111371789Y-73439711D01*
X111371786Y-73439707D01*
X111260292Y-73328213D01*
X111260288Y-73328210D01*
X111129185Y-73240609D01*
X111129172Y-73240602D01*
X110983501Y-73180264D01*
X110983489Y-73180261D01*
X110828845Y-73149500D01*
X110828842Y-73149500D01*
X110671158Y-73149500D01*
X110671155Y-73149500D01*
X110516510Y-73180261D01*
X110516498Y-73180264D01*
X110372452Y-73239930D01*
X110302983Y-73247399D01*
X110277548Y-73239930D01*
X110133501Y-73180264D01*
X110133489Y-73180261D01*
X109978845Y-73149500D01*
X109978842Y-73149500D01*
X109821158Y-73149500D01*
X109821155Y-73149500D01*
X109666510Y-73180261D01*
X109666498Y-73180264D01*
X109520827Y-73240602D01*
X109520814Y-73240609D01*
X109389711Y-73328210D01*
X109389707Y-73328213D01*
X109278213Y-73439707D01*
X109278210Y-73439711D01*
X109190609Y-73570814D01*
X109190602Y-73570827D01*
X109130264Y-73716498D01*
X109130261Y-73716510D01*
X109099500Y-73871153D01*
X99475374Y-73871153D01*
X99475374Y-66352135D01*
X119799500Y-66352135D01*
X119799500Y-67447870D01*
X119799501Y-67447876D01*
X119805908Y-67507483D01*
X119856202Y-67642328D01*
X119856206Y-67642335D01*
X119942452Y-67757544D01*
X119942455Y-67757547D01*
X120057664Y-67843793D01*
X120057671Y-67843797D01*
X120192517Y-67894091D01*
X120192516Y-67894091D01*
X120199444Y-67894835D01*
X120252127Y-67900500D01*
X121347872Y-67900499D01*
X121407483Y-67894091D01*
X121542331Y-67843796D01*
X121657546Y-67757546D01*
X121743796Y-67642331D01*
X121794091Y-67507483D01*
X121800500Y-67447873D01*
X121800499Y-66352128D01*
X121794091Y-66292517D01*
X121757985Y-66195713D01*
X121743797Y-66157671D01*
X121743793Y-66157664D01*
X121657547Y-66042455D01*
X121657544Y-66042452D01*
X121542335Y-65956206D01*
X121542328Y-65956202D01*
X121407482Y-65905908D01*
X121407483Y-65905908D01*
X121347883Y-65899501D01*
X121347881Y-65899500D01*
X121347873Y-65899500D01*
X121347864Y-65899500D01*
X120252129Y-65899500D01*
X120252123Y-65899501D01*
X120192516Y-65905908D01*
X120057671Y-65956202D01*
X120057664Y-65956206D01*
X119942455Y-66042452D01*
X119942452Y-66042455D01*
X119856206Y-66157664D01*
X119856202Y-66157671D01*
X119805908Y-66292517D01*
X119799957Y-66347872D01*
X119799501Y-66352123D01*
X119799500Y-66352135D01*
X99475374Y-66352135D01*
X99475374Y-65514234D01*
X103764500Y-65514234D01*
X103764500Y-65665765D01*
X103803719Y-65812136D01*
X103838852Y-65872987D01*
X103879485Y-65943365D01*
X103986635Y-66050515D01*
X104117865Y-66126281D01*
X104264234Y-66165500D01*
X104264236Y-66165500D01*
X104415764Y-66165500D01*
X104415766Y-66165500D01*
X104562135Y-66126281D01*
X104693365Y-66050515D01*
X104800515Y-65943365D01*
X104876281Y-65812135D01*
X104915500Y-65665766D01*
X104915500Y-65514234D01*
X104876281Y-65367865D01*
X104800515Y-65236635D01*
X104693365Y-65129485D01*
X104613698Y-65083489D01*
X104562136Y-65053719D01*
X104488950Y-65034109D01*
X104415766Y-65014500D01*
X104264234Y-65014500D01*
X104117863Y-65053719D01*
X103986635Y-65129485D01*
X103986632Y-65129487D01*
X103879487Y-65236632D01*
X103879485Y-65236635D01*
X103803719Y-65367863D01*
X103764500Y-65514234D01*
X99475374Y-65514234D01*
X99475374Y-64771153D01*
X115099500Y-64771153D01*
X115099500Y-64928846D01*
X115130261Y-65083489D01*
X115130264Y-65083501D01*
X115190602Y-65229172D01*
X115190609Y-65229185D01*
X115278210Y-65360288D01*
X115278213Y-65360292D01*
X115389707Y-65471786D01*
X115389711Y-65471789D01*
X115520814Y-65559390D01*
X115520827Y-65559397D01*
X115666498Y-65619735D01*
X115666503Y-65619737D01*
X115821153Y-65650499D01*
X115821156Y-65650500D01*
X115821158Y-65650500D01*
X115978844Y-65650500D01*
X115978845Y-65650499D01*
X116133497Y-65619737D01*
X116279179Y-65559394D01*
X116410289Y-65471789D01*
X116521789Y-65360289D01*
X116609394Y-65229179D01*
X116669737Y-65083497D01*
X116700500Y-64928842D01*
X116700500Y-64771158D01*
X116700500Y-64771155D01*
X116700499Y-64771153D01*
X116669738Y-64616510D01*
X116669737Y-64616503D01*
X116609939Y-64472136D01*
X116608312Y-64463959D01*
X116605523Y-64459619D01*
X116600500Y-64424684D01*
X116600500Y-64252135D01*
X130799500Y-64252135D01*
X130799500Y-65347870D01*
X130799501Y-65347876D01*
X130805908Y-65407483D01*
X130856202Y-65542328D01*
X130856206Y-65542335D01*
X130942452Y-65657544D01*
X130942455Y-65657547D01*
X131057664Y-65743793D01*
X131057671Y-65743797D01*
X131192517Y-65794091D01*
X131192516Y-65794091D01*
X131199444Y-65794835D01*
X131252127Y-65800500D01*
X131550587Y-65800499D01*
X131617624Y-65820183D01*
X131663379Y-65872987D01*
X131673323Y-65942146D01*
X131644298Y-66005701D01*
X131585520Y-66043476D01*
X131574784Y-66046115D01*
X131566508Y-66047761D01*
X131566498Y-66047764D01*
X131420827Y-66108102D01*
X131420814Y-66108109D01*
X131289711Y-66195710D01*
X131289707Y-66195713D01*
X131178213Y-66307207D01*
X131178210Y-66307211D01*
X131090609Y-66438314D01*
X131090602Y-66438327D01*
X131030264Y-66583998D01*
X131030261Y-66584010D01*
X130999500Y-66738653D01*
X130999500Y-66896346D01*
X131030261Y-67050989D01*
X131030264Y-67051001D01*
X131090602Y-67196672D01*
X131090609Y-67196685D01*
X131125304Y-67248609D01*
X131146182Y-67315286D01*
X131127698Y-67382667D01*
X131125304Y-67386391D01*
X131090609Y-67438314D01*
X131090602Y-67438327D01*
X131030264Y-67583998D01*
X131030261Y-67584010D01*
X130999500Y-67738653D01*
X130999500Y-67896346D01*
X131030261Y-68050989D01*
X131030264Y-68051001D01*
X131090602Y-68196672D01*
X131090609Y-68196685D01*
X131178210Y-68327788D01*
X131178213Y-68327792D01*
X131289707Y-68439286D01*
X131289711Y-68439289D01*
X131420814Y-68526890D01*
X131420827Y-68526897D01*
X131566498Y-68587235D01*
X131566503Y-68587237D01*
X131721153Y-68617999D01*
X131721156Y-68618000D01*
X131721158Y-68618000D01*
X131878844Y-68618000D01*
X131878845Y-68617999D01*
X132033497Y-68587237D01*
X132179179Y-68526894D01*
X132310289Y-68439289D01*
X132421789Y-68327789D01*
X132509394Y-68196679D01*
X132569737Y-68050997D01*
X132600500Y-67896342D01*
X132600500Y-67738658D01*
X132600500Y-67738655D01*
X132600499Y-67738653D01*
X132581339Y-67642331D01*
X132569737Y-67584003D01*
X132513350Y-67447872D01*
X132509396Y-67438325D01*
X132509394Y-67438322D01*
X132509394Y-67438321D01*
X132474694Y-67386389D01*
X132453816Y-67319715D01*
X132472300Y-67252335D01*
X132474676Y-67248636D01*
X132509394Y-67196679D01*
X132569737Y-67050997D01*
X132600500Y-66896342D01*
X132600500Y-66738658D01*
X132600500Y-66738655D01*
X132600499Y-66738653D01*
X132569738Y-66584010D01*
X132569737Y-66584003D01*
X132552475Y-66542328D01*
X132509397Y-66438327D01*
X132509390Y-66438314D01*
X132421789Y-66307211D01*
X132421786Y-66307207D01*
X132310292Y-66195713D01*
X132310288Y-66195710D01*
X132179185Y-66108109D01*
X132179172Y-66108102D01*
X132033501Y-66047764D01*
X132033494Y-66047762D01*
X132025218Y-66046116D01*
X131963308Y-66013730D01*
X131928735Y-65953013D01*
X131932476Y-65883244D01*
X131973344Y-65826573D01*
X132038362Y-65800992D01*
X132049405Y-65800499D01*
X132347872Y-65800499D01*
X132407483Y-65794091D01*
X132542331Y-65743796D01*
X132657546Y-65657546D01*
X132743796Y-65542331D01*
X132794091Y-65407483D01*
X132800500Y-65347873D01*
X132800500Y-65252135D01*
X136937000Y-65252135D01*
X136937000Y-66347870D01*
X136937001Y-66347876D01*
X136943408Y-66407483D01*
X136993702Y-66542328D01*
X136993706Y-66542335D01*
X137079952Y-66657544D01*
X137079955Y-66657547D01*
X137195164Y-66743793D01*
X137195171Y-66743797D01*
X137330017Y-66794091D01*
X137330016Y-66794091D01*
X137336944Y-66794835D01*
X137389627Y-66800500D01*
X138485372Y-66800499D01*
X138544983Y-66794091D01*
X138679831Y-66743796D01*
X138795046Y-66657546D01*
X138881296Y-66542331D01*
X138931591Y-66407483D01*
X138938000Y-66347873D01*
X138937999Y-65252128D01*
X138931591Y-65192517D01*
X138908082Y-65129487D01*
X138881297Y-65057671D01*
X138881293Y-65057664D01*
X138795047Y-64942455D01*
X138795044Y-64942452D01*
X138679835Y-64856206D01*
X138679828Y-64856202D01*
X138544982Y-64805908D01*
X138544983Y-64805908D01*
X138485383Y-64799501D01*
X138485381Y-64799500D01*
X138485373Y-64799500D01*
X138485364Y-64799500D01*
X137389629Y-64799500D01*
X137389623Y-64799501D01*
X137330016Y-64805908D01*
X137195171Y-64856202D01*
X137195164Y-64856206D01*
X137079955Y-64942452D01*
X137079952Y-64942455D01*
X136993706Y-65057664D01*
X136993702Y-65057671D01*
X136943408Y-65192517D01*
X136937357Y-65248805D01*
X136937001Y-65252123D01*
X136937000Y-65252135D01*
X132800500Y-65252135D01*
X132800499Y-64799501D01*
X132800499Y-64252129D01*
X132800498Y-64252123D01*
X132800497Y-64252116D01*
X132794091Y-64192517D01*
X132743796Y-64057669D01*
X132743795Y-64057668D01*
X132743793Y-64057664D01*
X132657547Y-63942455D01*
X132657544Y-63942452D01*
X132542335Y-63856206D01*
X132542328Y-63856202D01*
X132407482Y-63805908D01*
X132407483Y-63805908D01*
X132347883Y-63799501D01*
X132347881Y-63799500D01*
X132347873Y-63799500D01*
X132347864Y-63799500D01*
X131252129Y-63799500D01*
X131252123Y-63799501D01*
X131192516Y-63805908D01*
X131057671Y-63856202D01*
X131057664Y-63856206D01*
X130942455Y-63942452D01*
X130942452Y-63942455D01*
X130856206Y-64057664D01*
X130856202Y-64057671D01*
X130805908Y-64192517D01*
X130802071Y-64228211D01*
X130799501Y-64252123D01*
X130799500Y-64252135D01*
X116600500Y-64252135D01*
X116600500Y-61129765D01*
X116620185Y-61062726D01*
X116621398Y-61060874D01*
X116709390Y-60929185D01*
X116709390Y-60929184D01*
X116709394Y-60929179D01*
X116769737Y-60783497D01*
X116800500Y-60628842D01*
X116800500Y-60471158D01*
X116800500Y-60471155D01*
X116800499Y-60471153D01*
X116769738Y-60316510D01*
X116769737Y-60316503D01*
X116769735Y-60316498D01*
X116709397Y-60170827D01*
X116709390Y-60170814D01*
X116621789Y-60039711D01*
X116621786Y-60039707D01*
X116510292Y-59928213D01*
X116510288Y-59928210D01*
X116379185Y-59840609D01*
X116379172Y-59840602D01*
X116233501Y-59780264D01*
X116233489Y-59780261D01*
X116078845Y-59749500D01*
X116078842Y-59749500D01*
X115921158Y-59749500D01*
X115921155Y-59749500D01*
X115766510Y-59780261D01*
X115766498Y-59780264D01*
X115620827Y-59840602D01*
X115620814Y-59840609D01*
X115489711Y-59928210D01*
X115489707Y-59928213D01*
X115378213Y-60039707D01*
X115378210Y-60039711D01*
X115290609Y-60170814D01*
X115290602Y-60170827D01*
X115230264Y-60316498D01*
X115230261Y-60316510D01*
X115199500Y-60471153D01*
X115199500Y-60628846D01*
X115230261Y-60783489D01*
X115230264Y-60783501D01*
X115290602Y-60929172D01*
X115290609Y-60929185D01*
X115378602Y-61060874D01*
X115399480Y-61127551D01*
X115399500Y-61129765D01*
X115399500Y-64167059D01*
X115379815Y-64234098D01*
X115363181Y-64254740D01*
X115278213Y-64339707D01*
X115278210Y-64339711D01*
X115190609Y-64470814D01*
X115190602Y-64470827D01*
X115130264Y-64616498D01*
X115130261Y-64616510D01*
X115099500Y-64771153D01*
X99475374Y-64771153D01*
X99475374Y-59734234D01*
X103764500Y-59734234D01*
X103764500Y-59885765D01*
X103803719Y-60032136D01*
X103808093Y-60039711D01*
X103879485Y-60163365D01*
X103986635Y-60270515D01*
X104117865Y-60346281D01*
X104264234Y-60385500D01*
X104264236Y-60385500D01*
X104415764Y-60385500D01*
X104415766Y-60385500D01*
X104562135Y-60346281D01*
X104693365Y-60270515D01*
X104800515Y-60163365D01*
X104876281Y-60032135D01*
X104915500Y-59885766D01*
X104915500Y-59734234D01*
X104876281Y-59587865D01*
X104800515Y-59456635D01*
X104693365Y-59349485D01*
X104627750Y-59311602D01*
X104562136Y-59273719D01*
X104488950Y-59254109D01*
X104415766Y-59234500D01*
X104264234Y-59234500D01*
X104117863Y-59273719D01*
X103986635Y-59349485D01*
X103986632Y-59349487D01*
X103879487Y-59456632D01*
X103879485Y-59456635D01*
X103803719Y-59587863D01*
X103764500Y-59734234D01*
X99475374Y-59734234D01*
X99475374Y-55321153D01*
X147999500Y-55321153D01*
X147999500Y-55478846D01*
X148030261Y-55633489D01*
X148030264Y-55633501D01*
X148090602Y-55779172D01*
X148090609Y-55779185D01*
X148178210Y-55910288D01*
X148178213Y-55910292D01*
X148289707Y-56021786D01*
X148289711Y-56021789D01*
X148420814Y-56109390D01*
X148420827Y-56109397D01*
X148508230Y-56145599D01*
X148566503Y-56169737D01*
X148677716Y-56191858D01*
X148739623Y-56224241D01*
X148741203Y-56225793D01*
X151864139Y-59348729D01*
X151864142Y-59348733D01*
X151951267Y-59435858D01*
X151987831Y-59460289D01*
X152053714Y-59504312D01*
X152053719Y-59504314D01*
X152127390Y-59534829D01*
X152127394Y-59534830D01*
X152134207Y-59537652D01*
X152167548Y-59551463D01*
X152227971Y-59563481D01*
X152288393Y-59575500D01*
X152288394Y-59575500D01*
X153907650Y-59575500D01*
X153974689Y-59595185D01*
X153976541Y-59596398D01*
X154070821Y-59659394D01*
X154070823Y-59659395D01*
X154070827Y-59659397D01*
X154216498Y-59719735D01*
X154216503Y-59719737D01*
X154366131Y-59749500D01*
X154371153Y-59750499D01*
X154371156Y-59750500D01*
X154371158Y-59750500D01*
X154528844Y-59750500D01*
X154528845Y-59750499D01*
X154683497Y-59719737D01*
X154829179Y-59659394D01*
X154960289Y-59571789D01*
X155071789Y-59460289D01*
X155159394Y-59329179D01*
X155219737Y-59183497D01*
X155250500Y-59028842D01*
X155250500Y-58871158D01*
X155250500Y-58871155D01*
X155250499Y-58871153D01*
X155219738Y-58716510D01*
X155219737Y-58716503D01*
X155219735Y-58716498D01*
X155159397Y-58570827D01*
X155159390Y-58570814D01*
X155071789Y-58439711D01*
X155071786Y-58439707D01*
X154960292Y-58328213D01*
X154960288Y-58328210D01*
X154829185Y-58240609D01*
X154829172Y-58240602D01*
X154683501Y-58180264D01*
X154683489Y-58180261D01*
X154528845Y-58149500D01*
X154528842Y-58149500D01*
X154371158Y-58149500D01*
X154371155Y-58149500D01*
X154216510Y-58180261D01*
X154216498Y-58180264D01*
X154070827Y-58240602D01*
X154070815Y-58240609D01*
X153976541Y-58303602D01*
X153909864Y-58324480D01*
X153907650Y-58324500D01*
X152660452Y-58324500D01*
X152593413Y-58304815D01*
X152572771Y-58288181D01*
X149625793Y-55341203D01*
X149592308Y-55279880D01*
X149591887Y-55277864D01*
X149569737Y-55166503D01*
X149545599Y-55108230D01*
X149509397Y-55020827D01*
X149509390Y-55020814D01*
X149421789Y-54889711D01*
X149421786Y-54889707D01*
X149310292Y-54778213D01*
X149310288Y-54778210D01*
X149179185Y-54690609D01*
X149179172Y-54690602D01*
X149033501Y-54630264D01*
X149033489Y-54630261D01*
X148878845Y-54599500D01*
X148878842Y-54599500D01*
X148721158Y-54599500D01*
X148721155Y-54599500D01*
X148566510Y-54630261D01*
X148566498Y-54630264D01*
X148420827Y-54690602D01*
X148420814Y-54690609D01*
X148289711Y-54778210D01*
X148289707Y-54778213D01*
X148178213Y-54889707D01*
X148178210Y-54889711D01*
X148090609Y-55020814D01*
X148090602Y-55020827D01*
X148030264Y-55166498D01*
X148030261Y-55166510D01*
X147999500Y-55321153D01*
X99475374Y-55321153D01*
X99475374Y-53478117D01*
X99475544Y-53471626D01*
X99491468Y-53167830D01*
X99492825Y-53154923D01*
X99529783Y-52921587D01*
X99539908Y-52857661D01*
X99542601Y-52844986D01*
X99620504Y-52554253D01*
X99624514Y-52541915D01*
X99732378Y-52260922D01*
X99737641Y-52249101D01*
X99874296Y-51980904D01*
X99880772Y-51969689D01*
X100044700Y-51717261D01*
X100052314Y-51706780D01*
X100241740Y-51472861D01*
X100250407Y-51463235D01*
X100463235Y-51250407D01*
X100472861Y-51241740D01*
X100706780Y-51052314D01*
X100717261Y-51044700D01*
X100969689Y-50880772D01*
X100980904Y-50874296D01*
X101249101Y-50737641D01*
X101260922Y-50732378D01*
X101541920Y-50624512D01*
X101554253Y-50620504D01*
X101844986Y-50542601D01*
X101857661Y-50539908D01*
X102154926Y-50492824D01*
X102167828Y-50491468D01*
X102471634Y-50475544D01*
X102478125Y-50475374D01*
X165521893Y-50475374D01*
X165528384Y-50475544D01*
G37*
%TD.AperFunction*%
%TD*%
M02*
