%TF.GenerationSoftware,KiCad,Pcbnew,9.0.4*%
%TF.CreationDate,2025-12-21T11:21:01-08:00*%
%TF.ProjectId,wind board,77696e64-2062-46f6-9172-642e6b696361,rev?*%
%TF.SameCoordinates,Original*%
%TF.FileFunction,Legend,Bot*%
%TF.FilePolarity,Positive*%
%FSLAX46Y46*%
G04 Gerber Fmt 4.6, Leading zero omitted, Abs format (unit mm)*
G04 Created by KiCad (PCBNEW 9.0.4) date 2025-12-21 11:21:01*
%MOMM*%
%LPD*%
G01*
G04 APERTURE LIST*
%ADD10C,0.150000*%
%ADD11C,0.000000*%
%ADD12R,1.000000X1.000000*%
%ADD13C,3.600000*%
%ADD14C,5.700000*%
%ADD15C,4.700000*%
%ADD16C,7.600000*%
%ADD17R,1.700000X1.700000*%
%ADD18C,1.700000*%
%ADD19C,0.650000*%
%ADD20O,2.100000X1.000000*%
%ADD21O,1.600000X1.000000*%
G04 APERTURE END LIST*
D10*
X138079641Y-51259875D02*
X137508212Y-51259875D01*
X137918927Y-52259875D02*
X137793927Y-51259875D01*
X137299879Y-52259875D02*
X137174879Y-51259875D01*
X136871307Y-52259875D02*
X136805831Y-51736065D01*
X136805831Y-51736065D02*
X136841545Y-51640827D01*
X136841545Y-51640827D02*
X136930831Y-51593208D01*
X136930831Y-51593208D02*
X137073688Y-51593208D01*
X137073688Y-51593208D02*
X137174879Y-51640827D01*
X137174879Y-51640827D02*
X137228450Y-51688446D01*
X136008212Y-52212256D02*
X136109402Y-52259875D01*
X136109402Y-52259875D02*
X136299879Y-52259875D01*
X136299879Y-52259875D02*
X136389164Y-52212256D01*
X136389164Y-52212256D02*
X136424879Y-52117017D01*
X136424879Y-52117017D02*
X136377260Y-51736065D01*
X136377260Y-51736065D02*
X136317736Y-51640827D01*
X136317736Y-51640827D02*
X136216545Y-51593208D01*
X136216545Y-51593208D02*
X136026069Y-51593208D01*
X136026069Y-51593208D02*
X135936783Y-51640827D01*
X135936783Y-51640827D02*
X135901069Y-51736065D01*
X135901069Y-51736065D02*
X135912974Y-51831303D01*
X135912974Y-51831303D02*
X136401069Y-51926541D01*
X134835592Y-51593208D02*
X134454640Y-51593208D01*
X134651069Y-51259875D02*
X134758212Y-52117017D01*
X134758212Y-52117017D02*
X134722497Y-52212256D01*
X134722497Y-52212256D02*
X134633212Y-52259875D01*
X134633212Y-52259875D02*
X134537973Y-52259875D01*
X134204640Y-52259875D02*
X134121306Y-51593208D01*
X134079640Y-51259875D02*
X134133211Y-51307494D01*
X134133211Y-51307494D02*
X134091544Y-51355113D01*
X134091544Y-51355113D02*
X134037973Y-51307494D01*
X134037973Y-51307494D02*
X134079640Y-51259875D01*
X134079640Y-51259875D02*
X134091544Y-51355113D01*
X133728450Y-52259875D02*
X133645116Y-51593208D01*
X133657021Y-51688446D02*
X133603450Y-51640827D01*
X133603450Y-51640827D02*
X133502259Y-51593208D01*
X133502259Y-51593208D02*
X133359402Y-51593208D01*
X133359402Y-51593208D02*
X133270116Y-51640827D01*
X133270116Y-51640827D02*
X133234402Y-51736065D01*
X133234402Y-51736065D02*
X133299878Y-52259875D01*
X133234402Y-51736065D02*
X133174878Y-51640827D01*
X133174878Y-51640827D02*
X133073688Y-51593208D01*
X133073688Y-51593208D02*
X132930831Y-51593208D01*
X132930831Y-51593208D02*
X132841545Y-51640827D01*
X132841545Y-51640827D02*
X132805831Y-51736065D01*
X132805831Y-51736065D02*
X132871307Y-52259875D01*
X132008212Y-52212256D02*
X132109402Y-52259875D01*
X132109402Y-52259875D02*
X132299879Y-52259875D01*
X132299879Y-52259875D02*
X132389164Y-52212256D01*
X132389164Y-52212256D02*
X132424879Y-52117017D01*
X132424879Y-52117017D02*
X132377260Y-51736065D01*
X132377260Y-51736065D02*
X132317736Y-51640827D01*
X132317736Y-51640827D02*
X132216545Y-51593208D01*
X132216545Y-51593208D02*
X132026069Y-51593208D01*
X132026069Y-51593208D02*
X131936783Y-51640827D01*
X131936783Y-51640827D02*
X131901069Y-51736065D01*
X131901069Y-51736065D02*
X131912974Y-51831303D01*
X131912974Y-51831303D02*
X132401069Y-51926541D01*
X130776069Y-52259875D02*
X130651069Y-51259875D01*
X130347497Y-52259875D02*
X130282021Y-51736065D01*
X130282021Y-51736065D02*
X130317735Y-51640827D01*
X130317735Y-51640827D02*
X130407021Y-51593208D01*
X130407021Y-51593208D02*
X130549878Y-51593208D01*
X130549878Y-51593208D02*
X130651069Y-51640827D01*
X130651069Y-51640827D02*
X130704640Y-51688446D01*
X129442735Y-52259875D02*
X129377259Y-51736065D01*
X129377259Y-51736065D02*
X129412973Y-51640827D01*
X129412973Y-51640827D02*
X129502259Y-51593208D01*
X129502259Y-51593208D02*
X129692735Y-51593208D01*
X129692735Y-51593208D02*
X129793926Y-51640827D01*
X129436783Y-52212256D02*
X129537973Y-52259875D01*
X129537973Y-52259875D02*
X129776069Y-52259875D01*
X129776069Y-52259875D02*
X129865354Y-52212256D01*
X129865354Y-52212256D02*
X129901069Y-52117017D01*
X129901069Y-52117017D02*
X129889164Y-52021779D01*
X129889164Y-52021779D02*
X129829640Y-51926541D01*
X129829640Y-51926541D02*
X129728450Y-51878922D01*
X129728450Y-51878922D02*
X129490354Y-51878922D01*
X129490354Y-51878922D02*
X129389164Y-51831303D01*
X129008211Y-52212256D02*
X128918926Y-52259875D01*
X128918926Y-52259875D02*
X128728449Y-52259875D01*
X128728449Y-52259875D02*
X128627259Y-52212256D01*
X128627259Y-52212256D02*
X128567735Y-52117017D01*
X128567735Y-52117017D02*
X128561783Y-52069398D01*
X128561783Y-52069398D02*
X128597497Y-51974160D01*
X128597497Y-51974160D02*
X128686783Y-51926541D01*
X128686783Y-51926541D02*
X128829640Y-51926541D01*
X128829640Y-51926541D02*
X128918926Y-51878922D01*
X128918926Y-51878922D02*
X128954640Y-51783684D01*
X128954640Y-51783684D02*
X128948688Y-51736065D01*
X128948688Y-51736065D02*
X128889164Y-51640827D01*
X128889164Y-51640827D02*
X128787973Y-51593208D01*
X128787973Y-51593208D02*
X128645116Y-51593208D01*
X128645116Y-51593208D02*
X128555830Y-51640827D01*
X126960592Y-52212256D02*
X127061782Y-52259875D01*
X127061782Y-52259875D02*
X127252259Y-52259875D01*
X127252259Y-52259875D02*
X127341544Y-52212256D01*
X127341544Y-52212256D02*
X127383211Y-52164636D01*
X127383211Y-52164636D02*
X127418925Y-52069398D01*
X127418925Y-52069398D02*
X127383211Y-51783684D01*
X127383211Y-51783684D02*
X127323687Y-51688446D01*
X127323687Y-51688446D02*
X127270116Y-51640827D01*
X127270116Y-51640827D02*
X127168925Y-51593208D01*
X127168925Y-51593208D02*
X126978449Y-51593208D01*
X126978449Y-51593208D02*
X126889163Y-51640827D01*
X126395116Y-52259875D02*
X126484401Y-52212256D01*
X126484401Y-52212256D02*
X126526068Y-52164636D01*
X126526068Y-52164636D02*
X126561782Y-52069398D01*
X126561782Y-52069398D02*
X126526068Y-51783684D01*
X126526068Y-51783684D02*
X126466544Y-51688446D01*
X126466544Y-51688446D02*
X126412973Y-51640827D01*
X126412973Y-51640827D02*
X126311782Y-51593208D01*
X126311782Y-51593208D02*
X126168925Y-51593208D01*
X126168925Y-51593208D02*
X126079639Y-51640827D01*
X126079639Y-51640827D02*
X126037973Y-51688446D01*
X126037973Y-51688446D02*
X126002258Y-51783684D01*
X126002258Y-51783684D02*
X126037973Y-52069398D01*
X126037973Y-52069398D02*
X126097496Y-52164636D01*
X126097496Y-52164636D02*
X126151068Y-52212256D01*
X126151068Y-52212256D02*
X126252258Y-52259875D01*
X126252258Y-52259875D02*
X126395116Y-52259875D01*
X125633211Y-52259875D02*
X125549877Y-51593208D01*
X125561782Y-51688446D02*
X125508211Y-51640827D01*
X125508211Y-51640827D02*
X125407020Y-51593208D01*
X125407020Y-51593208D02*
X125264163Y-51593208D01*
X125264163Y-51593208D02*
X125174877Y-51640827D01*
X125174877Y-51640827D02*
X125139163Y-51736065D01*
X125139163Y-51736065D02*
X125204639Y-52259875D01*
X125139163Y-51736065D02*
X125079639Y-51640827D01*
X125079639Y-51640827D02*
X124978449Y-51593208D01*
X124978449Y-51593208D02*
X124835592Y-51593208D01*
X124835592Y-51593208D02*
X124746306Y-51640827D01*
X124746306Y-51640827D02*
X124710592Y-51736065D01*
X124710592Y-51736065D02*
X124776068Y-52259875D01*
X123912973Y-52212256D02*
X124014163Y-52259875D01*
X124014163Y-52259875D02*
X124204640Y-52259875D01*
X124204640Y-52259875D02*
X124293925Y-52212256D01*
X124293925Y-52212256D02*
X124329640Y-52117017D01*
X124329640Y-52117017D02*
X124282021Y-51736065D01*
X124282021Y-51736065D02*
X124222497Y-51640827D01*
X124222497Y-51640827D02*
X124121306Y-51593208D01*
X124121306Y-51593208D02*
X123930830Y-51593208D01*
X123930830Y-51593208D02*
X123841544Y-51640827D01*
X123841544Y-51640827D02*
X123805830Y-51736065D01*
X123805830Y-51736065D02*
X123817735Y-51831303D01*
X123817735Y-51831303D02*
X124305830Y-51926541D01*
X122740353Y-51593208D02*
X122359401Y-51593208D01*
X122555830Y-51259875D02*
X122662973Y-52117017D01*
X122662973Y-52117017D02*
X122627258Y-52212256D01*
X122627258Y-52212256D02*
X122537973Y-52259875D01*
X122537973Y-52259875D02*
X122442734Y-52259875D01*
X121966544Y-52259875D02*
X122055829Y-52212256D01*
X122055829Y-52212256D02*
X122097496Y-52164636D01*
X122097496Y-52164636D02*
X122133210Y-52069398D01*
X122133210Y-52069398D02*
X122097496Y-51783684D01*
X122097496Y-51783684D02*
X122037972Y-51688446D01*
X122037972Y-51688446D02*
X121984401Y-51640827D01*
X121984401Y-51640827D02*
X121883210Y-51593208D01*
X121883210Y-51593208D02*
X121740353Y-51593208D01*
X121740353Y-51593208D02*
X121651067Y-51640827D01*
X121651067Y-51640827D02*
X121609401Y-51688446D01*
X121609401Y-51688446D02*
X121573686Y-51783684D01*
X121573686Y-51783684D02*
X121609401Y-52069398D01*
X121609401Y-52069398D02*
X121668924Y-52164636D01*
X121668924Y-52164636D02*
X121722496Y-52212256D01*
X121722496Y-52212256D02*
X121823686Y-52259875D01*
X121823686Y-52259875D02*
X121966544Y-52259875D01*
X120014162Y-52259875D02*
X119948686Y-51736065D01*
X119948686Y-51736065D02*
X119984400Y-51640827D01*
X119984400Y-51640827D02*
X120073686Y-51593208D01*
X120073686Y-51593208D02*
X120264162Y-51593208D01*
X120264162Y-51593208D02*
X120365353Y-51640827D01*
X120008210Y-52212256D02*
X120109400Y-52259875D01*
X120109400Y-52259875D02*
X120347496Y-52259875D01*
X120347496Y-52259875D02*
X120436781Y-52212256D01*
X120436781Y-52212256D02*
X120472496Y-52117017D01*
X120472496Y-52117017D02*
X120460591Y-52021779D01*
X120460591Y-52021779D02*
X120401067Y-51926541D01*
X120401067Y-51926541D02*
X120299877Y-51878922D01*
X120299877Y-51878922D02*
X120061781Y-51878922D01*
X120061781Y-51878922D02*
X119960591Y-51831303D01*
X119103448Y-52212256D02*
X119204638Y-52259875D01*
X119204638Y-52259875D02*
X119395115Y-52259875D01*
X119395115Y-52259875D02*
X119484400Y-52212256D01*
X119484400Y-52212256D02*
X119526067Y-52164636D01*
X119526067Y-52164636D02*
X119561781Y-52069398D01*
X119561781Y-52069398D02*
X119526067Y-51783684D01*
X119526067Y-51783684D02*
X119466543Y-51688446D01*
X119466543Y-51688446D02*
X119412972Y-51640827D01*
X119412972Y-51640827D02*
X119311781Y-51593208D01*
X119311781Y-51593208D02*
X119121305Y-51593208D01*
X119121305Y-51593208D02*
X119032019Y-51640827D01*
X118740352Y-51593208D02*
X118359400Y-51593208D01*
X118555829Y-51259875D02*
X118662972Y-52117017D01*
X118662972Y-52117017D02*
X118627257Y-52212256D01*
X118627257Y-52212256D02*
X118537972Y-52259875D01*
X118537972Y-52259875D02*
X118442733Y-52259875D01*
X118055828Y-52212256D02*
X118061781Y-52259875D01*
X118061781Y-52259875D02*
X118121304Y-52355113D01*
X118121304Y-52355113D02*
X118174876Y-52402732D01*
X116442733Y-52259875D02*
X116377257Y-51736065D01*
X116377257Y-51736065D02*
X116412971Y-51640827D01*
X116412971Y-51640827D02*
X116502257Y-51593208D01*
X116502257Y-51593208D02*
X116692733Y-51593208D01*
X116692733Y-51593208D02*
X116793924Y-51640827D01*
X116436781Y-52212256D02*
X116537971Y-52259875D01*
X116537971Y-52259875D02*
X116776067Y-52259875D01*
X116776067Y-52259875D02*
X116865352Y-52212256D01*
X116865352Y-52212256D02*
X116901067Y-52117017D01*
X116901067Y-52117017D02*
X116889162Y-52021779D01*
X116889162Y-52021779D02*
X116829638Y-51926541D01*
X116829638Y-51926541D02*
X116728448Y-51878922D01*
X116728448Y-51878922D02*
X116490352Y-51878922D01*
X116490352Y-51878922D02*
X116389162Y-51831303D01*
X115883209Y-51593208D02*
X115966543Y-52259875D01*
X115895114Y-51688446D02*
X115841543Y-51640827D01*
X115841543Y-51640827D02*
X115740352Y-51593208D01*
X115740352Y-51593208D02*
X115597495Y-51593208D01*
X115597495Y-51593208D02*
X115508209Y-51640827D01*
X115508209Y-51640827D02*
X115472495Y-51736065D01*
X115472495Y-51736065D02*
X115537971Y-52259875D01*
X114633209Y-52259875D02*
X114508209Y-51259875D01*
X114627257Y-52212256D02*
X114728447Y-52259875D01*
X114728447Y-52259875D02*
X114918924Y-52259875D01*
X114918924Y-52259875D02*
X115008209Y-52212256D01*
X115008209Y-52212256D02*
X115049876Y-52164636D01*
X115049876Y-52164636D02*
X115085590Y-52069398D01*
X115085590Y-52069398D02*
X115049876Y-51783684D01*
X115049876Y-51783684D02*
X114990352Y-51688446D01*
X114990352Y-51688446D02*
X114936781Y-51640827D01*
X114936781Y-51640827D02*
X114835590Y-51593208D01*
X114835590Y-51593208D02*
X114645114Y-51593208D01*
X114645114Y-51593208D02*
X114555828Y-51640827D01*
X112966542Y-52259875D02*
X112901066Y-51736065D01*
X112901066Y-51736065D02*
X112936780Y-51640827D01*
X112936780Y-51640827D02*
X113026066Y-51593208D01*
X113026066Y-51593208D02*
X113216542Y-51593208D01*
X113216542Y-51593208D02*
X113317733Y-51640827D01*
X112960590Y-52212256D02*
X113061780Y-52259875D01*
X113061780Y-52259875D02*
X113299876Y-52259875D01*
X113299876Y-52259875D02*
X113389161Y-52212256D01*
X113389161Y-52212256D02*
X113424876Y-52117017D01*
X113424876Y-52117017D02*
X113412971Y-52021779D01*
X113412971Y-52021779D02*
X113353447Y-51926541D01*
X113353447Y-51926541D02*
X113252257Y-51878922D01*
X113252257Y-51878922D02*
X113014161Y-51878922D01*
X113014161Y-51878922D02*
X112912971Y-51831303D01*
X112055828Y-52212256D02*
X112157018Y-52259875D01*
X112157018Y-52259875D02*
X112347495Y-52259875D01*
X112347495Y-52259875D02*
X112436780Y-52212256D01*
X112436780Y-52212256D02*
X112478447Y-52164636D01*
X112478447Y-52164636D02*
X112514161Y-52069398D01*
X112514161Y-52069398D02*
X112478447Y-51783684D01*
X112478447Y-51783684D02*
X112418923Y-51688446D01*
X112418923Y-51688446D02*
X112365352Y-51640827D01*
X112365352Y-51640827D02*
X112264161Y-51593208D01*
X112264161Y-51593208D02*
X112073685Y-51593208D01*
X112073685Y-51593208D02*
X111984399Y-51640827D01*
X111692732Y-51593208D02*
X111311780Y-51593208D01*
X111508209Y-51259875D02*
X111615352Y-52117017D01*
X111615352Y-52117017D02*
X111579637Y-52212256D01*
X111579637Y-52212256D02*
X111490352Y-52259875D01*
X111490352Y-52259875D02*
X111395113Y-52259875D01*
X110359398Y-51593208D02*
X109978446Y-51593208D01*
X110299875Y-52259875D02*
X110192732Y-51402732D01*
X110192732Y-51402732D02*
X110133208Y-51307494D01*
X110133208Y-51307494D02*
X110032018Y-51259875D01*
X110032018Y-51259875D02*
X109936779Y-51259875D01*
X109299874Y-52259875D02*
X109234398Y-51736065D01*
X109234398Y-51736065D02*
X109270112Y-51640827D01*
X109270112Y-51640827D02*
X109359398Y-51593208D01*
X109359398Y-51593208D02*
X109549874Y-51593208D01*
X109549874Y-51593208D02*
X109651065Y-51640827D01*
X109293922Y-52212256D02*
X109395112Y-52259875D01*
X109395112Y-52259875D02*
X109633208Y-52259875D01*
X109633208Y-52259875D02*
X109722493Y-52212256D01*
X109722493Y-52212256D02*
X109758208Y-52117017D01*
X109758208Y-52117017D02*
X109746303Y-52021779D01*
X109746303Y-52021779D02*
X109686779Y-51926541D01*
X109686779Y-51926541D02*
X109585589Y-51878922D01*
X109585589Y-51878922D02*
X109347493Y-51878922D01*
X109347493Y-51878922D02*
X109246303Y-51831303D01*
X108865350Y-52212256D02*
X108776065Y-52259875D01*
X108776065Y-52259875D02*
X108585588Y-52259875D01*
X108585588Y-52259875D02*
X108484398Y-52212256D01*
X108484398Y-52212256D02*
X108424874Y-52117017D01*
X108424874Y-52117017D02*
X108418922Y-52069398D01*
X108418922Y-52069398D02*
X108454636Y-51974160D01*
X108454636Y-51974160D02*
X108543922Y-51926541D01*
X108543922Y-51926541D02*
X108686779Y-51926541D01*
X108686779Y-51926541D02*
X108776065Y-51878922D01*
X108776065Y-51878922D02*
X108811779Y-51783684D01*
X108811779Y-51783684D02*
X108805827Y-51736065D01*
X108805827Y-51736065D02*
X108746303Y-51640827D01*
X108746303Y-51640827D02*
X108645112Y-51593208D01*
X108645112Y-51593208D02*
X108502255Y-51593208D01*
X108502255Y-51593208D02*
X108412969Y-51640827D01*
X108073683Y-51593208D02*
X107692731Y-51593208D01*
X107889160Y-51259875D02*
X107996303Y-52117017D01*
X107996303Y-52117017D02*
X107960588Y-52212256D01*
X107960588Y-52212256D02*
X107871303Y-52259875D01*
X107871303Y-52259875D02*
X107776064Y-52259875D01*
X107430826Y-52164636D02*
X107389159Y-52212256D01*
X107389159Y-52212256D02*
X107442731Y-52259875D01*
X107442731Y-52259875D02*
X107484397Y-52212256D01*
X107484397Y-52212256D02*
X107430826Y-52164636D01*
X107430826Y-52164636D02*
X107442731Y-52259875D01*
X107395112Y-51878922D02*
X107371302Y-51307494D01*
X107371302Y-51307494D02*
X107317731Y-51259875D01*
X107317731Y-51259875D02*
X107276064Y-51307494D01*
X107276064Y-51307494D02*
X107395112Y-51878922D01*
X107395112Y-51878922D02*
X107317731Y-51259875D01*
X115823683Y-53869819D02*
X115698683Y-52869819D01*
X115174874Y-52869819D02*
X115293921Y-53060295D01*
X114871303Y-53869819D02*
X114787969Y-53203152D01*
X114799874Y-53298390D02*
X114746303Y-53250771D01*
X114746303Y-53250771D02*
X114645112Y-53203152D01*
X114645112Y-53203152D02*
X114502255Y-53203152D01*
X114502255Y-53203152D02*
X114412969Y-53250771D01*
X114412969Y-53250771D02*
X114377255Y-53346009D01*
X114377255Y-53346009D02*
X114442731Y-53869819D01*
X114377255Y-53346009D02*
X114317731Y-53250771D01*
X114317731Y-53250771D02*
X114216541Y-53203152D01*
X114216541Y-53203152D02*
X114073684Y-53203152D01*
X114073684Y-53203152D02*
X113984398Y-53250771D01*
X113984398Y-53250771D02*
X113948684Y-53346009D01*
X113948684Y-53346009D02*
X114014160Y-53869819D01*
X112633208Y-53869819D02*
X112722493Y-53822200D01*
X112722493Y-53822200D02*
X112758208Y-53726961D01*
X112758208Y-53726961D02*
X112651065Y-52869819D01*
X111865350Y-53822200D02*
X111966540Y-53869819D01*
X111966540Y-53869819D02*
X112157017Y-53869819D01*
X112157017Y-53869819D02*
X112246302Y-53822200D01*
X112246302Y-53822200D02*
X112282017Y-53726961D01*
X112282017Y-53726961D02*
X112234398Y-53346009D01*
X112234398Y-53346009D02*
X112174874Y-53250771D01*
X112174874Y-53250771D02*
X112073683Y-53203152D01*
X112073683Y-53203152D02*
X111883207Y-53203152D01*
X111883207Y-53203152D02*
X111793921Y-53250771D01*
X111793921Y-53250771D02*
X111758207Y-53346009D01*
X111758207Y-53346009D02*
X111770112Y-53441247D01*
X111770112Y-53441247D02*
X112258207Y-53536485D01*
X110966540Y-53869819D02*
X110901064Y-53346009D01*
X110901064Y-53346009D02*
X110936778Y-53250771D01*
X110936778Y-53250771D02*
X111026064Y-53203152D01*
X111026064Y-53203152D02*
X111216540Y-53203152D01*
X111216540Y-53203152D02*
X111317731Y-53250771D01*
X110960588Y-53822200D02*
X111061778Y-53869819D01*
X111061778Y-53869819D02*
X111299874Y-53869819D01*
X111299874Y-53869819D02*
X111389159Y-53822200D01*
X111389159Y-53822200D02*
X111424874Y-53726961D01*
X111424874Y-53726961D02*
X111412969Y-53631723D01*
X111412969Y-53631723D02*
X111353445Y-53536485D01*
X111353445Y-53536485D02*
X111252255Y-53488866D01*
X111252255Y-53488866D02*
X111014159Y-53488866D01*
X111014159Y-53488866D02*
X110912969Y-53441247D01*
X110502254Y-53203152D02*
X110347493Y-53869819D01*
X110347493Y-53869819D02*
X110026064Y-53203152D01*
X109728445Y-53869819D02*
X109645111Y-53203152D01*
X109603445Y-52869819D02*
X109657016Y-52917438D01*
X109657016Y-52917438D02*
X109615349Y-52965057D01*
X109615349Y-52965057D02*
X109561778Y-52917438D01*
X109561778Y-52917438D02*
X109603445Y-52869819D01*
X109603445Y-52869819D02*
X109615349Y-52965057D01*
X109168921Y-53203152D02*
X109252255Y-53869819D01*
X109180826Y-53298390D02*
X109127255Y-53250771D01*
X109127255Y-53250771D02*
X109026064Y-53203152D01*
X109026064Y-53203152D02*
X108883207Y-53203152D01*
X108883207Y-53203152D02*
X108793921Y-53250771D01*
X108793921Y-53250771D02*
X108758207Y-53346009D01*
X108758207Y-53346009D02*
X108823683Y-53869819D01*
X107835588Y-53203152D02*
X107936778Y-54012676D01*
X107936778Y-54012676D02*
X107996302Y-54107914D01*
X107996302Y-54107914D02*
X108049874Y-54155533D01*
X108049874Y-54155533D02*
X108151064Y-54203152D01*
X108151064Y-54203152D02*
X108293921Y-54203152D01*
X108293921Y-54203152D02*
X108383207Y-54155533D01*
X107912969Y-53822200D02*
X108014159Y-53869819D01*
X108014159Y-53869819D02*
X108204636Y-53869819D01*
X108204636Y-53869819D02*
X108293921Y-53822200D01*
X108293921Y-53822200D02*
X108335588Y-53774580D01*
X108335588Y-53774580D02*
X108371302Y-53679342D01*
X108371302Y-53679342D02*
X108335588Y-53393628D01*
X108335588Y-53393628D02*
X108276064Y-53298390D01*
X108276064Y-53298390D02*
X108222493Y-53250771D01*
X108222493Y-53250771D02*
X108121302Y-53203152D01*
X108121302Y-53203152D02*
X107930826Y-53203152D01*
X107930826Y-53203152D02*
X107841540Y-53250771D01*
X107430826Y-53774580D02*
X107389159Y-53822200D01*
X107389159Y-53822200D02*
X107442731Y-53869819D01*
X107442731Y-53869819D02*
X107484397Y-53822200D01*
X107484397Y-53822200D02*
X107430826Y-53774580D01*
X107430826Y-53774580D02*
X107442731Y-53869819D01*
X150201316Y-109803152D02*
X150963220Y-110088866D01*
X150963220Y-110088866D02*
X150201316Y-110374580D01*
X149725125Y-110088866D02*
X148963221Y-110088866D01*
X148487030Y-110088866D02*
X147725126Y-110088866D01*
X146153697Y-109946009D02*
X146010840Y-109993628D01*
X146010840Y-109993628D02*
X145963221Y-110041247D01*
X145963221Y-110041247D02*
X145915602Y-110136485D01*
X145915602Y-110136485D02*
X145915602Y-110279342D01*
X145915602Y-110279342D02*
X145963221Y-110374580D01*
X145963221Y-110374580D02*
X146010840Y-110422200D01*
X146010840Y-110422200D02*
X146106078Y-110469819D01*
X146106078Y-110469819D02*
X146487030Y-110469819D01*
X146487030Y-110469819D02*
X146487030Y-109469819D01*
X146487030Y-109469819D02*
X146153697Y-109469819D01*
X146153697Y-109469819D02*
X146058459Y-109517438D01*
X146058459Y-109517438D02*
X146010840Y-109565057D01*
X146010840Y-109565057D02*
X145963221Y-109660295D01*
X145963221Y-109660295D02*
X145963221Y-109755533D01*
X145963221Y-109755533D02*
X146010840Y-109850771D01*
X146010840Y-109850771D02*
X146058459Y-109898390D01*
X146058459Y-109898390D02*
X146153697Y-109946009D01*
X146153697Y-109946009D02*
X146487030Y-109946009D01*
X144915602Y-110469819D02*
X145248935Y-109993628D01*
X145487030Y-110469819D02*
X145487030Y-109469819D01*
X145487030Y-109469819D02*
X145106078Y-109469819D01*
X145106078Y-109469819D02*
X145010840Y-109517438D01*
X145010840Y-109517438D02*
X144963221Y-109565057D01*
X144963221Y-109565057D02*
X144915602Y-109660295D01*
X144915602Y-109660295D02*
X144915602Y-109803152D01*
X144915602Y-109803152D02*
X144963221Y-109898390D01*
X144963221Y-109898390D02*
X145010840Y-109946009D01*
X145010840Y-109946009D02*
X145106078Y-109993628D01*
X145106078Y-109993628D02*
X145487030Y-109993628D01*
X144487030Y-110469819D02*
X144487030Y-109469819D01*
X144010840Y-110469819D02*
X144010840Y-109469819D01*
X144010840Y-109469819D02*
X143772745Y-109469819D01*
X143772745Y-109469819D02*
X143629888Y-109517438D01*
X143629888Y-109517438D02*
X143534650Y-109612676D01*
X143534650Y-109612676D02*
X143487031Y-109707914D01*
X143487031Y-109707914D02*
X143439412Y-109898390D01*
X143439412Y-109898390D02*
X143439412Y-110041247D01*
X143439412Y-110041247D02*
X143487031Y-110231723D01*
X143487031Y-110231723D02*
X143534650Y-110326961D01*
X143534650Y-110326961D02*
X143629888Y-110422200D01*
X143629888Y-110422200D02*
X143772745Y-110469819D01*
X143772745Y-110469819D02*
X144010840Y-110469819D01*
X142487031Y-109517438D02*
X142582269Y-109469819D01*
X142582269Y-109469819D02*
X142725126Y-109469819D01*
X142725126Y-109469819D02*
X142867983Y-109517438D01*
X142867983Y-109517438D02*
X142963221Y-109612676D01*
X142963221Y-109612676D02*
X143010840Y-109707914D01*
X143010840Y-109707914D02*
X143058459Y-109898390D01*
X143058459Y-109898390D02*
X143058459Y-110041247D01*
X143058459Y-110041247D02*
X143010840Y-110231723D01*
X143010840Y-110231723D02*
X142963221Y-110326961D01*
X142963221Y-110326961D02*
X142867983Y-110422200D01*
X142867983Y-110422200D02*
X142725126Y-110469819D01*
X142725126Y-110469819D02*
X142629888Y-110469819D01*
X142629888Y-110469819D02*
X142487031Y-110422200D01*
X142487031Y-110422200D02*
X142439412Y-110374580D01*
X142439412Y-110374580D02*
X142439412Y-110041247D01*
X142439412Y-110041247D02*
X142629888Y-110041247D01*
X142010840Y-109946009D02*
X141677507Y-109946009D01*
X141534650Y-110469819D02*
X142010840Y-110469819D01*
X142010840Y-110469819D02*
X142010840Y-109469819D01*
X142010840Y-109469819D02*
X141534650Y-109469819D01*
X140487030Y-109469819D02*
X139915602Y-109469819D01*
X140201316Y-110469819D02*
X140201316Y-109469819D01*
X139391792Y-109469819D02*
X139201316Y-109469819D01*
X139201316Y-109469819D02*
X139106078Y-109517438D01*
X139106078Y-109517438D02*
X139010840Y-109612676D01*
X139010840Y-109612676D02*
X138963221Y-109803152D01*
X138963221Y-109803152D02*
X138963221Y-110136485D01*
X138963221Y-110136485D02*
X139010840Y-110326961D01*
X139010840Y-110326961D02*
X139106078Y-110422200D01*
X139106078Y-110422200D02*
X139201316Y-110469819D01*
X139201316Y-110469819D02*
X139391792Y-110469819D01*
X139391792Y-110469819D02*
X139487030Y-110422200D01*
X139487030Y-110422200D02*
X139582268Y-110326961D01*
X139582268Y-110326961D02*
X139629887Y-110136485D01*
X139629887Y-110136485D02*
X139629887Y-109803152D01*
X139629887Y-109803152D02*
X139582268Y-109612676D01*
X139582268Y-109612676D02*
X139487030Y-109517438D01*
X139487030Y-109517438D02*
X139391792Y-109469819D01*
X137201316Y-110469819D02*
X137534649Y-109993628D01*
X137772744Y-110469819D02*
X137772744Y-109469819D01*
X137772744Y-109469819D02*
X137391792Y-109469819D01*
X137391792Y-109469819D02*
X137296554Y-109517438D01*
X137296554Y-109517438D02*
X137248935Y-109565057D01*
X137248935Y-109565057D02*
X137201316Y-109660295D01*
X137201316Y-109660295D02*
X137201316Y-109803152D01*
X137201316Y-109803152D02*
X137248935Y-109898390D01*
X137248935Y-109898390D02*
X137296554Y-109946009D01*
X137296554Y-109946009D02*
X137391792Y-109993628D01*
X137391792Y-109993628D02*
X137772744Y-109993628D01*
X136772744Y-109946009D02*
X136439411Y-109946009D01*
X136296554Y-110469819D02*
X136772744Y-110469819D01*
X136772744Y-110469819D02*
X136772744Y-109469819D01*
X136772744Y-109469819D02*
X136296554Y-109469819D01*
X135391792Y-110469819D02*
X135867982Y-110469819D01*
X135867982Y-110469819D02*
X135867982Y-109469819D01*
X135058458Y-109946009D02*
X134725125Y-109946009D01*
X134582268Y-110469819D02*
X135058458Y-110469819D01*
X135058458Y-110469819D02*
X135058458Y-109469819D01*
X135058458Y-109469819D02*
X134582268Y-109469819D01*
X134201315Y-110184104D02*
X133725125Y-110184104D01*
X134296553Y-110469819D02*
X133963220Y-109469819D01*
X133963220Y-109469819D02*
X133629887Y-110469819D01*
X133344172Y-110422200D02*
X133201315Y-110469819D01*
X133201315Y-110469819D02*
X132963220Y-110469819D01*
X132963220Y-110469819D02*
X132867982Y-110422200D01*
X132867982Y-110422200D02*
X132820363Y-110374580D01*
X132820363Y-110374580D02*
X132772744Y-110279342D01*
X132772744Y-110279342D02*
X132772744Y-110184104D01*
X132772744Y-110184104D02*
X132820363Y-110088866D01*
X132820363Y-110088866D02*
X132867982Y-110041247D01*
X132867982Y-110041247D02*
X132963220Y-109993628D01*
X132963220Y-109993628D02*
X133153696Y-109946009D01*
X133153696Y-109946009D02*
X133248934Y-109898390D01*
X133248934Y-109898390D02*
X133296553Y-109850771D01*
X133296553Y-109850771D02*
X133344172Y-109755533D01*
X133344172Y-109755533D02*
X133344172Y-109660295D01*
X133344172Y-109660295D02*
X133296553Y-109565057D01*
X133296553Y-109565057D02*
X133248934Y-109517438D01*
X133248934Y-109517438D02*
X133153696Y-109469819D01*
X133153696Y-109469819D02*
X132915601Y-109469819D01*
X132915601Y-109469819D02*
X132772744Y-109517438D01*
X132344172Y-109946009D02*
X132010839Y-109946009D01*
X131867982Y-110469819D02*
X132344172Y-110469819D01*
X132344172Y-110469819D02*
X132344172Y-109469819D01*
X132344172Y-109469819D02*
X131867982Y-109469819D01*
X130677505Y-110469819D02*
X130677505Y-109469819D01*
X130677505Y-109469819D02*
X130344172Y-110184104D01*
X130344172Y-110184104D02*
X130010839Y-109469819D01*
X130010839Y-109469819D02*
X130010839Y-110469819D01*
X129582267Y-110184104D02*
X129106077Y-110184104D01*
X129677505Y-110469819D02*
X129344172Y-109469819D01*
X129344172Y-109469819D02*
X129010839Y-110469819D01*
X128153696Y-109517438D02*
X128248934Y-109469819D01*
X128248934Y-109469819D02*
X128391791Y-109469819D01*
X128391791Y-109469819D02*
X128534648Y-109517438D01*
X128534648Y-109517438D02*
X128629886Y-109612676D01*
X128629886Y-109612676D02*
X128677505Y-109707914D01*
X128677505Y-109707914D02*
X128725124Y-109898390D01*
X128725124Y-109898390D02*
X128725124Y-110041247D01*
X128725124Y-110041247D02*
X128677505Y-110231723D01*
X128677505Y-110231723D02*
X128629886Y-110326961D01*
X128629886Y-110326961D02*
X128534648Y-110422200D01*
X128534648Y-110422200D02*
X128391791Y-110469819D01*
X128391791Y-110469819D02*
X128296553Y-110469819D01*
X128296553Y-110469819D02*
X128153696Y-110422200D01*
X128153696Y-110422200D02*
X128106077Y-110374580D01*
X128106077Y-110374580D02*
X128106077Y-110041247D01*
X128106077Y-110041247D02*
X128296553Y-110041247D01*
X127677505Y-110469819D02*
X127677505Y-109469819D01*
X126629887Y-110374580D02*
X126677506Y-110422200D01*
X126677506Y-110422200D02*
X126820363Y-110469819D01*
X126820363Y-110469819D02*
X126915601Y-110469819D01*
X126915601Y-110469819D02*
X127058458Y-110422200D01*
X127058458Y-110422200D02*
X127153696Y-110326961D01*
X127153696Y-110326961D02*
X127201315Y-110231723D01*
X127201315Y-110231723D02*
X127248934Y-110041247D01*
X127248934Y-110041247D02*
X127248934Y-109898390D01*
X127248934Y-109898390D02*
X127201315Y-109707914D01*
X127201315Y-109707914D02*
X127153696Y-109612676D01*
X127153696Y-109612676D02*
X127058458Y-109517438D01*
X127058458Y-109517438D02*
X126915601Y-109469819D01*
X126915601Y-109469819D02*
X126820363Y-109469819D01*
X126820363Y-109469819D02*
X126677506Y-109517438D01*
X126677506Y-109517438D02*
X126629887Y-109565057D01*
X125487029Y-110422200D02*
X125344172Y-110469819D01*
X125344172Y-110469819D02*
X125106077Y-110469819D01*
X125106077Y-110469819D02*
X125010839Y-110422200D01*
X125010839Y-110422200D02*
X124963220Y-110374580D01*
X124963220Y-110374580D02*
X124915601Y-110279342D01*
X124915601Y-110279342D02*
X124915601Y-110184104D01*
X124915601Y-110184104D02*
X124963220Y-110088866D01*
X124963220Y-110088866D02*
X125010839Y-110041247D01*
X125010839Y-110041247D02*
X125106077Y-109993628D01*
X125106077Y-109993628D02*
X125296553Y-109946009D01*
X125296553Y-109946009D02*
X125391791Y-109898390D01*
X125391791Y-109898390D02*
X125439410Y-109850771D01*
X125439410Y-109850771D02*
X125487029Y-109755533D01*
X125487029Y-109755533D02*
X125487029Y-109660295D01*
X125487029Y-109660295D02*
X125439410Y-109565057D01*
X125439410Y-109565057D02*
X125391791Y-109517438D01*
X125391791Y-109517438D02*
X125296553Y-109469819D01*
X125296553Y-109469819D02*
X125058458Y-109469819D01*
X125058458Y-109469819D02*
X124915601Y-109517438D01*
X124487029Y-110469819D02*
X124487029Y-109469819D01*
X124487029Y-109469819D02*
X124153696Y-110184104D01*
X124153696Y-110184104D02*
X123820363Y-109469819D01*
X123820363Y-109469819D02*
X123820363Y-110469819D01*
X123153696Y-109469819D02*
X122963220Y-109469819D01*
X122963220Y-109469819D02*
X122867982Y-109517438D01*
X122867982Y-109517438D02*
X122772744Y-109612676D01*
X122772744Y-109612676D02*
X122725125Y-109803152D01*
X122725125Y-109803152D02*
X122725125Y-110136485D01*
X122725125Y-110136485D02*
X122772744Y-110326961D01*
X122772744Y-110326961D02*
X122867982Y-110422200D01*
X122867982Y-110422200D02*
X122963220Y-110469819D01*
X122963220Y-110469819D02*
X123153696Y-110469819D01*
X123153696Y-110469819D02*
X123248934Y-110422200D01*
X123248934Y-110422200D02*
X123344172Y-110326961D01*
X123344172Y-110326961D02*
X123391791Y-110136485D01*
X123391791Y-110136485D02*
X123391791Y-109803152D01*
X123391791Y-109803152D02*
X123344172Y-109612676D01*
X123344172Y-109612676D02*
X123248934Y-109517438D01*
X123248934Y-109517438D02*
X123153696Y-109469819D01*
X122296553Y-110469819D02*
X122296553Y-109469819D01*
X121725125Y-110469819D02*
X122153696Y-109898390D01*
X121725125Y-109469819D02*
X122296553Y-110041247D01*
X121296553Y-109946009D02*
X120963220Y-109946009D01*
X120820363Y-110469819D02*
X121296553Y-110469819D01*
X121296553Y-110469819D02*
X121296553Y-109469819D01*
X121296553Y-109469819D02*
X120820363Y-109469819D01*
X119629886Y-110088866D02*
X118867982Y-110088866D01*
X118391791Y-110088866D02*
X117629887Y-110088866D01*
X117153696Y-109803152D02*
X116391792Y-110088866D01*
X116391792Y-110088866D02*
X117153696Y-110374580D01*
D11*
%TO.C,G\u002A\u002A\u002A*%
G36*
X155321536Y-89667986D02*
G01*
X155360165Y-89692796D01*
X155395271Y-89722981D01*
X155399539Y-90177648D01*
X155400307Y-90312511D01*
X155393550Y-90857058D01*
X155371348Y-91403385D01*
X155334083Y-91944053D01*
X155282135Y-92471625D01*
X155275931Y-92524893D01*
X155266188Y-92605465D01*
X155255467Y-92691377D01*
X155244269Y-92778856D01*
X155233095Y-92864131D01*
X155222448Y-92943428D01*
X155212830Y-93012975D01*
X155204742Y-93069000D01*
X155198686Y-93107731D01*
X155195164Y-93125393D01*
X155192019Y-93128971D01*
X155166823Y-93136104D01*
X155117485Y-93139935D01*
X155044486Y-93140467D01*
X154948306Y-93137704D01*
X154829426Y-93131648D01*
X154688326Y-93122302D01*
X154573502Y-93113494D01*
X154460014Y-93103333D01*
X154368322Y-93093184D01*
X154296685Y-93082825D01*
X154243359Y-93072032D01*
X154206601Y-93060581D01*
X154205814Y-93060259D01*
X154181830Y-93049312D01*
X154178931Y-93041558D01*
X154194871Y-93031404D01*
X154211831Y-93025269D01*
X154254257Y-93015765D01*
X154315061Y-93005545D01*
X154390397Y-92995036D01*
X154476417Y-92984662D01*
X154569274Y-92974851D01*
X154665122Y-92966028D01*
X154760113Y-92958620D01*
X154850401Y-92953052D01*
X154932138Y-92949751D01*
X155032059Y-92947093D01*
X155065222Y-92684334D01*
X155089480Y-92484112D01*
X155147480Y-91908585D01*
X155186898Y-91339308D01*
X155208165Y-90768950D01*
X155211712Y-90190178D01*
X155207587Y-89723016D01*
X155242693Y-89692813D01*
X155248545Y-89687930D01*
X155286327Y-89666364D01*
X155321536Y-89667986D01*
G37*
G36*
X156416788Y-89675853D02*
G01*
X156446012Y-89693646D01*
X156467636Y-89717447D01*
X156469585Y-89724927D01*
X156472750Y-89756495D01*
X156475419Y-89808978D01*
X156477595Y-89879727D01*
X156479282Y-89966093D01*
X156480482Y-90065426D01*
X156481196Y-90175078D01*
X156481428Y-90292398D01*
X156481181Y-90414738D01*
X156480456Y-90539447D01*
X156479256Y-90663878D01*
X156477585Y-90785380D01*
X156475443Y-90901303D01*
X156472835Y-91009000D01*
X156469762Y-91105819D01*
X156466227Y-91189113D01*
X156463738Y-91237949D01*
X156442631Y-91587455D01*
X156415969Y-91935925D01*
X156384296Y-92277419D01*
X156348155Y-92605998D01*
X156308091Y-92915721D01*
X156299354Y-92978141D01*
X156290579Y-93041144D01*
X156283623Y-93091440D01*
X156279041Y-93125005D01*
X156277390Y-93137814D01*
X156277339Y-93138033D01*
X156263964Y-93140598D01*
X156229368Y-93141646D01*
X156177076Y-93141286D01*
X156110611Y-93139626D01*
X156033500Y-93136777D01*
X155949265Y-93132847D01*
X155861433Y-93127947D01*
X155773527Y-93122184D01*
X155723279Y-93118537D01*
X155593893Y-93108161D01*
X155487846Y-93097933D01*
X155403886Y-93087657D01*
X155340762Y-93077135D01*
X155297222Y-93066171D01*
X155272016Y-93054569D01*
X155263892Y-93042132D01*
X155264297Y-93040512D01*
X155280431Y-93030842D01*
X155317787Y-93020291D01*
X155373176Y-93009280D01*
X155443409Y-92998232D01*
X155525296Y-92987569D01*
X155615649Y-92977712D01*
X155711279Y-92969084D01*
X155808997Y-92962107D01*
X155905614Y-92957203D01*
X155947130Y-92955343D01*
X156009892Y-92951569D01*
X156060847Y-92947291D01*
X156095591Y-92942908D01*
X156109723Y-92938815D01*
X156110453Y-92937089D01*
X156115116Y-92915276D01*
X156121928Y-92872574D01*
X156130491Y-92812228D01*
X156140410Y-92737483D01*
X156151285Y-92651586D01*
X156162720Y-92557781D01*
X156174319Y-92459315D01*
X156185682Y-92359432D01*
X156196414Y-92261379D01*
X156206116Y-92168401D01*
X156214392Y-92083743D01*
X156216882Y-92057037D01*
X156230188Y-91910287D01*
X156241576Y-91775772D01*
X156251215Y-91649766D01*
X156259271Y-91528542D01*
X156265912Y-91408376D01*
X156271304Y-91285542D01*
X156275615Y-91156312D01*
X156279011Y-91016963D01*
X156281660Y-90863768D01*
X156283729Y-90693000D01*
X156285385Y-90500935D01*
X156286389Y-90375910D01*
X156287598Y-90247330D01*
X156288901Y-90127803D01*
X156290266Y-90019611D01*
X156291659Y-89925035D01*
X156293045Y-89846357D01*
X156294392Y-89785859D01*
X156295664Y-89745822D01*
X156296829Y-89728527D01*
X156297228Y-89726911D01*
X156313228Y-89702036D01*
X156341417Y-89680621D01*
X156356836Y-89673295D01*
X156385576Y-89667284D01*
X156416788Y-89675853D01*
G37*
G36*
X164791470Y-89617961D02*
G01*
X164910887Y-89623888D01*
X164978806Y-89629128D01*
X165073737Y-89637911D01*
X165169161Y-89648191D01*
X165260835Y-89659408D01*
X165344520Y-89671002D01*
X165415974Y-89682411D01*
X165470955Y-89693075D01*
X165505222Y-89702435D01*
X165556825Y-89731688D01*
X165598765Y-89773933D01*
X165623184Y-89821519D01*
X165624622Y-89830056D01*
X165626848Y-89865213D01*
X165628079Y-89922316D01*
X165628317Y-89999304D01*
X165627562Y-90094117D01*
X165625815Y-90204696D01*
X165623076Y-90328979D01*
X165621790Y-90388525D01*
X165620145Y-90488879D01*
X165618622Y-90609425D01*
X165617241Y-90747387D01*
X165616017Y-90899987D01*
X165614969Y-91064445D01*
X165614113Y-91237983D01*
X165613466Y-91417825D01*
X165613045Y-91601190D01*
X165612869Y-91785302D01*
X165612953Y-91967382D01*
X165614388Y-93139788D01*
X165587760Y-93182872D01*
X165572749Y-93204357D01*
X165549726Y-93227030D01*
X165519580Y-93244543D01*
X165478730Y-93258000D01*
X165423597Y-93268504D01*
X165350601Y-93277157D01*
X165256163Y-93285063D01*
X165249506Y-93285545D01*
X165181777Y-93289403D01*
X165099915Y-93292580D01*
X165007182Y-93295080D01*
X164906841Y-93296908D01*
X164802155Y-93298067D01*
X164696385Y-93298561D01*
X164592794Y-93298396D01*
X164494645Y-93297573D01*
X164405200Y-93296098D01*
X164327722Y-93293975D01*
X164265473Y-93291207D01*
X164221716Y-93287799D01*
X164199713Y-93283755D01*
X164184147Y-93274422D01*
X164182131Y-93262982D01*
X164199642Y-93250773D01*
X164238005Y-93237214D01*
X164298547Y-93221725D01*
X164382597Y-93203726D01*
X164396226Y-93200984D01*
X164590300Y-93164903D01*
X164771166Y-93137466D01*
X164947969Y-93117449D01*
X165129853Y-93103625D01*
X165130057Y-93103613D01*
X165206354Y-93098877D01*
X165275470Y-93094205D01*
X165332954Y-93089927D01*
X165374354Y-93086375D01*
X165395219Y-93083881D01*
X165422851Y-93078257D01*
X165421027Y-91999177D01*
X165420975Y-91964907D01*
X165420865Y-91786100D01*
X165421009Y-91603792D01*
X165421390Y-91421152D01*
X165421991Y-91241350D01*
X165422797Y-91067554D01*
X165423791Y-90902935D01*
X165424956Y-90750662D01*
X165426276Y-90613905D01*
X165427735Y-90495834D01*
X165429316Y-90399617D01*
X165439427Y-89879135D01*
X165378482Y-89870363D01*
X165342228Y-89865234D01*
X165082967Y-89834017D01*
X164838640Y-89814396D01*
X164611585Y-89806514D01*
X164404138Y-89810514D01*
X164345354Y-89813291D01*
X164281491Y-89815047D01*
X164235802Y-89813552D01*
X164204325Y-89807977D01*
X164183099Y-89797492D01*
X164168164Y-89781269D01*
X164155558Y-89758479D01*
X164144736Y-89726987D01*
X164149032Y-89688630D01*
X164176967Y-89651936D01*
X164187694Y-89643477D01*
X164202375Y-89636675D01*
X164224178Y-89631484D01*
X164256681Y-89627464D01*
X164303464Y-89624180D01*
X164368107Y-89621193D01*
X164454188Y-89618067D01*
X164519924Y-89616306D01*
X164657671Y-89615389D01*
X164791470Y-89617961D01*
G37*
G36*
X163984976Y-89842145D02*
G01*
X163984976Y-91560407D01*
X163984976Y-93278669D01*
X163431306Y-93278623D01*
X163420907Y-93278622D01*
X163290267Y-93278564D01*
X163182142Y-93278356D01*
X163094194Y-93277899D01*
X163024083Y-93277093D01*
X162969468Y-93275839D01*
X162928012Y-93274036D01*
X162897374Y-93271586D01*
X162875216Y-93268390D01*
X162859196Y-93264347D01*
X162846977Y-93259358D01*
X162836218Y-93253324D01*
X162832607Y-93251159D01*
X162819408Y-93243583D01*
X162807779Y-93236372D01*
X162797703Y-93228033D01*
X162789161Y-93217076D01*
X162782138Y-93202009D01*
X162776615Y-93181340D01*
X162772575Y-93153578D01*
X162770001Y-93117231D01*
X162769364Y-93090985D01*
X162943538Y-93090985D01*
X163370322Y-93090985D01*
X163797106Y-93090985D01*
X163800327Y-91458901D01*
X163803547Y-89826818D01*
X163709705Y-89819519D01*
X163691135Y-89818058D01*
X163614674Y-89811758D01*
X163532729Y-89804631D01*
X163449646Y-89797094D01*
X163369771Y-89789562D01*
X163297450Y-89782452D01*
X163237029Y-89776178D01*
X163192854Y-89771158D01*
X163169271Y-89767806D01*
X163148366Y-89765551D01*
X163135830Y-89774695D01*
X163129284Y-89802539D01*
X163128070Y-89816783D01*
X163125530Y-89855093D01*
X163121839Y-89915459D01*
X163117082Y-89996323D01*
X163111347Y-90096125D01*
X163104721Y-90213308D01*
X163097291Y-90346312D01*
X163089144Y-90493579D01*
X163080367Y-90653551D01*
X163071048Y-90824668D01*
X163061272Y-91005373D01*
X163051127Y-91194106D01*
X163040700Y-91389310D01*
X163031808Y-91555932D01*
X163021565Y-91747001D01*
X163011663Y-91930762D01*
X163002192Y-92105608D01*
X162993240Y-92269930D01*
X162984896Y-92422121D01*
X162977249Y-92560575D01*
X162970388Y-92683683D01*
X162964401Y-92789838D01*
X162959378Y-92877433D01*
X162955407Y-92944861D01*
X162952577Y-92990513D01*
X162950977Y-93012783D01*
X162943538Y-93090985D01*
X162769364Y-93090985D01*
X162768875Y-93070807D01*
X162769179Y-93012816D01*
X162770896Y-92941765D01*
X162774010Y-92856162D01*
X162778502Y-92754517D01*
X162784354Y-92635338D01*
X162791550Y-92497133D01*
X162800073Y-92338410D01*
X162809903Y-92157678D01*
X162821025Y-91953446D01*
X162823507Y-91907777D01*
X162838373Y-91634320D01*
X162851971Y-91384573D01*
X162864368Y-91157435D01*
X162875636Y-90951801D01*
X162885841Y-90766571D01*
X162895053Y-90600640D01*
X162903341Y-90452907D01*
X162910774Y-90322269D01*
X162917420Y-90207623D01*
X162923349Y-90107867D01*
X162928629Y-90021898D01*
X162933330Y-89948613D01*
X162937519Y-89886910D01*
X162941267Y-89835687D01*
X162944641Y-89793839D01*
X162947710Y-89760266D01*
X162950545Y-89733864D01*
X162953212Y-89713531D01*
X162955782Y-89698163D01*
X162958324Y-89686660D01*
X162960905Y-89677917D01*
X162963595Y-89670832D01*
X162968213Y-89660896D01*
X163004593Y-89615529D01*
X163056600Y-89585783D01*
X163118707Y-89575071D01*
X163128368Y-89575603D01*
X163168064Y-89581586D01*
X163225477Y-89593292D01*
X163296130Y-89609560D01*
X163375547Y-89629230D01*
X163459251Y-89651143D01*
X163542767Y-89674137D01*
X163621619Y-89697053D01*
X163691330Y-89718732D01*
X163747424Y-89738012D01*
X163766538Y-89744978D01*
X163818199Y-89762784D01*
X163862373Y-89776641D01*
X163891133Y-89784011D01*
X163922747Y-89794768D01*
X163956823Y-89816424D01*
X163968200Y-89826818D01*
X163984976Y-89842145D01*
G37*
G36*
X161267345Y-85799313D02*
G01*
X161317756Y-85811538D01*
X161386885Y-85833794D01*
X161458059Y-85858765D01*
X161547623Y-85891904D01*
X161642083Y-85928384D01*
X161738609Y-85966981D01*
X161834372Y-86006471D01*
X161926545Y-86045633D01*
X162012298Y-86083242D01*
X162088803Y-86118075D01*
X162153230Y-86148909D01*
X162202752Y-86174522D01*
X162234540Y-86193690D01*
X162245764Y-86205189D01*
X162243529Y-86215429D01*
X162235606Y-86247093D01*
X162222779Y-86296796D01*
X162205915Y-86361220D01*
X162185877Y-86437042D01*
X162163531Y-86520945D01*
X162130584Y-86643237D01*
X162088115Y-86798430D01*
X162043931Y-86957496D01*
X161998627Y-87118437D01*
X161952799Y-87279249D01*
X161907042Y-87437934D01*
X161861950Y-87592491D01*
X161818119Y-87740919D01*
X161776145Y-87881218D01*
X161736623Y-88011386D01*
X161700147Y-88129425D01*
X161667313Y-88233332D01*
X161638717Y-88321108D01*
X161614954Y-88390752D01*
X161596618Y-88440263D01*
X161584305Y-88467642D01*
X161581957Y-88471466D01*
X161554505Y-88504552D01*
X161520651Y-88533331D01*
X161484913Y-88549981D01*
X161436956Y-88558846D01*
X161375086Y-88559615D01*
X161297416Y-88552103D01*
X161202059Y-88536129D01*
X161087129Y-88511510D01*
X160950739Y-88478062D01*
X160869636Y-88456401D01*
X160770315Y-88427039D01*
X160688182Y-88399171D01*
X160624720Y-88373417D01*
X160581411Y-88350398D01*
X160559737Y-88330733D01*
X160561180Y-88315043D01*
X160563735Y-88314523D01*
X160586142Y-88314482D01*
X160628543Y-88316095D01*
X160687382Y-88319120D01*
X160759103Y-88323316D01*
X160840150Y-88328440D01*
X160926968Y-88334252D01*
X161015999Y-88340509D01*
X161103688Y-88346970D01*
X161186478Y-88353392D01*
X161260815Y-88359535D01*
X161323142Y-88365156D01*
X161369902Y-88370014D01*
X161426207Y-88376564D01*
X161474591Y-88221927D01*
X161489671Y-88173413D01*
X161511591Y-88102182D01*
X161536519Y-88020590D01*
X161563519Y-87931756D01*
X161591654Y-87838796D01*
X161619988Y-87744831D01*
X161647583Y-87652977D01*
X161673505Y-87566352D01*
X161696816Y-87488076D01*
X161716580Y-87421265D01*
X161731860Y-87369038D01*
X161741720Y-87334514D01*
X161745224Y-87320810D01*
X161744971Y-87320147D01*
X161730554Y-87313912D01*
X161698375Y-87305907D01*
X161654557Y-87297693D01*
X161597547Y-87286429D01*
X161548652Y-87270156D01*
X161514082Y-87247985D01*
X161488054Y-87217117D01*
X161482535Y-87207530D01*
X161477209Y-87174330D01*
X161496079Y-87144355D01*
X161539530Y-87116855D01*
X161548678Y-87112670D01*
X161573164Y-87104257D01*
X161600084Y-87101280D01*
X161636832Y-87103419D01*
X161690805Y-87110359D01*
X161710196Y-87113018D01*
X161755373Y-87118405D01*
X161787833Y-87121094D01*
X161801569Y-87120532D01*
X161805132Y-87110759D01*
X161814449Y-87079782D01*
X161828419Y-87031030D01*
X161846104Y-86967971D01*
X161866564Y-86894070D01*
X161888859Y-86812791D01*
X161912049Y-86727601D01*
X161935196Y-86641965D01*
X161957359Y-86559348D01*
X161977600Y-86483217D01*
X161994978Y-86417035D01*
X162008554Y-86364270D01*
X162017389Y-86328385D01*
X162020542Y-86312848D01*
X162018029Y-86308268D01*
X161996854Y-86292768D01*
X161956657Y-86270577D01*
X161900483Y-86243005D01*
X161831380Y-86211366D01*
X161752395Y-86176970D01*
X161666576Y-86141129D01*
X161576970Y-86105155D01*
X161486623Y-86070359D01*
X161398584Y-86038053D01*
X161315899Y-86009548D01*
X161260906Y-85990756D01*
X161223034Y-85975573D01*
X161199069Y-85961637D01*
X161183899Y-85945955D01*
X161172416Y-85925534D01*
X161160247Y-85896105D01*
X161159293Y-85873845D01*
X161170492Y-85848820D01*
X161185055Y-85825834D01*
X161205332Y-85806160D01*
X161231316Y-85797420D01*
X161267345Y-85799313D01*
G37*
G36*
X157551587Y-89720001D02*
G01*
X157645548Y-89720740D01*
X157721923Y-89722348D01*
X157783055Y-89725078D01*
X157831284Y-89729186D01*
X157868952Y-89734927D01*
X157898398Y-89742556D01*
X157921966Y-89752327D01*
X157941994Y-89764496D01*
X157960825Y-89779317D01*
X157980800Y-89797046D01*
X157981589Y-89797758D01*
X157996890Y-89811484D01*
X158010333Y-89824413D01*
X158022028Y-89838161D01*
X158032082Y-89854340D01*
X158040602Y-89874564D01*
X158047696Y-89900447D01*
X158053471Y-89933603D01*
X158058036Y-89975645D01*
X158061499Y-90028188D01*
X158063966Y-90092845D01*
X158065545Y-90171230D01*
X158066345Y-90264957D01*
X158066473Y-90375639D01*
X158066036Y-90504890D01*
X158065142Y-90654324D01*
X158063899Y-90825555D01*
X158062415Y-91020196D01*
X158062122Y-91057959D01*
X158060670Y-91226271D01*
X158059002Y-91393450D01*
X158057155Y-91556840D01*
X158055169Y-91713788D01*
X158053083Y-91861639D01*
X158050936Y-91997738D01*
X158048767Y-92119431D01*
X158046615Y-92224063D01*
X158044520Y-92308979D01*
X158042520Y-92371526D01*
X158041458Y-92399248D01*
X158037350Y-92507688D01*
X158033038Y-92623130D01*
X158028818Y-92737573D01*
X158024986Y-92843015D01*
X158021836Y-92931453D01*
X158013170Y-93178571D01*
X157930427Y-93178398D01*
X157892920Y-93178141D01*
X157776784Y-93175343D01*
X157656013Y-93169752D01*
X157532885Y-93161688D01*
X157409679Y-93151472D01*
X157288674Y-93139426D01*
X157172148Y-93125869D01*
X157062379Y-93111123D01*
X156961647Y-93095509D01*
X156872230Y-93079347D01*
X156796407Y-93062958D01*
X156736455Y-93046664D01*
X156694655Y-93030785D01*
X156673284Y-93015642D01*
X156674621Y-93001556D01*
X156689838Y-92995570D01*
X156727996Y-92989243D01*
X156785104Y-92983641D01*
X156857910Y-92978858D01*
X156943161Y-92974991D01*
X157037603Y-92972134D01*
X157137985Y-92970384D01*
X157241053Y-92969835D01*
X157343554Y-92970583D01*
X157442235Y-92972724D01*
X157533843Y-92976352D01*
X157580310Y-92978640D01*
X157657869Y-92982150D01*
X157724711Y-92984781D01*
X157777269Y-92986414D01*
X157811975Y-92986927D01*
X157825260Y-92986201D01*
X157825612Y-92985544D01*
X157828134Y-92967565D01*
X157831104Y-92927575D01*
X157834425Y-92868171D01*
X157838000Y-92791947D01*
X157841731Y-92701501D01*
X157845521Y-92599429D01*
X157849273Y-92488327D01*
X157852891Y-92370791D01*
X157856276Y-92249417D01*
X157859332Y-92126802D01*
X157861961Y-92005541D01*
X157870495Y-91576994D01*
X157715198Y-91576610D01*
X157657289Y-91576041D01*
X157602124Y-91573736D01*
X157560363Y-91568905D01*
X157525555Y-91560734D01*
X157491247Y-91548411D01*
X157445908Y-91525503D01*
X157420258Y-91499596D01*
X157419534Y-91472476D01*
X157443739Y-91443849D01*
X157492877Y-91413420D01*
X157517814Y-91402949D01*
X157566883Y-91392500D01*
X157632642Y-91389310D01*
X157683465Y-91388413D01*
X157747735Y-91385490D01*
X157802357Y-91381240D01*
X157879566Y-91373170D01*
X157876138Y-90668478D01*
X157876081Y-90656731D01*
X157875306Y-90507375D01*
X157874517Y-90380925D01*
X157873642Y-90275403D01*
X157872612Y-90188835D01*
X157871356Y-90119243D01*
X157869805Y-90064652D01*
X157867889Y-90023086D01*
X157865538Y-89992567D01*
X157862681Y-89971120D01*
X157859249Y-89956769D01*
X157855171Y-89947538D01*
X157850378Y-89941450D01*
X157845197Y-89937171D01*
X157835803Y-89932583D01*
X157821132Y-89928752D01*
X157798989Y-89925576D01*
X157767180Y-89922948D01*
X157723511Y-89920765D01*
X157665788Y-89918922D01*
X157591818Y-89917314D01*
X157499406Y-89915837D01*
X157386358Y-89914386D01*
X157250480Y-89912857D01*
X156672913Y-89906600D01*
X156648958Y-89865568D01*
X156637502Y-89843779D01*
X156631873Y-89817501D01*
X156639706Y-89789039D01*
X156639991Y-89788351D01*
X156646756Y-89773023D01*
X156654677Y-89760234D01*
X156665922Y-89749747D01*
X156682663Y-89741328D01*
X156707069Y-89734741D01*
X156741309Y-89729751D01*
X156787555Y-89726122D01*
X156847976Y-89723620D01*
X156924741Y-89722008D01*
X157020021Y-89721052D01*
X157135986Y-89720516D01*
X157274805Y-89720166D01*
X157301548Y-89720106D01*
X157437701Y-89719875D01*
X157551587Y-89720001D01*
G37*
G36*
X164244649Y-86524132D02*
G01*
X164287262Y-86531949D01*
X164463732Y-86568537D01*
X164644905Y-86612255D01*
X164823354Y-86661102D01*
X164991650Y-86713073D01*
X165142365Y-86766167D01*
X165144053Y-86766809D01*
X165211371Y-86793150D01*
X165282888Y-86822366D01*
X165354687Y-86852717D01*
X165422848Y-86882465D01*
X165483451Y-86909871D01*
X165532578Y-86933195D01*
X165566310Y-86950701D01*
X165580727Y-86960648D01*
X165580850Y-86960953D01*
X165577669Y-86976720D01*
X165566422Y-87011615D01*
X165548446Y-87061894D01*
X165525075Y-87123813D01*
X165497644Y-87193628D01*
X165479111Y-87240261D01*
X165431016Y-87363800D01*
X165379991Y-87498005D01*
X165327131Y-87639789D01*
X165273525Y-87786060D01*
X165220265Y-87933730D01*
X165168444Y-88079708D01*
X165119152Y-88220904D01*
X165073481Y-88354230D01*
X165032523Y-88476596D01*
X164997369Y-88584910D01*
X164969111Y-88676085D01*
X164948840Y-88747030D01*
X164939296Y-88776095D01*
X164921283Y-88801962D01*
X164890808Y-88819383D01*
X164884108Y-88821978D01*
X164835813Y-88828095D01*
X164794572Y-88811488D01*
X164764585Y-88773677D01*
X164761247Y-88765953D01*
X164758614Y-88755662D01*
X164758077Y-88742372D01*
X164760238Y-88724016D01*
X164765696Y-88698525D01*
X164775053Y-88663832D01*
X164788908Y-88617869D01*
X164807863Y-88558569D01*
X164832517Y-88483862D01*
X164863472Y-88391683D01*
X164901328Y-88279962D01*
X164946684Y-88146632D01*
X164973978Y-88066755D01*
X165040985Y-87873511D01*
X165103724Y-87697161D01*
X165164082Y-87532526D01*
X165223945Y-87374431D01*
X165285200Y-87217697D01*
X165292880Y-87198200D01*
X165314438Y-87141825D01*
X165331155Y-87095607D01*
X165341501Y-87063887D01*
X165343946Y-87051005D01*
X165338717Y-87047968D01*
X165314582Y-87036421D01*
X165275810Y-87018921D01*
X165227686Y-86997881D01*
X165163467Y-86971488D01*
X165077319Y-86939006D01*
X164983305Y-86906096D01*
X164884287Y-86873547D01*
X164783131Y-86842144D01*
X164682698Y-86812675D01*
X164585853Y-86785926D01*
X164495460Y-86762685D01*
X164414382Y-86743738D01*
X164345482Y-86729872D01*
X164291625Y-86721874D01*
X164255673Y-86720531D01*
X164240491Y-86726629D01*
X164234549Y-86744153D01*
X164221979Y-86783085D01*
X164203616Y-86840820D01*
X164180161Y-86915112D01*
X164152310Y-87003713D01*
X164120762Y-87104378D01*
X164086216Y-87214859D01*
X164049369Y-87332910D01*
X164010920Y-87456285D01*
X163971566Y-87582737D01*
X163932007Y-87710019D01*
X163892940Y-87835884D01*
X163855064Y-87958087D01*
X163819077Y-88074380D01*
X163785676Y-88182517D01*
X163755561Y-88280252D01*
X163729429Y-88365337D01*
X163707979Y-88435526D01*
X163691909Y-88488573D01*
X163681917Y-88522230D01*
X163678701Y-88534252D01*
X163680193Y-88534975D01*
X163699463Y-88541512D01*
X163738060Y-88553633D01*
X163792404Y-88570241D01*
X163858918Y-88590240D01*
X163934024Y-88612532D01*
X163987243Y-88628454D01*
X164109390Y-88666586D01*
X164229387Y-88706112D01*
X164344807Y-88746083D01*
X164453224Y-88785553D01*
X164552213Y-88823575D01*
X164639345Y-88859200D01*
X164712196Y-88891482D01*
X164768340Y-88919473D01*
X164805349Y-88942226D01*
X164820798Y-88958793D01*
X164817334Y-88966436D01*
X164791951Y-88971687D01*
X164742910Y-88970645D01*
X164670531Y-88963344D01*
X164575132Y-88949820D01*
X164457033Y-88930105D01*
X164316552Y-88904236D01*
X164268136Y-88894097D01*
X164199457Y-88878059D01*
X164119334Y-88858131D01*
X164031740Y-88835410D01*
X163940644Y-88810995D01*
X163850018Y-88785984D01*
X163763833Y-88761473D01*
X163686061Y-88738561D01*
X163620672Y-88718345D01*
X163571639Y-88701923D01*
X163542931Y-88690394D01*
X163524519Y-88677556D01*
X163495421Y-88639503D01*
X163478115Y-88592071D01*
X163477111Y-88545210D01*
X163479807Y-88535333D01*
X163489446Y-88502758D01*
X163505381Y-88449997D01*
X163526955Y-88379177D01*
X163553510Y-88292424D01*
X163584389Y-88191864D01*
X163618933Y-88079623D01*
X163656487Y-87957828D01*
X163696391Y-87828604D01*
X163737989Y-87694078D01*
X163780622Y-87556376D01*
X163823635Y-87417624D01*
X163866367Y-87279948D01*
X163908163Y-87145474D01*
X163948365Y-87016329D01*
X163986315Y-86894638D01*
X164021356Y-86782527D01*
X164052829Y-86682124D01*
X164080079Y-86595553D01*
X164110185Y-86500170D01*
X164244649Y-86524132D01*
G37*
G36*
X160471857Y-89743531D02*
G01*
X160489105Y-89774100D01*
X160511102Y-89828732D01*
X160538173Y-89907613D01*
X160543506Y-89924007D01*
X160565013Y-89991376D01*
X160584935Y-90056434D01*
X160603721Y-90121256D01*
X160621821Y-90187918D01*
X160639683Y-90258493D01*
X160657757Y-90335057D01*
X160676492Y-90419684D01*
X160696337Y-90514449D01*
X160717740Y-90621426D01*
X160741152Y-90742690D01*
X160767021Y-90880316D01*
X160795797Y-91036378D01*
X160827928Y-91212952D01*
X160863863Y-91412111D01*
X160877751Y-91489200D01*
X160905415Y-91642152D01*
X160931832Y-91787410D01*
X160956651Y-91923091D01*
X160979523Y-92047313D01*
X161000098Y-92158194D01*
X161018024Y-92253852D01*
X161032953Y-92332403D01*
X161044534Y-92391967D01*
X161052418Y-92430660D01*
X161056253Y-92446600D01*
X161058539Y-92450424D01*
X161064537Y-92452024D01*
X161073104Y-92444876D01*
X161084825Y-92427651D01*
X161100284Y-92399023D01*
X161120065Y-92357664D01*
X161144752Y-92302245D01*
X161174929Y-92231440D01*
X161211180Y-92143921D01*
X161254089Y-92038360D01*
X161304241Y-91913429D01*
X161362218Y-91767801D01*
X161428606Y-91600149D01*
X161464706Y-91509008D01*
X161510854Y-91393106D01*
X161553712Y-91286153D01*
X161592442Y-91190199D01*
X161626209Y-91107292D01*
X161654177Y-91039483D01*
X161675511Y-90988820D01*
X161689374Y-90957353D01*
X161694931Y-90947132D01*
X161695035Y-90947274D01*
X161697933Y-90962169D01*
X161702833Y-90998511D01*
X161709359Y-91053036D01*
X161717133Y-91122483D01*
X161725778Y-91203589D01*
X161734918Y-91293091D01*
X161741625Y-91358298D01*
X161753458Y-91466718D01*
X161766136Y-91576193D01*
X161778876Y-91680230D01*
X161790899Y-91772333D01*
X161801422Y-91846009D01*
X161804651Y-91866837D01*
X161817441Y-91945013D01*
X161832410Y-92031292D01*
X161848844Y-92122034D01*
X161866026Y-92213597D01*
X161883243Y-92302343D01*
X161899779Y-92384631D01*
X161914920Y-92456819D01*
X161927952Y-92515268D01*
X161938159Y-92556338D01*
X161944826Y-92576388D01*
X161946654Y-92578795D01*
X161950658Y-92578844D01*
X161956105Y-92571765D01*
X161963624Y-92555687D01*
X161973844Y-92528733D01*
X161987397Y-92489031D01*
X162004910Y-92434706D01*
X162027015Y-92363884D01*
X162054340Y-92274690D01*
X162087516Y-92165252D01*
X162127172Y-92033694D01*
X162171061Y-91886328D01*
X162248546Y-91619328D01*
X162326948Y-91341087D01*
X162404708Y-91057403D01*
X162480267Y-90774077D01*
X162552066Y-90496910D01*
X162618545Y-90231700D01*
X162678145Y-89984250D01*
X162686080Y-89950648D01*
X162701937Y-89885565D01*
X162714432Y-89839481D01*
X162725018Y-89808559D01*
X162735146Y-89788964D01*
X162746269Y-89776861D01*
X162759837Y-89768412D01*
X162790725Y-89755824D01*
X162818528Y-89750196D01*
X162820502Y-89750289D01*
X162846761Y-89761809D01*
X162876272Y-89787794D01*
X162901057Y-89821365D01*
X162901216Y-89821753D01*
X162900124Y-89839138D01*
X162893698Y-89877268D01*
X162882618Y-89932866D01*
X162867565Y-90002657D01*
X162849220Y-90083364D01*
X162828264Y-90171709D01*
X162730947Y-90564370D01*
X162570592Y-91174363D01*
X162401354Y-91775770D01*
X162224757Y-92363236D01*
X162042327Y-92931406D01*
X161927066Y-93278575D01*
X161892897Y-93156627D01*
X161843201Y-92972910D01*
X161792424Y-92771754D01*
X161744706Y-92569026D01*
X161701143Y-92369746D01*
X161662828Y-92178933D01*
X161630857Y-92001607D01*
X161606325Y-91842785D01*
X161601897Y-91813234D01*
X161594033Y-91770898D01*
X161586859Y-91743674D01*
X161581512Y-91736431D01*
X161574872Y-91750039D01*
X161560486Y-91783891D01*
X161539640Y-91834828D01*
X161513607Y-91899708D01*
X161483659Y-91975385D01*
X161451068Y-92058719D01*
X161410904Y-92161354D01*
X161367844Y-92268863D01*
X161330408Y-92358144D01*
X161297003Y-92432126D01*
X161266034Y-92493737D01*
X161235909Y-92545907D01*
X161205034Y-92591563D01*
X161171815Y-92633636D01*
X161134659Y-92675053D01*
X161091972Y-92718743D01*
X161078067Y-92732529D01*
X161034293Y-92775032D01*
X160997550Y-92809385D01*
X160971346Y-92832362D01*
X160959195Y-92840738D01*
X160955020Y-92838695D01*
X160948079Y-92827923D01*
X160939862Y-92806834D01*
X160930121Y-92774233D01*
X160918612Y-92728924D01*
X160905091Y-92669712D01*
X160889312Y-92595399D01*
X160871029Y-92504791D01*
X160849998Y-92396692D01*
X160825974Y-92269905D01*
X160798711Y-92123236D01*
X160767965Y-91955487D01*
X160733490Y-91765464D01*
X160695041Y-91551970D01*
X160667660Y-91399068D01*
X160629068Y-91181695D01*
X160594872Y-90986362D01*
X160564843Y-90811534D01*
X160538756Y-90655676D01*
X160516383Y-90517255D01*
X160497498Y-90394734D01*
X160481873Y-90286581D01*
X160469282Y-90191260D01*
X160459497Y-90107236D01*
X160452292Y-90032975D01*
X160447440Y-89966942D01*
X160444714Y-89907603D01*
X160443887Y-89853423D01*
X160445375Y-89794347D01*
X160450316Y-89753841D01*
X160459035Y-89736840D01*
X160471857Y-89743531D01*
G37*
G36*
X159115530Y-89673937D02*
G01*
X159203032Y-89675069D01*
X159302673Y-89676899D01*
X159411639Y-89679395D01*
X159527116Y-89682528D01*
X160067927Y-89698321D01*
X160124579Y-89745677D01*
X160181232Y-89793033D01*
X160181127Y-91032230D01*
X160181119Y-91081303D01*
X160180977Y-91299765D01*
X160180648Y-91495135D01*
X160180111Y-91669005D01*
X160179349Y-91822973D01*
X160178340Y-91958631D01*
X160177066Y-92077575D01*
X160175506Y-92181401D01*
X160173642Y-92271703D01*
X160171453Y-92350075D01*
X160168921Y-92418113D01*
X160166025Y-92477413D01*
X160162746Y-92529567D01*
X160153275Y-92650610D01*
X160142438Y-92760100D01*
X160131137Y-92844930D01*
X160119341Y-92905289D01*
X160107019Y-92941366D01*
X160094141Y-92953349D01*
X160085567Y-92949385D01*
X160077501Y-92934489D01*
X160069456Y-92905173D01*
X160060487Y-92857953D01*
X160049652Y-92789349D01*
X160046903Y-92770951D01*
X160038176Y-92710554D01*
X160030450Y-92652718D01*
X160023664Y-92595604D01*
X160017759Y-92537372D01*
X160012673Y-92476183D01*
X160008346Y-92410200D01*
X160004719Y-92337581D01*
X160001730Y-92256489D01*
X159999318Y-92165085D01*
X159997425Y-92061529D01*
X159995988Y-91943983D01*
X159994948Y-91810607D01*
X159994245Y-91659563D01*
X159993817Y-91489012D01*
X159993605Y-91297114D01*
X159993547Y-91082030D01*
X159993547Y-89890396D01*
X159827759Y-89882539D01*
X159791948Y-89881058D01*
X159718964Y-89878742D01*
X159630500Y-89876541D01*
X159532382Y-89874579D01*
X159430436Y-89872981D01*
X159330489Y-89871873D01*
X158999008Y-89869063D01*
X158953277Y-90494679D01*
X158952473Y-90505676D01*
X158943247Y-90631665D01*
X158934352Y-90752741D01*
X158926003Y-90866039D01*
X158918409Y-90968696D01*
X158911785Y-91057849D01*
X158906342Y-91130634D01*
X158902292Y-91184187D01*
X158899847Y-91215645D01*
X158892148Y-91310996D01*
X159026813Y-91318644D01*
X159082555Y-91321730D01*
X159163418Y-91326044D01*
X159248730Y-91330457D01*
X159327267Y-91334382D01*
X159493055Y-91342472D01*
X159493055Y-91434709D01*
X159492940Y-91469368D01*
X159491422Y-91502619D01*
X159486524Y-91519972D01*
X159476260Y-91526846D01*
X159458646Y-91528664D01*
X159457150Y-91528732D01*
X159432838Y-91529505D01*
X159387546Y-91530704D01*
X159324827Y-91532243D01*
X159248233Y-91534037D01*
X159161318Y-91536000D01*
X159067636Y-91538048D01*
X158711035Y-91545714D01*
X158665552Y-92096256D01*
X158659836Y-92165381D01*
X158650199Y-92281619D01*
X158641066Y-92391428D01*
X158632693Y-92491723D01*
X158625341Y-92579418D01*
X158619266Y-92651430D01*
X158614728Y-92704671D01*
X158611985Y-92736057D01*
X158609950Y-92759184D01*
X158607759Y-92796473D01*
X158609956Y-92817220D01*
X158617773Y-92827221D01*
X158632443Y-92832274D01*
X158633163Y-92832439D01*
X158655796Y-92835685D01*
X158698683Y-92840349D01*
X158757435Y-92846007D01*
X158827663Y-92852236D01*
X158904976Y-92858609D01*
X159070993Y-92871875D01*
X159244116Y-92885940D01*
X159394930Y-92898503D01*
X159524867Y-92909709D01*
X159635360Y-92919702D01*
X159727841Y-92928628D01*
X159803745Y-92936632D01*
X159864503Y-92943858D01*
X159911547Y-92950453D01*
X159946312Y-92956559D01*
X159970229Y-92962324D01*
X159984732Y-92967891D01*
X159988308Y-92969818D01*
X160003078Y-92979628D01*
X159998822Y-92987321D01*
X159973441Y-92998613D01*
X159963434Y-93002150D01*
X159920864Y-93012743D01*
X159859556Y-93024183D01*
X159784068Y-93035806D01*
X159698955Y-93046946D01*
X159608773Y-93056937D01*
X159518079Y-93065115D01*
X159511403Y-93065620D01*
X159425061Y-93069372D01*
X159319856Y-93069936D01*
X159201219Y-93067573D01*
X159074578Y-93062543D01*
X158945365Y-93055105D01*
X158819009Y-93045521D01*
X158700941Y-93034050D01*
X158596589Y-93020953D01*
X158587389Y-93019499D01*
X158518576Y-92997966D01*
X158468466Y-92959917D01*
X158436492Y-92904734D01*
X158422084Y-92831801D01*
X158421888Y-92818764D01*
X158423239Y-92778868D01*
X158426508Y-92718143D01*
X158431517Y-92639128D01*
X158438087Y-92544368D01*
X158446040Y-92436405D01*
X158455197Y-92317780D01*
X158465379Y-92191038D01*
X158476407Y-92058719D01*
X158535863Y-91358029D01*
X158620321Y-91354329D01*
X158658965Y-91351606D01*
X158693483Y-91344990D01*
X158704779Y-91334958D01*
X158704781Y-91334809D01*
X158705755Y-91318795D01*
X158708411Y-91280122D01*
X158712590Y-91220991D01*
X158718132Y-91143602D01*
X158724880Y-91050155D01*
X158732673Y-90942851D01*
X158741354Y-90823892D01*
X158750763Y-90695477D01*
X158760741Y-90559808D01*
X158768968Y-90449091D01*
X158781213Y-90288506D01*
X158792120Y-90151338D01*
X158801781Y-90036619D01*
X158810285Y-89943379D01*
X158817723Y-89870651D01*
X158824183Y-89817466D01*
X158829757Y-89782855D01*
X158834534Y-89765849D01*
X158845337Y-89747176D01*
X158888652Y-89700873D01*
X158944726Y-89676073D01*
X158953986Y-89675041D01*
X158988194Y-89673892D01*
X159042979Y-89673534D01*
X159115530Y-89673937D01*
G37*
G36*
X166328157Y-86919404D02*
G01*
X166331457Y-86953602D01*
X166335320Y-87006311D01*
X166339522Y-87074128D01*
X166343836Y-87153651D01*
X166348037Y-87241477D01*
X166350746Y-87301162D01*
X166357431Y-87442177D01*
X166364323Y-87579585D01*
X166371279Y-87711008D01*
X166378155Y-87834068D01*
X166384808Y-87946390D01*
X166391094Y-88045595D01*
X166396871Y-88129307D01*
X166401994Y-88195149D01*
X166406321Y-88240744D01*
X166409707Y-88263715D01*
X166410674Y-88267188D01*
X166414873Y-88276343D01*
X166421827Y-88278492D01*
X166433772Y-88271617D01*
X166452944Y-88253703D01*
X166481576Y-88222734D01*
X166521903Y-88176694D01*
X166576161Y-88113568D01*
X166663025Y-88010894D01*
X166838790Y-87796035D01*
X167016363Y-87570019D01*
X167189752Y-87340396D01*
X167202430Y-87323328D01*
X167247568Y-87263826D01*
X167287332Y-87213321D01*
X167319402Y-87174636D01*
X167341458Y-87150594D01*
X167351180Y-87144015D01*
X167354257Y-87151919D01*
X167360360Y-87180938D01*
X167367255Y-87225246D01*
X167373959Y-87279014D01*
X167374375Y-87282735D01*
X167378559Y-87319289D01*
X167385284Y-87377124D01*
X167394312Y-87454233D01*
X167405404Y-87548611D01*
X167418322Y-87658252D01*
X167432828Y-87781151D01*
X167448684Y-87915301D01*
X167465652Y-88058697D01*
X167483493Y-88209333D01*
X167501969Y-88365204D01*
X167520843Y-88524303D01*
X167539875Y-88684625D01*
X167558828Y-88844165D01*
X167577464Y-89000916D01*
X167595544Y-89152873D01*
X167612830Y-89298029D01*
X167629084Y-89434380D01*
X167644068Y-89559920D01*
X167657544Y-89672642D01*
X167669273Y-89770542D01*
X167679018Y-89851612D01*
X167686539Y-89913849D01*
X167691600Y-89955245D01*
X167693961Y-89973795D01*
X167695555Y-89994665D01*
X167688116Y-90022676D01*
X167664017Y-90051997D01*
X167656681Y-90058950D01*
X167628964Y-90079685D01*
X167607632Y-90088029D01*
X167590467Y-90085788D01*
X167554548Y-90070905D01*
X167523704Y-90047529D01*
X167507714Y-90022112D01*
X167507410Y-90020380D01*
X167504410Y-89998362D01*
X167498753Y-89953692D01*
X167490653Y-89888138D01*
X167480323Y-89803472D01*
X167467975Y-89701462D01*
X167453822Y-89583878D01*
X167438079Y-89452489D01*
X167420957Y-89309066D01*
X167402671Y-89155378D01*
X167383433Y-88993194D01*
X167363456Y-88824285D01*
X167358327Y-88780854D01*
X167338583Y-88613789D01*
X167319691Y-88454070D01*
X167301857Y-88303449D01*
X167285290Y-88163676D01*
X167270198Y-88036501D01*
X167256789Y-87923676D01*
X167245271Y-87826950D01*
X167235851Y-87748074D01*
X167228739Y-87688799D01*
X167224141Y-87650876D01*
X167222266Y-87636054D01*
X167217553Y-87632439D01*
X167200999Y-87644073D01*
X167174972Y-87673591D01*
X167082318Y-87790221D01*
X166985767Y-87910888D01*
X166901143Y-88015549D01*
X166826715Y-88106329D01*
X166760754Y-88185352D01*
X166701528Y-88254743D01*
X166686194Y-88272450D01*
X166619143Y-88349226D01*
X166551989Y-88425162D01*
X166486798Y-88498002D01*
X166425640Y-88565493D01*
X166370581Y-88625384D01*
X166323689Y-88675419D01*
X166287033Y-88713346D01*
X166262680Y-88736911D01*
X166252697Y-88743862D01*
X166250056Y-88732480D01*
X166245826Y-88697059D01*
X166240418Y-88638926D01*
X166233922Y-88559300D01*
X166226430Y-88459401D01*
X166218033Y-88340449D01*
X166208822Y-88203662D01*
X166198887Y-88050262D01*
X166188320Y-87881468D01*
X166184905Y-87826705D01*
X166178914Y-87733754D01*
X166173320Y-87650757D01*
X166168338Y-87580719D01*
X166164186Y-87526647D01*
X166161081Y-87491544D01*
X166159239Y-87478417D01*
X166154506Y-87483808D01*
X166136923Y-87507803D01*
X166107577Y-87549315D01*
X166067724Y-87606522D01*
X166018623Y-87677601D01*
X165961532Y-87760731D01*
X165897709Y-87854089D01*
X165828411Y-87955852D01*
X165754897Y-88064199D01*
X165742665Y-88082249D01*
X165601435Y-88288978D01*
X165471279Y-88476322D01*
X165352426Y-88643967D01*
X165245107Y-88791602D01*
X165149551Y-88918915D01*
X165065988Y-89025592D01*
X164994650Y-89111321D01*
X164935765Y-89175792D01*
X164918074Y-89193511D01*
X164880400Y-89227470D01*
X164856007Y-89242354D01*
X164844889Y-89237803D01*
X164847041Y-89213457D01*
X164862455Y-89168957D01*
X164891127Y-89103944D01*
X164933049Y-89018057D01*
X164962223Y-88961439D01*
X165001122Y-88888214D01*
X165042657Y-88811814D01*
X165081668Y-88741829D01*
X165081848Y-88741511D01*
X165101985Y-88708001D01*
X165133656Y-88657847D01*
X165175651Y-88592833D01*
X165226760Y-88514743D01*
X165285774Y-88425362D01*
X165351482Y-88326474D01*
X165422674Y-88219864D01*
X165498140Y-88107314D01*
X165576670Y-87990610D01*
X165657055Y-87871536D01*
X165738083Y-87751876D01*
X165818546Y-87633414D01*
X165897232Y-87517935D01*
X165972933Y-87407223D01*
X166044437Y-87303062D01*
X166110536Y-87207236D01*
X166170018Y-87121530D01*
X166221674Y-87047728D01*
X166264295Y-86987613D01*
X166296669Y-86942971D01*
X166317586Y-86915585D01*
X166325838Y-86907241D01*
X166328157Y-86919404D01*
G37*
G36*
X153174425Y-89600426D02*
G01*
X153290648Y-89602853D01*
X153413036Y-89607605D01*
X153538124Y-89614381D01*
X153662447Y-89622879D01*
X153782539Y-89632798D01*
X153894935Y-89643836D01*
X153996171Y-89655692D01*
X154082781Y-89668065D01*
X154151299Y-89680653D01*
X154198261Y-89693156D01*
X154235419Y-89708415D01*
X154284310Y-89738358D01*
X154323093Y-89777798D01*
X154352358Y-89828851D01*
X154372696Y-89893631D01*
X154384696Y-89974252D01*
X154388949Y-90072829D01*
X154386043Y-90191477D01*
X154376570Y-90332310D01*
X154369887Y-90408626D01*
X154354447Y-90552816D01*
X154337115Y-90673606D01*
X154317660Y-90772067D01*
X154295851Y-90849269D01*
X154271455Y-90906285D01*
X154244241Y-90944185D01*
X154237176Y-90951140D01*
X154220211Y-90966196D01*
X154201843Y-90978635D01*
X154179711Y-90988705D01*
X154151451Y-90996657D01*
X154114702Y-91002739D01*
X154067102Y-91007201D01*
X154006289Y-91010292D01*
X153929900Y-91012262D01*
X153835573Y-91013361D01*
X153720945Y-91013837D01*
X153583656Y-91013940D01*
X153063713Y-91013940D01*
X153056801Y-91048349D01*
X153053910Y-91064979D01*
X153047259Y-91112939D01*
X153039008Y-91181476D01*
X153029416Y-91267777D01*
X153018742Y-91369027D01*
X153007242Y-91482413D01*
X152995178Y-91605120D01*
X152982806Y-91734335D01*
X152970385Y-91867243D01*
X152958174Y-92001030D01*
X152946432Y-92132883D01*
X152935416Y-92259987D01*
X152925386Y-92379528D01*
X152916600Y-92488692D01*
X152909316Y-92584665D01*
X152903793Y-92664633D01*
X152900290Y-92725782D01*
X152899065Y-92765299D01*
X152899206Y-92769682D01*
X152901620Y-92777257D01*
X152909579Y-92782752D01*
X152926329Y-92786501D01*
X152955119Y-92788837D01*
X152999193Y-92790095D01*
X153061799Y-92790608D01*
X153146183Y-92790710D01*
X153252435Y-92791465D01*
X153380843Y-92794273D01*
X153506011Y-92798950D01*
X153625518Y-92805275D01*
X153736944Y-92813030D01*
X153837868Y-92821994D01*
X153925870Y-92831948D01*
X153998529Y-92842673D01*
X154053425Y-92853948D01*
X154088138Y-92865554D01*
X154100247Y-92877272D01*
X154099233Y-92879893D01*
X154080385Y-92890040D01*
X154039435Y-92901446D01*
X153978605Y-92913736D01*
X153900121Y-92926538D01*
X153806207Y-92939480D01*
X153699087Y-92952188D01*
X153580986Y-92964290D01*
X153556480Y-92966183D01*
X153498994Y-92969171D01*
X153424694Y-92971863D01*
X153338694Y-92974110D01*
X153246104Y-92975766D01*
X153152037Y-92976683D01*
X153073580Y-92976954D01*
X152980375Y-92976479D01*
X152907310Y-92974546D01*
X152851513Y-92970665D01*
X152810109Y-92964347D01*
X152780227Y-92955102D01*
X152758994Y-92942440D01*
X152743535Y-92925872D01*
X152730979Y-92904907D01*
X152730502Y-92903969D01*
X152723105Y-92884269D01*
X152717568Y-92857255D01*
X152713966Y-92821329D01*
X152712372Y-92774896D01*
X152712861Y-92716357D01*
X152715507Y-92644117D01*
X152720384Y-92556577D01*
X152727567Y-92452141D01*
X152737131Y-92329212D01*
X152749149Y-92186193D01*
X152763696Y-92021487D01*
X152780846Y-91833497D01*
X152792286Y-91711053D01*
X152809070Y-91537807D01*
X152824406Y-91388106D01*
X152838403Y-91261078D01*
X152851170Y-91155851D01*
X152862813Y-91071551D01*
X152873442Y-91007307D01*
X152883165Y-90962244D01*
X152892089Y-90935492D01*
X152895097Y-90929599D01*
X152922030Y-90890977D01*
X152953784Y-90860418D01*
X152958044Y-90857417D01*
X152967916Y-90851269D01*
X152979609Y-90846183D01*
X152995445Y-90842027D01*
X153017743Y-90838666D01*
X153048823Y-90835968D01*
X153091005Y-90833800D01*
X153146610Y-90832030D01*
X153217958Y-90830523D01*
X153307368Y-90829147D01*
X153417161Y-90827769D01*
X153549658Y-90826256D01*
X154106409Y-90819999D01*
X154120573Y-90776206D01*
X154123203Y-90767445D01*
X154134578Y-90716726D01*
X154146158Y-90647129D01*
X154157497Y-90563499D01*
X154168149Y-90470682D01*
X154177668Y-90373524D01*
X154185610Y-90276870D01*
X154191527Y-90185566D01*
X154194975Y-90104458D01*
X154195508Y-90038393D01*
X154192680Y-89992214D01*
X154188076Y-89959551D01*
X154180714Y-89921160D01*
X154171298Y-89898404D01*
X154156918Y-89885485D01*
X154134661Y-89876602D01*
X154133590Y-89876258D01*
X154083455Y-89864046D01*
X154011687Y-89851919D01*
X153921584Y-89840162D01*
X153816443Y-89829064D01*
X153699563Y-89818911D01*
X153574239Y-89809991D01*
X153443771Y-89802592D01*
X153311456Y-89796999D01*
X153180592Y-89793501D01*
X153179687Y-89793484D01*
X153085239Y-89791652D01*
X153012549Y-89789833D01*
X152958383Y-89787710D01*
X152919504Y-89784971D01*
X152892677Y-89781298D01*
X152874665Y-89776379D01*
X152862232Y-89769897D01*
X152852143Y-89761539D01*
X152837820Y-89744402D01*
X152823669Y-89703289D01*
X152830143Y-89661150D01*
X152856959Y-89625981D01*
X152857071Y-89625893D01*
X152870108Y-89616871D01*
X152885439Y-89610231D01*
X152906853Y-89605612D01*
X152938139Y-89602656D01*
X152983083Y-89601004D01*
X153045475Y-89600296D01*
X153129102Y-89600172D01*
X153174425Y-89600426D01*
G37*
G36*
X163761606Y-86483962D02*
G01*
X163742860Y-86547415D01*
X163718441Y-86627309D01*
X163689056Y-86721489D01*
X163655410Y-86827802D01*
X163618209Y-86944094D01*
X163578161Y-87068211D01*
X163535970Y-87197999D01*
X163492345Y-87331305D01*
X163447990Y-87465975D01*
X163403612Y-87599855D01*
X163359918Y-87730791D01*
X163317613Y-87856629D01*
X163277405Y-87975216D01*
X163239998Y-88084398D01*
X163206100Y-88182021D01*
X163176417Y-88265932D01*
X163151655Y-88333976D01*
X163132521Y-88383999D01*
X163114985Y-88427461D01*
X163076858Y-88518983D01*
X163039535Y-88604869D01*
X163004651Y-88681574D01*
X162973840Y-88745554D01*
X162948736Y-88793263D01*
X162930973Y-88821157D01*
X162914173Y-88835416D01*
X162901135Y-88829679D01*
X162896404Y-88801297D01*
X162897871Y-88773197D01*
X162905457Y-88712671D01*
X162918689Y-88634830D01*
X162936644Y-88543715D01*
X162958402Y-88443365D01*
X162983039Y-88337822D01*
X163009634Y-88231124D01*
X163037264Y-88127312D01*
X163065008Y-88030427D01*
X163091944Y-87944509D01*
X163100827Y-87917510D01*
X163119392Y-87859539D01*
X163133767Y-87812449D01*
X163142670Y-87780514D01*
X163144822Y-87768007D01*
X163142683Y-87768794D01*
X163124080Y-87780092D01*
X163088536Y-87803334D01*
X163038582Y-87836813D01*
X162976751Y-87878824D01*
X162905575Y-87927663D01*
X162827587Y-87981624D01*
X162818306Y-87988063D01*
X162700308Y-88068729D01*
X162581729Y-88147701D01*
X162464679Y-88223718D01*
X162351270Y-88295519D01*
X162243611Y-88361840D01*
X162143815Y-88421420D01*
X162053992Y-88472998D01*
X161976253Y-88515310D01*
X161912708Y-88547096D01*
X161865470Y-88567093D01*
X161836648Y-88574039D01*
X161821774Y-88568797D01*
X161824125Y-88552278D01*
X161844566Y-88523558D01*
X161883752Y-88481719D01*
X161942340Y-88425839D01*
X161992497Y-88380088D01*
X162088878Y-88295375D01*
X162187645Y-88213138D01*
X162292655Y-88130377D01*
X162407763Y-88044091D01*
X162536824Y-87951282D01*
X162683695Y-87848947D01*
X162729926Y-87817101D01*
X162807563Y-87763491D01*
X162877289Y-87715179D01*
X162936560Y-87673938D01*
X162982832Y-87641541D01*
X163013559Y-87619761D01*
X163026199Y-87610368D01*
X163027025Y-87609362D01*
X163021125Y-87597369D01*
X162994940Y-87579664D01*
X162951740Y-87557616D01*
X162894794Y-87532591D01*
X162827373Y-87505956D01*
X162752746Y-87479079D01*
X162674183Y-87453327D01*
X162594953Y-87430065D01*
X162569345Y-87422334D01*
X162508794Y-87394994D01*
X162468393Y-87358980D01*
X162444919Y-87311752D01*
X162444070Y-87308853D01*
X162438565Y-87281281D01*
X162438720Y-87250749D01*
X162441482Y-87233295D01*
X162633646Y-87233295D01*
X162639053Y-87239286D01*
X162662907Y-87250031D01*
X162699335Y-87260530D01*
X162747219Y-87273578D01*
X162823796Y-87299115D01*
X162907871Y-87331158D01*
X162991230Y-87366532D01*
X163065658Y-87402065D01*
X163068967Y-87403770D01*
X163117426Y-87429548D01*
X163162032Y-87454567D01*
X163193509Y-87473634D01*
X163202391Y-87479440D01*
X163224675Y-87492099D01*
X163235766Y-87491196D01*
X163243051Y-87477272D01*
X163251938Y-87453169D01*
X163268565Y-87405429D01*
X163289884Y-87342326D01*
X163314932Y-87266870D01*
X163342747Y-87182072D01*
X163372365Y-87090940D01*
X163402823Y-86996487D01*
X163433160Y-86901721D01*
X163462412Y-86809654D01*
X163489615Y-86723295D01*
X163513809Y-86645655D01*
X163534029Y-86579744D01*
X163549313Y-86528572D01*
X163558698Y-86495149D01*
X163561222Y-86482486D01*
X163560322Y-86481941D01*
X163542038Y-86477008D01*
X163504090Y-86469127D01*
X163450738Y-86459020D01*
X163386242Y-86447406D01*
X163314863Y-86435005D01*
X163240862Y-86422537D01*
X163168498Y-86410721D01*
X163102032Y-86400278D01*
X163045724Y-86391928D01*
X163003835Y-86386390D01*
X162980625Y-86384384D01*
X162979625Y-86384393D01*
X162965386Y-86387534D01*
X162951557Y-86398856D01*
X162935555Y-86422057D01*
X162914798Y-86460836D01*
X162886704Y-86518891D01*
X162859090Y-86577853D01*
X162822761Y-86658670D01*
X162791983Y-86732646D01*
X162762937Y-86809110D01*
X162731807Y-86897389D01*
X162717517Y-86940133D01*
X162698254Y-87000594D01*
X162679068Y-87063385D01*
X162661487Y-87123277D01*
X162647038Y-87175044D01*
X162637248Y-87213459D01*
X162633646Y-87233295D01*
X162441482Y-87233295D01*
X162445124Y-87210279D01*
X162458369Y-87152891D01*
X162460934Y-87142655D01*
X162486896Y-87048893D01*
X162519402Y-86944984D01*
X162556797Y-86835209D01*
X162597424Y-86723852D01*
X162639625Y-86615192D01*
X162681743Y-86513514D01*
X162722123Y-86423098D01*
X162759106Y-86348226D01*
X162791035Y-86293181D01*
X162833597Y-86243543D01*
X162891470Y-86208491D01*
X162958966Y-86196454D01*
X162982886Y-86197974D01*
X163029273Y-86203054D01*
X163092815Y-86211189D01*
X163169560Y-86221847D01*
X163255555Y-86234497D01*
X163346848Y-86248607D01*
X163678424Y-86301099D01*
X163725291Y-86345228D01*
X163741381Y-86361287D01*
X163766339Y-86390454D01*
X163779272Y-86411768D01*
X163779252Y-86414990D01*
X163773972Y-86439102D01*
X163762013Y-86482486D01*
X163761606Y-86483962D01*
G37*
%TD*%
%LPC*%
D12*
%TO.C,TP1*%
X166800000Y-84850000D03*
%TD*%
D13*
%TO.C,REF\u002A\u002A*%
X103000000Y-111000000D03*
D14*
X103000000Y-111000000D03*
%TD*%
D15*
%TO.C,J4*%
X111000000Y-110000000D03*
D16*
X111000000Y-110000000D03*
%TD*%
D12*
%TO.C,TP7*%
X139400000Y-83100000D03*
%TD*%
%TO.C,TP5*%
X137937500Y-65800000D03*
%TD*%
%TO.C,TP14*%
X120800000Y-66900000D03*
%TD*%
%TO.C,TP10*%
X145350000Y-93150000D03*
%TD*%
%TO.C,TP13*%
X104850000Y-93950000D03*
%TD*%
D17*
%TO.C,J3*%
X153210000Y-98100000D03*
D18*
X155750000Y-98100000D03*
X158290000Y-98100000D03*
X160830000Y-98100000D03*
%TD*%
D12*
%TO.C,TP8*%
X124100000Y-91100000D03*
%TD*%
D19*
%TO.C,J1*%
X104340000Y-59810000D03*
X104340000Y-65590000D03*
D20*
X104870000Y-58380000D03*
D21*
X100690000Y-58380000D03*
D20*
X104870000Y-67020000D03*
D21*
X100690000Y-67020000D03*
%TD*%
D12*
%TO.C,TP15*%
X117500000Y-79100000D03*
%TD*%
%TO.C,TP12*%
X102450000Y-93950000D03*
%TD*%
%TO.C,TP4*%
X131800000Y-64800000D03*
%TD*%
D13*
%TO.C,REF\u002A\u002A*%
X103000000Y-54000000D03*
D14*
X103000000Y-54000000D03*
%TD*%
D12*
%TO.C,TP9*%
X123000000Y-87600000D03*
%TD*%
D13*
%TO.C,REF\u002A\u002A*%
X165000000Y-54000000D03*
D14*
X165000000Y-54000000D03*
%TD*%
D13*
%TO.C,REF\u002A\u002A*%
X165000000Y-111000000D03*
D14*
X165000000Y-111000000D03*
%TD*%
D12*
%TO.C,TP6*%
X137350000Y-83100000D03*
%TD*%
D17*
%TO.C,J2*%
X134720000Y-94700000D03*
D18*
X137260000Y-94700000D03*
X139800000Y-94700000D03*
%TD*%
D15*
%TO.C,J5*%
X157000000Y-110000000D03*
D16*
X157000000Y-110000000D03*
%TD*%
D17*
%TO.C,J6*%
X111860000Y-96600000D03*
D18*
X114400000Y-96600000D03*
X116940000Y-96600000D03*
%TD*%
D12*
%TO.C,TP11*%
X147400000Y-93150000D03*
%TD*%
%LPD*%
M02*
