%TF.GenerationSoftware,KiCad,Pcbnew,9.0.4*%
%TF.CreationDate,2025-10-17T12:14:48-07:00*%
%TF.ProjectId,wind board,77696e64-2062-46f6-9172-642e6b696361,rev?*%
%TF.SameCoordinates,Original*%
%TF.FileFunction,Copper,L1,Top*%
%TF.FilePolarity,Positive*%
%FSLAX46Y46*%
G04 Gerber Fmt 4.6, Leading zero omitted, Abs format (unit mm)*
G04 Created by KiCad (PCBNEW 9.0.4) date 2025-10-17 12:14:48*
%MOMM*%
%LPD*%
G01*
G04 APERTURE LIST*
G04 Aperture macros list*
%AMRoundRect*
0 Rectangle with rounded corners*
0 $1 Rounding radius*
0 $2 $3 $4 $5 $6 $7 $8 $9 X,Y pos of 4 corners*
0 Add a 4 corners polygon primitive as box body*
4,1,4,$2,$3,$4,$5,$6,$7,$8,$9,$2,$3,0*
0 Add four circle primitives for the rounded corners*
1,1,$1+$1,$2,$3*
1,1,$1+$1,$4,$5*
1,1,$1+$1,$6,$7*
1,1,$1+$1,$8,$9*
0 Add four rect primitives between the rounded corners*
20,1,$1+$1,$2,$3,$4,$5,0*
20,1,$1+$1,$4,$5,$6,$7,0*
20,1,$1+$1,$6,$7,$8,$9,0*
20,1,$1+$1,$8,$9,$2,$3,0*%
G04 Aperture macros list end*
%TA.AperFunction,SMDPad,CuDef*%
%ADD10RoundRect,0.225000X-0.225000X-0.250000X0.225000X-0.250000X0.225000X0.250000X-0.225000X0.250000X0*%
%TD*%
%TA.AperFunction,SMDPad,CuDef*%
%ADD11RoundRect,0.135000X-0.135000X-0.185000X0.135000X-0.185000X0.135000X0.185000X-0.135000X0.185000X0*%
%TD*%
%TA.AperFunction,SMDPad,CuDef*%
%ADD12RoundRect,0.225000X0.250000X-0.225000X0.250000X0.225000X-0.250000X0.225000X-0.250000X-0.225000X0*%
%TD*%
%TA.AperFunction,SMDPad,CuDef*%
%ADD13RoundRect,0.218750X-0.256250X0.218750X-0.256250X-0.218750X0.256250X-0.218750X0.256250X0.218750X0*%
%TD*%
%TA.AperFunction,SMDPad,CuDef*%
%ADD14RoundRect,0.140000X-0.140000X-0.170000X0.140000X-0.170000X0.140000X0.170000X-0.140000X0.170000X0*%
%TD*%
%TA.AperFunction,ComponentPad*%
%ADD15R,1.000000X1.000000*%
%TD*%
%TA.AperFunction,SMDPad,CuDef*%
%ADD16RoundRect,0.140000X0.170000X-0.140000X0.170000X0.140000X-0.170000X0.140000X-0.170000X-0.140000X0*%
%TD*%
%TA.AperFunction,SMDPad,CuDef*%
%ADD17R,1.750000X0.450000*%
%TD*%
%TA.AperFunction,ComponentPad*%
%ADD18C,3.600000*%
%TD*%
%TA.AperFunction,ConnectorPad*%
%ADD19C,5.700000*%
%TD*%
%TA.AperFunction,SMDPad,CuDef*%
%ADD20RoundRect,0.225000X0.225000X0.250000X-0.225000X0.250000X-0.225000X-0.250000X0.225000X-0.250000X0*%
%TD*%
%TA.AperFunction,SMDPad,CuDef*%
%ADD21RoundRect,0.135000X-0.185000X0.135000X-0.185000X-0.135000X0.185000X-0.135000X0.185000X0.135000X0*%
%TD*%
%TA.AperFunction,ComponentPad*%
%ADD22C,4.700000*%
%TD*%
%TA.AperFunction,ConnectorPad*%
%ADD23C,7.600000*%
%TD*%
%TA.AperFunction,SMDPad,CuDef*%
%ADD24RoundRect,0.140000X0.140000X0.170000X-0.140000X0.170000X-0.140000X-0.170000X0.140000X-0.170000X0*%
%TD*%
%TA.AperFunction,SMDPad,CuDef*%
%ADD25RoundRect,0.218750X0.256250X-0.218750X0.256250X0.218750X-0.256250X0.218750X-0.256250X-0.218750X0*%
%TD*%
%TA.AperFunction,SMDPad,CuDef*%
%ADD26RoundRect,0.140000X-0.170000X0.140000X-0.170000X-0.140000X0.170000X-0.140000X0.170000X0.140000X0*%
%TD*%
%TA.AperFunction,SMDPad,CuDef*%
%ADD27R,0.780000X0.780000*%
%TD*%
%TA.AperFunction,SMDPad,CuDef*%
%ADD28RoundRect,0.225000X-0.250000X0.225000X-0.250000X-0.225000X0.250000X-0.225000X0.250000X0.225000X0*%
%TD*%
%TA.AperFunction,SMDPad,CuDef*%
%ADD29RoundRect,0.135000X0.135000X0.185000X-0.135000X0.185000X-0.135000X-0.185000X0.135000X-0.185000X0*%
%TD*%
%TA.AperFunction,SMDPad,CuDef*%
%ADD30RoundRect,0.250000X0.325000X0.650000X-0.325000X0.650000X-0.325000X-0.650000X0.325000X-0.650000X0*%
%TD*%
%TA.AperFunction,SMDPad,CuDef*%
%ADD31RoundRect,0.100000X-0.712500X-0.100000X0.712500X-0.100000X0.712500X0.100000X-0.712500X0.100000X0*%
%TD*%
%TA.AperFunction,SMDPad,CuDef*%
%ADD32RoundRect,0.100000X-0.100000X0.637500X-0.100000X-0.637500X0.100000X-0.637500X0.100000X0.637500X0*%
%TD*%
%TA.AperFunction,SMDPad,CuDef*%
%ADD33RoundRect,0.200000X-0.275000X0.200000X-0.275000X-0.200000X0.275000X-0.200000X0.275000X0.200000X0*%
%TD*%
%TA.AperFunction,SMDPad,CuDef*%
%ADD34RoundRect,0.218750X-0.218750X-0.256250X0.218750X-0.256250X0.218750X0.256250X-0.218750X0.256250X0*%
%TD*%
%TA.AperFunction,SMDPad,CuDef*%
%ADD35RoundRect,0.225000X-0.375000X0.225000X-0.375000X-0.225000X0.375000X-0.225000X0.375000X0.225000X0*%
%TD*%
%TA.AperFunction,ComponentPad*%
%ADD36R,1.700000X1.700000*%
%TD*%
%TA.AperFunction,ComponentPad*%
%ADD37C,1.700000*%
%TD*%
%TA.AperFunction,SMDPad,CuDef*%
%ADD38RoundRect,0.200000X0.275000X-0.200000X0.275000X0.200000X-0.275000X0.200000X-0.275000X-0.200000X0*%
%TD*%
%TA.AperFunction,SMDPad,CuDef*%
%ADD39R,1.450000X0.600000*%
%TD*%
%TA.AperFunction,SMDPad,CuDef*%
%ADD40R,1.450000X0.300000*%
%TD*%
%TA.AperFunction,HeatsinkPad*%
%ADD41O,2.100000X1.000000*%
%TD*%
%TA.AperFunction,HeatsinkPad*%
%ADD42O,1.600000X1.000000*%
%TD*%
%TA.AperFunction,SMDPad,CuDef*%
%ADD43RoundRect,0.093750X-0.106250X0.093750X-0.106250X-0.093750X0.106250X-0.093750X0.106250X0.093750X0*%
%TD*%
%TA.AperFunction,HeatsinkPad*%
%ADD44R,1.600000X1.000000*%
%TD*%
%TA.AperFunction,SMDPad,CuDef*%
%ADD45RoundRect,0.135000X0.185000X-0.135000X0.185000X0.135000X-0.185000X0.135000X-0.185000X-0.135000X0*%
%TD*%
%TA.AperFunction,SMDPad,CuDef*%
%ADD46RoundRect,0.150000X-0.825000X-0.150000X0.825000X-0.150000X0.825000X0.150000X-0.825000X0.150000X0*%
%TD*%
%TA.AperFunction,SMDPad,CuDef*%
%ADD47R,0.881065X0.192474*%
%TD*%
%TA.AperFunction,SMDPad,CuDef*%
%ADD48R,0.192474X0.881065*%
%TD*%
%TA.AperFunction,SMDPad,CuDef*%
%ADD49R,2.849999X2.849999*%
%TD*%
%TA.AperFunction,SMDPad,CuDef*%
%ADD50RoundRect,0.150000X-0.512500X-0.150000X0.512500X-0.150000X0.512500X0.150000X-0.512500X0.150000X0*%
%TD*%
%TA.AperFunction,SMDPad,CuDef*%
%ADD51RoundRect,0.250000X0.450000X0.350000X-0.450000X0.350000X-0.450000X-0.350000X0.450000X-0.350000X0*%
%TD*%
%TA.AperFunction,SMDPad,CuDef*%
%ADD52RoundRect,0.250000X-0.475000X0.250000X-0.475000X-0.250000X0.475000X-0.250000X0.475000X0.250000X0*%
%TD*%
%TA.AperFunction,SMDPad,CuDef*%
%ADD53R,0.500000X0.350000*%
%TD*%
%TA.AperFunction,SMDPad,CuDef*%
%ADD54R,0.300000X0.400000*%
%TD*%
%TA.AperFunction,SMDPad,CuDef*%
%ADD55R,1.980000X2.450000*%
%TD*%
%TA.AperFunction,SMDPad,CuDef*%
%ADD56R,0.430000X0.380000*%
%TD*%
%TA.AperFunction,SMDPad,CuDef*%
%ADD57R,0.609600X0.228600*%
%TD*%
%TA.AperFunction,SMDPad,CuDef*%
%ADD58RoundRect,0.112500X-0.112500X0.187500X-0.112500X-0.187500X0.112500X-0.187500X0.112500X0.187500X0*%
%TD*%
%TA.AperFunction,SMDPad,CuDef*%
%ADD59R,1.850000X3.400000*%
%TD*%
%TA.AperFunction,ViaPad*%
%ADD60C,0.600000*%
%TD*%
%TA.AperFunction,ViaPad*%
%ADD61C,1.000000*%
%TD*%
%TA.AperFunction,Conductor*%
%ADD62C,0.200000*%
%TD*%
%TA.AperFunction,Conductor*%
%ADD63C,0.400000*%
%TD*%
%TA.AperFunction,Conductor*%
%ADD64C,0.350000*%
%TD*%
%TA.AperFunction,Conductor*%
%ADD65C,0.500000*%
%TD*%
%TA.AperFunction,Conductor*%
%ADD66C,1.000000*%
%TD*%
%TA.AperFunction,Conductor*%
%ADD67C,1.500000*%
%TD*%
%TA.AperFunction,Conductor*%
%ADD68C,0.250000*%
%TD*%
%TA.AperFunction,Conductor*%
%ADD69C,0.450000*%
%TD*%
%TA.AperFunction,Conductor*%
%ADD70C,3.500000*%
%TD*%
%TA.AperFunction,Conductor*%
%ADD71C,0.800000*%
%TD*%
G04 APERTURE END LIST*
D10*
%TO.P,C48,1*%
%TO.N,/USB_C_PD/CC1*%
X107875000Y-57550000D03*
%TO.P,C48,2*%
%TO.N,~*%
X109425000Y-57550000D03*
%TD*%
%TO.P,C47,1*%
%TO.N,/USB_C_PD/CC2*%
X110175000Y-67350000D03*
%TO.P,C47,2*%
%TO.N,~*%
X111725000Y-67350000D03*
%TD*%
D11*
%TO.P,R3,1*%
%TO.N,Net-(D1-A)*%
X164390000Y-70050000D03*
%TO.P,R3,2*%
%TO.N,+5V*%
X165410000Y-70050000D03*
%TD*%
D12*
%TO.P,C34,1*%
%TO.N,Net-(U8-C2+)*%
X108500000Y-82775000D03*
%TO.P,C34,2*%
%TO.N,Net-(U8-C2-)*%
X108500000Y-81225000D03*
%TD*%
D13*
%TO.P,D4,1,K*%
%TO.N,Net-(D4-K)*%
X136550000Y-69312500D03*
%TO.P,D4,2,A*%
%TO.N,Net-(D4-A)*%
X136550000Y-70887500D03*
%TD*%
D14*
%TO.P,C43,1*%
%TO.N,Net-(U9-ADCIN1)*%
X155120000Y-55150000D03*
%TO.P,C43,2*%
%TO.N,~*%
X156080000Y-55150000D03*
%TD*%
D15*
%TO.P,TP1,1,1*%
%TO.N,+5V*%
X166800000Y-84850000D03*
%TD*%
D16*
%TO.P,C6,1*%
%TO.N,~*%
X122900000Y-72480000D03*
%TO.P,C6,2*%
%TO.N,+5V*%
X122900000Y-71520000D03*
%TD*%
D17*
%TO.P,U7,1,TXD*%
%TO.N,Net-(U7-TXD)*%
X105400000Y-69350000D03*
%TO.P,U7,2,DTR*%
%TO.N,unconnected-(U7-DTR-Pad2)*%
X105400000Y-70000000D03*
%TO.P,U7,3,RTS*%
%TO.N,Net-(U7-RTS)*%
X105400000Y-70650000D03*
%TO.P,U7,4,VCCIO*%
%TO.N,+5V*%
X105400000Y-71300000D03*
%TO.P,U7,5,RXD*%
%TO.N,Net-(U7-RXD)*%
X105400000Y-71950000D03*
%TO.P,U7,6,RI*%
%TO.N,unconnected-(U7-RI-Pad6)*%
X105400000Y-72600000D03*
%TO.P,U7,7,GND*%
%TO.N,~*%
X105400000Y-73250000D03*
%TO.P,U7,8*%
%TO.N,N/C*%
X105400000Y-73900000D03*
%TO.P,U7,9,DCR*%
%TO.N,unconnected-(U7-DCR-Pad9)*%
X105400000Y-74550000D03*
%TO.P,U7,10,DCD*%
%TO.N,unconnected-(U7-DCD-Pad10)*%
X105400000Y-75200000D03*
%TO.P,U7,11,CTS*%
%TO.N,Net-(U7-CTS)*%
X105400000Y-75850000D03*
%TO.P,U7,12,CBUS4*%
%TO.N,Net-(U7-CBUS4)*%
X105400000Y-76500000D03*
%TO.P,U7,13,CBUS2*%
%TO.N,unconnected-(U7-CBUS2-Pad13)*%
X105400000Y-77150000D03*
%TO.P,U7,14,CBUS3*%
%TO.N,Net-(U7-CBUS3)*%
X105400000Y-77800000D03*
%TO.P,U7,15,USBD+*%
%TO.N,/DM3+*%
X112600000Y-77800000D03*
%TO.P,U7,16,USBD-*%
%TO.N,/DM3-*%
X112600000Y-77150000D03*
%TO.P,U7,17,3V3OUT*%
%TO.N,Net-(U7-3V3OUT)*%
X112600000Y-76500000D03*
%TO.P,U7,18,GND*%
%TO.N,~*%
X112600000Y-75850000D03*
%TO.P,U7,19,~{RESET}*%
%TO.N,+5V*%
X112600000Y-75200000D03*
%TO.P,U7,20,VCC*%
X112600000Y-74550000D03*
%TO.P,U7,21,GND*%
%TO.N,~*%
X112600000Y-73900000D03*
%TO.P,U7,22,CBUS1*%
%TO.N,Net-(D7-K)*%
X112600000Y-73250000D03*
%TO.P,U7,23,CBUS0*%
%TO.N,Net-(D8-K)*%
X112600000Y-72600000D03*
%TO.P,U7,24*%
%TO.N,N/C*%
X112600000Y-71950000D03*
%TO.P,U7,25,AGND*%
%TO.N,~*%
X112600000Y-71300000D03*
%TO.P,U7,26,TEST*%
X112600000Y-70650000D03*
%TO.P,U7,27,OSCI*%
%TO.N,unconnected-(U7-OSCI-Pad27)*%
X112600000Y-70000000D03*
%TO.P,U7,28,OSCO*%
%TO.N,unconnected-(U7-OSCO-Pad28)*%
X112600000Y-69350000D03*
%TD*%
D18*
%TO.P,REF\u002A\u002A,1*%
%TO.N,~*%
X103000000Y-111000000D03*
D19*
X103000000Y-111000000D03*
%TD*%
D20*
%TO.P,C56,1*%
%TO.N,+5V*%
X150325000Y-62400000D03*
%TO.P,C56,2*%
%TO.N,~*%
X148775000Y-62400000D03*
%TD*%
D21*
%TO.P,R5,1*%
%TO.N,Net-(D3-A)*%
X135300000Y-73390000D03*
%TO.P,R5,2*%
%TO.N,+5V*%
X135300000Y-74410000D03*
%TD*%
D22*
%TO.P,J4,1,Pin_1*%
%TO.N,~*%
X111000000Y-110000000D03*
D23*
X111000000Y-110000000D03*
%TD*%
D24*
%TO.P,C20,1*%
%TO.N,~*%
X163480000Y-91500000D03*
%TO.P,C20,2*%
%TO.N,+5V*%
X162520000Y-91500000D03*
%TD*%
D25*
%TO.P,D7,1,K*%
%TO.N,Net-(D7-K)*%
X115300000Y-85587500D03*
%TO.P,D7,2,A*%
%TO.N,Net-(D7-A)*%
X115300000Y-84012500D03*
%TD*%
D26*
%TO.P,C53,1*%
%TO.N,Net-(C24-Pad1)*%
X142900000Y-59420000D03*
%TO.P,C53,2*%
%TO.N,~*%
X142900000Y-60380000D03*
%TD*%
%TO.P,C42,1*%
%TO.N,/WG_+12V*%
X139100000Y-110020000D03*
%TO.P,C42,2*%
%TO.N,~*%
X139100000Y-110980000D03*
%TD*%
D27*
%TO.P,D10,1,K*%
%TO.N,~*%
X109930000Y-98300000D03*
%TO.P,D10,2,K*%
%TO.N,Net-(J6-Pin_3)*%
X108030000Y-98300000D03*
%TO.P,D10,3,A*%
%TO.N,unconnected-(D10-A-Pad3)*%
X108980000Y-100590000D03*
%TD*%
D15*
%TO.P,TP7,1,1*%
%TO.N,Net-(U1-DP1+)*%
X146000000Y-82600000D03*
%TD*%
D11*
%TO.P,R2,1*%
%TO.N,+3V3*%
X139540000Y-53450000D03*
%TO.P,R2,2*%
%TO.N,Net-(U10-SCL)*%
X140560000Y-53450000D03*
%TD*%
%TO.P,R4,1*%
%TO.N,Net-(D2-A)*%
X164390000Y-71050000D03*
%TO.P,R4,2*%
%TO.N,+5V*%
X165410000Y-71050000D03*
%TD*%
D15*
%TO.P,TP5,1,1*%
%TO.N,Net-(U1-DM2-)*%
X137937500Y-65800000D03*
%TD*%
D26*
%TO.P,C50,1*%
%TO.N,+3V3*%
X134250000Y-53320000D03*
%TO.P,C50,2*%
%TO.N,~*%
X134250000Y-54280000D03*
%TD*%
D12*
%TO.P,C7,1*%
%TO.N,+5V*%
X133900000Y-73950000D03*
%TO.P,C7,2*%
%TO.N,~*%
X133900000Y-72400000D03*
%TD*%
D28*
%TO.P,C29,1*%
%TO.N,Net-(C28-Pad1)*%
X147800000Y-101125000D03*
%TO.P,C29,2*%
%TO.N,~*%
X147800000Y-102675000D03*
%TD*%
D15*
%TO.P,TP14,1,1*%
%TO.N,/DM3-*%
X120800000Y-66900000D03*
%TD*%
D29*
%TO.P,R19,1*%
%TO.N,Net-(D8-A)*%
X116010000Y-81300000D03*
%TO.P,R19,2*%
%TO.N,+5V*%
X114990000Y-81300000D03*
%TD*%
D12*
%TO.P,C18,1*%
%TO.N,Net-(U5-C2+)*%
X157800000Y-83275000D03*
%TO.P,C18,2*%
%TO.N,Net-(U5-C2-)*%
X157800000Y-81725000D03*
%TD*%
D26*
%TO.P,C51,1*%
%TO.N,Net-(C24-Pad1)*%
X145400000Y-59420000D03*
%TO.P,C51,2*%
%TO.N,~*%
X145400000Y-60380000D03*
%TD*%
D12*
%TO.P,C22,1*%
%TO.N,Net-(U5-V-)*%
X156000000Y-83250000D03*
%TO.P,C22,2*%
%TO.N,~*%
X156000000Y-81700000D03*
%TD*%
D17*
%TO.P,U2,1,TXD*%
%TO.N,Net-(U2-TXD)*%
X124800000Y-69350000D03*
%TO.P,U2,2,DTR*%
%TO.N,unconnected-(U2-DTR-Pad2)*%
X124800000Y-70000000D03*
%TO.P,U2,3,RTS*%
%TO.N,Net-(U2-RTS)*%
X124800000Y-70650000D03*
%TO.P,U2,4,VCCIO*%
%TO.N,+5V*%
X124800000Y-71300000D03*
%TO.P,U2,5,RXD*%
%TO.N,Net-(U2-RXD)*%
X124800000Y-71950000D03*
%TO.P,U2,6,RI*%
%TO.N,unconnected-(U2-RI-Pad6)*%
X124800000Y-72600000D03*
%TO.P,U2,7,GND*%
%TO.N,~*%
X124800000Y-73250000D03*
%TO.P,U2,8*%
%TO.N,N/C*%
X124800000Y-73900000D03*
%TO.P,U2,9,DCR*%
%TO.N,unconnected-(U2-DCR-Pad9)*%
X124800000Y-74550000D03*
%TO.P,U2,10,DCD*%
%TO.N,unconnected-(U2-DCD-Pad10)*%
X124800000Y-75200000D03*
%TO.P,U2,11,CTS*%
%TO.N,Net-(U2-CTS)*%
X124800000Y-75850000D03*
%TO.P,U2,12,CBUS4*%
%TO.N,Net-(U2-CBUS4)*%
X124800000Y-76500000D03*
%TO.P,U2,13,CBUS2*%
%TO.N,unconnected-(U2-CBUS2-Pad13)*%
X124800000Y-77150000D03*
%TO.P,U2,14,CBUS3*%
%TO.N,Net-(U2-CBUS3)*%
X124800000Y-77800000D03*
%TO.P,U2,15,USBD+*%
%TO.N,Net-(U1-DP2+)*%
X132000000Y-77800000D03*
%TO.P,U2,16,USBD-*%
%TO.N,Net-(U1-DM2-)*%
X132000000Y-77150000D03*
%TO.P,U2,17,3V3OUT*%
%TO.N,Net-(U2-3V3OUT)*%
X132000000Y-76500000D03*
%TO.P,U2,18,GND*%
%TO.N,~*%
X132000000Y-75850000D03*
%TO.P,U2,19,~{RESET}*%
%TO.N,+5V*%
X132000000Y-75200000D03*
%TO.P,U2,20,VCC*%
X132000000Y-74550000D03*
%TO.P,U2,21,GND*%
%TO.N,~*%
X132000000Y-73900000D03*
%TO.P,U2,22,CBUS1*%
%TO.N,Net-(D4-K)*%
X132000000Y-73250000D03*
%TO.P,U2,23,CBUS0*%
%TO.N,Net-(D3-K)*%
X132000000Y-72600000D03*
%TO.P,U2,24*%
%TO.N,N/C*%
X132000000Y-71950000D03*
%TO.P,U2,25,AGND*%
%TO.N,~*%
X132000000Y-71300000D03*
%TO.P,U2,26,TEST*%
X132000000Y-70650000D03*
%TO.P,U2,27,OSCI*%
%TO.N,unconnected-(U2-OSCI-Pad27)*%
X132000000Y-70000000D03*
%TO.P,U2,28,OSCO*%
%TO.N,unconnected-(U2-OSCO-Pad28)*%
X132000000Y-69350000D03*
%TD*%
D27*
%TO.P,D12,1,K*%
%TO.N,~*%
X147850000Y-99090000D03*
%TO.P,D12,2,K*%
%TO.N,/WG_+12V*%
X149750000Y-99090000D03*
%TO.P,D12,3,A*%
%TO.N,unconnected-(D12-A-Pad3)*%
X148800000Y-96800000D03*
%TD*%
D16*
%TO.P,C49,1*%
%TO.N,~*%
X152950000Y-57780000D03*
%TO.P,C49,2*%
%TO.N,+3V3*%
X152950000Y-56820000D03*
%TD*%
D26*
%TO.P,C14,1*%
%TO.N,Net-(U1-DM1-)*%
X137400000Y-79100000D03*
%TO.P,C14,2*%
%TO.N,~*%
X137400000Y-80060000D03*
%TD*%
D14*
%TO.P,C46,1*%
%TO.N,+3V3*%
X155570000Y-60250000D03*
%TO.P,C46,2*%
%TO.N,~*%
X156530000Y-60250000D03*
%TD*%
D25*
%TO.P,D1,1,K*%
%TO.N,Net-(D1-K)*%
X162900000Y-73787500D03*
%TO.P,D1,2,A*%
%TO.N,Net-(D1-A)*%
X162900000Y-72212500D03*
%TD*%
%TO.P,D2,1,K*%
%TO.N,Net-(D2-K)*%
X164500000Y-73787500D03*
%TO.P,D2,2,A*%
%TO.N,Net-(D2-A)*%
X164500000Y-72212500D03*
%TD*%
D30*
%TO.P,C57,1*%
%TO.N,+5V*%
X151125000Y-68350000D03*
%TO.P,C57,2*%
%TO.N,~*%
X148175000Y-68350000D03*
%TD*%
D31*
%TO.P,U1,1,DM4-*%
%TO.N,unconnected-(U1-DM4--Pad1)*%
X139400000Y-72927500D03*
%TO.P,U1,2,DP4+*%
%TO.N,unconnected-(U1-DP4+-Pad2)*%
X139400000Y-73562500D03*
%TO.P,U1,3,DM3-*%
%TO.N,/DM3-*%
X139400000Y-74197500D03*
%TO.P,U1,4,DP3+*%
%TO.N,/DM3+*%
X139400000Y-74832500D03*
%TO.P,U1,5,DM2-*%
%TO.N,Net-(U1-DM2-)*%
X139400000Y-75467500D03*
%TO.P,U1,6,DP2+*%
%TO.N,Net-(U1-DP2+)*%
X139400000Y-76102500D03*
%TO.P,U1,7,DM1-*%
%TO.N,Net-(U1-DM1-)*%
X139400000Y-76737500D03*
%TO.P,U1,8,DP1+*%
%TO.N,Net-(U1-DP1+)*%
X139400000Y-77372500D03*
%TO.P,U1,9,~{RESET}/CDP*%
%TO.N,unconnected-(U1-~{RESET}{slash}CDP-Pad9)*%
X144675000Y-77372500D03*
%TO.P,U1,10,DMU-*%
%TO.N,/USB_C_PD/DM-*%
X144675000Y-76737500D03*
%TO.P,U1,11,DPU+*%
%TO.N,/USB_C_PD/DP+*%
X144675000Y-76102500D03*
%TO.P,U1,12,V5*%
%TO.N,+5V*%
X144675000Y-75467500D03*
%TO.P,U1,13,VDD33*%
%TO.N,Net-(U1-VDD33)*%
X144675000Y-74832500D03*
%TO.P,U1,14,GND*%
%TO.N,~*%
X144675000Y-74197500D03*
%TO.P,U1,15,XO*%
%TO.N,Net-(U1-XO)*%
X144675000Y-73562500D03*
%TO.P,U1,16,XI*%
%TO.N,Net-(U1-XI)*%
X144675000Y-72927500D03*
%TD*%
D26*
%TO.P,C31,1*%
%TO.N,~*%
X114500000Y-75620000D03*
%TO.P,C31,2*%
%TO.N,Net-(U7-3V3OUT)*%
X114500000Y-76580000D03*
%TD*%
D27*
%TO.P,D14,1,K*%
%TO.N,~*%
X128245000Y-95195000D03*
%TO.P,D14,2,K*%
%TO.N,Net-(J2-Pin_3)*%
X128245000Y-93295000D03*
%TO.P,D14,3,A*%
%TO.N,unconnected-(D14-A-Pad3)*%
X125955000Y-94245000D03*
%TD*%
D28*
%TO.P,C28,1*%
%TO.N,Net-(C28-Pad1)*%
X146300000Y-101125000D03*
%TO.P,C28,2*%
%TO.N,~*%
X146300000Y-102675000D03*
%TD*%
D15*
%TO.P,TP10,1,1*%
%TO.N,Net-(U3-TXD)*%
X150500000Y-92000000D03*
%TD*%
D30*
%TO.P,FB1,1*%
%TO.N,+5V*%
X154275000Y-101300000D03*
%TO.P,FB1,2*%
%TO.N,Net-(C28-Pad1)*%
X151325000Y-101300000D03*
%TD*%
D16*
%TO.P,C19,1*%
%TO.N,Net-(U5-C1-)*%
X159500000Y-82760000D03*
%TO.P,C19,2*%
%TO.N,Net-(U5-C1+)*%
X159500000Y-81800000D03*
%TD*%
D32*
%TO.P,U4,1,/EN*%
%TO.N,Net-(U2-CBUS3)*%
X131925000Y-85137500D03*
%TO.P,U4,2,C1+*%
%TO.N,Net-(U4-C1+)*%
X131275000Y-85137500D03*
%TO.P,U4,3,V+*%
%TO.N,Net-(U4-V+)*%
X130625000Y-85137500D03*
%TO.P,U4,4,C1-*%
%TO.N,Net-(U4-C1-)*%
X129975000Y-85137500D03*
%TO.P,U4,5,C2+*%
%TO.N,Net-(U4-C2+)*%
X129325000Y-85137500D03*
%TO.P,U4,6,C2-*%
%TO.N,Net-(U4-C2-)*%
X128675000Y-85137500D03*
%TO.P,U4,7,V-*%
%TO.N,Net-(U4-V-)*%
X128025000Y-85137500D03*
%TO.P,U4,8,T2OUT*%
%TO.N,unconnected-(U4-T2OUT-Pad8)*%
X127375000Y-85137500D03*
%TO.P,U4,9,R2IN*%
%TO.N,unconnected-(U4-R2IN-Pad9)*%
X126725000Y-85137500D03*
%TO.P,U4,10,R2OUT*%
%TO.N,Net-(U2-CTS)*%
X126075000Y-85137500D03*
%TO.P,U4,11*%
%TO.N,N/C*%
X126075000Y-90862500D03*
%TO.P,U4,12,T2IN*%
%TO.N,Net-(U2-RTS)*%
X126725000Y-90862500D03*
%TO.P,U4,13,T1IN*%
%TO.N,Net-(U2-TXD)*%
X127375000Y-90862500D03*
%TO.P,U4,14*%
%TO.N,N/C*%
X128025000Y-90862500D03*
%TO.P,U4,15,R1OUT*%
%TO.N,Net-(U2-RXD)*%
X128675000Y-90862500D03*
%TO.P,U4,16,R1IN*%
%TO.N,Net-(J2-Pin_3)*%
X129325000Y-90862500D03*
%TO.P,U4,17,T1OUT*%
%TO.N,Net-(J2-Pin_1)*%
X129975000Y-90862500D03*
%TO.P,U4,18,GND*%
%TO.N,~*%
X130625000Y-90862500D03*
%TO.P,U4,19,Vcc*%
%TO.N,+5V*%
X131275000Y-90862500D03*
%TO.P,U4,20,/SHUTDOWN*%
%TO.N,Net-(U2-CBUS4)*%
X131925000Y-90862500D03*
%TD*%
%TO.P,U8,1,/EN*%
%TO.N,Net-(U7-CBUS3)*%
X111925000Y-85137500D03*
%TO.P,U8,2,C1+*%
%TO.N,Net-(U8-C1+)*%
X111275000Y-85137500D03*
%TO.P,U8,3,V+*%
%TO.N,Net-(U8-V+)*%
X110625000Y-85137500D03*
%TO.P,U8,4,C1-*%
%TO.N,Net-(U8-C1-)*%
X109975000Y-85137500D03*
%TO.P,U8,5,C2+*%
%TO.N,Net-(U8-C2+)*%
X109325000Y-85137500D03*
%TO.P,U8,6,C2-*%
%TO.N,Net-(U8-C2-)*%
X108675000Y-85137500D03*
%TO.P,U8,7,V-*%
%TO.N,Net-(U8-V-)*%
X108025000Y-85137500D03*
%TO.P,U8,8,T2OUT*%
%TO.N,unconnected-(U8-T2OUT-Pad8)*%
X107375000Y-85137500D03*
%TO.P,U8,9,R2IN*%
%TO.N,unconnected-(U8-R2IN-Pad9)*%
X106725000Y-85137500D03*
%TO.P,U8,10,R2OUT*%
%TO.N,Net-(U7-CTS)*%
X106075000Y-85137500D03*
%TO.P,U8,11*%
%TO.N,N/C*%
X106075000Y-90862500D03*
%TO.P,U8,12,T2IN*%
%TO.N,Net-(U7-RTS)*%
X106725000Y-90862500D03*
%TO.P,U8,13,T1IN*%
%TO.N,Net-(U7-TXD)*%
X107375000Y-90862500D03*
%TO.P,U8,14*%
%TO.N,N/C*%
X108025000Y-90862500D03*
%TO.P,U8,15,R1OUT*%
%TO.N,Net-(U7-RXD)*%
X108675000Y-90862500D03*
%TO.P,U8,16,R1IN*%
%TO.N,Net-(J6-Pin_3)*%
X109325000Y-90862500D03*
%TO.P,U8,17,T1OUT*%
%TO.N,Net-(J6-Pin_1)*%
X109975000Y-90862500D03*
%TO.P,U8,18,GND*%
%TO.N,~*%
X110625000Y-90862500D03*
%TO.P,U8,19,Vcc*%
%TO.N,+5V*%
X111275000Y-90862500D03*
%TO.P,U8,20,/SHUTDOWN*%
%TO.N,Net-(U7-CBUS4)*%
X111925000Y-90862500D03*
%TD*%
D16*
%TO.P,C2,1*%
%TO.N,Net-(U1-VDD33)*%
X143200000Y-71860000D03*
%TO.P,C2,2*%
%TO.N,~*%
X143200000Y-70900000D03*
%TD*%
D33*
%TO.P,R12,1*%
%TO.N,Net-(D5-K)*%
X122600000Y-98375000D03*
%TO.P,R12,2*%
%TO.N,~*%
X122600000Y-100025000D03*
%TD*%
D14*
%TO.P,C32,1*%
%TO.N,~*%
X102720000Y-71300000D03*
%TO.P,C32,2*%
%TO.N,+5V*%
X103680000Y-71300000D03*
%TD*%
D28*
%TO.P,C21,1*%
%TO.N,+5V*%
X163400000Y-81825000D03*
%TO.P,C21,2*%
%TO.N,Net-(U5-V+)*%
X163400000Y-83375000D03*
%TD*%
D34*
%TO.P,D15,1,K*%
%TO.N,~*%
X162625000Y-88100000D03*
%TO.P,D15,2,A*%
%TO.N,Net-(D15-A)*%
X164200000Y-88100000D03*
%TD*%
D11*
%TO.P,R8,1*%
%TO.N,+3V3*%
X139540000Y-52200000D03*
%TO.P,R8,2*%
%TO.N,Net-(U10-SDA)*%
X140560000Y-52200000D03*
%TD*%
D32*
%TO.P,U5,1,/EN*%
%TO.N,Net-(U3-CBUS3)*%
X160925000Y-85137500D03*
%TO.P,U5,2,C1+*%
%TO.N,Net-(U5-C1+)*%
X160275000Y-85137500D03*
%TO.P,U5,3,V+*%
%TO.N,Net-(U5-V+)*%
X159625000Y-85137500D03*
%TO.P,U5,4,C1-*%
%TO.N,Net-(U5-C1-)*%
X158975000Y-85137500D03*
%TO.P,U5,5,C2+*%
%TO.N,Net-(U5-C2+)*%
X158325000Y-85137500D03*
%TO.P,U5,6,C2-*%
%TO.N,Net-(U5-C2-)*%
X157675000Y-85137500D03*
%TO.P,U5,7,V-*%
%TO.N,Net-(U5-V-)*%
X157025000Y-85137500D03*
%TO.P,U5,8,T2OUT*%
%TO.N,unconnected-(U5-T2OUT-Pad8)*%
X156375000Y-85137500D03*
%TO.P,U5,9,R2IN*%
%TO.N,unconnected-(U5-R2IN-Pad9)*%
X155725000Y-85137500D03*
%TO.P,U5,10,R2OUT*%
%TO.N,Net-(U3-CTS)*%
X155075000Y-85137500D03*
%TO.P,U5,11*%
%TO.N,N/C*%
X155075000Y-90862500D03*
%TO.P,U5,12,T2IN*%
%TO.N,Net-(U3-RTS)*%
X155725000Y-90862500D03*
%TO.P,U5,13,T1IN*%
%TO.N,Net-(U3-TXD)*%
X156375000Y-90862500D03*
%TO.P,U5,14*%
%TO.N,N/C*%
X157025000Y-90862500D03*
%TO.P,U5,15,R1OUT*%
%TO.N,Net-(U3-RXD)*%
X157675000Y-90862500D03*
%TO.P,U5,16,R1IN*%
%TO.N,Net-(J3-Pin_3)*%
X158325000Y-90862500D03*
%TO.P,U5,17,T1OUT*%
%TO.N,unconnected-(U5-T1OUT-Pad17)*%
X158975000Y-90862500D03*
%TO.P,U5,18,GND*%
%TO.N,~*%
X159625000Y-90862500D03*
%TO.P,U5,19,Vcc*%
%TO.N,+5V*%
X160275000Y-90862500D03*
%TO.P,U5,20,/SHUTDOWN*%
%TO.N,Net-(U3-CBUS4)*%
X160925000Y-90862500D03*
%TD*%
D26*
%TO.P,C1,1*%
%TO.N,~*%
X146500000Y-74740000D03*
%TO.P,C1,2*%
%TO.N,+5V*%
X146500000Y-75700000D03*
%TD*%
D35*
%TO.P,D6,1,K*%
%TO.N,/WG_+12V*%
X137200000Y-108750000D03*
%TO.P,D6,2,A*%
%TO.N,Net-(D6-A)*%
X137200000Y-112050000D03*
%TD*%
D15*
%TO.P,TP13,1,1*%
%TO.N,Net-(U7-RXD)*%
X107300000Y-94000000D03*
%TD*%
D26*
%TO.P,C26,1*%
%TO.N,/WG_+12V*%
X130600000Y-102070000D03*
%TO.P,C26,2*%
%TO.N,~*%
X130600000Y-103030000D03*
%TD*%
D36*
%TO.P,J3,1,Pin_1*%
%TO.N,/WG_+12V*%
X153220000Y-95000000D03*
D37*
%TO.P,J3,2,Pin_2*%
%TO.N,~*%
X155760000Y-95000000D03*
%TO.P,J3,3,Pin_3*%
%TO.N,Net-(J3-Pin_3)*%
X158300000Y-95000000D03*
%TO.P,J3,4,Pin_4*%
%TO.N,~*%
X160840000Y-95000000D03*
%TD*%
D27*
%TO.P,D11,1,K*%
%TO.N,~*%
X161800000Y-99300000D03*
%TO.P,D11,2,K*%
%TO.N,Net-(J3-Pin_3)*%
X159900000Y-99300000D03*
%TO.P,D11,3,A*%
%TO.N,unconnected-(D11-A-Pad3)*%
X160850000Y-101590000D03*
%TD*%
D16*
%TO.P,C17,1*%
%TO.N,+5V*%
X163500000Y-76280000D03*
%TO.P,C17,2*%
%TO.N,~*%
X163500000Y-75320000D03*
%TD*%
D33*
%TO.P,R13,1*%
%TO.N,Net-(U6-FB)*%
X133110000Y-107900000D03*
%TO.P,R13,2*%
%TO.N,Net-(C28-Pad1)*%
X133110000Y-109550000D03*
%TD*%
D16*
%TO.P,C40,1*%
%TO.N,/DM3-*%
X116400000Y-77100000D03*
%TO.P,C40,2*%
%TO.N,~*%
X116400000Y-76140000D03*
%TD*%
D30*
%TO.P,C58,1*%
%TO.N,+5V*%
X151075000Y-64650000D03*
%TO.P,C58,2*%
%TO.N,~*%
X148125000Y-64650000D03*
%TD*%
D38*
%TO.P,R14,1*%
%TO.N,~*%
X131600000Y-109550000D03*
%TO.P,R14,2*%
%TO.N,Net-(U6-FB)*%
X131600000Y-107900000D03*
%TD*%
D15*
%TO.P,TP8,1,1*%
%TO.N,Net-(U2-TXD)*%
X124100000Y-91100000D03*
%TD*%
D13*
%TO.P,D3,1,K*%
%TO.N,Net-(D3-K)*%
X134900000Y-69312500D03*
%TO.P,D3,2,A*%
%TO.N,Net-(D3-A)*%
X134900000Y-70887500D03*
%TD*%
D29*
%TO.P,R9,1*%
%TO.N,~*%
X143020000Y-112100000D03*
%TO.P,R9,2*%
%TO.N,Net-(D6-A)*%
X142000000Y-112100000D03*
%TD*%
D16*
%TO.P,C35,1*%
%TO.N,Net-(U8-C1-)*%
X110000000Y-82300000D03*
%TO.P,C35,2*%
%TO.N,Net-(U8-C1+)*%
X110000000Y-81340000D03*
%TD*%
D39*
%TO.P,J1,A1,GND*%
%TO.N,~*%
X105785000Y-59450000D03*
%TO.P,J1,A4,VBUS*%
%TO.N,Net-(C24-Pad1)*%
X105785000Y-60250000D03*
D40*
%TO.P,J1,A5,CC1*%
%TO.N,/USB_C_PD/CC1*%
X105785000Y-61450000D03*
%TO.P,J1,A6,D+*%
%TO.N,/USB_C_PD/DP+*%
X105785000Y-62450000D03*
%TO.P,J1,A7,D-*%
%TO.N,/USB_C_PD/DM-*%
X105785000Y-62950000D03*
%TO.P,J1,A8*%
%TO.N,N/C*%
X105785000Y-63950000D03*
D39*
%TO.P,J1,A9,VBUS*%
%TO.N,Net-(C24-Pad1)*%
X105785000Y-65150000D03*
%TO.P,J1,A12,GND*%
%TO.N,~*%
X105785000Y-65950000D03*
%TO.P,J1,B1,GND*%
X105785000Y-65950000D03*
%TO.P,J1,B4,VBUS*%
%TO.N,Net-(C24-Pad1)*%
X105785000Y-65150000D03*
D40*
%TO.P,J1,B5,CC2*%
%TO.N,/USB_C_PD/CC2*%
X105785000Y-64450000D03*
%TO.P,J1,B6,D+*%
%TO.N,/USB_C_PD/DP+*%
X105785000Y-63450000D03*
%TO.P,J1,B7,D-*%
%TO.N,/USB_C_PD/DM-*%
X105785000Y-61950000D03*
%TO.P,J1,B8*%
%TO.N,N/C*%
X105785000Y-60950000D03*
D39*
%TO.P,J1,B9,VBUS*%
%TO.N,Net-(C24-Pad1)*%
X105785000Y-60250000D03*
%TO.P,J1,B12,GND*%
%TO.N,~*%
X105785000Y-59450000D03*
D41*
%TO.P,J1,S1,SHIELD*%
X104870000Y-58380000D03*
D42*
X100690000Y-58380000D03*
D41*
X104870000Y-67020000D03*
D42*
X100690000Y-67020000D03*
%TD*%
D15*
%TO.P,TP15,1,1*%
%TO.N,/DM3+*%
X117500000Y-79100000D03*
%TD*%
D28*
%TO.P,C30,1*%
%TO.N,Net-(C28-Pad1)*%
X149300000Y-101125000D03*
%TO.P,C30,2*%
%TO.N,~*%
X149300000Y-102675000D03*
%TD*%
D26*
%TO.P,C36,1*%
%TO.N,~*%
X113600000Y-91020000D03*
%TO.P,C36,2*%
%TO.N,+5V*%
X113600000Y-91980000D03*
%TD*%
D11*
%TO.P,R1,1*%
%TO.N,~*%
X146140000Y-53150000D03*
%TO.P,R1,2*%
%TO.N,Net-(U9-VSYS)*%
X147160000Y-53150000D03*
%TD*%
D15*
%TO.P,TP12,1,1*%
%TO.N,Net-(U7-TXD)*%
X104900000Y-94000000D03*
%TD*%
%TO.P,TP4,1,1*%
%TO.N,Net-(U1-DP2+)*%
X131800000Y-64800000D03*
%TD*%
D43*
%TO.P,U12,1,GND*%
%TO.N,~*%
X113100000Y-59450000D03*
%TO.P,U12,2,GND*%
X112450000Y-59450000D03*
%TO.P,U12,3,GND*%
X111800000Y-59450000D03*
%TO.P,U12,4,IN*%
%TO.N,Net-(C24-Pad1)*%
X111800000Y-61225000D03*
%TO.P,U12,5,IN*%
X112450000Y-61225000D03*
%TO.P,U12,6,IN*%
X113100000Y-61225000D03*
D44*
%TO.P,U12,7,GND*%
%TO.N,~*%
X112450000Y-60337500D03*
%TD*%
D26*
%TO.P,C41,1*%
%TO.N,Net-(J5-Pin_1)*%
X149900000Y-110650000D03*
%TO.P,C41,2*%
%TO.N,~*%
X149900000Y-111610000D03*
%TD*%
D12*
%TO.P,C10,1*%
%TO.N,Net-(U4-C2+)*%
X129000000Y-82775000D03*
%TO.P,C10,2*%
%TO.N,Net-(U4-C2-)*%
X129000000Y-81225000D03*
%TD*%
D45*
%TO.P,R11,1*%
%TO.N,/WG_+12V*%
X128600000Y-103410000D03*
%TO.P,R11,2*%
%TO.N,Net-(D5-K)*%
X128600000Y-102390000D03*
%TD*%
D26*
%TO.P,C8,1*%
%TO.N,~*%
X133700000Y-76220000D03*
%TO.P,C8,2*%
%TO.N,Net-(U2-3V3OUT)*%
X133700000Y-77180000D03*
%TD*%
D11*
%TO.P,R10,1*%
%TO.N,+3V3*%
X139540000Y-54700000D03*
%TO.P,R10,2*%
%TO.N,Net-(U9-I2Cc_IRQ_N)*%
X140560000Y-54700000D03*
%TD*%
D28*
%TO.P,C12,1*%
%TO.N,+5V*%
X132500000Y-81025000D03*
%TO.P,C12,2*%
%TO.N,Net-(U4-V+)*%
X132500000Y-82575000D03*
%TD*%
D26*
%TO.P,C54,1*%
%TO.N,Net-(C24-Pad1)*%
X141650000Y-59420000D03*
%TO.P,C54,2*%
%TO.N,~*%
X141650000Y-60380000D03*
%TD*%
D18*
%TO.P,REF\u002A\u002A,1*%
%TO.N,~*%
X103000000Y-54000000D03*
D19*
X103000000Y-54000000D03*
%TD*%
D46*
%TO.P,U10,1,A0*%
%TO.N,~*%
X127100000Y-53210000D03*
%TO.P,U10,2,A1*%
X127100000Y-54480000D03*
%TO.P,U10,3,A2*%
X127100000Y-55750000D03*
%TO.P,U10,4,GND*%
X127100000Y-57020000D03*
%TO.P,U10,5,SDA*%
%TO.N,Net-(U10-SDA)*%
X132050000Y-57020000D03*
%TO.P,U10,6,SCL*%
%TO.N,Net-(U10-SCL)*%
X132050000Y-55750000D03*
%TO.P,U10,7,WP*%
%TO.N,~*%
X132050000Y-54480000D03*
%TO.P,U10,8,VCC*%
%TO.N,+3V3*%
X132050000Y-53210000D03*
%TD*%
D15*
%TO.P,TP9,1,1*%
%TO.N,Net-(U2-RXD)*%
X123000000Y-87600000D03*
%TD*%
D16*
%TO.P,C3,1*%
%TO.N,Net-(U1-VDD33)*%
X144300000Y-71880000D03*
%TO.P,C3,2*%
%TO.N,~*%
X144300000Y-70920000D03*
%TD*%
D26*
%TO.P,C23,1*%
%TO.N,Net-(U1-DP1+)*%
X139900000Y-79140000D03*
%TO.P,C23,2*%
%TO.N,~*%
X139900000Y-80100000D03*
%TD*%
%TO.P,C25,1*%
%TO.N,/WG_+12V*%
X131600000Y-102070000D03*
%TO.P,C25,2*%
%TO.N,~*%
X131600000Y-103030000D03*
%TD*%
D47*
%TO.P,U9,1,LDO_3V3*%
%TO.N,Net-(U9-ADCIN1)*%
X153965531Y-55150000D03*
%TO.P,U9,2,ADCIN1*%
X153965531Y-54750001D03*
%TO.P,U9,3,ADCIN2*%
%TO.N,~*%
X153965531Y-54349999D03*
%TO.P,U9,4,LDO_1V5*%
%TO.N,Net-(U9-LDO_1V5)*%
X153965531Y-53950000D03*
%TO.P,U9,5,GPIO0*%
%TO.N,~*%
X153965531Y-53550000D03*
%TO.P,U9,6,GPIO1*%
X153965531Y-53150001D03*
%TO.P,U9,7,GPIO2*%
X153965531Y-52749999D03*
%TO.P,U9,8,I2Ct_SDA*%
X153965531Y-52350000D03*
D48*
%TO.P,U9,9,I2Ct_SCL*%
X153350000Y-51734467D03*
%TO.P,U9,10,I2Ct_IRQ_N*%
X152950001Y-51734467D03*
%TO.P,U9,11,GND*%
X152549999Y-51734467D03*
%TO.P,U9,12,GND*%
X152150000Y-51734467D03*
%TO.P,U9,13,GPIO11*%
X151750000Y-51734467D03*
%TO.P,U9,14,GND*%
X151350001Y-51734467D03*
%TO.P,U9,15,I2Cc_SDA*%
%TO.N,Net-(U10-SDA)*%
X150949999Y-51734467D03*
%TO.P,U9,16,I2Cc_SCL*%
%TO.N,Net-(U10-SCL)*%
X150550000Y-51734467D03*
D47*
%TO.P,U9,17,I2Cc_IRQ_N*%
%TO.N,Net-(U9-I2Cc_IRQ_N)*%
X149934467Y-52350000D03*
%TO.P,U9,18,GPIO3*%
%TO.N,~*%
X149934467Y-52749999D03*
%TO.P,U9,19,VSYS*%
%TO.N,Net-(U9-VSYS)*%
X149934467Y-53150001D03*
%TO.P,U9,20,GATE_VSYS*%
%TO.N,unconnected-(U9-GATE_VSYS-Pad20)*%
X149934467Y-53550000D03*
%TO.P,U9,21,GATE_VBUS*%
%TO.N,unconnected-(U9-GATE_VBUS-Pad21)*%
X149934467Y-53950000D03*
%TO.P,U9,22,GPIO4_USB_P_MD1*%
%TO.N,~*%
X149934467Y-54349999D03*
%TO.P,U9,23,GPIO5_USB_N_MD2*%
X149934467Y-54750001D03*
%TO.P,U9,24,CC1*%
%TO.N,/USB_C_PD/CC1*%
X149934467Y-55150000D03*
D48*
%TO.P,U9,25,CC2*%
%TO.N,/USB_C_PD/CC2*%
X150550000Y-55765531D03*
%TO.P,U9,26,VBUS*%
%TO.N,Net-(C24-Pad1)*%
X150949999Y-55765531D03*
%TO.P,U9,27,VBUS*%
X151350001Y-55765531D03*
%TO.P,U9,28,PP5V*%
%TO.N,+5V*%
X151750000Y-55765531D03*
%TO.P,U9,29,PP5V*%
X152150000Y-55765531D03*
%TO.P,U9,30,GPIO7*%
%TO.N,~*%
X152549999Y-55765531D03*
%TO.P,U9,31,GPIO6*%
X152950001Y-55765531D03*
%TO.P,U9,32,VIN_3V3*%
%TO.N,+3V3*%
X153350000Y-55765531D03*
D49*
%TO.P,U9,33,GND*%
%TO.N,~*%
X151950000Y-53750000D03*
%TD*%
D28*
%TO.P,C37,1*%
%TO.N,+5V*%
X112425000Y-81025000D03*
%TO.P,C37,2*%
%TO.N,Net-(U8-V+)*%
X112425000Y-82575000D03*
%TD*%
D12*
%TO.P,C4,1*%
%TO.N,Net-(U1-DP2+)*%
X129800000Y-66075000D03*
%TO.P,C4,2*%
%TO.N,~*%
X129800000Y-64525000D03*
%TD*%
D14*
%TO.P,C44,1*%
%TO.N,Net-(U9-LDO_1V5)*%
X155120000Y-54200000D03*
%TO.P,C44,2*%
%TO.N,~*%
X156080000Y-54200000D03*
%TD*%
D17*
%TO.P,U3,1,TXD*%
%TO.N,Net-(U3-TXD)*%
X153800000Y-71200000D03*
%TO.P,U3,2,DTR*%
%TO.N,unconnected-(U3-DTR-Pad2)*%
X153800000Y-71850000D03*
%TO.P,U3,3,RTS*%
%TO.N,Net-(U3-RTS)*%
X153800000Y-72500000D03*
%TO.P,U3,4,VCCIO*%
%TO.N,+5V*%
X153800000Y-73150000D03*
%TO.P,U3,5,RXD*%
%TO.N,Net-(U3-RXD)*%
X153800000Y-73800000D03*
%TO.P,U3,6,RI*%
%TO.N,unconnected-(U3-RI-Pad6)*%
X153800000Y-74450000D03*
%TO.P,U3,7,GND*%
%TO.N,~*%
X153800000Y-75100000D03*
%TO.P,U3,8*%
%TO.N,N/C*%
X153800000Y-75750000D03*
%TO.P,U3,9,DCR*%
%TO.N,unconnected-(U3-DCR-Pad9)*%
X153800000Y-76400000D03*
%TO.P,U3,10,DCD*%
%TO.N,unconnected-(U3-DCD-Pad10)*%
X153800000Y-77050000D03*
%TO.P,U3,11,CTS*%
%TO.N,Net-(U3-CTS)*%
X153800000Y-77700000D03*
%TO.P,U3,12,CBUS4*%
%TO.N,Net-(U3-CBUS4)*%
X153800000Y-78350000D03*
%TO.P,U3,13,CBUS2*%
%TO.N,unconnected-(U3-CBUS2-Pad13)*%
X153800000Y-79000000D03*
%TO.P,U3,14,CBUS3*%
%TO.N,Net-(U3-CBUS3)*%
X153800000Y-79650000D03*
%TO.P,U3,15,USBD+*%
%TO.N,Net-(U1-DP1+)*%
X161000000Y-79650000D03*
%TO.P,U3,16,USBD-*%
%TO.N,Net-(U1-DM1-)*%
X161000000Y-79000000D03*
%TO.P,U3,17,3V3OUT*%
%TO.N,Net-(U3-3V3OUT)*%
X161000000Y-78350000D03*
%TO.P,U3,18,GND*%
%TO.N,~*%
X161000000Y-77700000D03*
%TO.P,U3,19,~{RESET}*%
%TO.N,+5V*%
X161000000Y-77050000D03*
%TO.P,U3,20,VCC*%
X161000000Y-76400000D03*
%TO.P,U3,21,GND*%
%TO.N,~*%
X161000000Y-75750000D03*
%TO.P,U3,22,CBUS1*%
%TO.N,Net-(D2-K)*%
X161000000Y-75100000D03*
%TO.P,U3,23,CBUS0*%
%TO.N,Net-(D1-K)*%
X161000000Y-74450000D03*
%TO.P,U3,24*%
%TO.N,N/C*%
X161000000Y-73800000D03*
%TO.P,U3,25,AGND*%
%TO.N,~*%
X161000000Y-73150000D03*
%TO.P,U3,26,TEST*%
X161000000Y-72500000D03*
%TO.P,U3,27,OSCI*%
%TO.N,unconnected-(U3-OSCI-Pad27)*%
X161000000Y-71850000D03*
%TO.P,U3,28,OSCO*%
%TO.N,unconnected-(U3-OSCO-Pad28)*%
X161000000Y-71200000D03*
%TD*%
D26*
%TO.P,C27,1*%
%TO.N,/WG_+12V*%
X132600000Y-102070000D03*
%TO.P,C27,2*%
%TO.N,~*%
X132600000Y-103030000D03*
%TD*%
D12*
%TO.P,C13,1*%
%TO.N,Net-(U4-V-)*%
X127050000Y-82775000D03*
%TO.P,C13,2*%
%TO.N,~*%
X127050000Y-81225000D03*
%TD*%
D50*
%TO.P,U11,1,GND*%
%TO.N,~*%
X155562500Y-57050000D03*
%TO.P,U11,2,VO*%
%TO.N,+3V3*%
X155562500Y-58950000D03*
%TO.P,U11,3,VI*%
%TO.N,+5V*%
X157837500Y-58000000D03*
%TD*%
D14*
%TO.P,C9,1*%
%TO.N,Net-(U4-C1-)*%
X130040000Y-79700000D03*
%TO.P,C9,2*%
%TO.N,Net-(U4-C1+)*%
X131000000Y-79700000D03*
%TD*%
D18*
%TO.P,REF\u002A\u002A,1*%
%TO.N,~*%
X165000000Y-54000000D03*
D19*
X165000000Y-54000000D03*
%TD*%
D51*
%TO.P,Y1,1,1*%
%TO.N,Net-(U1-XI)*%
X150000000Y-71600000D03*
%TO.P,Y1,2,2*%
%TO.N,~*%
X147800000Y-71600000D03*
%TO.P,Y1,3,3*%
%TO.N,Net-(U1-XO)*%
X147800000Y-73300000D03*
%TO.P,Y1,4,4*%
%TO.N,~*%
X150000000Y-73300000D03*
%TD*%
D27*
%TO.P,D13,1,K*%
%TO.N,~*%
X140250000Y-88755000D03*
%TO.P,D13,2,K*%
%TO.N,Net-(J2-Pin_1)*%
X138350000Y-88755000D03*
%TO.P,D13,3,A*%
%TO.N,unconnected-(D13-A-Pad3)*%
X139300000Y-91045000D03*
%TD*%
D12*
%TO.P,C38,1*%
%TO.N,Net-(U8-V-)*%
X106800000Y-82775000D03*
%TO.P,C38,2*%
%TO.N,~*%
X106800000Y-81225000D03*
%TD*%
D16*
%TO.P,C45,1*%
%TO.N,+5V*%
X159400000Y-58000000D03*
%TO.P,C45,2*%
%TO.N,~*%
X159400000Y-57040000D03*
%TD*%
D52*
%TO.P,C24,1*%
%TO.N,Net-(C24-Pad1)*%
X146900000Y-58700000D03*
%TO.P,C24,2*%
%TO.N,~*%
X146900000Y-60600000D03*
%TD*%
D20*
%TO.P,C55,1*%
%TO.N,+5V*%
X150325000Y-60650000D03*
%TO.P,C55,2*%
%TO.N,~*%
X148775000Y-60650000D03*
%TD*%
D53*
%TO.P,Q1,1*%
%TO.N,/WG_+12V*%
X141990000Y-108775000D03*
%TO.P,Q1,2*%
X141990000Y-109425000D03*
%TO.P,Q1,3*%
X141990000Y-110075000D03*
%TO.P,Q1,4*%
%TO.N,Net-(D6-A)*%
X141990000Y-110725000D03*
D54*
%TO.P,Q1,5*%
%TO.N,Net-(J5-Pin_1)*%
X144890000Y-110725000D03*
%TO.P,Q1,6*%
X144890000Y-110075000D03*
%TO.P,Q1,7*%
X144890000Y-109425000D03*
%TO.P,Q1,8*%
X144890000Y-108775000D03*
D55*
%TO.P,Q1,9*%
X143750000Y-109750000D03*
D56*
%TO.P,Q1,9_1*%
X143390000Y-108335000D03*
%TO.P,Q1,9_2*%
X143390000Y-111165000D03*
%TD*%
D26*
%TO.P,C11,1*%
%TO.N,~*%
X133800000Y-90620000D03*
%TO.P,C11,2*%
%TO.N,+5V*%
X133800000Y-91580000D03*
%TD*%
D12*
%TO.P,C33,1*%
%TO.N,+5V*%
X116100000Y-73475000D03*
%TO.P,C33,2*%
%TO.N,~*%
X116100000Y-71925000D03*
%TD*%
D57*
%TO.P,U6,1,VIN*%
%TO.N,/WG_+12V*%
X130269300Y-100900126D03*
%TO.P,U6,2,SW*%
%TO.N,Net-(U6-SW)*%
X130269300Y-100400000D03*
%TO.P,U6,3,GND*%
%TO.N,~*%
X130269300Y-99899874D03*
%TO.P,U6,4,AGND*%
X128770700Y-99899874D03*
%TO.P,U6,5,EN*%
%TO.N,Net-(D5-K)*%
X128770700Y-100400000D03*
%TO.P,U6,6,FB*%
%TO.N,Net-(U6-FB)*%
X128770700Y-100900126D03*
%TD*%
D18*
%TO.P,REF\u002A\u002A,1*%
%TO.N,~*%
X165000000Y-111000000D03*
D19*
X165000000Y-111000000D03*
%TD*%
D15*
%TO.P,TP6,1,1*%
%TO.N,Net-(U1-DM1-)*%
X142600000Y-82600000D03*
%TD*%
D26*
%TO.P,C52,1*%
%TO.N,Net-(C24-Pad1)*%
X144150000Y-59420000D03*
%TO.P,C52,2*%
%TO.N,~*%
X144150000Y-60380000D03*
%TD*%
D12*
%TO.P,C5,1*%
%TO.N,Net-(U1-DM2-)*%
X135637500Y-66075000D03*
%TO.P,C5,2*%
%TO.N,~*%
X135637500Y-64525000D03*
%TD*%
D29*
%TO.P,R18,1*%
%TO.N,Net-(D7-A)*%
X116010000Y-82500000D03*
%TO.P,R18,2*%
%TO.N,+5V*%
X114990000Y-82500000D03*
%TD*%
D24*
%TO.P,C15,1*%
%TO.N,~*%
X164105000Y-78400000D03*
%TO.P,C15,2*%
%TO.N,Net-(U3-3V3OUT)*%
X163145000Y-78400000D03*
%TD*%
D14*
%TO.P,C16,1*%
%TO.N,~*%
X155520000Y-69350000D03*
%TO.P,C16,2*%
%TO.N,+5V*%
X156480000Y-69350000D03*
%TD*%
D11*
%TO.P,R7,1*%
%TO.N,Net-(D15-A)*%
X162890000Y-86800000D03*
%TO.P,R7,2*%
%TO.N,+5V*%
X163910000Y-86800000D03*
%TD*%
D27*
%TO.P,D9,1,K*%
%TO.N,~*%
X116100000Y-98300000D03*
%TO.P,D9,2,K*%
%TO.N,Net-(J6-Pin_1)*%
X114200000Y-98300000D03*
%TO.P,D9,3,A*%
%TO.N,unconnected-(D9-A-Pad3)*%
X115150000Y-100590000D03*
%TD*%
D36*
%TO.P,J2,1,Pin_1*%
%TO.N,Net-(J2-Pin_1)*%
X137540000Y-94000000D03*
D37*
%TO.P,J2,2,Pin_2*%
%TO.N,~*%
X135000000Y-94000000D03*
%TO.P,J2,3,Pin_3*%
%TO.N,Net-(J2-Pin_3)*%
X132460000Y-94000000D03*
%TD*%
D21*
%TO.P,R6,1*%
%TO.N,Net-(D4-A)*%
X136500000Y-73390000D03*
%TO.P,R6,2*%
%TO.N,+5V*%
X136500000Y-74410000D03*
%TD*%
D25*
%TO.P,D8,1,K*%
%TO.N,Net-(D8-K)*%
X117100000Y-85587500D03*
%TO.P,D8,2,A*%
%TO.N,Net-(D8-A)*%
X117100000Y-84012500D03*
%TD*%
D58*
%TO.P,D5,1,K*%
%TO.N,Net-(D5-K)*%
X124600000Y-98350000D03*
%TO.P,D5,2,A*%
%TO.N,~*%
X124600000Y-100450000D03*
%TD*%
D59*
%TO.P,L1,1,1*%
%TO.N,Net-(U6-SW)*%
X138525000Y-100400000D03*
%TO.P,L1,2,2*%
%TO.N,Net-(C28-Pad1)*%
X144075000Y-100400000D03*
%TD*%
D26*
%TO.P,C39,1*%
%TO.N,/DM3+*%
X115200000Y-77900000D03*
%TO.P,C39,2*%
%TO.N,~*%
X115200000Y-78860000D03*
%TD*%
D22*
%TO.P,J5,1,Pin_1*%
%TO.N,Net-(J5-Pin_1)*%
X157000000Y-110000000D03*
D23*
X157000000Y-110000000D03*
%TD*%
D36*
%TO.P,J6,1,Pin_1*%
%TO.N,Net-(J6-Pin_1)*%
X117000000Y-94800000D03*
D37*
%TO.P,J6,2,Pin_2*%
%TO.N,~*%
X114460000Y-94800000D03*
%TO.P,J6,3,Pin_3*%
%TO.N,Net-(J6-Pin_3)*%
X111920000Y-94800000D03*
%TD*%
D15*
%TO.P,TP11,1,1*%
%TO.N,Net-(U3-RXD)*%
X148500000Y-92000000D03*
%TD*%
D60*
%TO.N,~*%
X110350000Y-57550000D03*
X112500000Y-67350000D03*
%TO.N,+5V*%
X120450000Y-93450000D03*
D61*
X167000000Y-90000000D03*
X135800000Y-89900000D03*
X143475000Y-90025000D03*
D60*
X121900000Y-71500000D03*
%TO.N,~*%
X107340000Y-59400000D03*
X102700000Y-72100000D03*
X140300000Y-87600000D03*
X112000000Y-98300000D03*
X158000000Y-51450000D03*
X161000000Y-51450000D03*
X159000000Y-53400000D03*
X134250000Y-55100000D03*
X159600000Y-72750000D03*
X159000000Y-52100000D03*
X156000000Y-53400000D03*
X149100000Y-74800000D03*
X149300000Y-103900000D03*
X129700000Y-95200000D03*
X128450000Y-54500000D03*
X155600000Y-75100000D03*
X145900000Y-99100000D03*
X157850000Y-60250000D03*
X139900000Y-81100000D03*
X142000000Y-68850000D03*
X142000000Y-67550000D03*
X142000000Y-66200000D03*
X159000000Y-50800000D03*
X114200000Y-79400000D03*
X146300000Y-103900000D03*
X159625000Y-92300000D03*
X154900000Y-69700000D03*
X142000000Y-65550000D03*
X125700000Y-81200000D03*
X110625000Y-89650000D03*
X142000000Y-69500000D03*
X146300000Y-72300000D03*
X164200000Y-79600000D03*
X131600000Y-103850000D03*
X142000000Y-62250000D03*
X147800000Y-103900000D03*
X160000000Y-52750000D03*
X134150000Y-64550000D03*
X145400000Y-53150000D03*
X106800000Y-73200000D03*
X137400000Y-81000000D03*
X142000000Y-64900000D03*
X133600000Y-71300000D03*
X142000000Y-62900000D03*
X156000000Y-51450000D03*
X160000000Y-51450000D03*
X142000000Y-61600000D03*
X116100000Y-70800000D03*
X142000000Y-68200000D03*
X156000000Y-52750000D03*
X142000000Y-64250000D03*
X122900000Y-73300000D03*
X158000000Y-53400000D03*
X157000000Y-51450000D03*
X147900000Y-74800000D03*
X160000000Y-52100000D03*
X132600000Y-103850000D03*
X130420000Y-98400000D03*
X128490000Y-53210000D03*
X130600000Y-103850000D03*
X160000000Y-50800000D03*
X161000000Y-52100000D03*
X161000000Y-53400000D03*
X149900000Y-112900000D03*
X133800000Y-89700000D03*
X164500000Y-91500000D03*
X142300000Y-70900000D03*
X134400000Y-76200000D03*
X118100000Y-98300000D03*
D61*
X112450000Y-57950000D03*
D60*
X164300000Y-75300000D03*
X160000000Y-53400000D03*
X142000000Y-66900000D03*
X158000000Y-52750000D03*
X128450000Y-55750000D03*
X159000000Y-51450000D03*
X128620000Y-98400000D03*
X162400000Y-97400000D03*
X159000000Y-56600000D03*
X128450000Y-57000000D03*
X122600000Y-101100000D03*
X156000000Y-52100000D03*
X157000000Y-52100000D03*
X115400000Y-75700000D03*
X142000000Y-63600000D03*
X161000000Y-52750000D03*
X157000000Y-52750000D03*
X124600000Y-101400000D03*
X117400000Y-75700000D03*
X144510000Y-112000000D03*
X157000000Y-53400000D03*
X131600000Y-110600000D03*
X154800000Y-81700000D03*
X139100000Y-111700000D03*
X161900000Y-87300000D03*
X129520000Y-98400000D03*
X106000000Y-81200000D03*
X156000000Y-50800000D03*
X158000000Y-52100000D03*
X153752696Y-57847304D03*
X157000000Y-50800000D03*
X107340000Y-66000000D03*
X145200000Y-70900000D03*
X159000000Y-52750000D03*
X113600000Y-90200000D03*
X161000000Y-50800000D03*
X158000000Y-50800000D03*
X128500000Y-64550000D03*
X130625000Y-89675000D03*
%TO.N,Net-(U1-DP1+)*%
X157800000Y-79600000D03*
X141200000Y-79600000D03*
%TO.N,Net-(U1-DM1-)*%
X157800000Y-78799997D03*
X138600000Y-78800000D03*
%TO.N,Net-(U4-C1+)*%
X131280000Y-81740000D03*
X131280000Y-83080000D03*
%TO.N,Net-(U5-C1+)*%
X161800000Y-82600000D03*
X161800000Y-83975000D03*
%TO.N,Net-(U1-DP2+)*%
X131800000Y-67817500D03*
X131800000Y-66817500D03*
%TO.N,Net-(C28-Pad1)*%
X135000000Y-109000000D03*
X142000000Y-106500000D03*
%TO.N,Net-(U8-C1+)*%
X111303005Y-82075000D03*
X111300000Y-83300000D03*
%TO.N,Net-(D7-K)*%
X110750000Y-73950000D03*
X110750000Y-75150000D03*
%TO.N,Net-(D8-K)*%
X109900000Y-73950000D03*
X109900000Y-75150000D03*
%TO.N,+3V3*%
X154450000Y-58950000D03*
X148800000Y-55400000D03*
%TO.N,/USB_C_PD/CC2*%
X116000000Y-60550000D03*
X115900000Y-64850000D03*
%TD*%
D62*
%TO.N,~*%
X109425000Y-57550000D02*
X110350000Y-57550000D01*
X111725000Y-67350000D02*
X112500000Y-67350000D01*
%TO.N,/USB_C_PD/CC2*%
X111500000Y-64850000D02*
X109075000Y-67275000D01*
X110175000Y-67350000D02*
X109150000Y-67350000D01*
X109150000Y-67350000D02*
X109075000Y-67275000D01*
%TO.N,+5V*%
X163400000Y-81825000D02*
X165975000Y-81825000D01*
D63*
X108700000Y-73300000D02*
X108700000Y-74500000D01*
D64*
X121920000Y-71520000D02*
X121900000Y-71500000D01*
D65*
X132500000Y-81025000D02*
X135025000Y-81025000D01*
D62*
X114123872Y-75200000D02*
X114400000Y-74923872D01*
D63*
X131275000Y-91519870D02*
X131275000Y-90862500D01*
D66*
X123600000Y-96600000D02*
X139500000Y-96600000D01*
D63*
X113475000Y-81400000D02*
X113575000Y-81300000D01*
D62*
X114400000Y-74923872D02*
X114400000Y-74550000D01*
D64*
X114990000Y-82500000D02*
X113475000Y-82500000D01*
D63*
X134925000Y-75625000D02*
X134500000Y-75200000D01*
X134680000Y-91580000D02*
X133800000Y-91580000D01*
D66*
X120450000Y-93450000D02*
X123600000Y-96600000D01*
D64*
X112425000Y-81025000D02*
X113300000Y-81025000D01*
D65*
X135800000Y-81800000D02*
X135520000Y-81520000D01*
X115300000Y-92000000D02*
X119000000Y-92000000D01*
D63*
X111275000Y-91599999D02*
X111675001Y-92000000D01*
X162520000Y-92480000D02*
X162500000Y-92500000D01*
X157837500Y-58000000D02*
X159300000Y-58000000D01*
D64*
X156500000Y-69370000D02*
X156480000Y-69350000D01*
D67*
X155000000Y-103500000D02*
X165400000Y-103500000D01*
D64*
X161000000Y-76400000D02*
X163380000Y-76400000D01*
D63*
X133900000Y-73950000D02*
X133900000Y-74600000D01*
D68*
X135300000Y-75250000D02*
X134925000Y-75625000D01*
D63*
X115300000Y-88300000D02*
X115300000Y-92000000D01*
D64*
X145567500Y-75467500D02*
X145600000Y-75500000D01*
D63*
X108700000Y-77200000D02*
X112475000Y-80975000D01*
D65*
X135025000Y-81025000D02*
X135520000Y-81520000D01*
D64*
X123120000Y-71300000D02*
X124800000Y-71300000D01*
D63*
X112600000Y-74550000D02*
X114400000Y-74550000D01*
X115025000Y-74550000D02*
X116100000Y-73475000D01*
X131656130Y-91901000D02*
X131275000Y-91519870D01*
X135800000Y-90460000D02*
X134680000Y-91580000D01*
D62*
X165975000Y-81825000D02*
X166000000Y-81800000D01*
D63*
X133900000Y-74600000D02*
X134500000Y-75200000D01*
X108750000Y-74550000D02*
X108700000Y-74500000D01*
X115000000Y-92000000D02*
X117950000Y-92000000D01*
X132000000Y-74550000D02*
X133300000Y-74550000D01*
X132900000Y-91901000D02*
X131656130Y-91901000D01*
X133800000Y-91580000D02*
X133220000Y-91580000D01*
X160275000Y-90862500D02*
X160275000Y-91599999D01*
D64*
X154875000Y-73150000D02*
X156500000Y-71525000D01*
X145600000Y-75500000D02*
X145800000Y-75500000D01*
X151251000Y-71872872D02*
X151251000Y-74849000D01*
D63*
X159300000Y-58000000D02*
X165850000Y-58000000D01*
X113600000Y-91980000D02*
X113620000Y-92000000D01*
X113475000Y-82500000D02*
X113475000Y-81400000D01*
D64*
X166180000Y-76280000D02*
X166200000Y-76300000D01*
X122900000Y-71520000D02*
X123120000Y-71300000D01*
D67*
X165400000Y-103500000D02*
X167100000Y-105200000D01*
D64*
X145800000Y-75500000D02*
X145900000Y-75600000D01*
D63*
X135520000Y-76220000D02*
X134925000Y-75625000D01*
X160275000Y-91599999D02*
X161175001Y-92500000D01*
D62*
X135310000Y-74400000D02*
X135300000Y-74410000D01*
D64*
X153800000Y-73150000D02*
X154875000Y-73150000D01*
D63*
X117950000Y-92000000D02*
X119000000Y-92000000D01*
D65*
X119000000Y-92000000D02*
X120450000Y-93450000D01*
D62*
X144762500Y-75380000D02*
X144675000Y-75467500D01*
X103680000Y-71300000D02*
X105400000Y-71300000D01*
D64*
X165350000Y-67100000D02*
X156023872Y-67100000D01*
D63*
X113475000Y-86475000D02*
X115300000Y-88300000D01*
X111675001Y-92000000D02*
X115000000Y-92000000D01*
D68*
X135300000Y-74410000D02*
X135300000Y-75250000D01*
D64*
X113300000Y-81025000D02*
X113575000Y-81300000D01*
D63*
X162500000Y-92500000D02*
X163500000Y-92500000D01*
D62*
X135810000Y-74410000D02*
X135800000Y-74400000D01*
D64*
X151251000Y-74849000D02*
X150400000Y-75700000D01*
D63*
X105400000Y-71300000D02*
X106700000Y-71300000D01*
D62*
X163910000Y-86800000D02*
X165750000Y-86800000D01*
D67*
X154275000Y-101300000D02*
X154275000Y-102775000D01*
D63*
X111275000Y-90862500D02*
X111275000Y-91599999D01*
X133220000Y-91580000D02*
X132900000Y-91900000D01*
D69*
X135520000Y-81520000D02*
X135520000Y-76220000D01*
D63*
X112600000Y-74550000D02*
X108750000Y-74550000D01*
D64*
X163500000Y-76280000D02*
X166180000Y-76280000D01*
D63*
X113475000Y-82500000D02*
X113475000Y-86475000D01*
X161175001Y-92500000D02*
X162500000Y-92500000D01*
X108700000Y-74500000D02*
X108700000Y-77200000D01*
D62*
X136500000Y-74410000D02*
X135810000Y-74410000D01*
D63*
X106700000Y-71300000D02*
X108700000Y-73300000D01*
D64*
X161000000Y-77050000D02*
X166050000Y-77050000D01*
X144675000Y-75467500D02*
X145567500Y-75467500D01*
D63*
X133300000Y-74550000D02*
X133900000Y-73950000D01*
D62*
X159230000Y-57930000D02*
X159300000Y-58000000D01*
D63*
X162520000Y-91500000D02*
X162520000Y-92480000D01*
D64*
X156023872Y-67100000D02*
X151251000Y-71872872D01*
X156500000Y-71525000D02*
X156500000Y-69370000D01*
D63*
X134500000Y-75200000D02*
X132000000Y-75200000D01*
D64*
X122900000Y-71520000D02*
X121920000Y-71520000D01*
D67*
X154275000Y-102775000D02*
X155000000Y-103500000D01*
D63*
X114400000Y-74550000D02*
X115025000Y-74550000D01*
D64*
X166050000Y-77050000D02*
X166100000Y-77000000D01*
X163380000Y-76400000D02*
X163500000Y-76280000D01*
D63*
X156480000Y-69350000D02*
X165550000Y-69350000D01*
D66*
X143475000Y-92625000D02*
X143475000Y-90025000D01*
D63*
X163500000Y-92500000D02*
X165500000Y-92500000D01*
D64*
X146400000Y-75600000D02*
X146500000Y-75700000D01*
X113575000Y-81300000D02*
X114990000Y-81300000D01*
D62*
X112600000Y-75200000D02*
X114123872Y-75200000D01*
D64*
X150400000Y-75700000D02*
X146500000Y-75700000D01*
D63*
X132900000Y-91900000D02*
X132900000Y-91901000D01*
D62*
X135800000Y-74400000D02*
X135310000Y-74400000D01*
D66*
X139500000Y-96600000D02*
X143475000Y-92625000D01*
D65*
X135800000Y-89900000D02*
X135800000Y-81800000D01*
D64*
X145900000Y-75600000D02*
X146400000Y-75600000D01*
D63*
X113620000Y-92000000D02*
X115000000Y-92000000D01*
X135800000Y-89900000D02*
X135800000Y-90460000D01*
D68*
%TO.N,~*%
X143200000Y-70900000D02*
X142300000Y-70900000D01*
D62*
X134380000Y-76220000D02*
X134400000Y-76200000D01*
X114825000Y-70650000D02*
X116100000Y-71925000D01*
D64*
X162600000Y-75750000D02*
X163030000Y-75320000D01*
D68*
X146800000Y-71800000D02*
X146300000Y-72300000D01*
X143220000Y-70920000D02*
X143200000Y-70900000D01*
X149800000Y-73500000D02*
X149900000Y-73500000D01*
X132000000Y-73900000D02*
X132830956Y-73900000D01*
D62*
X164105000Y-78400000D02*
X164105000Y-79505000D01*
X133830000Y-54280000D02*
X134250000Y-54280000D01*
X159850000Y-72500000D02*
X159600000Y-72750000D01*
D68*
X133330000Y-75850000D02*
X133700000Y-76220000D01*
D62*
X147900000Y-74800000D02*
X147700000Y-74800000D01*
X159600000Y-72750000D02*
X159650000Y-72750000D01*
X122900000Y-73300000D02*
X124750000Y-73300000D01*
X147700000Y-74800000D02*
X147600000Y-74700000D01*
D68*
X133900000Y-72830956D02*
X133900000Y-72400000D01*
D64*
X153530000Y-57780000D02*
X152750000Y-57780000D01*
D62*
X106025000Y-81225000D02*
X106000000Y-81200000D01*
D64*
X130600000Y-103030000D02*
X130600000Y-103850000D01*
D68*
X116960000Y-76140000D02*
X117400000Y-75700000D01*
X144300000Y-70920000D02*
X143220000Y-70920000D01*
D62*
X146680000Y-74700000D02*
X146177500Y-74197500D01*
X115475000Y-71300000D02*
X116100000Y-71925000D01*
X164105000Y-79505000D02*
X164200000Y-79600000D01*
X132000000Y-71300000D02*
X133600000Y-71300000D01*
X124750000Y-73300000D02*
X124800000Y-73250000D01*
X102700000Y-72100000D02*
X102700000Y-71320000D01*
D64*
X159625000Y-90862500D02*
X159625000Y-92300000D01*
D68*
X114740000Y-78860000D02*
X114200000Y-79400000D01*
D65*
X107290000Y-59450000D02*
X107340000Y-59400000D01*
X105785000Y-59450000D02*
X107290000Y-59450000D01*
D68*
X133900000Y-72400000D02*
X133900000Y-71600000D01*
D64*
X143010000Y-112010000D02*
X144500000Y-112010000D01*
D62*
X106800000Y-81225000D02*
X106025000Y-81225000D01*
D64*
X161000000Y-75750000D02*
X162600000Y-75750000D01*
D63*
X122600000Y-100025000D02*
X122600000Y-101100000D01*
D62*
X130625000Y-90862500D02*
X130625000Y-89675000D01*
X115320000Y-75620000D02*
X115400000Y-75700000D01*
D68*
X162625000Y-88100000D02*
X162625000Y-88025000D01*
D62*
X128430000Y-57020000D02*
X128450000Y-57000000D01*
D63*
X131600000Y-109550000D02*
X131600000Y-110600000D01*
D64*
X115577000Y-71925000D02*
X116100000Y-71925000D01*
D62*
X128525000Y-64525000D02*
X128500000Y-64550000D01*
D63*
X155562500Y-56237500D02*
X156080000Y-55720000D01*
D68*
X149100000Y-74200000D02*
X149800000Y-73500000D01*
D63*
X145910000Y-99090000D02*
X145900000Y-99100000D01*
D65*
X147800000Y-102675000D02*
X147800000Y-103900000D01*
D69*
X128245000Y-95195000D02*
X129695000Y-95195000D01*
D68*
X137400000Y-80060000D02*
X137400000Y-81000000D01*
D63*
X163480000Y-91500000D02*
X164500000Y-91500000D01*
D62*
X112600000Y-71300000D02*
X115475000Y-71300000D01*
D63*
X156080000Y-55720000D02*
X156080000Y-55150000D01*
D64*
X129800000Y-64525000D02*
X128525000Y-64525000D01*
D62*
X153800000Y-75100000D02*
X155600000Y-75100000D01*
D64*
X161000000Y-77700000D02*
X163800000Y-77700000D01*
D68*
X144300000Y-70920000D02*
X145180000Y-70920000D01*
D62*
X160000000Y-73150000D02*
X159600000Y-72750000D01*
D64*
X163800000Y-77700000D02*
X164105000Y-78005000D01*
X114270000Y-75850000D02*
X114500000Y-75620000D01*
D62*
X105400000Y-73250000D02*
X106750000Y-73250000D01*
D63*
X156530000Y-60250000D02*
X157850000Y-60250000D01*
D62*
X132000000Y-70650000D02*
X132950000Y-70650000D01*
D64*
X164280000Y-75320000D02*
X164300000Y-75300000D01*
D62*
X127100000Y-55750000D02*
X128450000Y-55750000D01*
D63*
X140300000Y-87600000D02*
X140300000Y-88705000D01*
D65*
X149300000Y-102675000D02*
X149300000Y-103900000D01*
D63*
X147850000Y-99090000D02*
X145910000Y-99090000D01*
D62*
X162612500Y-87800000D02*
X162662500Y-87750000D01*
X133700000Y-76220000D02*
X134380000Y-76220000D01*
D68*
X132830956Y-73900000D02*
X133900000Y-72830956D01*
D67*
X112450000Y-58450000D02*
X112450000Y-57950000D01*
D62*
X156000000Y-81700000D02*
X154800000Y-81700000D01*
X125725000Y-81225000D02*
X125700000Y-81200000D01*
X122900000Y-73300000D02*
X122900000Y-72480000D01*
X161000000Y-73150000D02*
X160000000Y-73150000D01*
D68*
X115200000Y-78860000D02*
X114740000Y-78860000D01*
D62*
X128430000Y-54480000D02*
X128450000Y-54500000D01*
D68*
X161800000Y-98000000D02*
X162400000Y-97400000D01*
D62*
X134250000Y-54280000D02*
X134250000Y-55100000D01*
D63*
X155562500Y-57050000D02*
X155562500Y-56237500D01*
D62*
X153752696Y-57847304D02*
X153597304Y-57847304D01*
D64*
X163030000Y-75320000D02*
X163500000Y-75320000D01*
X149900000Y-111610000D02*
X149900000Y-112900000D01*
D67*
X112450000Y-59450000D02*
X112450000Y-58450000D01*
D62*
X155712500Y-56900000D02*
X155562500Y-57050000D01*
D68*
X132000000Y-75850000D02*
X133330000Y-75850000D01*
X116400000Y-76140000D02*
X116960000Y-76140000D01*
D62*
X114500000Y-75620000D02*
X115320000Y-75620000D01*
D68*
X145180000Y-70920000D02*
X145200000Y-70900000D01*
D62*
X132950000Y-70650000D02*
X133600000Y-71300000D01*
D64*
X159440000Y-57040000D02*
X159000000Y-56600000D01*
D62*
X154900000Y-69700000D02*
X155250000Y-69350000D01*
D64*
X113602000Y-73900000D02*
X115577000Y-71925000D01*
D62*
X127050000Y-81225000D02*
X125725000Y-81225000D01*
X133630000Y-54480000D02*
X133830000Y-54280000D01*
X132050000Y-54480000D02*
X133630000Y-54480000D01*
D63*
X116100000Y-71925000D02*
X116100000Y-70800000D01*
D62*
X147600000Y-74700000D02*
X146680000Y-74700000D01*
D68*
X133900000Y-71600000D02*
X133600000Y-71300000D01*
D62*
X161000000Y-72500000D02*
X159850000Y-72500000D01*
X146140000Y-53150000D02*
X145400000Y-53150000D01*
X153597304Y-57847304D02*
X153530000Y-57780000D01*
X102700000Y-71320000D02*
X102720000Y-71300000D01*
D64*
X139100000Y-110980000D02*
X139100000Y-111800000D01*
D62*
X128490000Y-53210000D02*
X127100000Y-53210000D01*
X129695000Y-95195000D02*
X129700000Y-95200000D01*
D63*
X113600000Y-90200000D02*
X113600000Y-91020000D01*
D68*
X149100000Y-74800000D02*
X149100000Y-74200000D01*
D62*
X146177500Y-74197500D02*
X144675000Y-74197500D01*
D63*
X133800000Y-89700000D02*
X133800000Y-90620000D01*
D64*
X112600000Y-73900000D02*
X113602000Y-73900000D01*
X135637500Y-64525000D02*
X134175000Y-64525000D01*
D62*
X155250000Y-69350000D02*
X155520000Y-69350000D01*
D63*
X116100000Y-98300000D02*
X118100000Y-98300000D01*
X110625000Y-90862500D02*
X110625000Y-89650000D01*
D68*
X147700000Y-71800000D02*
X146800000Y-71800000D01*
D62*
X131950000Y-70600000D02*
X132000000Y-70650000D01*
D68*
X161800000Y-99300000D02*
X161800000Y-98000000D01*
D62*
X112600000Y-70650000D02*
X114825000Y-70650000D01*
X106750000Y-73250000D02*
X106800000Y-73200000D01*
D63*
X109930000Y-98300000D02*
X112000000Y-98300000D01*
X124600000Y-100450000D02*
X124600000Y-101400000D01*
D64*
X132600000Y-103030000D02*
X132600000Y-103850000D01*
D62*
X127100000Y-57020000D02*
X128430000Y-57020000D01*
X127100000Y-54480000D02*
X128430000Y-54480000D01*
D64*
X131600000Y-103030000D02*
X131600000Y-103850000D01*
D68*
X139900000Y-80100000D02*
X139900000Y-81100000D01*
D64*
X163500000Y-75320000D02*
X164280000Y-75320000D01*
D65*
X105785000Y-65950000D02*
X107290000Y-65950000D01*
D62*
X134175000Y-64525000D02*
X134150000Y-64550000D01*
D65*
X107290000Y-65950000D02*
X107340000Y-66000000D01*
D63*
X140300000Y-88705000D02*
X140250000Y-88755000D01*
D64*
X164105000Y-78005000D02*
X164105000Y-78400000D01*
X112600000Y-75850000D02*
X114270000Y-75850000D01*
D68*
X162625000Y-88025000D02*
X161900000Y-87300000D01*
D65*
X146300000Y-102675000D02*
X146300000Y-103900000D01*
D68*
%TO.N,Net-(U1-DP1+)*%
X140800000Y-79200000D02*
X141200000Y-79600000D01*
D62*
X142600000Y-81000000D02*
X141200000Y-79600000D01*
X146000000Y-82600000D02*
X144400000Y-81000000D01*
X141200000Y-79600000D02*
X141212500Y-79587500D01*
X157850000Y-79650000D02*
X157800000Y-79600000D01*
X144400000Y-81000000D02*
X142600000Y-81000000D01*
D68*
X139400000Y-77372500D02*
X139400000Y-78500000D01*
X140100000Y-79200000D02*
X140800000Y-79200000D01*
D62*
X161000000Y-79650000D02*
X157850000Y-79650000D01*
D68*
X139400000Y-78500000D02*
X140100000Y-79200000D01*
%TO.N,Net-(U1-DM1-)*%
X137400000Y-79100000D02*
X138300000Y-79100000D01*
X137400000Y-77925001D02*
X137400000Y-79100000D01*
D62*
X161000000Y-79000000D02*
X158000003Y-79000000D01*
X138600000Y-81700000D02*
X138600000Y-78800000D01*
X142600000Y-82600000D02*
X139500000Y-82600000D01*
X139500000Y-82600000D02*
X138600000Y-81700000D01*
D68*
X138587501Y-76737500D02*
X137400000Y-77925001D01*
D62*
X158000003Y-79000000D02*
X157800000Y-78799997D01*
D68*
X138300000Y-79100000D02*
X138600000Y-78800000D01*
X139400000Y-76737500D02*
X138587501Y-76737500D01*
D62*
%TO.N,Net-(U2-3V3OUT)*%
X133020000Y-76500000D02*
X133700000Y-77180000D01*
X132000000Y-76500000D02*
X133020000Y-76500000D01*
%TO.N,Net-(U4-C1+)*%
X131000000Y-80000000D02*
X131000000Y-79700000D01*
X131280000Y-83720000D02*
X131280000Y-83080000D01*
X131275000Y-83725000D02*
X131280000Y-83720000D01*
X131280000Y-80280000D02*
X131000000Y-80000000D01*
X131275000Y-85137500D02*
X131275000Y-83725000D01*
X131280000Y-81740000D02*
X131280000Y-80280000D01*
%TO.N,Net-(U4-C1-)*%
X129975000Y-85137500D02*
X129975000Y-80065000D01*
X129975000Y-80065000D02*
X130040000Y-80000000D01*
%TO.N,Net-(U4-C2+)*%
X129325000Y-83100000D02*
X129000000Y-82775000D01*
X129325000Y-85137500D02*
X129325000Y-83100000D01*
%TO.N,Net-(U4-C2-)*%
X128525000Y-81225000D02*
X129000000Y-81225000D01*
X128000000Y-83150000D02*
X128000000Y-81750000D01*
X128675000Y-85137500D02*
X128675000Y-83825000D01*
X128675000Y-83825000D02*
X128000000Y-83150000D01*
X128000000Y-81750000D02*
X128525000Y-81225000D01*
%TO.N,Net-(U4-V+)*%
X130625000Y-82875000D02*
X131020000Y-82480000D01*
X130625000Y-85137500D02*
X130625000Y-82875000D01*
X131020000Y-82480000D02*
X132500000Y-82480000D01*
%TO.N,Net-(U4-V-)*%
X128025000Y-83975000D02*
X128025000Y-85137500D01*
X127050000Y-83000000D02*
X128025000Y-83975000D01*
%TO.N,Net-(U1-DM2-)*%
X128000000Y-75600000D02*
X129550000Y-77150000D01*
X135637500Y-66075000D02*
X135637500Y-67255000D01*
X136417500Y-67317500D02*
X135650000Y-67317500D01*
X137701000Y-74550000D02*
X137701000Y-68601000D01*
X128000000Y-69800000D02*
X128000000Y-75600000D01*
X137701000Y-68601000D02*
X136417500Y-67317500D01*
X137662500Y-66075000D02*
X137937500Y-65800000D01*
X134500000Y-67317500D02*
X130482500Y-67317500D01*
X135650000Y-67317500D02*
X134500000Y-67317500D01*
X130482500Y-67317500D02*
X128000000Y-69800000D01*
X129550000Y-77150000D02*
X132000000Y-77150000D01*
X135637500Y-67255000D02*
X135700000Y-67317500D01*
X135637500Y-66075000D02*
X137662500Y-66075000D01*
X135700000Y-67317500D02*
X135650000Y-67317500D01*
X138618500Y-75467500D02*
X137701000Y-74550000D01*
%TO.N,Net-(U3-3V3OUT)*%
X161000000Y-78350000D02*
X163095000Y-78350000D01*
X163095000Y-78350000D02*
X163145000Y-78400000D01*
%TO.N,Net-(U5-C2+)*%
X157800000Y-83480000D02*
X158325000Y-84005000D01*
X158325000Y-84005000D02*
X158325000Y-85137500D01*
%TO.N,Net-(U5-C2-)*%
X157000000Y-83800000D02*
X157000000Y-82525000D01*
X157675000Y-85137500D02*
X157675000Y-84475000D01*
X157000000Y-82525000D02*
X157800000Y-81725000D01*
X157675000Y-84475000D02*
X157000000Y-83800000D01*
%TO.N,Net-(U5-C1+)*%
X160275000Y-85137500D02*
X160275000Y-84400001D01*
X160700001Y-83975000D02*
X161800000Y-83975000D01*
D68*
X159500000Y-81800000D02*
X160880000Y-81800000D01*
X160880000Y-81800000D02*
X160940000Y-81860000D01*
D62*
X161680000Y-82600000D02*
X160940000Y-81860000D01*
X160275000Y-84400001D02*
X160700001Y-83975000D01*
X161800000Y-82600000D02*
X161680000Y-82600000D01*
%TO.N,Net-(U5-C1-)*%
X159480000Y-83542900D02*
X159520000Y-83542900D01*
D68*
X159500000Y-82760000D02*
X159500000Y-83522900D01*
X159500000Y-83522900D02*
X159520000Y-83542900D01*
D62*
X158975000Y-85137500D02*
X158975000Y-84047900D01*
X158975000Y-84047900D02*
X159480000Y-83542900D01*
%TO.N,Net-(U5-V+)*%
X159625000Y-84075000D02*
X159625000Y-85137500D01*
X160325000Y-83375000D02*
X159625000Y-84075000D01*
X160325000Y-83375000D02*
X163400000Y-83375000D01*
%TO.N,Net-(U5-V-)*%
X157025000Y-84400001D02*
X156104999Y-83480000D01*
X156104999Y-83480000D02*
X156000000Y-83480000D01*
X157025000Y-85137500D02*
X157025000Y-84400001D01*
%TO.N,Net-(U1-DP2+)*%
X129774322Y-77800000D02*
X132000000Y-77800000D01*
X129800000Y-66075000D02*
X129800000Y-67050000D01*
X130062161Y-67312161D02*
X127699000Y-69675322D01*
X130556822Y-66817500D02*
X130062161Y-67312161D01*
X131800000Y-67817500D02*
X136467500Y-67817500D01*
X137400000Y-68750000D02*
X137400000Y-75000000D01*
X136467500Y-67817500D02*
X137400000Y-68750000D01*
X127699000Y-75724678D02*
X129774322Y-77800000D01*
X129800000Y-67050000D02*
X130062161Y-67312161D01*
X138502500Y-76102500D02*
X139400000Y-76102500D01*
X131800000Y-66817500D02*
X131800000Y-64800000D01*
X127699000Y-69675322D02*
X127699000Y-75724678D01*
X137400000Y-75000000D02*
X138502500Y-76102500D01*
X131800000Y-66817500D02*
X130556822Y-66817500D01*
X131935000Y-67952500D02*
X131800000Y-67817500D01*
%TO.N,Net-(D1-A)*%
X164390000Y-70050000D02*
X163150000Y-70050000D01*
X162900000Y-70300000D02*
X162900000Y-72212500D01*
X163150000Y-70050000D02*
X162900000Y-70300000D01*
%TO.N,Net-(D1-K)*%
X161000000Y-74450000D02*
X162237500Y-74450000D01*
X162237500Y-74450000D02*
X162900000Y-73787500D01*
%TO.N,Net-(D2-K)*%
X162291479Y-75100000D02*
X162791479Y-74600000D01*
X163587500Y-74600000D02*
X164400000Y-73787500D01*
X162791479Y-74600000D02*
X163587500Y-74600000D01*
X161000000Y-75100000D02*
X162291479Y-75100000D01*
%TO.N,Net-(D2-A)*%
X164390000Y-72202500D02*
X164400000Y-72212500D01*
X164390000Y-71050000D02*
X164390000Y-72202500D01*
%TO.N,Net-(D3-A)*%
X134950000Y-70887500D02*
X134950000Y-73040000D01*
X134950000Y-73040000D02*
X135300000Y-73390000D01*
%TO.N,Net-(D3-K)*%
X130437839Y-68737839D02*
X130001000Y-69174678D01*
X130925000Y-72600000D02*
X132000000Y-72600000D01*
X130001000Y-69174678D02*
X130001000Y-71676000D01*
X130001000Y-71676000D02*
X130925000Y-72600000D01*
X134375339Y-68737839D02*
X130437839Y-68737839D01*
X134950000Y-69312500D02*
X134375339Y-68737839D01*
%TO.N,Net-(D4-K)*%
X131100000Y-73250000D02*
X132000000Y-73250000D01*
X130350000Y-68400000D02*
X129700000Y-69050000D01*
X129700000Y-69050000D02*
X129700000Y-71850000D01*
X129700000Y-71850000D02*
X131100000Y-73250000D01*
X135587500Y-68400000D02*
X130350000Y-68400000D01*
X136500000Y-69312500D02*
X135587500Y-68400000D01*
%TO.N,Net-(D4-A)*%
X136500000Y-73390000D02*
X136500000Y-70887500D01*
D70*
%TO.N,Net-(C24-Pad1)*%
X122457671Y-60349000D02*
X120106671Y-62700000D01*
D71*
X107500000Y-60250000D02*
X109650000Y-62400000D01*
X106900000Y-65150000D02*
X109650000Y-62400000D01*
D70*
X109950000Y-62700000D02*
X109650000Y-62400000D01*
D71*
X105785000Y-65150000D02*
X106900000Y-65150000D01*
X105785000Y-60250000D02*
X107500000Y-60250000D01*
D70*
X120106671Y-62700000D02*
X109950000Y-62700000D01*
X136501000Y-60349000D02*
X122457671Y-60349000D01*
X138650000Y-58200000D02*
X136501000Y-60349000D01*
D62*
%TO.N,Net-(U9-ADCIN1)*%
X154720001Y-54750001D02*
X155120000Y-55150000D01*
X153965531Y-54750001D02*
X154720001Y-54750001D01*
X153965531Y-55150000D02*
X155120000Y-55150000D01*
%TO.N,Net-(U9-LDO_1V5)*%
X153965531Y-53950000D02*
X154870000Y-53950000D01*
X154870000Y-53950000D02*
X155120000Y-54200000D01*
D63*
%TO.N,Net-(J2-Pin_1)*%
X129975000Y-91599999D02*
X130875001Y-92500000D01*
X137600000Y-89505000D02*
X138350000Y-88755000D01*
X136040000Y-92500000D02*
X137540000Y-94000000D01*
X137540000Y-94000000D02*
X137600000Y-93940000D01*
X129975000Y-90862500D02*
X129975000Y-91599999D01*
X137600000Y-93940000D02*
X137600000Y-89505000D01*
X130875001Y-92500000D02*
X136040000Y-92500000D01*
D62*
%TO.N,Net-(U2-TXD)*%
X124100000Y-91100000D02*
X121900000Y-91100000D01*
X120100000Y-71250000D02*
X122000000Y-69350000D01*
X127375000Y-90862500D02*
X127375000Y-91599999D01*
X127375000Y-91599999D02*
X126524999Y-92450000D01*
X120100000Y-89300000D02*
X120100000Y-71250000D01*
X121800000Y-91000000D02*
X120100000Y-89300000D01*
X122000000Y-69350000D02*
X124800000Y-69350000D01*
X123250000Y-92450000D02*
X121900000Y-91100000D01*
X125200000Y-92450000D02*
X123250000Y-92450000D01*
X126524999Y-92450000D02*
X125200000Y-92450000D01*
X121900000Y-91100000D02*
X121800000Y-91000000D01*
%TO.N,Net-(U2-RTS)*%
X126725000Y-90862500D02*
X126725000Y-90205130D01*
X126725000Y-90205130D02*
X126319870Y-89800000D01*
X121650000Y-70650000D02*
X124800000Y-70650000D01*
X120600000Y-71700000D02*
X121650000Y-70650000D01*
X121550000Y-89800000D02*
X120600000Y-88850000D01*
X120600000Y-88850000D02*
X120600000Y-71700000D01*
X126319870Y-89800000D02*
X121550000Y-89800000D01*
%TO.N,Net-(U2-CBUS3)*%
X125600000Y-86600000D02*
X123200000Y-84200000D01*
X123200000Y-84200000D02*
X123200000Y-78200000D01*
X123600000Y-77800000D02*
X124800000Y-77800000D01*
X131925000Y-85137500D02*
X131925000Y-85874999D01*
X131199999Y-86600000D02*
X125600000Y-86600000D01*
X131925000Y-85874999D02*
X131199999Y-86600000D01*
X123200000Y-78200000D02*
X123600000Y-77800000D01*
%TO.N,Net-(U2-CTS)*%
X126800000Y-78700000D02*
X126800000Y-76650000D01*
X126000000Y-75850000D02*
X124800000Y-75850000D01*
X124900000Y-80600000D02*
X126800000Y-78700000D01*
X126075000Y-85137500D02*
X125412500Y-85137500D01*
X124900000Y-84625000D02*
X124900000Y-80600000D01*
X126800000Y-76650000D02*
X126000000Y-75850000D01*
X125412500Y-85137500D02*
X124900000Y-84625000D01*
%TO.N,Net-(U2-CBUS4)*%
X124800000Y-76500000D02*
X123700000Y-76500000D01*
X123700000Y-76500000D02*
X122700000Y-77500000D01*
X130500000Y-88000000D02*
X131925000Y-89425000D01*
X126400000Y-88000000D02*
X130500000Y-88000000D01*
X122700000Y-77500000D02*
X122700000Y-84300000D01*
X122700000Y-84300000D02*
X126400000Y-88000000D01*
X131925000Y-89425000D02*
X131925000Y-90862500D01*
%TO.N,Net-(U2-RXD)*%
X121100000Y-73350000D02*
X122450000Y-72000000D01*
X121100000Y-87400000D02*
X121100000Y-73350000D01*
X121100000Y-87950000D02*
X121100000Y-87400000D01*
X127750000Y-89250000D02*
X122400000Y-89250000D01*
X124750000Y-72000000D02*
X124800000Y-71950000D01*
X122450000Y-72000000D02*
X124750000Y-72000000D01*
X121300000Y-87600000D02*
X121100000Y-87400000D01*
X128675000Y-90862500D02*
X128675000Y-90175000D01*
X123000000Y-87600000D02*
X121300000Y-87600000D01*
X122400000Y-89250000D02*
X121100000Y-87950000D01*
X128675000Y-90175000D02*
X127750000Y-89250000D01*
%TO.N,Net-(U3-TXD)*%
X151699000Y-73974644D02*
X151697000Y-73976644D01*
X152725000Y-71200000D02*
X151699000Y-72226000D01*
D68*
X150500000Y-92250000D02*
X152750000Y-92250000D01*
X152750000Y-92250000D02*
X153000000Y-92000000D01*
D62*
X154000000Y-92500000D02*
X153500000Y-92500000D01*
X156375000Y-91599999D02*
X155474999Y-92500000D01*
X151697000Y-90697000D02*
X153000000Y-92000000D01*
X156375000Y-90862500D02*
X156375000Y-91599999D01*
X153500000Y-92500000D02*
X153000000Y-92000000D01*
X151699000Y-72226000D02*
X151699000Y-73974644D01*
X155474999Y-92500000D02*
X154000000Y-92500000D01*
X153800000Y-71200000D02*
X152725000Y-71200000D01*
X151697000Y-73976644D02*
X151697000Y-90697000D01*
%TO.N,Net-(U3-RTS)*%
X151998000Y-85598000D02*
X155725000Y-89325000D01*
X152000000Y-73200000D02*
X152000000Y-74099322D01*
X155725000Y-90862500D02*
X155725000Y-90205130D01*
X153800000Y-72500000D02*
X152700000Y-72500000D01*
X152000000Y-74099322D02*
X151998000Y-74101322D01*
X155725000Y-89325000D02*
X155725000Y-90862500D01*
X152700000Y-72500000D02*
X152000000Y-73200000D01*
X151998000Y-74101322D02*
X151998000Y-85598000D01*
%TO.N,Net-(U3-RXD)*%
X152725000Y-73800000D02*
X153800000Y-73800000D01*
X152299000Y-85299000D02*
X152299000Y-74226000D01*
X154626000Y-87626000D02*
X152299000Y-85299000D01*
X152299000Y-74226000D02*
X152725000Y-73800000D01*
X157675000Y-89875000D02*
X155426000Y-87626000D01*
X155426000Y-87626000D02*
X154626000Y-87626000D01*
X157675000Y-90862500D02*
X157675000Y-89875000D01*
X157675000Y-90862500D02*
X157675000Y-92025000D01*
X157675000Y-92025000D02*
X156700000Y-93000000D01*
X149500000Y-93000000D02*
X148500000Y-92000000D01*
X156700000Y-93000000D02*
X149500000Y-93000000D01*
%TO.N,Net-(U3-CTS)*%
X154875000Y-77700000D02*
X153800000Y-77700000D01*
X155500000Y-79800000D02*
X155500000Y-78325000D01*
X155500000Y-78325000D02*
X154875000Y-77700000D01*
X155075000Y-85137500D02*
X154200000Y-84262500D01*
X154200000Y-84262500D02*
X154200000Y-81100000D01*
X154200000Y-81100000D02*
X155500000Y-79800000D01*
%TO.N,Net-(U3-CBUS3)*%
X160925000Y-85874999D02*
X160925000Y-85137500D01*
X153400000Y-80050000D02*
X153400000Y-85100000D01*
X154700000Y-86400000D02*
X160399999Y-86400000D01*
X153400000Y-85100000D02*
X154700000Y-86400000D01*
X153150000Y-79650000D02*
X153800000Y-79650000D01*
X153800000Y-79650000D02*
X153400000Y-80050000D01*
X160399999Y-86400000D02*
X160925000Y-85874999D01*
%TO.N,Net-(U3-CBUS4)*%
X157800000Y-87000000D02*
X160925000Y-90125000D01*
X152600000Y-84900000D02*
X154700000Y-87000000D01*
X160925000Y-90125000D02*
X160925000Y-90862500D01*
X152950000Y-78350000D02*
X152600000Y-78700000D01*
X154700000Y-87000000D02*
X157800000Y-87000000D01*
X153800000Y-78350000D02*
X152950000Y-78350000D01*
X152600000Y-78700000D02*
X152600000Y-84900000D01*
D63*
%TO.N,Net-(J2-Pin_3)*%
X129005000Y-93295000D02*
X129710000Y-94000000D01*
X129710000Y-94000000D02*
X132460000Y-94000000D01*
X128245000Y-93147081D02*
X129325000Y-92067081D01*
X128245000Y-93295000D02*
X128245000Y-93147081D01*
X129325000Y-90862500D02*
X129325000Y-92067081D01*
X128245000Y-93295000D02*
X129005000Y-93295000D01*
%TO.N,Net-(J3-Pin_3)*%
X158300000Y-97700000D02*
X159900000Y-99300000D01*
X158325000Y-90862500D02*
X158325000Y-94975000D01*
X158300000Y-95000000D02*
X158300000Y-97700000D01*
X158325000Y-94975000D02*
X158300000Y-95000000D01*
D68*
%TO.N,Net-(U1-XO)*%
X144675000Y-73562500D02*
X147637500Y-73562500D01*
X147637500Y-73562500D02*
X147700000Y-73500000D01*
%TO.N,Net-(U1-XI)*%
X149200000Y-70600000D02*
X146700000Y-70600000D01*
X145027500Y-72927500D02*
X144675000Y-72927500D01*
X145900000Y-71400000D02*
X145900000Y-71600000D01*
X146700000Y-70600000D02*
X145900000Y-71400000D01*
X145500000Y-72455000D02*
X145027500Y-72927500D01*
X145500000Y-72000000D02*
X145500000Y-72455000D01*
X145900000Y-71600000D02*
X145500000Y-72000000D01*
X149900000Y-71800000D02*
X149900000Y-71300000D01*
X149900000Y-71300000D02*
X149200000Y-70600000D01*
D66*
%TO.N,Net-(C28-Pad1)*%
X145575000Y-100400000D02*
X146300000Y-101125000D01*
D64*
X151350000Y-103150000D02*
X148000000Y-106500000D01*
D66*
X147800000Y-101125000D02*
X149300000Y-101125000D01*
X151075000Y-101125000D02*
X151350000Y-101400000D01*
D64*
X151350000Y-101400000D02*
X151350000Y-103150000D01*
X134450000Y-109550000D02*
X133110000Y-109550000D01*
D66*
X146300000Y-101125000D02*
X147800000Y-101125000D01*
D64*
X134500000Y-109500000D02*
X134500000Y-109600000D01*
X134500000Y-109600000D02*
X134450000Y-109550000D01*
X148000000Y-106500000D02*
X142000000Y-106500000D01*
X135000000Y-109000000D02*
X134500000Y-109500000D01*
D66*
X144075000Y-100400000D02*
X145575000Y-100400000D01*
X149300000Y-101125000D02*
X151075000Y-101125000D01*
D63*
%TO.N,Net-(D5-K)*%
X128249726Y-100400000D02*
X127600000Y-99750274D01*
X128600000Y-102390000D02*
X129600000Y-101390000D01*
X127600000Y-98900000D02*
X127050000Y-98350000D01*
X127600000Y-99750274D02*
X127600000Y-98900000D01*
X129600000Y-101390000D02*
X129600000Y-100708326D01*
X128770700Y-100400000D02*
X128249726Y-100400000D01*
X127050000Y-98350000D02*
X124600000Y-98350000D01*
X129600000Y-100708326D02*
X129291674Y-100400000D01*
X124560000Y-98390000D02*
X124600000Y-98350000D01*
X122600000Y-98390000D02*
X124560000Y-98390000D01*
X129291674Y-100400000D02*
X128770700Y-100400000D01*
D64*
%TO.N,Net-(D6-A)*%
X140800000Y-112100000D02*
X142000000Y-112100000D01*
X140624000Y-112276000D02*
X137426000Y-112276000D01*
X141990000Y-112090000D02*
X142000000Y-112100000D01*
X137426000Y-112276000D02*
X137200000Y-112050000D01*
X141990000Y-110725000D02*
X141990000Y-112090000D01*
X140800000Y-112100000D02*
X140624000Y-112276000D01*
D66*
%TO.N,Net-(U6-SW)*%
X136600000Y-99400000D02*
X132600000Y-99400000D01*
X137600000Y-100400000D02*
X136600000Y-99400000D01*
X138325000Y-100400000D02*
X137600000Y-100400000D01*
D63*
%TO.N,Net-(U6-FB)*%
X131090000Y-107890000D02*
X126600000Y-103400000D01*
X127100000Y-100900000D02*
X127100126Y-100900126D01*
D68*
X127100126Y-100900126D02*
X128770700Y-100900126D01*
D63*
X126600000Y-103400000D02*
X126600000Y-101400000D01*
X133110000Y-107890000D02*
X131090000Y-107890000D01*
X126600000Y-101400000D02*
X127100000Y-100900000D01*
D66*
%TO.N,/WG_+12V*%
X141100000Y-102900000D02*
X141100000Y-98300000D01*
D63*
X128600000Y-103410000D02*
X129260000Y-103410000D01*
D66*
X141100000Y-102900000D02*
X141100000Y-107900000D01*
D63*
X129260000Y-103410000D02*
X130600000Y-102070000D01*
D66*
X141100000Y-107900000D02*
X140000000Y-109000000D01*
X134500000Y-106000000D02*
X134500000Y-103500000D01*
X141100000Y-98300000D02*
X144400000Y-95000000D01*
D63*
X153220000Y-97680000D02*
X153220000Y-95000000D01*
X130570000Y-102040000D02*
X130600000Y-102070000D01*
D66*
X144400000Y-95000000D02*
X153220000Y-95000000D01*
X140000000Y-109000000D02*
X137500000Y-109000000D01*
X137500000Y-109000000D02*
X134500000Y-106000000D01*
D63*
X149750000Y-99090000D02*
X151810000Y-99090000D01*
D66*
X134500000Y-103500000D02*
X134500000Y-101500000D01*
D63*
X151810000Y-99090000D02*
X153220000Y-97680000D01*
D62*
%TO.N,Net-(U7-3V3OUT)*%
X114420000Y-76500000D02*
X114500000Y-76580000D01*
X112600000Y-76500000D02*
X114420000Y-76500000D01*
%TO.N,Net-(U8-C2-)*%
X108675000Y-84075000D02*
X108675000Y-85137500D01*
X108500000Y-81625000D02*
X107800000Y-82325000D01*
X107800000Y-83200000D02*
X108675000Y-84075000D01*
X107800000Y-82325000D02*
X107800000Y-83200000D01*
X108500000Y-81225000D02*
X108500000Y-81625000D01*
%TO.N,Net-(U8-C2+)*%
X109325000Y-85137500D02*
X109325000Y-83200000D01*
X109325000Y-83200000D02*
X108900000Y-82775000D01*
X108900000Y-82775000D02*
X108500000Y-82775000D01*
D64*
%TO.N,Net-(U8-C1-)*%
X109975000Y-82325000D02*
X110000000Y-82300000D01*
X109975000Y-85137500D02*
X109975000Y-82325000D01*
%TO.N,Net-(U8-C1+)*%
X110568005Y-81340000D02*
X111303005Y-82075000D01*
D62*
X111275000Y-85137500D02*
X111275000Y-83325000D01*
D64*
X110000000Y-81340000D02*
X110568005Y-81340000D01*
D62*
X111275000Y-83325000D02*
X111300000Y-83300000D01*
%TO.N,Net-(U8-V+)*%
X112425000Y-82575000D02*
X111200000Y-82575000D01*
X110625000Y-83150000D02*
X110625000Y-85137500D01*
X111200000Y-82575000D02*
X110625000Y-83150000D01*
%TO.N,Net-(U8-V-)*%
X106800000Y-82775000D02*
X107250000Y-83225000D01*
X107250000Y-83225000D02*
X107300000Y-83225000D01*
X108025000Y-83950000D02*
X108025000Y-85137500D01*
X107300000Y-83225000D02*
X108025000Y-83950000D01*
%TO.N,/DM3+*%
X115200000Y-77800000D02*
X112600000Y-77800000D01*
D68*
X117500000Y-79100000D02*
X117500000Y-77800000D01*
D62*
X138002000Y-72650000D02*
X138725000Y-71927000D01*
X119000000Y-71325678D02*
X119000000Y-76700000D01*
X117900000Y-77800000D02*
X117500000Y-77800000D01*
X138725000Y-71927000D02*
X138725000Y-64375000D01*
X137950000Y-63600000D02*
X126725678Y-63600000D01*
X138002000Y-74425322D02*
X138002000Y-72650000D01*
X138725000Y-64375000D02*
X137950000Y-63600000D01*
X116300000Y-77800000D02*
X115200000Y-77800000D01*
X139400000Y-74832500D02*
X138409178Y-74832500D01*
X126725678Y-63600000D02*
X119000000Y-71325678D01*
X117500000Y-77800000D02*
X116300000Y-77800000D01*
X138409178Y-74832500D02*
X138002000Y-74425322D01*
X119000000Y-76700000D02*
X117900000Y-77800000D01*
%TO.N,/DM3-*%
X138074678Y-63299000D02*
X126601000Y-63299000D01*
X139026000Y-64250322D02*
X138074678Y-63299000D01*
X126601000Y-63299000D02*
X120800000Y-69100000D01*
X138863839Y-72213839D02*
X139026000Y-72051678D01*
X118699000Y-71201000D02*
X118699000Y-76001000D01*
X138338839Y-74088839D02*
X138338839Y-72738839D01*
X118699000Y-76001000D02*
X117550000Y-77150000D01*
X117550000Y-77150000D02*
X112600000Y-77150000D01*
X138338839Y-72738839D02*
X138863839Y-72213839D01*
X120800000Y-66500000D02*
X120800000Y-69100000D01*
X138447500Y-74197500D02*
X138338839Y-74088839D01*
X139400000Y-74197500D02*
X138447500Y-74197500D01*
X120800000Y-69100000D02*
X118699000Y-71201000D01*
X139026000Y-72051678D02*
X139026000Y-64250322D01*
%TO.N,Net-(D7-A)*%
X115300000Y-84012500D02*
X115300000Y-83210000D01*
X115300000Y-83210000D02*
X116010000Y-82500000D01*
%TO.N,Net-(D7-K)*%
X110750000Y-73950000D02*
X111450000Y-73250000D01*
X115300000Y-85587500D02*
X116212500Y-86500000D01*
X116848678Y-80273000D02*
X113483328Y-80273000D01*
X118077000Y-81501322D02*
X116987839Y-80412161D01*
X117550000Y-86500000D02*
X118077000Y-85973000D01*
X116212500Y-86500000D02*
X117550000Y-86500000D01*
X116987839Y-80412161D02*
X116848678Y-80273000D01*
X111450000Y-73250000D02*
X112600000Y-73250000D01*
X110746389Y-75153611D02*
X110750000Y-75150000D01*
X113483328Y-80273000D02*
X110763939Y-77553611D01*
X110763939Y-77553611D02*
X110746389Y-77553611D01*
X110746389Y-77553611D02*
X110746389Y-75153611D01*
X118077000Y-85973000D02*
X118077000Y-81501322D01*
%TO.N,Net-(D8-K)*%
X117100000Y-85587500D02*
X117776000Y-84911500D01*
X111962000Y-79177350D02*
X111472650Y-78688000D01*
X117776000Y-81626000D02*
X116800000Y-80650000D01*
X111962000Y-79194900D02*
X111962000Y-79177350D01*
X109900000Y-73950000D02*
X111250000Y-72600000D01*
X116800000Y-80650000D02*
X113717100Y-80650000D01*
X111250000Y-72600000D02*
X112600000Y-72600000D01*
X113717100Y-80650000D02*
X113641100Y-80574000D01*
X111455100Y-78688000D02*
X110566100Y-77799000D01*
X109900000Y-77132900D02*
X109900000Y-75150000D01*
X110566100Y-77799000D02*
X109900000Y-77132900D01*
X113341100Y-80574000D02*
X111962000Y-79194900D01*
X117776000Y-84911500D02*
X117776000Y-81626000D01*
X111472650Y-78688000D02*
X111455100Y-78688000D01*
X113641100Y-80574000D02*
X113341100Y-80574000D01*
%TO.N,Net-(D8-A)*%
X116010000Y-81300000D02*
X117100000Y-82390000D01*
X117100000Y-82390000D02*
X117100000Y-84012500D01*
D63*
%TO.N,Net-(J6-Pin_1)*%
X117000000Y-95100000D02*
X114200000Y-97900000D01*
X117000000Y-93460000D02*
X116440000Y-92900000D01*
X117000000Y-94800000D02*
X117000000Y-95100000D01*
X109975000Y-91599999D02*
X109975000Y-90862500D01*
X117000000Y-94800000D02*
X117000000Y-93460000D01*
X116440000Y-92900000D02*
X111275001Y-92900000D01*
X114200000Y-97900000D02*
X114200000Y-98300000D01*
X111275001Y-92900000D02*
X109975000Y-91599999D01*
%TO.N,Net-(J6-Pin_3)*%
X111920000Y-94800000D02*
X111257919Y-94137919D01*
X111257919Y-94137919D02*
X111257919Y-94000000D01*
X111660000Y-94800000D02*
X111460000Y-95000000D01*
X111460000Y-95000000D02*
X109900000Y-95000000D01*
X108030000Y-96870000D02*
X108030000Y-98300000D01*
X109900000Y-95000000D02*
X108030000Y-96870000D01*
X111257919Y-94000000D02*
X109325000Y-92067081D01*
X111920000Y-94800000D02*
X111660000Y-94800000D01*
X109325000Y-92067081D02*
X109325000Y-90862500D01*
D62*
%TO.N,Net-(U7-TXD)*%
X101300000Y-70900000D02*
X102825000Y-69375000D01*
X101300000Y-90300000D02*
X101300000Y-70900000D01*
D64*
X104900000Y-94000000D02*
X104900000Y-92475000D01*
D62*
X105425000Y-92475000D02*
X104900000Y-92475000D01*
X103475000Y-92475000D02*
X101300000Y-90300000D01*
X107375000Y-91849999D02*
X107375000Y-90862500D01*
X104900000Y-92475000D02*
X103475000Y-92475000D01*
X102825000Y-69375000D02*
X105025000Y-69375000D01*
X106749999Y-92475000D02*
X105425000Y-92475000D01*
X106749999Y-92475000D02*
X107375000Y-91849999D01*
%TO.N,Net-(U7-RXD)*%
X104250000Y-71950000D02*
X104650000Y-71950000D01*
X105400000Y-88300000D02*
X103200000Y-86100000D01*
X106650000Y-88300000D02*
X105400000Y-88300000D01*
X103200000Y-86100000D02*
X103200000Y-73000000D01*
D64*
X108675000Y-90862500D02*
X108675000Y-92625000D01*
D62*
X103200000Y-73000000D02*
X104250000Y-71950000D01*
D64*
X108675000Y-92625000D02*
X107300000Y-94000000D01*
D62*
X108675000Y-90325000D02*
X106650000Y-88300000D01*
%TO.N,Net-(U7-RTS)*%
X102000000Y-85600000D02*
X102000000Y-70900000D01*
X106802565Y-89802565D02*
X106200000Y-89200000D01*
X102202565Y-70697435D02*
X104877565Y-70697435D01*
X102000000Y-70900000D02*
X102202565Y-70697435D01*
X105600000Y-89200000D02*
X102000000Y-85600000D01*
X106802565Y-90252565D02*
X106802565Y-89802565D01*
X106200000Y-89200000D02*
X105600000Y-89200000D01*
%TO.N,Net-(U7-CBUS4)*%
X104200000Y-76500000D02*
X103600000Y-77100000D01*
X103600000Y-85781250D02*
X105675000Y-87856250D01*
X111950000Y-90668750D02*
X112000000Y-90718750D01*
X105675000Y-87856250D02*
X110256250Y-87856250D01*
X103600000Y-77100000D02*
X103600000Y-85781250D01*
X111950000Y-89550000D02*
X111950000Y-90668750D01*
X105400000Y-76500000D02*
X104200000Y-76500000D01*
X110256250Y-87856250D02*
X111950000Y-89550000D01*
%TO.N,Net-(U7-CTS)*%
X104950000Y-80587500D02*
X106850000Y-78687500D01*
X106612500Y-75837500D02*
X104850000Y-75837500D01*
X106850000Y-78687500D02*
X106850000Y-76075000D01*
X105275000Y-85125000D02*
X104950000Y-84800000D01*
X104950000Y-84800000D02*
X104950000Y-80587500D01*
X106850000Y-76075000D02*
X106612500Y-75837500D01*
X106125000Y-85125000D02*
X105275000Y-85125000D01*
%TO.N,Net-(U7-CBUS3)*%
X104100000Y-85000000D02*
X104100000Y-78200000D01*
X111950000Y-85874999D02*
X111224999Y-86600000D01*
X104100000Y-78200000D02*
X104500000Y-77800000D01*
X111224999Y-86600000D02*
X105700000Y-86600000D01*
X104500000Y-77800000D02*
X104825000Y-77800000D01*
X105700000Y-86600000D02*
X104100000Y-85000000D01*
%TO.N,Net-(D15-A)*%
X162900000Y-86800000D02*
X164200000Y-88100000D01*
X162890000Y-86800000D02*
X162900000Y-86800000D01*
D65*
%TO.N,Net-(J5-Pin_1)*%
X144890000Y-108775000D02*
X144725000Y-108775000D01*
X144890000Y-110725000D02*
X144725000Y-110725000D01*
D67*
X143750000Y-109750000D02*
X156750000Y-109750000D01*
D65*
X155775000Y-108775000D02*
X157000000Y-110000000D01*
X156275000Y-110725000D02*
X157000000Y-110000000D01*
D67*
X156750000Y-109750000D02*
X157000000Y-110000000D01*
D65*
X144890000Y-110725000D02*
X156275000Y-110725000D01*
X144725000Y-110725000D02*
X143750000Y-109750000D01*
X144725000Y-108775000D02*
X143750000Y-109750000D01*
X144890000Y-108775000D02*
X155775000Y-108775000D01*
D62*
%TO.N,+3V3*%
X152750000Y-56820000D02*
X153180000Y-56820000D01*
X155562500Y-58950000D02*
X155562500Y-60242500D01*
X139540000Y-54700000D02*
X139540000Y-54840000D01*
X155562500Y-58950000D02*
X153432500Y-56820000D01*
X139100000Y-55300000D02*
X139550000Y-54850000D01*
X153350000Y-56420000D02*
X153350000Y-55765531D01*
X134250000Y-53320000D02*
X136230000Y-55300000D01*
X136230000Y-55300000D02*
X139100000Y-55300000D01*
X139540000Y-54840000D02*
X139550000Y-54850000D01*
D68*
X132050000Y-53210000D02*
X134140000Y-53210000D01*
D62*
X140000000Y-55300000D02*
X144050000Y-55300000D01*
X152950000Y-56820000D02*
X153350000Y-56420000D01*
D68*
X134140000Y-53210000D02*
X134250000Y-53320000D01*
D62*
X139540000Y-52200000D02*
X139540000Y-53450000D01*
X153432500Y-56820000D02*
X152950000Y-56820000D01*
X144050000Y-55300000D02*
X144150000Y-55400000D01*
X144150000Y-55400000D02*
X148800000Y-55400000D01*
X139540000Y-53450000D02*
X139540000Y-54700000D01*
X139550000Y-54850000D02*
X140000000Y-55300000D01*
X155562500Y-60242500D02*
X155570000Y-60250000D01*
D68*
X155562500Y-58950000D02*
X154450000Y-58950000D01*
D62*
%TO.N,/USB_C_PD/CC2*%
X103619000Y-64981000D02*
X104150000Y-64450000D01*
X119497541Y-60550000D02*
X121649540Y-58398000D01*
X121649540Y-58398000D02*
X134652000Y-58398000D01*
X150065531Y-56250000D02*
X150550000Y-55765531D01*
X134652000Y-58398000D02*
X136800000Y-56250000D01*
X103619000Y-67310364D02*
X103619000Y-64981000D01*
X108629000Y-67721000D02*
X104029636Y-67721000D01*
X104029636Y-67721000D02*
X103619000Y-67310364D01*
X115900000Y-64850000D02*
X111500000Y-64850000D01*
X104150000Y-64450000D02*
X105785000Y-64450000D01*
X136800000Y-56250000D02*
X137840870Y-56250000D01*
X137841870Y-56249000D02*
X139458130Y-56249000D01*
X139459130Y-56250000D02*
X150065531Y-56250000D01*
X109075000Y-67275000D02*
X108629000Y-67721000D01*
X116000000Y-60550000D02*
X119497541Y-60550000D01*
X137840870Y-56250000D02*
X137841870Y-56249000D01*
X139458130Y-56249000D02*
X139459130Y-56250000D01*
%TO.N,/USB_C_PD/CC1*%
X102550000Y-58700000D02*
X102550000Y-60550000D01*
X121503000Y-58097000D02*
X134527322Y-58097000D01*
X105750000Y-57550000D02*
X106200000Y-57550000D01*
X103700000Y-57550000D02*
X102550000Y-58700000D01*
X119306000Y-55900000D02*
X121503000Y-58097000D01*
X134527322Y-58097000D02*
X136724322Y-55900000D01*
X136724322Y-55900000D02*
X149184467Y-55900000D01*
X107850000Y-55900000D02*
X119306000Y-55900000D01*
X149184467Y-55900000D02*
X149934467Y-55150000D01*
X103450000Y-61450000D02*
X105785000Y-61450000D01*
X102550000Y-60550000D02*
X103450000Y-61450000D01*
X106200000Y-57550000D02*
X107620000Y-57550000D01*
X105750000Y-57550000D02*
X103700000Y-57550000D01*
X106200000Y-57550000D02*
X107850000Y-55900000D01*
%TO.N,/USB_C_PD/DM-*%
X102300000Y-67300000D02*
X102300000Y-64250000D01*
X144069050Y-76737500D02*
X140413500Y-73081950D01*
X104440000Y-62950000D02*
X105785000Y-62950000D01*
X105785000Y-61950000D02*
X104490000Y-61950000D01*
X117291479Y-68700000D02*
X103700000Y-68700000D01*
X103900000Y-62650000D02*
X104140000Y-62650000D01*
X123390479Y-62601000D02*
X117291479Y-68700000D01*
X104140000Y-62650000D02*
X104440000Y-62950000D01*
X138325322Y-62601000D02*
X123390479Y-62601000D01*
X102300000Y-64250000D02*
X103900000Y-62650000D01*
X144675000Y-76737500D02*
X144069050Y-76737500D01*
X103700000Y-68700000D02*
X102300000Y-67300000D01*
X104490000Y-61950000D02*
X104140000Y-62300000D01*
X140413500Y-64689178D02*
X138325322Y-62601000D01*
X140413500Y-73081950D02*
X140413500Y-64689178D01*
X104140000Y-62300000D02*
X104140000Y-62650000D01*
%TO.N,/USB_C_PD/DP+*%
X103750000Y-63450000D02*
X105785000Y-63450000D01*
X103900000Y-68400000D02*
X102700000Y-67200000D01*
X117165801Y-68400000D02*
X103900000Y-68400000D01*
X105785000Y-63450000D02*
X107190000Y-63450000D01*
X140714500Y-72957272D02*
X140714500Y-64564500D01*
X107440000Y-62650000D02*
X107240000Y-62450000D01*
X138450000Y-62300000D02*
X123265801Y-62300000D01*
X107440000Y-63200000D02*
X107440000Y-62650000D01*
X143859728Y-76102500D02*
X140714500Y-72957272D01*
X144675000Y-76102500D02*
X143859728Y-76102500D01*
X102700000Y-64500000D02*
X103750000Y-63450000D01*
X102700000Y-67200000D02*
X102700000Y-64500000D01*
X140714500Y-64564500D02*
X138450000Y-62300000D01*
X123265801Y-62300000D02*
X117165801Y-68400000D01*
X107240000Y-62450000D02*
X105785000Y-62450000D01*
X107190000Y-63450000D02*
X107440000Y-63200000D01*
%TO.N,Net-(U9-VSYS)*%
X147160000Y-53150000D02*
X149934467Y-53150001D01*
%TO.N,Net-(U10-SCL)*%
X130650000Y-55550000D02*
X130850000Y-55750000D01*
X130850000Y-55750000D02*
X132050000Y-55750000D01*
X141000000Y-53400000D02*
X141500000Y-52900000D01*
X140610000Y-53400000D02*
X141000000Y-53400000D01*
X140089000Y-51689000D02*
X139900000Y-51500000D01*
X130650000Y-55201000D02*
X130650000Y-55550000D01*
X139900000Y-51500000D02*
X131925678Y-51500000D01*
X141500000Y-52900000D02*
X141500000Y-52500000D01*
X140560000Y-53450000D02*
X140560000Y-53000000D01*
X130651000Y-52774678D02*
X130651000Y-55200000D01*
X140089000Y-52529000D02*
X140089000Y-51689000D01*
X140560000Y-53450000D02*
X140610000Y-53400000D01*
X140560000Y-53000000D02*
X140089000Y-52529000D01*
X141500000Y-52500000D02*
X142265533Y-51734467D01*
X142265533Y-51734467D02*
X150550000Y-51734467D01*
X130651000Y-55200000D02*
X130650000Y-55201000D01*
X131925678Y-51500000D02*
X130651000Y-52774678D01*
%TO.N,Net-(U10-SDA)*%
X141465875Y-51834125D02*
X140925875Y-51834125D01*
X140925875Y-51834125D02*
X140560000Y-52200000D01*
X131075001Y-57020000D02*
X132050000Y-57020000D01*
X142207065Y-51092935D02*
X141465875Y-51834125D01*
X150948999Y-51092935D02*
X142207065Y-51092935D01*
X140560000Y-51290000D02*
X140370000Y-51100000D01*
X150949999Y-51093935D02*
X150948999Y-51092935D01*
X150949999Y-51734467D02*
X150949999Y-51093935D01*
X140560000Y-52200000D02*
X140560000Y-51290000D01*
X130000000Y-55944999D02*
X131075001Y-57020000D01*
X131550000Y-51100000D02*
X130000000Y-52650000D01*
X130000000Y-52650000D02*
X130000000Y-55944999D01*
X140370000Y-51100000D02*
X131550000Y-51100000D01*
%TO.N,Net-(U9-I2Cc_IRQ_N)*%
X149934467Y-52350000D02*
X142425678Y-52350000D01*
X142187839Y-52587839D02*
X142187839Y-53312161D01*
X142187839Y-53312161D02*
X140800000Y-54700000D01*
X142425678Y-52350000D02*
X142187839Y-52587839D01*
X140800000Y-54700000D02*
X140560000Y-54700000D01*
%TO.N,Net-(U1-VDD33)*%
X144280000Y-71860000D02*
X144300000Y-71880000D01*
X144675000Y-74832500D02*
X143732500Y-74832500D01*
X143732500Y-74832500D02*
X143200000Y-74300000D01*
X143200000Y-71860000D02*
X144280000Y-71860000D01*
X143200000Y-74300000D02*
X143200000Y-71860000D01*
%TD*%
%TA.AperFunction,Conductor*%
%TO.N,~*%
G36*
X149393039Y-59969685D02*
G01*
X149438794Y-60022489D01*
X149450000Y-60074000D01*
X149450000Y-69876000D01*
X149430315Y-69943039D01*
X149377511Y-69988794D01*
X149326000Y-70000000D01*
X141124000Y-70000000D01*
X141056961Y-69980315D01*
X141011206Y-69927511D01*
X141000000Y-69876000D01*
X141000000Y-60074000D01*
X141019685Y-60006961D01*
X141072489Y-59961206D01*
X141124000Y-59950000D01*
X149326000Y-59950000D01*
X149393039Y-59969685D01*
G37*
%TD.AperFunction*%
%TD*%
%TA.AperFunction,Conductor*%
%TO.N,~*%
G36*
X130657539Y-98019685D02*
G01*
X130703294Y-98072489D01*
X130714500Y-98124000D01*
X130714500Y-98345411D01*
X130714735Y-98349001D01*
X130715000Y-98357101D01*
X130715000Y-98442905D01*
X130714735Y-98451014D01*
X130714500Y-98454599D01*
X130714500Y-99926000D01*
X130694815Y-99993039D01*
X130642011Y-100038794D01*
X130590500Y-100050000D01*
X128394000Y-100050000D01*
X128326961Y-100030315D01*
X128281206Y-99977511D01*
X128270000Y-99926000D01*
X128270000Y-98124000D01*
X128289685Y-98056961D01*
X128342489Y-98011206D01*
X128394000Y-98000000D01*
X130590500Y-98000000D01*
X130657539Y-98019685D01*
G37*
%TD.AperFunction*%
%TD*%
%TA.AperFunction,Conductor*%
%TO.N,/WG_+12V*%
G36*
X142443039Y-107519685D02*
G01*
X142488794Y-107572489D01*
X142500000Y-107624000D01*
X142500000Y-110226000D01*
X142480315Y-110293039D01*
X142427511Y-110338794D01*
X142376000Y-110350000D01*
X138624000Y-110350000D01*
X138556961Y-110330315D01*
X138511206Y-110277511D01*
X138500000Y-110226000D01*
X138500000Y-107624000D01*
X138519685Y-107556961D01*
X138572489Y-107511206D01*
X138624000Y-107500000D01*
X142376000Y-107500000D01*
X142443039Y-107519685D01*
G37*
%TD.AperFunction*%
%TD*%
%TA.AperFunction,Conductor*%
%TO.N,Net-(U6-SW)*%
G36*
X133963039Y-98019685D02*
G01*
X134008794Y-98072489D01*
X134020000Y-98124000D01*
X134020000Y-100520500D01*
X134000315Y-100587539D01*
X133947511Y-100633294D01*
X133896000Y-100644500D01*
X130024484Y-100644500D01*
X130007249Y-100646353D01*
X129991846Y-100643573D01*
X129976353Y-100645801D01*
X129958164Y-100637494D01*
X129938490Y-100633944D01*
X129927035Y-100623278D01*
X129912797Y-100616776D01*
X129901987Y-100599955D01*
X129887355Y-100586331D01*
X129882978Y-100570377D01*
X129875023Y-100557998D01*
X129870000Y-100523063D01*
X129870000Y-100324000D01*
X129889685Y-100256961D01*
X129942489Y-100211206D01*
X129994000Y-100200000D01*
X130820000Y-100200000D01*
X130820000Y-98454593D01*
X130820500Y-98452727D01*
X130820500Y-98347273D01*
X130820000Y-98345406D01*
X130820000Y-98124000D01*
X130839685Y-98056961D01*
X130892489Y-98011206D01*
X130944000Y-98000000D01*
X133896000Y-98000000D01*
X133963039Y-98019685D01*
G37*
%TD.AperFunction*%
%TD*%
%TA.AperFunction,Conductor*%
%TO.N,+5V*%
G36*
X165650000Y-66950000D02*
G01*
X155950000Y-66950000D01*
X155949999Y-66950000D01*
X152936319Y-69963681D01*
X152874996Y-69997166D01*
X152848638Y-70000000D01*
X149679500Y-70000000D01*
X149612461Y-69980315D01*
X149566706Y-69927511D01*
X149555500Y-69876000D01*
X149555500Y-62594500D01*
X149650000Y-62500000D01*
X165650000Y-62500000D01*
X165650000Y-66950000D01*
G37*
%TD.AperFunction*%
%TD*%
%TA.AperFunction,Conductor*%
%TO.N,~*%
G36*
X163150000Y-55326000D02*
G01*
X163130315Y-55393039D01*
X163077511Y-55438794D01*
X163026000Y-55450000D01*
X155674000Y-55450000D01*
X155606961Y-55430315D01*
X155561206Y-55377511D01*
X155550000Y-55326000D01*
X155550000Y-53750000D01*
X163150000Y-53750000D01*
X163150000Y-55326000D01*
G37*
%TD.AperFunction*%
%TD*%
%TA.AperFunction,Conductor*%
%TO.N,+5V*%
G36*
X152243039Y-55319685D02*
G01*
X152288794Y-55372489D01*
X152300000Y-55424000D01*
X152300000Y-58750000D01*
X153927494Y-58750000D01*
X153994533Y-58769685D01*
X154040288Y-58822489D01*
X154050433Y-58890185D01*
X154049500Y-58897271D01*
X154049500Y-58897273D01*
X154049500Y-59002727D01*
X154069598Y-59077736D01*
X154076794Y-59104589D01*
X154076794Y-59104590D01*
X154083385Y-59116005D01*
X154100000Y-59178008D01*
X154100000Y-62500000D01*
X149650000Y-62500000D01*
X149555500Y-62594500D01*
X149555500Y-60074000D01*
X149553089Y-60051573D01*
X149552832Y-60050394D01*
X149552703Y-60049196D01*
X149552559Y-60048303D01*
X149552606Y-60048295D01*
X149550000Y-60024042D01*
X149550000Y-59767617D01*
X149551261Y-59749979D01*
X149555500Y-59720500D01*
X149555500Y-58495061D01*
X149575185Y-58428022D01*
X149591819Y-58407380D01*
X150552396Y-57446804D01*
X151538281Y-56460919D01*
X151545828Y-56452516D01*
X151562462Y-56431874D01*
X151581541Y-56395401D01*
X151601226Y-56328362D01*
X151605500Y-56298638D01*
X151605500Y-55424000D01*
X151625185Y-55356961D01*
X151677989Y-55311206D01*
X151729500Y-55300000D01*
X152176000Y-55300000D01*
X152243039Y-55319685D01*
G37*
%TD.AperFunction*%
%TD*%
%TA.AperFunction,Conductor*%
%TO.N,/WG_+12V*%
G36*
X135460707Y-100769685D02*
G01*
X135506462Y-100822489D01*
X135517668Y-100874000D01*
X135517668Y-102376000D01*
X135497983Y-102443039D01*
X135445179Y-102488794D01*
X135393668Y-102500000D01*
X129991668Y-102500000D01*
X129924629Y-102480315D01*
X129878874Y-102427511D01*
X129867668Y-102376000D01*
X129867668Y-101560477D01*
X129877108Y-101513022D01*
X129880018Y-101505994D01*
X129880022Y-101505988D01*
X129900500Y-101429562D01*
X129900500Y-101350438D01*
X129900500Y-100874000D01*
X129920185Y-100806961D01*
X129972989Y-100761206D01*
X130024500Y-100750000D01*
X135393668Y-100750000D01*
X135460707Y-100769685D01*
G37*
%TD.AperFunction*%
%TD*%
%TA.AperFunction,Conductor*%
%TO.N,Net-(C24-Pad1)*%
G36*
X151443039Y-55319685D02*
G01*
X151488794Y-55372489D01*
X151500000Y-55424000D01*
X151500000Y-56298638D01*
X151480315Y-56365677D01*
X151463681Y-56386319D01*
X149450000Y-58399999D01*
X149450000Y-59720500D01*
X149430315Y-59787539D01*
X149377511Y-59833294D01*
X149326000Y-59844500D01*
X141123997Y-59844500D01*
X141101575Y-59846910D01*
X141100664Y-59847108D01*
X141100395Y-59847167D01*
X141099195Y-59847296D01*
X141098302Y-59847441D01*
X141098294Y-59847393D01*
X141074041Y-59850000D01*
X137124000Y-59850000D01*
X137056961Y-59830315D01*
X137011206Y-59777511D01*
X137000000Y-59726000D01*
X137000000Y-56574500D01*
X137019685Y-56507461D01*
X137072489Y-56461706D01*
X137124000Y-56450500D01*
X137890404Y-56450500D01*
X137895479Y-56450000D01*
X139404521Y-56450000D01*
X139409596Y-56450500D01*
X139419248Y-56450500D01*
X150115065Y-56450500D01*
X150120140Y-56450000D01*
X150800000Y-56450000D01*
X150800000Y-55424000D01*
X150819685Y-55356961D01*
X150872489Y-55311206D01*
X150924000Y-55300000D01*
X151376000Y-55300000D01*
X151443039Y-55319685D01*
G37*
%TD.AperFunction*%
%TD*%
%TA.AperFunction,Conductor*%
%TO.N,~*%
G36*
X163093039Y-50495059D02*
G01*
X163138794Y-50547863D01*
X163150000Y-50599374D01*
X163150000Y-52200000D01*
X163150000Y-53750000D01*
X154924609Y-53750000D01*
X154919534Y-53749500D01*
X154909882Y-53749500D01*
X153925649Y-53749500D01*
X153915997Y-53749500D01*
X153910922Y-53750000D01*
X153400000Y-53750000D01*
X153400000Y-54200000D01*
X154376000Y-54200000D01*
X154384685Y-54202550D01*
X154393647Y-54201262D01*
X154417687Y-54212240D01*
X154443039Y-54219685D01*
X154448966Y-54226525D01*
X154457203Y-54230287D01*
X154471492Y-54252521D01*
X154488794Y-54272489D01*
X154491081Y-54283003D01*
X154494977Y-54289065D01*
X154500000Y-54324000D01*
X154500000Y-54376000D01*
X154480315Y-54443039D01*
X154427511Y-54488794D01*
X154376000Y-54500000D01*
X153400000Y-54500000D01*
X153400000Y-55076000D01*
X153380315Y-55143039D01*
X153327511Y-55188794D01*
X153276000Y-55200000D01*
X153150000Y-55200000D01*
X153150000Y-55710928D01*
X153149500Y-55716010D01*
X153149500Y-56176000D01*
X153129815Y-56243039D01*
X153077011Y-56288794D01*
X153025500Y-56300000D01*
X152529500Y-56300000D01*
X152462461Y-56280315D01*
X152416706Y-56227511D01*
X152405500Y-56176000D01*
X152405500Y-55424000D01*
X152403089Y-55401573D01*
X152402832Y-55400394D01*
X152402703Y-55399196D01*
X152402559Y-55398303D01*
X152402606Y-55398295D01*
X152400000Y-55374042D01*
X152400000Y-55200000D01*
X152223117Y-55200000D01*
X152205479Y-55198738D01*
X152176000Y-55194500D01*
X151729500Y-55194500D01*
X151729497Y-55194500D01*
X151707075Y-55196910D01*
X151706164Y-55197108D01*
X151705895Y-55197167D01*
X151704695Y-55197296D01*
X151703802Y-55197441D01*
X151703794Y-55197393D01*
X151679541Y-55200000D01*
X151423117Y-55200000D01*
X151405479Y-55198738D01*
X151376000Y-55194500D01*
X150924000Y-55194500D01*
X150923997Y-55194500D01*
X150901575Y-55196910D01*
X150900664Y-55197108D01*
X150900395Y-55197167D01*
X150899195Y-55197296D01*
X150898302Y-55197441D01*
X150898294Y-55197393D01*
X150874041Y-55200000D01*
X150624000Y-55200000D01*
X150556961Y-55180315D01*
X150511206Y-55127511D01*
X150500000Y-55076000D01*
X150500000Y-54900000D01*
X149524000Y-54900000D01*
X149456961Y-54880315D01*
X149411206Y-54827511D01*
X149400000Y-54776000D01*
X149400000Y-54324000D01*
X149419685Y-54256961D01*
X149472489Y-54211206D01*
X149524000Y-54200000D01*
X150500000Y-54200000D01*
X150500000Y-52900000D01*
X149524000Y-52900000D01*
X149515314Y-52897449D01*
X149506353Y-52898738D01*
X149482312Y-52887759D01*
X149456961Y-52880315D01*
X149451033Y-52873474D01*
X149442797Y-52869713D01*
X149428507Y-52847478D01*
X149411206Y-52827511D01*
X149408918Y-52816996D01*
X149405023Y-52810935D01*
X149400000Y-52776000D01*
X149400000Y-52724000D01*
X149419685Y-52656961D01*
X149472489Y-52611206D01*
X149524000Y-52600000D01*
X150500000Y-52600000D01*
X150500000Y-52424000D01*
X150519685Y-52356961D01*
X150572489Y-52311206D01*
X150624000Y-52300000D01*
X151200000Y-52300000D01*
X151200000Y-50599374D01*
X151219685Y-50532335D01*
X151272489Y-50486580D01*
X151323996Y-50475374D01*
X163026003Y-50475374D01*
X163093039Y-50495059D01*
G37*
%TD.AperFunction*%
%TD*%
%TA.AperFunction,Conductor*%
%TO.N,+5V*%
G36*
X168441878Y-54596664D02*
G01*
X168498551Y-54637530D01*
X168524132Y-54702548D01*
X168524626Y-54713601D01*
X168524626Y-106876000D01*
X168504941Y-106943039D01*
X168452137Y-106988794D01*
X168400626Y-107000000D01*
X165124000Y-107000000D01*
X165056961Y-106980315D01*
X165011206Y-106927511D01*
X165000000Y-106876000D01*
X165000000Y-92183440D01*
X165019685Y-92116401D01*
X165036314Y-92095763D01*
X165121789Y-92010289D01*
X165209394Y-91879179D01*
X165269737Y-91733497D01*
X165300500Y-91578842D01*
X165300500Y-91421158D01*
X165300500Y-91421155D01*
X165300499Y-91421153D01*
X165269738Y-91266510D01*
X165269737Y-91266503D01*
X165269735Y-91266498D01*
X165209397Y-91120827D01*
X165209390Y-91120814D01*
X165121789Y-90989711D01*
X165121786Y-90989707D01*
X165036319Y-90904240D01*
X165002834Y-90842917D01*
X165000000Y-90816559D01*
X165000000Y-88819125D01*
X165018461Y-88754029D01*
X165075049Y-88662287D01*
X165127936Y-88502685D01*
X165138000Y-88404174D01*
X165138000Y-87795826D01*
X165127936Y-87697315D01*
X165075049Y-87537713D01*
X165075045Y-87537707D01*
X165075044Y-87537704D01*
X165018462Y-87445971D01*
X165000000Y-87380874D01*
X165000000Y-79681355D01*
X165000500Y-79678842D01*
X165000500Y-79521158D01*
X165000000Y-79518644D01*
X165000000Y-75726523D01*
X165009439Y-75679071D01*
X165069735Y-75533501D01*
X165069737Y-75533497D01*
X165100500Y-75378842D01*
X165100500Y-75221158D01*
X165100500Y-75221155D01*
X165100499Y-75221153D01*
X165069738Y-75066510D01*
X165069737Y-75066503D01*
X165009439Y-74920929D01*
X165007812Y-74912752D01*
X165005023Y-74908412D01*
X165000000Y-74873477D01*
X165000000Y-74770174D01*
X165019685Y-74703135D01*
X165058903Y-74664635D01*
X165062282Y-74662550D01*
X165062287Y-74662549D01*
X165205391Y-74574281D01*
X165324281Y-74455391D01*
X165412549Y-74312287D01*
X165465436Y-74152685D01*
X165475500Y-74054174D01*
X165475500Y-73520826D01*
X165465436Y-73422315D01*
X165412549Y-73262713D01*
X165412545Y-73262707D01*
X165412544Y-73262704D01*
X165324283Y-73119612D01*
X165324280Y-73119608D01*
X165292353Y-73087681D01*
X165258868Y-73026358D01*
X165263852Y-72956666D01*
X165292353Y-72912319D01*
X165324281Y-72880391D01*
X165412549Y-72737287D01*
X165465436Y-72577685D01*
X165475500Y-72479174D01*
X165475500Y-71945826D01*
X165465436Y-71847315D01*
X165412549Y-71687713D01*
X165412545Y-71687707D01*
X165412544Y-71687704D01*
X165324283Y-71544612D01*
X165324280Y-71544608D01*
X165200284Y-71420612D01*
X165201223Y-71419672D01*
X165165273Y-71368897D01*
X165158946Y-71318927D01*
X165160498Y-71299204D01*
X165160500Y-71299181D01*
X165160499Y-70800820D01*
X165157665Y-70764796D01*
X165112869Y-70610607D01*
X165112866Y-70610602D01*
X165109772Y-70603451D01*
X165111693Y-70602619D01*
X165097172Y-70545409D01*
X165111321Y-70497219D01*
X165109772Y-70496549D01*
X165112864Y-70489400D01*
X165112869Y-70489393D01*
X165157665Y-70335204D01*
X165160500Y-70299181D01*
X165160499Y-69800820D01*
X165157665Y-69764796D01*
X165112869Y-69610607D01*
X165031135Y-69472402D01*
X165031132Y-69472399D01*
X165026352Y-69466236D01*
X165029000Y-69464181D01*
X165002834Y-69416262D01*
X165000000Y-69389904D01*
X165000000Y-66950000D01*
X165650000Y-66950000D01*
X165650000Y-62500000D01*
X165000000Y-62500000D01*
X165000000Y-57474500D01*
X165019685Y-57407461D01*
X165072489Y-57361706D01*
X165124000Y-57350500D01*
X165164597Y-57350500D01*
X165164600Y-57350500D01*
X165492213Y-57318233D01*
X165669760Y-57282916D01*
X165815066Y-57254015D01*
X165815077Y-57254012D01*
X165815077Y-57254011D01*
X165815087Y-57254010D01*
X166130111Y-57158448D01*
X166434251Y-57032469D01*
X166724579Y-56877286D01*
X166998298Y-56694393D01*
X167252772Y-56485551D01*
X167485551Y-56252772D01*
X167694393Y-55998298D01*
X167877286Y-55724579D01*
X168032469Y-55434251D01*
X168158448Y-55130111D01*
X168254010Y-54815087D01*
X168254012Y-54815077D01*
X168254015Y-54815066D01*
X168279009Y-54689410D01*
X168311393Y-54627499D01*
X168372109Y-54592925D01*
X168441878Y-54596664D01*
G37*
%TD.AperFunction*%
%TD*%
M02*
