%TF.GenerationSoftware,KiCad,Pcbnew,9.0.4*%
%TF.CreationDate,2025-10-21T16:41:08-07:00*%
%TF.ProjectId,wind_board_batt_sensor,77696e64-5f62-46f6-9172-645f62617474,rev?*%
%TF.SameCoordinates,Original*%
%TF.FileFunction,Copper,L2,Bot*%
%TF.FilePolarity,Positive*%
%FSLAX46Y46*%
G04 Gerber Fmt 4.6, Leading zero omitted, Abs format (unit mm)*
G04 Created by KiCad (PCBNEW 9.0.4) date 2025-10-21 16:41:08*
%MOMM*%
%LPD*%
G01*
G04 APERTURE LIST*
%TA.AperFunction,ComponentPad*%
%ADD10C,0.500000*%
%TD*%
%TA.AperFunction,ComponentPad*%
%ADD11C,4.700000*%
%TD*%
%TA.AperFunction,ConnectorPad*%
%ADD12C,7.600000*%
%TD*%
%TA.AperFunction,ComponentPad*%
%ADD13R,1.800000X1.800000*%
%TD*%
%TA.AperFunction,ComponentPad*%
%ADD14C,1.800000*%
%TD*%
%TA.AperFunction,ComponentPad*%
%ADD15C,3.600000*%
%TD*%
%TA.AperFunction,ConnectorPad*%
%ADD16C,5.700000*%
%TD*%
%TA.AperFunction,ViaPad*%
%ADD17C,0.600000*%
%TD*%
%TA.AperFunction,Conductor*%
%ADD18C,0.200000*%
%TD*%
%TA.AperFunction,Conductor*%
%ADD19C,4.000000*%
%TD*%
G04 APERTURE END LIST*
D10*
%TO.P,U2,12*%
%TO.N,~*%
X96450000Y-101950000D03*
%TO.P,U2,13*%
X96475400Y-103150000D03*
%TO.P,U2,14*%
X96450000Y-104350000D03*
%TD*%
D11*
%TO.P,J1,1,Pin_1*%
%TO.N,Net-(J1-Pin_1)*%
X150000000Y-95000000D03*
D12*
X150000000Y-95000000D03*
%TD*%
D13*
%TO.P,D5,1,K*%
%TO.N,Net-(D4-K)*%
X142000000Y-99040000D03*
D14*
%TO.P,D5,2,A*%
%TO.N,Net-(D2-A)*%
X142000000Y-96500000D03*
%TD*%
D13*
%TO.P,D2,1,K*%
%TO.N,Net-(D1-K)*%
X122500000Y-99040000D03*
D14*
%TO.P,D2,2,A*%
%TO.N,Net-(D2-A)*%
X122500000Y-96500000D03*
%TD*%
D15*
%TO.P,REF\u002A\u002A,1*%
%TO.N,N/C*%
X91500000Y-110100000D03*
D16*
X91500000Y-110100000D03*
%TD*%
D13*
%TO.P,D1,1,K*%
%TO.N,Net-(D1-K)*%
X115970000Y-99040000D03*
D14*
%TO.P,D1,2,A*%
%TO.N,Net-(D1-A)*%
X115970000Y-96500000D03*
%TD*%
D11*
%TO.P,J2,1,Pin_1*%
%TO.N,~*%
X150000000Y-106500000D03*
D12*
X150000000Y-106500000D03*
%TD*%
D13*
%TO.P,D4,1,K*%
%TO.N,Net-(D4-K)*%
X135470000Y-99040000D03*
D14*
%TO.P,D4,2,A*%
%TO.N,Net-(D4-A)*%
X135470000Y-96500000D03*
%TD*%
D13*
%TO.P,D3,1,K*%
%TO.N,Net-(D1-K)*%
X128970000Y-99040000D03*
D14*
%TO.P,D3,2,A*%
%TO.N,Net-(D3-A)*%
X128970000Y-96500000D03*
%TD*%
D15*
%TO.P,REF\u002A\u002A,1*%
%TO.N,N/C*%
X91500000Y-93500000D03*
D16*
X91500000Y-93500000D03*
%TD*%
D15*
%TO.P,REF\u002A\u002A,1*%
%TO.N,N/C*%
X167000000Y-110100000D03*
D16*
X167000000Y-110100000D03*
%TD*%
D15*
%TO.P,REF\u002A\u002A,1*%
%TO.N,N/C*%
X167000000Y-93500000D03*
D16*
X167000000Y-93500000D03*
%TD*%
D11*
%TO.P,J4,1,Pin_1*%
%TO.N,Net-(J4-Pin_1)*%
X108000000Y-106500000D03*
D12*
X108000000Y-106500000D03*
%TD*%
D11*
%TO.P,J3,1,Pin_1*%
%TO.N,Net-(J1-Pin_1)*%
X108000000Y-95000000D03*
D12*
X108000000Y-95000000D03*
%TD*%
D17*
%TO.N,~*%
X128318718Y-104281282D03*
X128900000Y-104800000D03*
X127693718Y-103656282D03*
X135950000Y-104650000D03*
X162150000Y-105250000D03*
X129521492Y-105448699D03*
X158600000Y-99650000D03*
X129026517Y-105943674D03*
X141025000Y-103350000D03*
X90650000Y-101650000D03*
X130016466Y-104953725D03*
%TO.N,Net-(J1-Pin_1)*%
X143500000Y-102400000D03*
X143500000Y-100800000D03*
%TO.N,Net-(D4-K)*%
X122500000Y-103950000D03*
X122500000Y-105600000D03*
%TO.N,+3.3V*%
X126200000Y-104200000D03*
X127451471Y-106700000D03*
X128224265Y-107624265D03*
%TD*%
D18*
%TO.N,Net-(J1-Pin_1)*%
X143500000Y-102400000D02*
X143500000Y-100800000D01*
D19*
X110499000Y-92501000D02*
X147501000Y-92501000D01*
X147501000Y-92501000D02*
X150000000Y-95000000D01*
X108000000Y-95000000D02*
X110499000Y-92501000D01*
D18*
%TO.N,Net-(D4-K)*%
X122500000Y-103950000D02*
X122500000Y-105600000D01*
%TO.N,+3.3V*%
X126200000Y-105448529D02*
X127451471Y-106700000D01*
X127451471Y-106700000D02*
X127451471Y-106851471D01*
X126200000Y-104200000D02*
X126200000Y-105448529D01*
X127451471Y-106851471D02*
X128224265Y-107624265D01*
%TD*%
%TA.AperFunction,Conductor*%
%TO.N,~*%
G36*
X107557476Y-90498865D02*
G01*
X107603231Y-90551669D01*
X107613175Y-90620827D01*
X107584150Y-90684383D01*
X107525372Y-90722157D01*
X107501244Y-90726707D01*
X107487075Y-90727947D01*
X107438134Y-90732229D01*
X107068320Y-90797438D01*
X107068317Y-90797438D01*
X107068315Y-90797439D01*
X107068310Y-90797440D01*
X107068307Y-90797441D01*
X106705589Y-90894630D01*
X106352706Y-91023068D01*
X106012366Y-91181771D01*
X106012351Y-91181779D01*
X105687150Y-91369535D01*
X105687124Y-91369551D01*
X105379525Y-91584934D01*
X105091853Y-91826320D01*
X104826320Y-92091853D01*
X104584934Y-92379525D01*
X104369551Y-92687124D01*
X104369535Y-92687150D01*
X104181779Y-93012351D01*
X104181771Y-93012366D01*
X104023068Y-93352706D01*
X103894630Y-93705589D01*
X103797441Y-94068307D01*
X103797438Y-94068320D01*
X103732229Y-94438134D01*
X103699500Y-94812232D01*
X103699500Y-95187767D01*
X103732229Y-95561865D01*
X103797438Y-95931679D01*
X103797441Y-95931692D01*
X103894630Y-96294410D01*
X104023068Y-96647293D01*
X104181771Y-96987633D01*
X104181779Y-96987648D01*
X104313753Y-97216233D01*
X104369540Y-97312858D01*
X104369544Y-97312864D01*
X104369551Y-97312875D01*
X104584934Y-97620474D01*
X104759407Y-97828402D01*
X104826318Y-97908144D01*
X105091856Y-98173682D01*
X105211468Y-98274048D01*
X105379525Y-98415065D01*
X105687124Y-98630448D01*
X105687131Y-98630452D01*
X105687142Y-98630460D01*
X105991930Y-98806429D01*
X106012351Y-98818220D01*
X106012366Y-98818228D01*
X106352706Y-98976931D01*
X106616479Y-99072936D01*
X106705583Y-99105367D01*
X106705584Y-99105367D01*
X106705589Y-99105369D01*
X106819542Y-99135902D01*
X107068315Y-99202561D01*
X107438137Y-99267771D01*
X107812234Y-99300499D01*
X107812235Y-99300500D01*
X107812236Y-99300500D01*
X108187765Y-99300500D01*
X108187765Y-99300499D01*
X108561863Y-99267771D01*
X108931685Y-99202561D01*
X109294417Y-99105367D01*
X109647298Y-98976929D01*
X109987642Y-98818224D01*
X110312858Y-98630460D01*
X110620473Y-98415066D01*
X110908144Y-98173682D01*
X111173682Y-97908144D01*
X111415066Y-97620473D01*
X111630460Y-97312858D01*
X111818224Y-96987642D01*
X111976929Y-96647298D01*
X112105367Y-96294417D01*
X112202561Y-95931685D01*
X112267771Y-95561863D01*
X112300500Y-95187764D01*
X112300500Y-95125500D01*
X112320185Y-95058461D01*
X112372989Y-95012706D01*
X112424500Y-95001500D01*
X115309606Y-95001500D01*
X115376645Y-95021185D01*
X115422400Y-95073989D01*
X115432344Y-95143147D01*
X115403319Y-95206703D01*
X115365902Y-95235984D01*
X115235976Y-95302185D01*
X115057641Y-95431752D01*
X115057636Y-95431756D01*
X114901756Y-95587636D01*
X114901752Y-95587641D01*
X114772187Y-95765974D01*
X114672104Y-95962393D01*
X114672103Y-95962396D01*
X114603985Y-96172047D01*
X114603985Y-96172049D01*
X114569500Y-96389778D01*
X114569500Y-96610222D01*
X114575372Y-96647298D01*
X114603985Y-96827952D01*
X114672103Y-97037603D01*
X114672104Y-97037606D01*
X114772187Y-97234025D01*
X114901752Y-97412358D01*
X114901756Y-97412363D01*
X114951928Y-97462535D01*
X114985413Y-97523858D01*
X114980429Y-97593550D01*
X114938557Y-97649483D01*
X114907581Y-97666398D01*
X114827669Y-97696203D01*
X114827664Y-97696206D01*
X114712455Y-97782452D01*
X114712452Y-97782455D01*
X114626206Y-97897664D01*
X114626202Y-97897671D01*
X114575908Y-98032517D01*
X114569501Y-98092116D01*
X114569501Y-98092123D01*
X114569500Y-98092135D01*
X114569500Y-99987870D01*
X114569501Y-99987876D01*
X114575908Y-100047483D01*
X114626202Y-100182328D01*
X114626206Y-100182335D01*
X114712452Y-100297544D01*
X114712455Y-100297547D01*
X114827664Y-100383793D01*
X114827671Y-100383797D01*
X114962517Y-100434091D01*
X114962516Y-100434091D01*
X114969444Y-100434835D01*
X115022127Y-100440500D01*
X116917872Y-100440499D01*
X116977483Y-100434091D01*
X117112331Y-100383796D01*
X117227546Y-100297546D01*
X117313796Y-100182331D01*
X117364091Y-100047483D01*
X117370500Y-99987873D01*
X117370499Y-98092128D01*
X117364091Y-98032517D01*
X117313796Y-97897669D01*
X117313795Y-97897668D01*
X117313793Y-97897664D01*
X117227547Y-97782455D01*
X117227544Y-97782452D01*
X117112335Y-97696206D01*
X117112328Y-97696202D01*
X117032419Y-97666398D01*
X116976485Y-97624527D01*
X116952068Y-97559062D01*
X116966920Y-97490789D01*
X116988069Y-97462537D01*
X117038242Y-97412365D01*
X117167815Y-97234022D01*
X117267895Y-97037606D01*
X117336015Y-96827951D01*
X117370500Y-96610222D01*
X117370500Y-96389778D01*
X117336015Y-96172049D01*
X117275419Y-95985551D01*
X117267896Y-95962396D01*
X117267895Y-95962393D01*
X117233237Y-95894375D01*
X117167815Y-95765978D01*
X117043525Y-95594906D01*
X117038247Y-95587641D01*
X117038243Y-95587636D01*
X116882363Y-95431756D01*
X116882358Y-95431752D01*
X116704023Y-95302185D01*
X116574098Y-95235984D01*
X116523303Y-95188010D01*
X116506508Y-95120189D01*
X116529046Y-95054054D01*
X116583761Y-95010603D01*
X116630394Y-95001500D01*
X121839606Y-95001500D01*
X121906645Y-95021185D01*
X121952400Y-95073989D01*
X121962344Y-95143147D01*
X121933319Y-95206703D01*
X121895902Y-95235984D01*
X121765976Y-95302185D01*
X121587641Y-95431752D01*
X121587636Y-95431756D01*
X121431756Y-95587636D01*
X121431752Y-95587641D01*
X121302187Y-95765974D01*
X121202104Y-95962393D01*
X121202103Y-95962396D01*
X121133985Y-96172047D01*
X121133985Y-96172049D01*
X121099500Y-96389778D01*
X121099500Y-96610222D01*
X121105372Y-96647298D01*
X121133985Y-96827952D01*
X121202103Y-97037603D01*
X121202104Y-97037606D01*
X121302187Y-97234025D01*
X121431752Y-97412358D01*
X121431756Y-97412363D01*
X121481928Y-97462535D01*
X121515413Y-97523858D01*
X121510429Y-97593550D01*
X121468557Y-97649483D01*
X121437581Y-97666398D01*
X121357669Y-97696203D01*
X121357664Y-97696206D01*
X121242455Y-97782452D01*
X121242452Y-97782455D01*
X121156206Y-97897664D01*
X121156202Y-97897671D01*
X121105908Y-98032517D01*
X121099501Y-98092116D01*
X121099501Y-98092123D01*
X121099500Y-98092135D01*
X121099500Y-99987870D01*
X121099501Y-99987876D01*
X121105908Y-100047483D01*
X121156202Y-100182328D01*
X121156206Y-100182335D01*
X121242452Y-100297544D01*
X121242455Y-100297547D01*
X121357664Y-100383793D01*
X121357671Y-100383797D01*
X121492517Y-100434091D01*
X121492516Y-100434091D01*
X121499444Y-100434835D01*
X121552127Y-100440500D01*
X123447872Y-100440499D01*
X123507483Y-100434091D01*
X123642331Y-100383796D01*
X123757546Y-100297546D01*
X123843796Y-100182331D01*
X123894091Y-100047483D01*
X123900500Y-99987873D01*
X123900499Y-98092128D01*
X123894091Y-98032517D01*
X123843796Y-97897669D01*
X123843795Y-97897668D01*
X123843793Y-97897664D01*
X123757547Y-97782455D01*
X123757544Y-97782452D01*
X123642335Y-97696206D01*
X123642328Y-97696202D01*
X123562419Y-97666398D01*
X123506485Y-97624527D01*
X123482068Y-97559062D01*
X123496920Y-97490789D01*
X123518069Y-97462537D01*
X123568242Y-97412365D01*
X123697815Y-97234022D01*
X123797895Y-97037606D01*
X123866015Y-96827951D01*
X123900500Y-96610222D01*
X123900500Y-96389778D01*
X123866015Y-96172049D01*
X123805419Y-95985551D01*
X123797896Y-95962396D01*
X123797895Y-95962393D01*
X123763237Y-95894375D01*
X123697815Y-95765978D01*
X123573525Y-95594906D01*
X123568247Y-95587641D01*
X123568243Y-95587636D01*
X123412363Y-95431756D01*
X123412358Y-95431752D01*
X123234023Y-95302185D01*
X123104098Y-95235984D01*
X123053303Y-95188010D01*
X123036508Y-95120189D01*
X123059046Y-95054054D01*
X123113761Y-95010603D01*
X123160394Y-95001500D01*
X128309606Y-95001500D01*
X128376645Y-95021185D01*
X128422400Y-95073989D01*
X128432344Y-95143147D01*
X128403319Y-95206703D01*
X128365902Y-95235984D01*
X128235976Y-95302185D01*
X128057641Y-95431752D01*
X128057636Y-95431756D01*
X127901756Y-95587636D01*
X127901752Y-95587641D01*
X127772187Y-95765974D01*
X127672104Y-95962393D01*
X127672103Y-95962396D01*
X127603985Y-96172047D01*
X127603985Y-96172049D01*
X127569500Y-96389778D01*
X127569500Y-96610222D01*
X127575372Y-96647298D01*
X127603985Y-96827952D01*
X127672103Y-97037603D01*
X127672104Y-97037606D01*
X127772187Y-97234025D01*
X127901752Y-97412358D01*
X127901756Y-97412363D01*
X127951928Y-97462535D01*
X127985413Y-97523858D01*
X127980429Y-97593550D01*
X127938557Y-97649483D01*
X127907581Y-97666398D01*
X127827669Y-97696203D01*
X127827664Y-97696206D01*
X127712455Y-97782452D01*
X127712452Y-97782455D01*
X127626206Y-97897664D01*
X127626202Y-97897671D01*
X127575908Y-98032517D01*
X127569501Y-98092116D01*
X127569501Y-98092123D01*
X127569500Y-98092135D01*
X127569500Y-99987870D01*
X127569501Y-99987876D01*
X127575908Y-100047483D01*
X127626202Y-100182328D01*
X127626206Y-100182335D01*
X127712452Y-100297544D01*
X127712455Y-100297547D01*
X127827664Y-100383793D01*
X127827671Y-100383797D01*
X127962517Y-100434091D01*
X127962516Y-100434091D01*
X127969444Y-100434835D01*
X128022127Y-100440500D01*
X129917872Y-100440499D01*
X129977483Y-100434091D01*
X130112331Y-100383796D01*
X130227546Y-100297546D01*
X130313796Y-100182331D01*
X130364091Y-100047483D01*
X130370500Y-99987873D01*
X130370499Y-98092128D01*
X130364091Y-98032517D01*
X130313796Y-97897669D01*
X130313795Y-97897668D01*
X130313793Y-97897664D01*
X130227547Y-97782455D01*
X130227544Y-97782452D01*
X130112335Y-97696206D01*
X130112328Y-97696202D01*
X130032419Y-97666398D01*
X129976485Y-97624527D01*
X129952068Y-97559062D01*
X129966920Y-97490789D01*
X129988069Y-97462537D01*
X130038242Y-97412365D01*
X130167815Y-97234022D01*
X130267895Y-97037606D01*
X130336015Y-96827951D01*
X130370500Y-96610222D01*
X130370500Y-96389778D01*
X130336015Y-96172049D01*
X130275419Y-95985551D01*
X130267896Y-95962396D01*
X130267895Y-95962393D01*
X130233237Y-95894375D01*
X130167815Y-95765978D01*
X130043525Y-95594906D01*
X130038247Y-95587641D01*
X130038243Y-95587636D01*
X129882363Y-95431756D01*
X129882358Y-95431752D01*
X129704023Y-95302185D01*
X129574098Y-95235984D01*
X129523303Y-95188010D01*
X129506508Y-95120189D01*
X129529046Y-95054054D01*
X129583761Y-95010603D01*
X129630394Y-95001500D01*
X134809606Y-95001500D01*
X134876645Y-95021185D01*
X134922400Y-95073989D01*
X134932344Y-95143147D01*
X134903319Y-95206703D01*
X134865902Y-95235984D01*
X134735976Y-95302185D01*
X134557641Y-95431752D01*
X134557636Y-95431756D01*
X134401756Y-95587636D01*
X134401752Y-95587641D01*
X134272187Y-95765974D01*
X134172104Y-95962393D01*
X134172103Y-95962396D01*
X134103985Y-96172047D01*
X134103985Y-96172049D01*
X134069500Y-96389778D01*
X134069500Y-96610222D01*
X134075372Y-96647298D01*
X134103985Y-96827952D01*
X134172103Y-97037603D01*
X134172104Y-97037606D01*
X134272187Y-97234025D01*
X134401752Y-97412358D01*
X134401756Y-97412363D01*
X134451928Y-97462535D01*
X134485413Y-97523858D01*
X134480429Y-97593550D01*
X134438557Y-97649483D01*
X134407581Y-97666398D01*
X134327669Y-97696203D01*
X134327664Y-97696206D01*
X134212455Y-97782452D01*
X134212452Y-97782455D01*
X134126206Y-97897664D01*
X134126202Y-97897671D01*
X134075908Y-98032517D01*
X134069501Y-98092116D01*
X134069501Y-98092123D01*
X134069500Y-98092135D01*
X134069500Y-99987870D01*
X134069501Y-99987876D01*
X134075908Y-100047483D01*
X134126202Y-100182328D01*
X134126206Y-100182335D01*
X134212452Y-100297544D01*
X134212455Y-100297547D01*
X134327664Y-100383793D01*
X134327671Y-100383797D01*
X134462517Y-100434091D01*
X134462516Y-100434091D01*
X134469444Y-100434835D01*
X134522127Y-100440500D01*
X136417872Y-100440499D01*
X136477483Y-100434091D01*
X136612331Y-100383796D01*
X136727546Y-100297546D01*
X136813796Y-100182331D01*
X136864091Y-100047483D01*
X136870500Y-99987873D01*
X136870499Y-98092128D01*
X136864091Y-98032517D01*
X136813796Y-97897669D01*
X136813795Y-97897668D01*
X136813793Y-97897664D01*
X136727547Y-97782455D01*
X136727544Y-97782452D01*
X136612335Y-97696206D01*
X136612328Y-97696202D01*
X136532419Y-97666398D01*
X136476485Y-97624527D01*
X136452068Y-97559062D01*
X136466920Y-97490789D01*
X136488069Y-97462537D01*
X136538242Y-97412365D01*
X136667815Y-97234022D01*
X136767895Y-97037606D01*
X136836015Y-96827951D01*
X136870500Y-96610222D01*
X136870500Y-96389778D01*
X136836015Y-96172049D01*
X136775419Y-95985551D01*
X136767896Y-95962396D01*
X136767895Y-95962393D01*
X136733237Y-95894375D01*
X136667815Y-95765978D01*
X136543525Y-95594906D01*
X136538247Y-95587641D01*
X136538243Y-95587636D01*
X136382363Y-95431756D01*
X136382358Y-95431752D01*
X136204023Y-95302185D01*
X136074098Y-95235984D01*
X136023303Y-95188010D01*
X136006508Y-95120189D01*
X136029046Y-95054054D01*
X136083761Y-95010603D01*
X136130394Y-95001500D01*
X141339606Y-95001500D01*
X141406645Y-95021185D01*
X141452400Y-95073989D01*
X141462344Y-95143147D01*
X141433319Y-95206703D01*
X141395902Y-95235984D01*
X141265976Y-95302185D01*
X141087641Y-95431752D01*
X141087636Y-95431756D01*
X140931756Y-95587636D01*
X140931752Y-95587641D01*
X140802187Y-95765974D01*
X140702104Y-95962393D01*
X140702103Y-95962396D01*
X140633985Y-96172047D01*
X140633985Y-96172049D01*
X140599500Y-96389778D01*
X140599500Y-96610222D01*
X140605372Y-96647298D01*
X140633985Y-96827952D01*
X140702103Y-97037603D01*
X140702104Y-97037606D01*
X140802187Y-97234025D01*
X140931752Y-97412358D01*
X140931756Y-97412363D01*
X140981928Y-97462535D01*
X141015413Y-97523858D01*
X141010429Y-97593550D01*
X140968557Y-97649483D01*
X140937581Y-97666398D01*
X140857669Y-97696203D01*
X140857664Y-97696206D01*
X140742455Y-97782452D01*
X140742452Y-97782455D01*
X140656206Y-97897664D01*
X140656202Y-97897671D01*
X140605908Y-98032517D01*
X140599501Y-98092116D01*
X140599501Y-98092123D01*
X140599500Y-98092135D01*
X140599500Y-99987870D01*
X140599501Y-99987876D01*
X140605908Y-100047483D01*
X140656202Y-100182328D01*
X140656206Y-100182335D01*
X140742452Y-100297544D01*
X140742455Y-100297547D01*
X140857664Y-100383793D01*
X140857671Y-100383797D01*
X140992517Y-100434091D01*
X140992516Y-100434091D01*
X140999444Y-100434835D01*
X141052127Y-100440500D01*
X142604232Y-100440499D01*
X142671271Y-100460184D01*
X142717026Y-100512987D01*
X142726970Y-100582146D01*
X142725849Y-100588690D01*
X142699500Y-100721153D01*
X142699500Y-100878846D01*
X142730261Y-101033489D01*
X142730264Y-101033501D01*
X142790602Y-101179172D01*
X142790609Y-101179185D01*
X142878602Y-101310874D01*
X142899480Y-101377551D01*
X142899500Y-101379765D01*
X142899500Y-101820234D01*
X142879815Y-101887273D01*
X142878602Y-101889125D01*
X142790609Y-102020814D01*
X142790602Y-102020827D01*
X142730264Y-102166498D01*
X142730261Y-102166510D01*
X142699500Y-102321153D01*
X142699500Y-102478846D01*
X142730261Y-102633489D01*
X142730264Y-102633501D01*
X142790602Y-102779172D01*
X142790609Y-102779185D01*
X142878210Y-102910288D01*
X142878213Y-102910292D01*
X142989707Y-103021786D01*
X142989711Y-103021789D01*
X143120814Y-103109390D01*
X143120827Y-103109397D01*
X143217646Y-103149500D01*
X143266503Y-103169737D01*
X143421153Y-103200499D01*
X143421156Y-103200500D01*
X143421158Y-103200500D01*
X143578844Y-103200500D01*
X143578845Y-103200499D01*
X143733497Y-103169737D01*
X143879179Y-103109394D01*
X144010289Y-103021789D01*
X144121789Y-102910289D01*
X144209394Y-102779179D01*
X144269737Y-102633497D01*
X144300500Y-102478842D01*
X144300500Y-102321158D01*
X144300500Y-102321155D01*
X144300499Y-102321153D01*
X144282811Y-102232229D01*
X144269737Y-102166503D01*
X144269735Y-102166498D01*
X144209397Y-102020827D01*
X144209390Y-102020814D01*
X144121398Y-101889125D01*
X144100520Y-101822447D01*
X144100500Y-101820234D01*
X144100500Y-101379765D01*
X144120185Y-101312726D01*
X144121398Y-101310874D01*
X144209390Y-101179185D01*
X144209390Y-101179184D01*
X144209394Y-101179179D01*
X144269737Y-101033497D01*
X144300500Y-100878842D01*
X144300500Y-100721158D01*
X144300500Y-100721155D01*
X144300499Y-100721153D01*
X144274150Y-100588690D01*
X144269737Y-100566503D01*
X144225699Y-100460184D01*
X144209397Y-100420827D01*
X144209390Y-100420814D01*
X144121789Y-100289711D01*
X144121786Y-100289707D01*
X144010292Y-100178213D01*
X144010288Y-100178210D01*
X143879185Y-100090609D01*
X143879172Y-100090602D01*
X143733501Y-100030264D01*
X143733489Y-100030261D01*
X143578845Y-99999500D01*
X143578842Y-99999500D01*
X143524500Y-99999500D01*
X143457461Y-99979815D01*
X143411706Y-99927011D01*
X143400500Y-99875500D01*
X143400499Y-98092129D01*
X143400498Y-98092123D01*
X143400497Y-98092116D01*
X143394091Y-98032517D01*
X143343796Y-97897669D01*
X143343795Y-97897668D01*
X143343793Y-97897664D01*
X143257547Y-97782455D01*
X143257544Y-97782452D01*
X143142335Y-97696206D01*
X143142328Y-97696202D01*
X143062419Y-97666398D01*
X143006485Y-97624527D01*
X142982068Y-97559062D01*
X142996920Y-97490789D01*
X143018069Y-97462537D01*
X143068242Y-97412365D01*
X143197815Y-97234022D01*
X143297895Y-97037606D01*
X143366015Y-96827951D01*
X143400500Y-96610222D01*
X143400500Y-96389778D01*
X143366015Y-96172049D01*
X143305419Y-95985551D01*
X143297896Y-95962396D01*
X143297895Y-95962393D01*
X143263237Y-95894375D01*
X143197815Y-95765978D01*
X143073525Y-95594906D01*
X143068247Y-95587641D01*
X143068243Y-95587636D01*
X142912363Y-95431756D01*
X142912358Y-95431752D01*
X142734023Y-95302185D01*
X142604098Y-95235984D01*
X142553303Y-95188010D01*
X142536508Y-95120189D01*
X142559046Y-95054054D01*
X142613761Y-95010603D01*
X142660394Y-95001500D01*
X145575500Y-95001500D01*
X145642539Y-95021185D01*
X145688294Y-95073989D01*
X145699500Y-95125500D01*
X145699500Y-95187767D01*
X145732229Y-95561865D01*
X145797438Y-95931679D01*
X145797441Y-95931692D01*
X145894630Y-96294410D01*
X146023068Y-96647293D01*
X146181771Y-96987633D01*
X146181779Y-96987648D01*
X146313753Y-97216233D01*
X146369540Y-97312858D01*
X146369544Y-97312864D01*
X146369551Y-97312875D01*
X146584934Y-97620474D01*
X146759407Y-97828402D01*
X146826318Y-97908144D01*
X147091856Y-98173682D01*
X147211468Y-98274048D01*
X147379525Y-98415065D01*
X147687124Y-98630448D01*
X147687131Y-98630452D01*
X147687142Y-98630460D01*
X147991930Y-98806429D01*
X148012351Y-98818220D01*
X148012366Y-98818228D01*
X148352706Y-98976931D01*
X148616479Y-99072936D01*
X148705583Y-99105367D01*
X148705584Y-99105367D01*
X148705589Y-99105369D01*
X148819542Y-99135902D01*
X149068315Y-99202561D01*
X149438137Y-99267771D01*
X149812234Y-99300499D01*
X149812235Y-99300500D01*
X149812236Y-99300500D01*
X150187765Y-99300500D01*
X150187765Y-99300499D01*
X150561863Y-99267771D01*
X150931685Y-99202561D01*
X151294417Y-99105367D01*
X151647298Y-98976929D01*
X151987642Y-98818224D01*
X152312858Y-98630460D01*
X152620473Y-98415066D01*
X152908144Y-98173682D01*
X153173682Y-97908144D01*
X153415066Y-97620473D01*
X153630460Y-97312858D01*
X153818224Y-96987642D01*
X153976929Y-96647298D01*
X154105367Y-96294417D01*
X154202561Y-95931685D01*
X154267771Y-95561863D01*
X154300500Y-95187764D01*
X154300500Y-94812236D01*
X154267771Y-94438137D01*
X154202561Y-94068315D01*
X154105367Y-93705583D01*
X154072936Y-93616479D01*
X153976931Y-93352706D01*
X153818228Y-93012366D01*
X153818220Y-93012351D01*
X153699492Y-92806709D01*
X153630460Y-92687142D01*
X153630452Y-92687131D01*
X153630448Y-92687124D01*
X153415065Y-92379525D01*
X153216791Y-92143232D01*
X153173682Y-92091856D01*
X152908144Y-91826318D01*
X152828402Y-91759407D01*
X152620474Y-91584934D01*
X152312875Y-91369551D01*
X152312864Y-91369544D01*
X152312858Y-91369540D01*
X152100998Y-91247222D01*
X151987648Y-91181779D01*
X151987633Y-91181771D01*
X151647293Y-91023068D01*
X151294410Y-90894630D01*
X150931692Y-90797441D01*
X150931695Y-90797441D01*
X150931685Y-90797439D01*
X150879471Y-90788232D01*
X150561865Y-90732229D01*
X150517863Y-90728379D01*
X150498755Y-90726707D01*
X150433687Y-90701256D01*
X150392708Y-90644665D01*
X150388830Y-90574903D01*
X150423284Y-90514119D01*
X150485131Y-90481611D01*
X150509563Y-90479180D01*
X165081462Y-90479180D01*
X165148501Y-90498865D01*
X165194256Y-90551669D01*
X165204200Y-90620827D01*
X165175175Y-90684383D01*
X165150352Y-90706282D01*
X165001719Y-90805594D01*
X165001696Y-90805611D01*
X164747222Y-91014453D01*
X164514453Y-91247222D01*
X164305611Y-91501696D01*
X164305601Y-91501710D01*
X164122718Y-91775414D01*
X164122707Y-91775432D01*
X163967535Y-92065741D01*
X163967528Y-92065755D01*
X163841552Y-92369887D01*
X163745987Y-92684922D01*
X163745984Y-92684933D01*
X163681768Y-93007781D01*
X163681765Y-93007798D01*
X163657365Y-93255540D01*
X163649500Y-93335400D01*
X163649500Y-93664600D01*
X163653537Y-93705589D01*
X163681765Y-93992201D01*
X163681768Y-93992218D01*
X163745984Y-94315066D01*
X163745987Y-94315077D01*
X163841552Y-94630112D01*
X163967528Y-94934244D01*
X163967535Y-94934258D01*
X164122707Y-95224567D01*
X164122718Y-95224585D01*
X164305601Y-95498289D01*
X164305611Y-95498303D01*
X164514453Y-95752777D01*
X164747222Y-95985546D01*
X164747227Y-95985550D01*
X164747228Y-95985551D01*
X165001702Y-96194393D01*
X165275421Y-96377286D01*
X165565749Y-96532469D01*
X165869889Y-96658448D01*
X166184913Y-96754010D01*
X166184919Y-96754011D01*
X166184922Y-96754012D01*
X166184933Y-96754015D01*
X166365361Y-96789903D01*
X166507787Y-96818233D01*
X166835400Y-96850500D01*
X166835403Y-96850500D01*
X167164597Y-96850500D01*
X167164600Y-96850500D01*
X167492213Y-96818233D01*
X167669760Y-96782916D01*
X167815066Y-96754015D01*
X167815077Y-96754012D01*
X167815077Y-96754011D01*
X167815087Y-96754010D01*
X168130111Y-96658448D01*
X168434251Y-96532469D01*
X168724579Y-96377286D01*
X168998298Y-96194393D01*
X169252772Y-95985551D01*
X169485551Y-95752772D01*
X169679668Y-95516240D01*
X169737412Y-95476907D01*
X169807257Y-95475036D01*
X169867025Y-95511224D01*
X169897741Y-95573979D01*
X169899520Y-95594906D01*
X169899520Y-108005093D01*
X169879835Y-108072132D01*
X169827031Y-108117887D01*
X169757873Y-108127831D01*
X169694317Y-108098806D01*
X169679667Y-108083758D01*
X169485546Y-107847222D01*
X169252777Y-107614453D01*
X168998303Y-107405611D01*
X168998302Y-107405610D01*
X168998298Y-107405607D01*
X168724579Y-107222714D01*
X168724574Y-107222711D01*
X168724567Y-107222707D01*
X168456043Y-107079179D01*
X168434251Y-107067531D01*
X168420572Y-107061865D01*
X168130112Y-106941552D01*
X167815077Y-106845987D01*
X167815066Y-106845984D01*
X167492218Y-106781768D01*
X167492213Y-106781767D01*
X167492211Y-106781766D01*
X167492201Y-106781765D01*
X167251522Y-106758061D01*
X167164600Y-106749500D01*
X166835400Y-106749500D01*
X166755540Y-106757365D01*
X166507798Y-106781765D01*
X166507781Y-106781768D01*
X166184933Y-106845984D01*
X166184922Y-106845987D01*
X165869887Y-106941552D01*
X165565755Y-107067528D01*
X165565741Y-107067535D01*
X165275432Y-107222707D01*
X165275414Y-107222718D01*
X165001710Y-107405601D01*
X165001696Y-107405611D01*
X164747222Y-107614453D01*
X164514453Y-107847222D01*
X164305611Y-108101696D01*
X164305601Y-108101710D01*
X164122718Y-108375414D01*
X164122707Y-108375432D01*
X163967535Y-108665741D01*
X163967528Y-108665755D01*
X163841552Y-108969887D01*
X163745987Y-109284922D01*
X163745984Y-109284933D01*
X163681768Y-109607781D01*
X163681765Y-109607798D01*
X163657365Y-109855540D01*
X163649500Y-109935400D01*
X163649500Y-110264600D01*
X163654782Y-110318228D01*
X163681765Y-110592201D01*
X163681768Y-110592218D01*
X163745984Y-110915066D01*
X163745987Y-110915077D01*
X163841552Y-111230112D01*
X163967528Y-111534244D01*
X163967535Y-111534258D01*
X164122707Y-111824567D01*
X164122718Y-111824585D01*
X164305601Y-112098289D01*
X164305611Y-112098303D01*
X164514453Y-112352777D01*
X164747222Y-112585546D01*
X164983734Y-112779647D01*
X165023068Y-112837393D01*
X165024939Y-112907237D01*
X164988751Y-112967006D01*
X164925995Y-112997721D01*
X164905069Y-112999500D01*
X93594931Y-112999500D01*
X93527892Y-112979815D01*
X93482137Y-112927011D01*
X93472193Y-112857853D01*
X93501218Y-112794297D01*
X93516266Y-112779647D01*
X93752772Y-112585551D01*
X93985551Y-112352772D01*
X94194393Y-112098298D01*
X94377286Y-111824579D01*
X94532469Y-111534251D01*
X94658448Y-111230111D01*
X94754010Y-110915087D01*
X94754012Y-110915077D01*
X94754015Y-110915066D01*
X94783313Y-110767770D01*
X94818233Y-110592213D01*
X94850500Y-110264600D01*
X94850500Y-109935400D01*
X94818233Y-109607787D01*
X94789903Y-109465361D01*
X94754015Y-109284933D01*
X94754012Y-109284922D01*
X94754011Y-109284919D01*
X94754010Y-109284913D01*
X94658448Y-108969889D01*
X94532469Y-108665749D01*
X94377286Y-108375421D01*
X94194393Y-108101702D01*
X93985551Y-107847228D01*
X93985550Y-107847227D01*
X93985546Y-107847222D01*
X93752777Y-107614453D01*
X93498303Y-107405611D01*
X93498302Y-107405610D01*
X93498298Y-107405607D01*
X93224579Y-107222714D01*
X93224574Y-107222711D01*
X93224567Y-107222707D01*
X92956043Y-107079179D01*
X92934251Y-107067531D01*
X92920572Y-107061865D01*
X92630112Y-106941552D01*
X92315077Y-106845987D01*
X92315066Y-106845984D01*
X91992218Y-106781768D01*
X91992213Y-106781767D01*
X91992211Y-106781766D01*
X91992201Y-106781765D01*
X91751522Y-106758061D01*
X91664600Y-106749500D01*
X91335400Y-106749500D01*
X91255540Y-106757365D01*
X91007798Y-106781765D01*
X91007781Y-106781768D01*
X90684933Y-106845984D01*
X90684922Y-106845987D01*
X90369887Y-106941552D01*
X90065755Y-107067528D01*
X90065741Y-107067535D01*
X89775432Y-107222707D01*
X89775414Y-107222718D01*
X89501710Y-107405601D01*
X89501696Y-107405611D01*
X89247222Y-107614453D01*
X89014453Y-107847222D01*
X88805611Y-108101696D01*
X88805601Y-108101710D01*
X88727602Y-108218444D01*
X88673990Y-108263249D01*
X88604665Y-108271956D01*
X88541637Y-108241801D01*
X88504918Y-108182358D01*
X88500500Y-108149553D01*
X88500500Y-106312232D01*
X103699500Y-106312232D01*
X103699500Y-106687767D01*
X103732229Y-107061865D01*
X103760592Y-107222718D01*
X103793508Y-107409394D01*
X103797438Y-107431679D01*
X103797441Y-107431692D01*
X103894630Y-107794410D01*
X104023068Y-108147293D01*
X104181771Y-108487633D01*
X104181776Y-108487642D01*
X104369540Y-108812858D01*
X104369544Y-108812864D01*
X104369551Y-108812875D01*
X104584934Y-109120474D01*
X104722915Y-109284913D01*
X104826318Y-109408144D01*
X105091856Y-109673682D01*
X105211468Y-109774048D01*
X105379525Y-109915065D01*
X105687124Y-110130448D01*
X105687131Y-110130452D01*
X105687142Y-110130460D01*
X105919472Y-110264596D01*
X106012351Y-110318220D01*
X106012366Y-110318228D01*
X106352706Y-110476931D01*
X106616479Y-110572936D01*
X106705583Y-110605367D01*
X106705584Y-110605367D01*
X106705589Y-110605369D01*
X106819542Y-110635902D01*
X107068315Y-110702561D01*
X107438137Y-110767771D01*
X107812234Y-110800499D01*
X107812235Y-110800500D01*
X107812236Y-110800500D01*
X108187765Y-110800500D01*
X108187765Y-110800499D01*
X108561863Y-110767771D01*
X108931685Y-110702561D01*
X109294417Y-110605367D01*
X109583911Y-110500000D01*
X109647293Y-110476931D01*
X109647294Y-110476930D01*
X109647298Y-110476929D01*
X109987642Y-110318224D01*
X110312858Y-110130460D01*
X110620473Y-109915066D01*
X110908144Y-109673682D01*
X111173682Y-109408144D01*
X111415066Y-109120473D01*
X111630460Y-108812858D01*
X111818224Y-108487642D01*
X111976929Y-108147298D01*
X111981568Y-108134554D01*
X112029285Y-108003450D01*
X112105367Y-107794417D01*
X112202561Y-107431685D01*
X112267771Y-107061863D01*
X112300500Y-106687764D01*
X112300500Y-106312236D01*
X112267771Y-105938137D01*
X112202561Y-105568315D01*
X112105367Y-105205583D01*
X112037906Y-105020234D01*
X111976931Y-104852706D01*
X111818228Y-104512366D01*
X111818220Y-104512351D01*
X111772689Y-104433489D01*
X111630460Y-104187142D01*
X111415066Y-103879527D01*
X111415065Y-103879525D01*
X111408040Y-103871153D01*
X121699500Y-103871153D01*
X121699500Y-104028846D01*
X121730261Y-104183489D01*
X121730264Y-104183501D01*
X121790602Y-104329172D01*
X121790609Y-104329185D01*
X121878602Y-104460874D01*
X121899480Y-104527551D01*
X121899500Y-104529765D01*
X121899500Y-105020234D01*
X121879815Y-105087273D01*
X121878602Y-105089125D01*
X121790609Y-105220814D01*
X121790602Y-105220827D01*
X121730264Y-105366498D01*
X121730261Y-105366510D01*
X121699500Y-105521153D01*
X121699500Y-105678846D01*
X121730261Y-105833489D01*
X121730264Y-105833501D01*
X121790602Y-105979172D01*
X121790609Y-105979185D01*
X121878210Y-106110288D01*
X121878213Y-106110292D01*
X121989707Y-106221786D01*
X121989711Y-106221789D01*
X122120814Y-106309390D01*
X122120827Y-106309397D01*
X122266498Y-106369735D01*
X122266503Y-106369737D01*
X122421153Y-106400499D01*
X122421156Y-106400500D01*
X122421158Y-106400500D01*
X122578844Y-106400500D01*
X122578845Y-106400499D01*
X122733497Y-106369737D01*
X122851592Y-106320821D01*
X122879172Y-106309397D01*
X122879172Y-106309396D01*
X122879179Y-106309394D01*
X123010289Y-106221789D01*
X123121789Y-106110289D01*
X123209394Y-105979179D01*
X123269737Y-105833497D01*
X123300500Y-105678842D01*
X123300500Y-105521158D01*
X123300500Y-105521155D01*
X123300499Y-105521153D01*
X123269737Y-105366503D01*
X123267813Y-105361859D01*
X123209397Y-105220827D01*
X123209390Y-105220814D01*
X123121398Y-105089125D01*
X123100520Y-105022447D01*
X123100500Y-105020234D01*
X123100500Y-104529765D01*
X123120185Y-104462726D01*
X123121398Y-104460874D01*
X123209390Y-104329185D01*
X123209390Y-104329184D01*
X123209394Y-104329179D01*
X123269737Y-104183497D01*
X123282138Y-104121153D01*
X125399500Y-104121153D01*
X125399500Y-104278846D01*
X125430261Y-104433489D01*
X125430264Y-104433501D01*
X125490602Y-104579172D01*
X125490609Y-104579185D01*
X125578602Y-104710874D01*
X125599480Y-104777551D01*
X125599500Y-104779765D01*
X125599500Y-105361859D01*
X125599499Y-105361877D01*
X125599499Y-105527583D01*
X125599498Y-105527583D01*
X125640422Y-105680312D01*
X125657352Y-105709635D01*
X125657354Y-105709638D01*
X125719479Y-105817243D01*
X125719481Y-105817246D01*
X125838349Y-105936114D01*
X125838355Y-105936119D01*
X126616896Y-106714660D01*
X126650381Y-106775983D01*
X126650832Y-106778149D01*
X126681732Y-106933491D01*
X126681735Y-106933501D01*
X126742073Y-107079172D01*
X126742080Y-107079185D01*
X126829681Y-107210288D01*
X126829684Y-107210292D01*
X126941178Y-107321786D01*
X126941182Y-107321789D01*
X127072285Y-107409390D01*
X127072297Y-107409397D01*
X127169141Y-107449509D01*
X127199502Y-107462085D01*
X127206433Y-107466717D01*
X127211476Y-107467814D01*
X127239730Y-107488965D01*
X127389690Y-107638925D01*
X127423175Y-107700248D01*
X127423626Y-107702414D01*
X127454526Y-107857756D01*
X127454529Y-107857766D01*
X127514867Y-108003437D01*
X127514874Y-108003450D01*
X127602475Y-108134553D01*
X127602478Y-108134557D01*
X127713972Y-108246051D01*
X127713976Y-108246054D01*
X127845079Y-108333655D01*
X127845092Y-108333662D01*
X127990763Y-108394000D01*
X127990768Y-108394002D01*
X128145418Y-108424764D01*
X128145421Y-108424765D01*
X128145423Y-108424765D01*
X128303109Y-108424765D01*
X128303110Y-108424764D01*
X128457762Y-108394002D01*
X128603444Y-108333659D01*
X128734554Y-108246054D01*
X128846054Y-108134554D01*
X128933659Y-108003444D01*
X128994002Y-107857762D01*
X129024765Y-107703107D01*
X129024765Y-107545423D01*
X129024765Y-107545420D01*
X129024764Y-107545418D01*
X129009710Y-107469737D01*
X128994002Y-107390768D01*
X128965429Y-107321786D01*
X128933662Y-107245092D01*
X128933655Y-107245079D01*
X128846054Y-107113976D01*
X128846051Y-107113972D01*
X128734557Y-107002478D01*
X128734553Y-107002475D01*
X128603450Y-106914874D01*
X128603437Y-106914867D01*
X128457766Y-106854529D01*
X128457756Y-106854526D01*
X128351779Y-106833446D01*
X128289868Y-106801061D01*
X128255294Y-106740345D01*
X128251971Y-106711829D01*
X128251971Y-106621155D01*
X128251970Y-106621153D01*
X128221209Y-106466510D01*
X128221208Y-106466503D01*
X128193869Y-106400500D01*
X128160868Y-106320827D01*
X128160861Y-106320814D01*
X128073260Y-106189711D01*
X128073257Y-106189707D01*
X127961763Y-106078213D01*
X127961759Y-106078210D01*
X127830656Y-105990609D01*
X127830643Y-105990602D01*
X127684972Y-105930264D01*
X127684962Y-105930261D01*
X127529620Y-105899361D01*
X127467709Y-105866976D01*
X127466131Y-105865425D01*
X126836819Y-105236113D01*
X126803334Y-105174790D01*
X126800500Y-105148432D01*
X126800500Y-104779765D01*
X126820185Y-104712726D01*
X126821398Y-104710874D01*
X126909390Y-104579185D01*
X126909390Y-104579184D01*
X126909394Y-104579179D01*
X126969737Y-104433497D01*
X127000500Y-104278842D01*
X127000500Y-104121158D01*
X127000500Y-104121155D01*
X127000499Y-104121153D01*
X126969738Y-103966510D01*
X126969737Y-103966503D01*
X126930242Y-103871153D01*
X126909397Y-103820827D01*
X126909390Y-103820814D01*
X126821789Y-103689711D01*
X126821786Y-103689707D01*
X126710292Y-103578213D01*
X126710288Y-103578210D01*
X126579185Y-103490609D01*
X126579172Y-103490602D01*
X126433501Y-103430264D01*
X126433489Y-103430261D01*
X126278845Y-103399500D01*
X126278842Y-103399500D01*
X126121158Y-103399500D01*
X126121155Y-103399500D01*
X125966510Y-103430261D01*
X125966498Y-103430264D01*
X125820827Y-103490602D01*
X125820814Y-103490609D01*
X125689711Y-103578210D01*
X125689707Y-103578213D01*
X125578213Y-103689707D01*
X125578210Y-103689711D01*
X125490609Y-103820814D01*
X125490602Y-103820827D01*
X125430264Y-103966498D01*
X125430261Y-103966510D01*
X125399500Y-104121153D01*
X123282138Y-104121153D01*
X123288161Y-104090874D01*
X123300500Y-104028844D01*
X123300500Y-103871155D01*
X123300499Y-103871153D01*
X123269738Y-103716510D01*
X123269737Y-103716503D01*
X123269735Y-103716498D01*
X123209397Y-103570827D01*
X123209390Y-103570814D01*
X123121789Y-103439711D01*
X123121786Y-103439707D01*
X123010292Y-103328213D01*
X123010288Y-103328210D01*
X122879185Y-103240609D01*
X122879172Y-103240602D01*
X122733501Y-103180264D01*
X122733489Y-103180261D01*
X122578845Y-103149500D01*
X122578842Y-103149500D01*
X122421158Y-103149500D01*
X122421155Y-103149500D01*
X122266510Y-103180261D01*
X122266498Y-103180264D01*
X122120827Y-103240602D01*
X122120814Y-103240609D01*
X121989711Y-103328210D01*
X121989707Y-103328213D01*
X121878213Y-103439707D01*
X121878210Y-103439711D01*
X121790609Y-103570814D01*
X121790602Y-103570827D01*
X121730264Y-103716498D01*
X121730261Y-103716510D01*
X121699500Y-103871153D01*
X111408040Y-103871153D01*
X111255792Y-103689711D01*
X111173682Y-103591856D01*
X110908144Y-103326318D01*
X110758200Y-103200500D01*
X110620474Y-103084934D01*
X110312875Y-102869551D01*
X110312864Y-102869544D01*
X110312858Y-102869540D01*
X110156349Y-102779179D01*
X109987648Y-102681779D01*
X109987633Y-102681771D01*
X109647293Y-102523068D01*
X109294410Y-102394630D01*
X108931692Y-102297441D01*
X108931695Y-102297441D01*
X108931685Y-102297439D01*
X108879471Y-102288232D01*
X108561865Y-102232229D01*
X108187767Y-102199500D01*
X108187764Y-102199500D01*
X107812236Y-102199500D01*
X107812232Y-102199500D01*
X107438134Y-102232229D01*
X107068320Y-102297438D01*
X107068317Y-102297438D01*
X107068315Y-102297439D01*
X107068310Y-102297440D01*
X107068307Y-102297441D01*
X106705589Y-102394630D01*
X106352706Y-102523068D01*
X106012366Y-102681771D01*
X106012351Y-102681779D01*
X105687150Y-102869535D01*
X105687124Y-102869551D01*
X105379525Y-103084934D01*
X105091853Y-103326320D01*
X104826320Y-103591853D01*
X104584934Y-103879525D01*
X104369551Y-104187124D01*
X104369535Y-104187150D01*
X104181779Y-104512351D01*
X104181771Y-104512366D01*
X104023068Y-104852706D01*
X103894630Y-105205589D01*
X103797441Y-105568307D01*
X103797438Y-105568320D01*
X103732229Y-105938134D01*
X103699500Y-106312232D01*
X88500500Y-106312232D01*
X88500500Y-95450446D01*
X88520185Y-95383407D01*
X88572989Y-95337652D01*
X88642147Y-95327708D01*
X88705703Y-95356733D01*
X88727601Y-95381554D01*
X88773633Y-95450446D01*
X88805601Y-95498289D01*
X88805611Y-95498303D01*
X89014453Y-95752777D01*
X89247222Y-95985546D01*
X89247227Y-95985550D01*
X89247228Y-95985551D01*
X89501702Y-96194393D01*
X89775421Y-96377286D01*
X90065749Y-96532469D01*
X90369889Y-96658448D01*
X90684913Y-96754010D01*
X90684919Y-96754011D01*
X90684922Y-96754012D01*
X90684933Y-96754015D01*
X90865361Y-96789903D01*
X91007787Y-96818233D01*
X91335400Y-96850500D01*
X91335403Y-96850500D01*
X91664597Y-96850500D01*
X91664600Y-96850500D01*
X91992213Y-96818233D01*
X92169760Y-96782916D01*
X92315066Y-96754015D01*
X92315077Y-96754012D01*
X92315077Y-96754011D01*
X92315087Y-96754010D01*
X92630111Y-96658448D01*
X92934251Y-96532469D01*
X93224579Y-96377286D01*
X93498298Y-96194393D01*
X93752772Y-95985551D01*
X93985551Y-95752772D01*
X94194393Y-95498298D01*
X94377286Y-95224579D01*
X94532469Y-94934251D01*
X94658448Y-94630111D01*
X94754010Y-94315087D01*
X94754012Y-94315077D01*
X94754015Y-94315066D01*
X94782916Y-94169760D01*
X94818233Y-93992213D01*
X94850500Y-93664600D01*
X94850500Y-93335400D01*
X94818233Y-93007787D01*
X94782269Y-92826983D01*
X94754015Y-92684933D01*
X94754012Y-92684922D01*
X94754011Y-92684919D01*
X94754010Y-92684913D01*
X94658448Y-92369889D01*
X94532469Y-92065749D01*
X94377286Y-91775421D01*
X94194393Y-91501702D01*
X93985551Y-91247228D01*
X93985550Y-91247227D01*
X93985546Y-91247222D01*
X93752777Y-91014453D01*
X93498303Y-90805611D01*
X93498280Y-90805594D01*
X93349648Y-90706282D01*
X93304842Y-90652670D01*
X93296135Y-90583345D01*
X93326289Y-90520318D01*
X93385732Y-90483598D01*
X93418538Y-90479180D01*
X107490437Y-90479180D01*
X107557476Y-90498865D01*
G37*
%TD.AperFunction*%
%TD*%
M02*
