M48
; DRILL file {KiCad 9.0.4} date 2025-10-21T16:41:08-0700
; FORMAT={-:-/ absolute / inch / decimal}
; #@! TF.CreationDate,2025-10-21T16:41:08-07:00
; #@! TF.GenerationSoftware,Kicad,Pcbnew,9.0.4
; #@! TF.FileFunction,Plated,1,2,PTH
FMAT,2
INCH
; #@! TA.AperFunction,Plated,PTH,ViaDrill
T1C0.0118
; #@! TA.AperFunction,Plated,PTH,ComponentDrill
T2C0.0118
; #@! TA.AperFunction,Plated,PTH,ComponentDrill
T3C0.0354
; #@! TA.AperFunction,Plated,PTH,ComponentDrill
T4C0.1260
; #@! TA.AperFunction,Plated,PTH,ComponentDrill
T5C0.1693
%
G90
G05
T1
X3.5689Y-4.002
X4.8228Y-4.0925
X4.8228Y-4.1575
X4.9685Y-4.1024
X5.0178Y-4.2008
X5.0273Y-4.081
X5.0482Y-4.2372
X5.0519Y-4.1056
X5.0748Y-4.126
X5.0798Y-4.171
X5.0993Y-4.1515
X5.1188Y-4.132
X5.3524Y-4.1201
X5.5522Y-4.0689
X5.6496Y-3.9685
X5.6496Y-4.0315
X6.2441Y-3.9232
X6.3839Y-4.1437
T2
X3.7972Y-4.0138
X3.7972Y-4.1083
X3.7982Y-4.061
T3
X4.5657Y-3.7992
X4.5657Y-3.8992
X4.8228Y-3.7992
X4.8228Y-3.8992
X5.0776Y-3.7992
X5.0776Y-3.8992
X5.3335Y-3.7992
X5.3335Y-3.8992
X5.5906Y-3.7992
X5.5906Y-3.8992
T4
X3.6024Y-3.6811
X3.6024Y-4.3346
X6.5748Y-3.6811
X6.5748Y-4.3346
T5
X4.252Y-3.7402
X4.252Y-4.1929
X5.9055Y-3.7402
X5.9055Y-4.1929
M30
