%TF.GenerationSoftware,KiCad,Pcbnew,9.0.4*%
%TF.CreationDate,2025-11-04T13:46:29-08:00*%
%TF.ProjectId,wind_board_batt_sensor,77696e64-5f62-46f6-9172-645f62617474,rev?*%
%TF.SameCoordinates,Original*%
%TF.FileFunction,Paste,Top*%
%TF.FilePolarity,Positive*%
%FSLAX46Y46*%
G04 Gerber Fmt 4.6, Leading zero omitted, Abs format (unit mm)*
G04 Created by KiCad (PCBNEW 9.0.4) date 2025-11-04 13:46:29*
%MOMM*%
%LPD*%
G01*
G04 APERTURE LIST*
G04 Aperture macros list*
%AMRoundRect*
0 Rectangle with rounded corners*
0 $1 Rounding radius*
0 $2 $3 $4 $5 $6 $7 $8 $9 X,Y pos of 4 corners*
0 Add a 4 corners polygon primitive as box body*
4,1,4,$2,$3,$4,$5,$6,$7,$8,$9,$2,$3,0*
0 Add four circle primitives for the rounded corners*
1,1,$1+$1,$2,$3*
1,1,$1+$1,$4,$5*
1,1,$1+$1,$6,$7*
1,1,$1+$1,$8,$9*
0 Add four rect primitives between the rounded corners*
20,1,$1+$1,$2,$3,$4,$5,0*
20,1,$1+$1,$4,$5,$6,$7,0*
20,1,$1+$1,$6,$7,$8,$9,0*
20,1,$1+$1,$8,$9,$2,$3,0*%
%AMRotRect*
0 Rectangle, with rotation*
0 The origin of the aperture is its center*
0 $1 length*
0 $2 width*
0 $3 Rotation angle, in degrees counterclockwise*
0 Add horizontal line*
21,1,$1,$2,0,0,$3*%
G04 Aperture macros list end*
%ADD10C,0.000000*%
%ADD11RoundRect,0.250000X-0.350000X-0.450000X0.350000X-0.450000X0.350000X0.450000X-0.350000X0.450000X0*%
%ADD12RoundRect,0.250000X-0.450000X0.350000X-0.450000X-0.350000X0.450000X-0.350000X0.450000X0.350000X0*%
%ADD13RoundRect,0.250000X0.350000X0.450000X-0.350000X0.450000X-0.350000X-0.450000X0.350000X-0.450000X0*%
%ADD14R,0.549999X0.575000*%
%ADD15R,0.549999X0.249999*%
%ADD16RoundRect,0.250000X0.450000X-0.350000X0.450000X0.350000X-0.450000X0.350000X-0.450000X-0.350000X0*%
%ADD17RotRect,0.700000X0.970000X45.000000*%
%ADD18RotRect,0.700000X0.250000X45.000000*%
%ADD19RoundRect,0.250000X0.070711X-0.565685X0.565685X-0.070711X-0.070711X0.565685X-0.565685X0.070711X0*%
%ADD20RoundRect,0.250000X0.400000X0.625000X-0.400000X0.625000X-0.400000X-0.625000X0.400000X-0.625000X0*%
%ADD21RoundRect,0.150000X0.150000X-0.825000X0.150000X0.825000X-0.150000X0.825000X-0.150000X-0.825000X0*%
%ADD22RoundRect,0.243750X0.456250X-0.243750X0.456250X0.243750X-0.456250X0.243750X-0.456250X-0.243750X0*%
%ADD23RoundRect,0.250000X0.450000X-0.262500X0.450000X0.262500X-0.450000X0.262500X-0.450000X-0.262500X0*%
G04 APERTURE END LIST*
D10*
%TO.C,U2*%
G36*
X96849999Y-101800000D02*
G01*
X96849999Y-103000000D01*
X96799999Y-103050000D01*
X96100001Y-103050000D01*
X96050001Y-103000000D01*
X96050001Y-101800000D01*
X96100001Y-101750000D01*
X96799999Y-101750000D01*
X96849999Y-101800000D01*
G37*
G36*
X96849999Y-103300000D02*
G01*
X96849999Y-104500000D01*
X96799999Y-104550000D01*
X96100001Y-104550000D01*
X96050001Y-104500000D01*
X96050001Y-103300000D01*
X96100001Y-103250000D01*
X96799999Y-103250000D01*
X96849999Y-103300000D01*
G37*
%TD*%
D11*
%TO.C,R6*%
X136000000Y-93500000D03*
X138000000Y-93500000D03*
%TD*%
D12*
%TO.C,R9*%
X99850000Y-103900000D03*
X99850000Y-105900000D03*
%TD*%
D13*
%TO.C,C5*%
X158800000Y-105250000D03*
X156800000Y-105250000D03*
%TD*%
D14*
%TO.C,U2*%
X95375001Y-101987500D03*
D15*
X95375001Y-102650001D03*
X95375001Y-103150000D03*
X95375001Y-103649999D03*
D14*
X95375001Y-104312500D03*
X97524999Y-104312500D03*
D15*
X97524999Y-103649999D03*
X97524999Y-103150000D03*
X97524999Y-102650001D03*
D14*
X97524999Y-101987500D03*
%TD*%
D16*
%TO.C,R3*%
X92350000Y-103650000D03*
X92350000Y-101650000D03*
%TD*%
D13*
%TO.C,R4*%
X128550000Y-93500000D03*
X126550000Y-93500000D03*
%TD*%
D17*
%TO.C,U1*%
X127615837Y-104207727D03*
X128446688Y-105038578D03*
X128248698Y-103574867D03*
X129079548Y-104405717D03*
D18*
X126454414Y-104502944D03*
X126737257Y-104785787D03*
X127020100Y-105068630D03*
X127302942Y-105351473D03*
X127585785Y-105634315D03*
X127868628Y-105917158D03*
X128151471Y-106200001D03*
X130237436Y-104114036D03*
X129954593Y-103831193D03*
X129671750Y-103548350D03*
X129388908Y-103265507D03*
X129106065Y-102982665D03*
X128823222Y-102699822D03*
X128540379Y-102416979D03*
%TD*%
D16*
%TO.C,C2*%
X99850000Y-102050000D03*
X99850000Y-100050000D03*
%TD*%
D11*
%TO.C,R2*%
X138112501Y-103250001D03*
X140112501Y-103250001D03*
%TD*%
%TO.C,C1*%
X94350000Y-99000000D03*
X96350000Y-99000000D03*
%TD*%
%TO.C,C6*%
X156800000Y-107250000D03*
X158800000Y-107250000D03*
%TD*%
D19*
%TO.C,C3*%
X124592893Y-103657107D03*
X126007107Y-102242893D03*
%TD*%
D11*
%TO.C,R5*%
X122750000Y-93500000D03*
X124750000Y-93500000D03*
%TD*%
D16*
%TO.C,R11*%
X156750000Y-103400000D03*
X156750000Y-101400000D03*
%TD*%
D13*
%TO.C,R7*%
X141850000Y-93500000D03*
X139850000Y-93500000D03*
%TD*%
D16*
%TO.C,R10*%
X154550000Y-103400000D03*
X154550000Y-101400000D03*
%TD*%
D20*
%TO.C,R_SENSE3*%
X130050000Y-109000000D03*
X126950000Y-109000000D03*
%TD*%
D11*
%TO.C,C4*%
X133950000Y-103250000D03*
X135950000Y-103250000D03*
%TD*%
D13*
%TO.C,R1*%
X140112500Y-105350000D03*
X138112500Y-105350000D03*
%TD*%
D21*
%TO.C,U3*%
X158595000Y-102925000D03*
X159865000Y-102925000D03*
X161135000Y-102925000D03*
X162405000Y-102925000D03*
X162405000Y-97975000D03*
X161135000Y-97975000D03*
X159865000Y-97975000D03*
X158595000Y-97975000D03*
%TD*%
D22*
%TO.C,D6*%
X158350000Y-110900000D03*
X158350000Y-109025000D03*
%TD*%
D23*
%TO.C,R12*%
X160400000Y-110875000D03*
X160400000Y-109050000D03*
%TD*%
D13*
%TO.C,R8*%
X143900000Y-105350000D03*
X141900000Y-105350000D03*
%TD*%
M02*
