M48
; DRILL file {KiCad 9.0.4} date 2025-12-16T12:11:59-0800
; FORMAT={-:-/ absolute / metric / decimal}
; #@! TF.CreationDate,2025-12-16T12:11:59-08:00
; #@! TF.GenerationSoftware,Kicad,Pcbnew,9.0.4
; #@! TF.FileFunction,Plated,1,2,PTH
FMAT,2
METRIC
; #@! TA.AperFunction,Plated,PTH,ViaDrill
T1C0.300
; #@! TA.AperFunction,Plated,PTH,ViaDrill
T2C0.500
; #@! TA.AperFunction,Plated,PTH,ComponentDrill
T3C0.900
; #@! TA.AperFunction,Plated,PTH,ComponentDrill
T4C1.000
; #@! TA.AperFunction,Plated,PTH,ComponentDrill
T5C3.200
; #@! TA.AperFunction,Plated,PTH,ComponentDrill
T6C4.300
%
G90
G05
T1
X99.72Y-108.1
X101.11Y-108.16
X102.125Y-96.225
X122.5Y-103.95
X122.5Y-105.6
X125.12Y-104.46
X127.451Y-106.7
X127.694Y-103.656
X128.224Y-107.624
X128.319Y-104.281
X128.9Y-104.8
X129.027Y-105.944
X129.521Y-105.449
X130.016Y-104.954
X135.95Y-104.65
X141.025Y-103.35
X143.5Y-100.8
X143.5Y-102.4
X158.6Y-99.65
X159.65Y-105.25
X159.65Y-107.25
T2
X92.37Y-98.63
X101.1Y-99.9
T3
X115.97Y-96.5
X115.97Y-99.04
X122.5Y-96.5
X122.5Y-99.04
X128.97Y-96.5
X128.97Y-99.04
X135.47Y-96.5
X135.47Y-99.04
X142.0Y-96.5
X142.0Y-99.04
T4
X158.3Y-92.9
X160.84Y-92.9
X168.0Y-99.25
X168.0Y-101.79
X168.0Y-104.33
T5
X92.0Y-94.0
X92.0Y-109.5
X166.5Y-94.0
X166.5Y-109.5
T6
X108.0Y-95.0
X108.0Y-106.5
X150.0Y-95.0
X150.0Y-106.5
M30
