%TF.GenerationSoftware,KiCad,Pcbnew,9.0.4*%
%TF.CreationDate,2025-12-16T12:11:59-08:00*%
%TF.ProjectId,wind_board_batt_sensor,77696e64-5f62-46f6-9172-645f62617474,rev?*%
%TF.SameCoordinates,Original*%
%TF.FileFunction,Drillmap*%
%TF.FilePolarity,Positive*%
%FSLAX45Y45*%
G04 Gerber Fmt 4.5, Leading zero omitted, Abs format (unit mm)*
G04 Created by KiCad (PCBNEW 9.0.4) date 2025-12-16 12:11:59*
%MOMM*%
%LPD*%
G01*
G04 APERTURE LIST*
%ADD10C,0.200000*%
G04 APERTURE END LIST*
D10*
X17040002Y-11047868D02*
X17040002Y-9300000D01*
X8800000Y-9297868D02*
G75*
G02*
X9100000Y-8997870I300000J-2D01*
G01*
X16737868Y-8997868D02*
G75*
G02*
X17040002Y-9300000I2J-302132D01*
G01*
X16737868Y-8997868D02*
X9100000Y-8997868D01*
X17040002Y-11047868D02*
G75*
G02*
X16737868Y-11350002I-302132J-2D01*
G01*
X9100000Y-11350000D02*
X16737868Y-11350000D01*
X8800000Y-9297870D02*
X8800000Y-11050000D01*
X9100000Y-11350000D02*
G75*
G02*
X8800000Y-11050000I0J300000D01*
G01*
X9050777Y-11671486D02*
X9050777Y-11471486D01*
X9050777Y-11471486D02*
X9098396Y-11471486D01*
X9098396Y-11471486D02*
X9126967Y-11481010D01*
X9126967Y-11481010D02*
X9146015Y-11500057D01*
X9146015Y-11500057D02*
X9155539Y-11519105D01*
X9155539Y-11519105D02*
X9165063Y-11557200D01*
X9165063Y-11557200D02*
X9165063Y-11585771D01*
X9165063Y-11585771D02*
X9155539Y-11623867D01*
X9155539Y-11623867D02*
X9146015Y-11642914D01*
X9146015Y-11642914D02*
X9126967Y-11661962D01*
X9126967Y-11661962D02*
X9098396Y-11671486D01*
X9098396Y-11671486D02*
X9050777Y-11671486D01*
X9250777Y-11671486D02*
X9250777Y-11538152D01*
X9250777Y-11576248D02*
X9260301Y-11557200D01*
X9260301Y-11557200D02*
X9269824Y-11547676D01*
X9269824Y-11547676D02*
X9288872Y-11538152D01*
X9288872Y-11538152D02*
X9307920Y-11538152D01*
X9374586Y-11671486D02*
X9374586Y-11538152D01*
X9374586Y-11471486D02*
X9365063Y-11481010D01*
X9365063Y-11481010D02*
X9374586Y-11490533D01*
X9374586Y-11490533D02*
X9384110Y-11481010D01*
X9384110Y-11481010D02*
X9374586Y-11471486D01*
X9374586Y-11471486D02*
X9374586Y-11490533D01*
X9498396Y-11671486D02*
X9479348Y-11661962D01*
X9479348Y-11661962D02*
X9469824Y-11642914D01*
X9469824Y-11642914D02*
X9469824Y-11471486D01*
X9603158Y-11671486D02*
X9584110Y-11661962D01*
X9584110Y-11661962D02*
X9574586Y-11642914D01*
X9574586Y-11642914D02*
X9574586Y-11471486D01*
X9831729Y-11671486D02*
X9831729Y-11471486D01*
X9831729Y-11471486D02*
X9898396Y-11614343D01*
X9898396Y-11614343D02*
X9965063Y-11471486D01*
X9965063Y-11471486D02*
X9965063Y-11671486D01*
X10146015Y-11671486D02*
X10146015Y-11566724D01*
X10146015Y-11566724D02*
X10136491Y-11547676D01*
X10136491Y-11547676D02*
X10117444Y-11538152D01*
X10117444Y-11538152D02*
X10079348Y-11538152D01*
X10079348Y-11538152D02*
X10060301Y-11547676D01*
X10146015Y-11661962D02*
X10126967Y-11671486D01*
X10126967Y-11671486D02*
X10079348Y-11671486D01*
X10079348Y-11671486D02*
X10060301Y-11661962D01*
X10060301Y-11661962D02*
X10050777Y-11642914D01*
X10050777Y-11642914D02*
X10050777Y-11623867D01*
X10050777Y-11623867D02*
X10060301Y-11604819D01*
X10060301Y-11604819D02*
X10079348Y-11595295D01*
X10079348Y-11595295D02*
X10126967Y-11595295D01*
X10126967Y-11595295D02*
X10146015Y-11585771D01*
X10241253Y-11538152D02*
X10241253Y-11738152D01*
X10241253Y-11547676D02*
X10260301Y-11538152D01*
X10260301Y-11538152D02*
X10298396Y-11538152D01*
X10298396Y-11538152D02*
X10317444Y-11547676D01*
X10317444Y-11547676D02*
X10326967Y-11557200D01*
X10326967Y-11557200D02*
X10336491Y-11576248D01*
X10336491Y-11576248D02*
X10336491Y-11633390D01*
X10336491Y-11633390D02*
X10326967Y-11652438D01*
X10326967Y-11652438D02*
X10317444Y-11661962D01*
X10317444Y-11661962D02*
X10298396Y-11671486D01*
X10298396Y-11671486D02*
X10260301Y-11671486D01*
X10260301Y-11671486D02*
X10241253Y-11661962D01*
X10422205Y-11652438D02*
X10431729Y-11661962D01*
X10431729Y-11661962D02*
X10422205Y-11671486D01*
X10422205Y-11671486D02*
X10412682Y-11661962D01*
X10412682Y-11661962D02*
X10422205Y-11652438D01*
X10422205Y-11652438D02*
X10422205Y-11671486D01*
X10422205Y-11547676D02*
X10431729Y-11557200D01*
X10431729Y-11557200D02*
X10422205Y-11566724D01*
X10422205Y-11566724D02*
X10412682Y-11557200D01*
X10412682Y-11557200D02*
X10422205Y-11547676D01*
X10422205Y-11547676D02*
X10422205Y-11566724D01*
M02*
