%TF.GenerationSoftware,KiCad,Pcbnew,9.0.4*%
%TF.CreationDate,2025-12-16T12:11:05-08:00*%
%TF.ProjectId,wind_board_batt_sensor,77696e64-5f62-46f6-9172-645f62617474,rev?*%
%TF.SameCoordinates,Original*%
%TF.FileFunction,Copper,L1,Top*%
%TF.FilePolarity,Positive*%
%FSLAX46Y46*%
G04 Gerber Fmt 4.6, Leading zero omitted, Abs format (unit mm)*
G04 Created by KiCad (PCBNEW 9.0.4) date 2025-12-16 12:11:05*
%MOMM*%
%LPD*%
G01*
G04 APERTURE LIST*
G04 Aperture macros list*
%AMRoundRect*
0 Rectangle with rounded corners*
0 $1 Rounding radius*
0 $2 $3 $4 $5 $6 $7 $8 $9 X,Y pos of 4 corners*
0 Add a 4 corners polygon primitive as box body*
4,1,4,$2,$3,$4,$5,$6,$7,$8,$9,$2,$3,0*
0 Add four circle primitives for the rounded corners*
1,1,$1+$1,$2,$3*
1,1,$1+$1,$4,$5*
1,1,$1+$1,$6,$7*
1,1,$1+$1,$8,$9*
0 Add four rect primitives between the rounded corners*
20,1,$1+$1,$2,$3,$4,$5,0*
20,1,$1+$1,$4,$5,$6,$7,0*
20,1,$1+$1,$6,$7,$8,$9,0*
20,1,$1+$1,$8,$9,$2,$3,0*%
%AMRotRect*
0 Rectangle, with rotation*
0 The origin of the aperture is its center*
0 $1 length*
0 $2 width*
0 $3 Rotation angle, in degrees counterclockwise*
0 Add horizontal line*
21,1,$1,$2,0,0,$3*%
G04 Aperture macros list end*
%TA.AperFunction,SMDPad,CuDef*%
%ADD10RoundRect,0.250000X-0.350000X-0.450000X0.350000X-0.450000X0.350000X0.450000X-0.350000X0.450000X0*%
%TD*%
%TA.AperFunction,SMDPad,CuDef*%
%ADD11RoundRect,0.250000X0.350000X0.450000X-0.350000X0.450000X-0.350000X-0.450000X0.350000X-0.450000X0*%
%TD*%
%TA.AperFunction,ComponentPad*%
%ADD12C,4.700000*%
%TD*%
%TA.AperFunction,ConnectorPad*%
%ADD13C,7.600000*%
%TD*%
%TA.AperFunction,ComponentPad*%
%ADD14R,1.800000X1.800000*%
%TD*%
%TA.AperFunction,ComponentPad*%
%ADD15C,1.800000*%
%TD*%
%TA.AperFunction,SMDPad,CuDef*%
%ADD16RotRect,0.700000X0.250000X45.000000*%
%TD*%
%TA.AperFunction,SMDPad,CuDef*%
%ADD17RotRect,1.780000X2.350000X45.000000*%
%TD*%
%TA.AperFunction,SMDPad,CuDef*%
%ADD18RoundRect,0.250000X0.475000X-0.250000X0.475000X0.250000X-0.475000X0.250000X-0.475000X-0.250000X0*%
%TD*%
%TA.AperFunction,ComponentPad*%
%ADD19R,1.700000X1.700000*%
%TD*%
%TA.AperFunction,ComponentPad*%
%ADD20C,1.700000*%
%TD*%
%TA.AperFunction,SMDPad,CuDef*%
%ADD21RoundRect,0.250000X-0.475000X0.250000X-0.475000X-0.250000X0.475000X-0.250000X0.475000X0.250000X0*%
%TD*%
%TA.AperFunction,ComponentPad*%
%ADD22C,3.600000*%
%TD*%
%TA.AperFunction,ConnectorPad*%
%ADD23C,5.700000*%
%TD*%
%TA.AperFunction,SMDPad,CuDef*%
%ADD24RoundRect,0.225000X0.017678X-0.335876X0.335876X-0.017678X-0.017678X0.335876X-0.335876X0.017678X0*%
%TD*%
%TA.AperFunction,SMDPad,CuDef*%
%ADD25RoundRect,0.250000X-1.000000X-0.900000X1.000000X-0.900000X1.000000X0.900000X-1.000000X0.900000X0*%
%TD*%
%TA.AperFunction,SMDPad,CuDef*%
%ADD26RoundRect,0.250000X0.450000X-0.350000X0.450000X0.350000X-0.450000X0.350000X-0.450000X-0.350000X0*%
%TD*%
%TA.AperFunction,SMDPad,CuDef*%
%ADD27RoundRect,0.250000X0.400000X0.625000X-0.400000X0.625000X-0.400000X-0.625000X0.400000X-0.625000X0*%
%TD*%
%TA.AperFunction,SMDPad,CuDef*%
%ADD28RoundRect,0.250000X-0.250000X-0.475000X0.250000X-0.475000X0.250000X0.475000X-0.250000X0.475000X0*%
%TD*%
%TA.AperFunction,SMDPad,CuDef*%
%ADD29RoundRect,0.150000X0.150000X-0.825000X0.150000X0.825000X-0.150000X0.825000X-0.150000X-0.825000X0*%
%TD*%
%TA.AperFunction,SMDPad,CuDef*%
%ADD30RoundRect,0.375000X0.625000X0.375000X-0.625000X0.375000X-0.625000X-0.375000X0.625000X-0.375000X0*%
%TD*%
%TA.AperFunction,SMDPad,CuDef*%
%ADD31RoundRect,0.500000X0.500000X1.400000X-0.500000X1.400000X-0.500000X-1.400000X0.500000X-1.400000X0*%
%TD*%
%TA.AperFunction,SMDPad,CuDef*%
%ADD32RoundRect,0.243750X0.456250X-0.243750X0.456250X0.243750X-0.456250X0.243750X-0.456250X-0.243750X0*%
%TD*%
%TA.AperFunction,SMDPad,CuDef*%
%ADD33RoundRect,0.250000X0.450000X-0.262500X0.450000X0.262500X-0.450000X0.262500X-0.450000X-0.262500X0*%
%TD*%
%TA.AperFunction,ViaPad*%
%ADD34C,1.000000*%
%TD*%
%TA.AperFunction,ViaPad*%
%ADD35C,0.600000*%
%TD*%
%TA.AperFunction,ViaPad*%
%ADD36C,0.500000*%
%TD*%
%TA.AperFunction,Conductor*%
%ADD37C,0.300000*%
%TD*%
%TA.AperFunction,Conductor*%
%ADD38C,0.200000*%
%TD*%
%TA.AperFunction,Conductor*%
%ADD39C,1.000000*%
%TD*%
%TA.AperFunction,Conductor*%
%ADD40C,0.500000*%
%TD*%
%TA.AperFunction,Conductor*%
%ADD41C,4.000000*%
%TD*%
%TA.AperFunction,Conductor*%
%ADD42C,0.150000*%
%TD*%
G04 APERTURE END LIST*
D10*
%TO.P,R6,1*%
%TO.N,Net-(D2-A)*%
X136000000Y-93500000D03*
%TO.P,R6,2*%
%TO.N,Net-(U1-L3)*%
X138000000Y-93500000D03*
%TD*%
D11*
%TO.P,C5,1*%
%TO.N,~*%
X158800000Y-105250000D03*
%TO.P,C5,2*%
%TO.N,+3.3V*%
X156800000Y-105250000D03*
%TD*%
D12*
%TO.P,J1,1,Pin_1*%
%TO.N,+12V*%
X150000000Y-95000000D03*
D13*
X150000000Y-95000000D03*
%TD*%
D14*
%TO.P,D5,1,K*%
%TO.N,Net-(D4-K)*%
X142000000Y-99040000D03*
D15*
%TO.P,D5,2,A*%
%TO.N,Net-(D2-A)*%
X142000000Y-96500000D03*
%TD*%
D14*
%TO.P,D2,1,K*%
%TO.N,Net-(D1-K)*%
X122500000Y-99040000D03*
D15*
%TO.P,D2,2,A*%
%TO.N,Net-(D2-A)*%
X122500000Y-96500000D03*
%TD*%
D14*
%TO.P,D1,1,K*%
%TO.N,Net-(D1-K)*%
X115970000Y-99040000D03*
D15*
%TO.P,D1,2,A*%
%TO.N,Net-(D1-A)*%
X115970000Y-96500000D03*
%TD*%
D12*
%TO.P,J2,1,Pin_1*%
%TO.N,~*%
X150000000Y-106500000D03*
D13*
X150000000Y-106500000D03*
%TD*%
D11*
%TO.P,R4,1*%
%TO.N,Net-(D4-A)*%
X128550000Y-93500000D03*
%TO.P,R4,2*%
%TO.N,Net-(D1-K)*%
X126550000Y-93500000D03*
%TD*%
D16*
%TO.P,U1,1,TH*%
%TO.N,+3.3V*%
X126454414Y-104502944D03*
%TO.P,U1,2,L1*%
%TO.N,Net-(D1-K)*%
X126737257Y-104785787D03*
%TO.P,U1,3,L2*%
%TO.N,Net-(D4-K)*%
X127020100Y-105068630D03*
%TO.P,U1,4,L3*%
%TO.N,Net-(U1-L3)*%
X127302942Y-105351473D03*
%TO.P,U1,5,L4*%
%TO.N,Net-(U1-L4)*%
X127585785Y-105634315D03*
%TO.P,U1,6,BATT*%
%TO.N,+3.3V*%
X127868628Y-105917158D03*
%TO.P,U1,7,CSN*%
%TO.N,Net-(J4-Pin_1)*%
X128151471Y-106200001D03*
%TO.P,U1,8,GND*%
%TO.N,~*%
X130237436Y-104114036D03*
%TO.P,U1,9,CSPL*%
X129954593Y-103831193D03*
%TO.P,U1,10,CELLX/CSPH*%
%TO.N,Net-(U1-CELLX{slash}CSPH)*%
X129671750Y-103548350D03*
%TO.P,U1,11,REG*%
%TO.N,Net-(U1-REG)*%
X129388908Y-103265507D03*
%TO.P,U1,12,ALRT*%
%TO.N,~*%
X129106065Y-102982665D03*
%TO.P,U1,13,SDA*%
%TO.N,Net-(J6-Pin_2)*%
X128823222Y-102699822D03*
%TO.P,U1,14,SCL*%
%TO.N,Net-(J6-Pin_1)*%
X128540379Y-102416979D03*
D17*
%TO.P,U1,15,EP*%
%TO.N,~*%
X128345925Y-104308490D03*
%TD*%
D18*
%TO.P,C2,1*%
%TO.N,+12V*%
X101100000Y-103075000D03*
%TO.P,C2,2*%
%TO.N,~*%
X101100000Y-101175000D03*
%TD*%
D19*
%TO.P,J5,1,Pin_1*%
%TO.N,+3.3V*%
X168000000Y-104330000D03*
D20*
%TO.P,J5,2,Pin_2*%
%TO.N,~*%
X168000000Y-101790000D03*
%TO.P,J5,3,Pin_3*%
%TO.N,Net-(J5-Pin_3)*%
X168000000Y-99250000D03*
%TD*%
D10*
%TO.P,R2,1*%
%TO.N,Net-(U1-CELLX{slash}CSPH)*%
X138112501Y-103250001D03*
%TO.P,R2,2*%
%TO.N,~*%
X140112501Y-103250001D03*
%TD*%
D21*
%TO.P,C1,1*%
%TO.N,+12V*%
X101125000Y-105000000D03*
%TO.P,C1,2*%
%TO.N,~*%
X101125000Y-106900000D03*
%TD*%
D22*
%TO.P,REF\u002A\u002A,1*%
%TO.N,~*%
X166500000Y-109500000D03*
D23*
X166500000Y-109500000D03*
%TD*%
D10*
%TO.P,C6,1*%
%TO.N,+3.3V*%
X156800000Y-107250000D03*
%TO.P,C6,2*%
%TO.N,~*%
X158800000Y-107250000D03*
%TD*%
D24*
%TO.P,C3,1*%
%TO.N,+3.3V*%
X124751992Y-103498008D03*
%TO.P,C3,2*%
%TO.N,~*%
X125848008Y-102401992D03*
%TD*%
D25*
%TO.P,D7,1,K*%
%TO.N,+12V*%
X97350000Y-94000000D03*
%TO.P,D7,2,A*%
%TO.N,~*%
X101650000Y-94000000D03*
%TD*%
D14*
%TO.P,D4,1,K*%
%TO.N,Net-(D4-K)*%
X135470000Y-99040000D03*
D15*
%TO.P,D4,2,A*%
%TO.N,Net-(D4-A)*%
X135470000Y-96500000D03*
%TD*%
D10*
%TO.P,R5,1*%
%TO.N,Net-(D1-A)*%
X122750000Y-93500000D03*
%TO.P,R5,2*%
%TO.N,Net-(D4-K)*%
X124750000Y-93500000D03*
%TD*%
D14*
%TO.P,D3,1,K*%
%TO.N,Net-(D1-K)*%
X128970000Y-99040000D03*
D15*
%TO.P,D3,2,A*%
%TO.N,Net-(D3-A)*%
X128970000Y-96500000D03*
%TD*%
D26*
%TO.P,R11,1*%
%TO.N,+3.3V*%
X156750000Y-103400000D03*
%TO.P,R11,2*%
%TO.N,Net-(J6-Pin_2)*%
X156750000Y-101400000D03*
%TD*%
D11*
%TO.P,R7,1*%
%TO.N,Net-(D3-A)*%
X141850000Y-93500000D03*
%TO.P,R7,2*%
%TO.N,Net-(U1-L4)*%
X139850000Y-93500000D03*
%TD*%
D19*
%TO.P,J6,1,Pin_1*%
%TO.N,Net-(J6-Pin_1)*%
X158300000Y-92900000D03*
D20*
%TO.P,J6,2,Pin_2*%
%TO.N,Net-(J6-Pin_2)*%
X160840000Y-92900000D03*
%TD*%
D26*
%TO.P,R10,1*%
%TO.N,+3.3V*%
X154550000Y-103400000D03*
%TO.P,R10,2*%
%TO.N,Net-(J6-Pin_1)*%
X154550000Y-101400000D03*
%TD*%
D27*
%TO.P,R_SENSE3,1*%
%TO.N,~*%
X130050000Y-109000000D03*
%TO.P,R_SENSE3,2*%
%TO.N,Net-(J4-Pin_1)*%
X126950000Y-109000000D03*
%TD*%
D10*
%TO.P,C4,1*%
%TO.N,Net-(U1-REG)*%
X133950000Y-103250000D03*
%TO.P,C4,2*%
%TO.N,~*%
X135950000Y-103250000D03*
%TD*%
D22*
%TO.P,REF\u002A\u002A,1*%
%TO.N,~*%
X92000000Y-109500000D03*
D23*
X92000000Y-109500000D03*
%TD*%
D28*
%TO.P,C7,1*%
%TO.N,+3.3V*%
X97050000Y-106675000D03*
%TO.P,C7,2*%
%TO.N,~*%
X98950000Y-106675000D03*
%TD*%
D22*
%TO.P,REF\u002A\u002A,1*%
%TO.N,~*%
X92000000Y-94000000D03*
D23*
X92000000Y-94000000D03*
%TD*%
D11*
%TO.P,R1,1*%
%TO.N,Net-(R1-Pad1)*%
X140112500Y-105350000D03*
%TO.P,R1,2*%
%TO.N,Net-(U1-CELLX{slash}CSPH)*%
X138112500Y-105350000D03*
%TD*%
D29*
%TO.P,U3,1,VCC*%
%TO.N,+3.3V*%
X158595000Y-102925000D03*
%TO.P,U3,2,PA6*%
%TO.N,Net-(U3-PA6)*%
X159865000Y-102925000D03*
%TO.P,U3,3,PA7*%
%TO.N,unconnected-(U3-PA7-Pad3)*%
X161135000Y-102925000D03*
%TO.P,U3,4,PA1*%
%TO.N,Net-(J6-Pin_2)*%
X162405000Y-102925000D03*
%TO.P,U3,5,PA2*%
%TO.N,Net-(J6-Pin_1)*%
X162405000Y-97975000D03*
%TO.P,U3,6,~{RESET}/PA0*%
%TO.N,Net-(J5-Pin_3)*%
X161135000Y-97975000D03*
%TO.P,U3,7,PA3*%
%TO.N,unconnected-(U3-PA3-Pad7)*%
X159865000Y-97975000D03*
%TO.P,U3,8,GND*%
%TO.N,~*%
X158595000Y-97975000D03*
%TD*%
D22*
%TO.P,REF\u002A\u002A,1*%
%TO.N,~*%
X166500000Y-94000000D03*
D23*
X166500000Y-94000000D03*
%TD*%
D30*
%TO.P,U2,1,I*%
%TO.N,+12V*%
X98650000Y-103800000D03*
%TO.P,U2,2,GND*%
%TO.N,~*%
X98650000Y-101500000D03*
%TO.P,U2,3,Q*%
%TO.N,+3.3V*%
X98650000Y-99200000D03*
D31*
%TO.P,U2,4,GND*%
%TO.N,~*%
X92350000Y-101500000D03*
%TD*%
D12*
%TO.P,J4,1,Pin_1*%
%TO.N,Net-(J4-Pin_1)*%
X108000000Y-106500000D03*
D13*
X108000000Y-106500000D03*
%TD*%
D32*
%TO.P,D6,1,K*%
%TO.N,Net-(D6-K)*%
X158350000Y-110900000D03*
%TO.P,D6,2,A*%
%TO.N,+3.3V*%
X158350000Y-109025000D03*
%TD*%
D33*
%TO.P,R12,1*%
%TO.N,Net-(D6-K)*%
X160400000Y-110875000D03*
%TO.P,R12,2*%
%TO.N,Net-(U3-PA6)*%
X160400000Y-109050000D03*
%TD*%
D11*
%TO.P,R8,1*%
%TO.N,+12V*%
X143900000Y-105350000D03*
%TO.P,R8,2*%
%TO.N,Net-(R1-Pad1)*%
X141900000Y-105350000D03*
%TD*%
D12*
%TO.P,J3,1,Pin_1*%
%TO.N,+12V*%
X108000000Y-95000000D03*
D13*
X108000000Y-95000000D03*
%TD*%
D34*
%TO.N,~*%
X101100000Y-99900000D03*
D35*
X135950000Y-104650000D03*
X129521492Y-105448699D03*
X158600000Y-99650000D03*
D36*
X99720000Y-108100000D03*
D35*
X129026517Y-105943674D03*
X128318718Y-104281282D03*
X141025000Y-103350000D03*
X102125000Y-96225000D03*
X159650000Y-105250000D03*
X127693718Y-103656282D03*
X128900000Y-104800000D03*
D34*
X92370000Y-98630000D03*
D35*
X130016466Y-104953725D03*
D36*
X101110000Y-108160000D03*
D35*
X159650000Y-107250000D03*
%TO.N,Net-(D4-K)*%
X122500000Y-103950000D03*
X122500000Y-105600000D03*
%TO.N,+12V*%
X143500000Y-102400000D03*
X143500000Y-100800000D03*
%TO.N,+3.3V*%
X125120000Y-104460000D03*
X127451471Y-106700000D03*
X128224265Y-107624265D03*
%TD*%
D37*
%TO.N,~*%
X158700000Y-105250000D02*
X159650000Y-105250000D01*
D38*
X129954593Y-103831193D02*
X130500000Y-103285786D01*
D39*
X100775000Y-101175000D02*
X101100000Y-101175000D01*
D40*
X126007107Y-102242893D02*
X126280328Y-102242893D01*
D38*
X129320000Y-107860000D02*
X130050000Y-108590000D01*
D40*
X98950000Y-107330000D02*
X99720000Y-108100000D01*
X158595000Y-97975000D02*
X158595000Y-99645000D01*
D39*
X98650000Y-101500000D02*
X99800000Y-101500000D01*
X101100000Y-99900000D02*
X101100000Y-101175000D01*
D41*
X150000000Y-105000000D02*
X147501000Y-107499000D01*
D38*
X131800000Y-104660000D02*
X129320000Y-107140000D01*
D39*
X92370000Y-99330000D02*
X92350000Y-99350000D01*
D38*
X130500000Y-103285786D02*
X131285786Y-103285786D01*
D39*
X98650000Y-101500000D02*
X100450000Y-101500000D01*
D40*
X98950000Y-106675000D02*
X98950000Y-107330000D01*
X101125000Y-106900000D02*
X101125000Y-108145000D01*
X101125000Y-108145000D02*
X101110000Y-108160000D01*
D39*
X101650000Y-95750000D02*
X102125000Y-96225000D01*
D41*
X146000000Y-109000000D02*
X131000000Y-109000000D01*
D38*
X130050000Y-108590000D02*
X130050000Y-109000000D01*
X131285786Y-103285786D02*
X131800000Y-103800000D01*
X131800000Y-108200000D02*
X131000000Y-109000000D01*
X129320000Y-107140000D02*
X129320000Y-107860000D01*
X140025001Y-103250001D02*
X140925001Y-103250001D01*
X129954595Y-103831192D02*
X130069499Y-103716288D01*
D41*
X147501000Y-109000000D02*
X146000000Y-109000000D01*
D40*
X100900000Y-106675000D02*
X101125000Y-106900000D01*
D39*
X100450000Y-101500000D02*
X100775000Y-101175000D01*
D37*
X158700000Y-107250000D02*
X159650000Y-107250000D01*
D38*
X140925001Y-103250001D02*
X141025000Y-103350000D01*
D37*
X135950000Y-103250000D02*
X135950000Y-104650000D01*
D40*
X158595000Y-99645000D02*
X158600000Y-99650000D01*
X127693718Y-103656282D02*
X128318718Y-104281282D01*
X128318718Y-104281282D02*
X128837436Y-104800000D01*
X98950000Y-106675000D02*
X100900000Y-106675000D01*
D39*
X92370000Y-98630000D02*
X92370000Y-99330000D01*
X92350000Y-99350000D02*
X92350000Y-101500000D01*
D38*
X131800000Y-103800000D02*
X131800000Y-104660000D01*
D40*
X126280328Y-102242893D02*
X127693718Y-103656282D01*
X128837436Y-104800000D02*
X128900000Y-104800000D01*
D39*
X101650000Y-94000000D02*
X101650000Y-95750000D01*
D38*
%TO.N,Net-(U1-REG)*%
X130255415Y-102399000D02*
X133099000Y-102399000D01*
X130255415Y-102399000D02*
X129388908Y-103265507D01*
X133099000Y-102399000D02*
X133950000Y-103250000D01*
%TO.N,Net-(D1-K)*%
X113803000Y-99747000D02*
X114510000Y-99040000D01*
D42*
X126223044Y-105300000D02*
X125171000Y-105300000D01*
D38*
X122500000Y-99040000D02*
X128970000Y-99040000D01*
X122251057Y-104999000D02*
X121951057Y-105299000D01*
X115100300Y-105299000D02*
X113803000Y-104001700D01*
X121099000Y-94501000D02*
X119200000Y-96400000D01*
X119200000Y-99040000D02*
X122500000Y-99040000D01*
X123049943Y-105300000D02*
X122748943Y-104999000D01*
X114510000Y-99040000D02*
X115970000Y-99040000D01*
X125636500Y-94501000D02*
X121099000Y-94501000D01*
D42*
X126737257Y-104785787D02*
X126223044Y-105300000D01*
D38*
X115970000Y-99040000D02*
X119200000Y-99040000D01*
X125636500Y-94501000D02*
X126637500Y-93500000D01*
X119200000Y-96400000D02*
X119200000Y-99040000D01*
X122748943Y-104999000D02*
X122251057Y-104999000D01*
X125171000Y-105300000D02*
X123049943Y-105300000D01*
X113803000Y-104001700D02*
X113803000Y-99747000D01*
X121951057Y-105299000D02*
X115100300Y-105299000D01*
%TO.N,Net-(D1-A)*%
X122750000Y-92801000D02*
X122750000Y-93500000D01*
X113803000Y-93298300D02*
X115200300Y-91901000D01*
X113803000Y-95850000D02*
X113803000Y-93298300D01*
X121850000Y-91901000D02*
X122750000Y-92801000D01*
X115970000Y-96500000D02*
X115950000Y-96480000D01*
X115970000Y-96500000D02*
X114453000Y-96500000D01*
X114453000Y-96500000D02*
X113803000Y-95850000D01*
X115200300Y-91901000D02*
X121850000Y-91901000D01*
%TO.N,Net-(D3-A)*%
X143150000Y-93500000D02*
X141850000Y-93500000D01*
X143600000Y-97300000D02*
X143600000Y-93950000D01*
X143600000Y-93950000D02*
X143150000Y-93500000D01*
X130170000Y-97700000D02*
X143200000Y-97700000D01*
X143200000Y-97700000D02*
X143600000Y-97300000D01*
X128970000Y-96500000D02*
X130170000Y-97700000D01*
%TO.N,Net-(D4-K)*%
X113402000Y-104167800D02*
X114934200Y-105700000D01*
X123502000Y-100598000D02*
X133912000Y-100598000D01*
X113402000Y-93132200D02*
X113402000Y-104167800D01*
X133912000Y-100598000D02*
X135470000Y-99040000D01*
X122500000Y-101600000D02*
X122500000Y-103950000D01*
X124912500Y-93500000D02*
X122912500Y-91500000D01*
D42*
X127011370Y-105068630D02*
X126380000Y-105700000D01*
D38*
X115034200Y-91500000D02*
X113402000Y-93132200D01*
X122912500Y-91500000D02*
X115034200Y-91500000D01*
D42*
X126380000Y-105700000D02*
X125400000Y-105700000D01*
D38*
X123502000Y-100598000D02*
X122500000Y-101600000D01*
D42*
X127020100Y-105068630D02*
X127011370Y-105068630D01*
D38*
X114934200Y-105700000D02*
X125400000Y-105700000D01*
X142000000Y-99040000D02*
X135470000Y-99040000D01*
%TO.N,Net-(J4-Pin_1)*%
X128151471Y-106848529D02*
X126000000Y-109000000D01*
X128151471Y-106200001D02*
X128151471Y-106848529D01*
D41*
X111000000Y-109000000D02*
X118200000Y-109000000D01*
X110499000Y-109000000D02*
X111000000Y-109000000D01*
X108000000Y-106501000D02*
X110499000Y-109000000D01*
X118200000Y-109000000D02*
X126000000Y-109000000D01*
D38*
%TO.N,Net-(J6-Pin_2)*%
X162200000Y-101400000D02*
X162405000Y-101605000D01*
X160840000Y-93910000D02*
X156750000Y-98000000D01*
X162405000Y-101605000D02*
X162405000Y-102925000D01*
X160840000Y-92900000D02*
X160840000Y-93910000D01*
X156750000Y-101400000D02*
X160150000Y-101400000D01*
X160150000Y-101400000D02*
X162200000Y-101400000D01*
X128823222Y-102699822D02*
X129723044Y-101800000D01*
X156750000Y-98000000D02*
X156750000Y-101400000D01*
X155750000Y-102400000D02*
X156750000Y-101400000D01*
X152400000Y-101800000D02*
X153000000Y-102400000D01*
X129723044Y-101800000D02*
X152400000Y-101800000D01*
X153000000Y-102400000D02*
X155750000Y-102400000D01*
%TO.N,Net-(R1-Pad1)*%
X140025000Y-105350000D02*
X140025000Y-105525001D01*
X140025000Y-105350000D02*
X141687500Y-105350000D01*
%TO.N,Net-(U1-CELLX{slash}CSPH)*%
X138200001Y-103250001D02*
X138200000Y-105350000D01*
X130420100Y-102800000D02*
X131400000Y-102800000D01*
X133950000Y-105350000D02*
X138112500Y-105350000D01*
X129671750Y-103548350D02*
X130420100Y-102800000D01*
X131400000Y-102800000D02*
X133950000Y-105350000D01*
D42*
%TO.N,Net-(U1-L3)*%
X127302942Y-105351473D02*
X127302942Y-105365314D01*
X126568256Y-106100000D02*
X126273000Y-106100000D01*
D38*
X113001000Y-104333900D02*
X114965100Y-106298000D01*
X137149000Y-91099000D02*
X114868100Y-91099000D01*
X114965100Y-106298000D02*
X119950000Y-106298000D01*
X113001000Y-92966100D02*
X113001000Y-104333900D01*
X125702000Y-106298000D02*
X119950000Y-106298000D01*
X119850000Y-106298000D02*
X119900000Y-106298000D01*
X125900000Y-106100000D02*
X125702000Y-106298000D01*
X137912500Y-93500000D02*
X137912500Y-91862500D01*
X119950000Y-106298000D02*
X119850000Y-106298000D01*
X137912500Y-91862500D02*
X137149000Y-91099000D01*
X114868100Y-91099000D02*
X113001000Y-92966100D01*
X126273000Y-106100000D02*
X125900000Y-106100000D01*
D42*
X127302942Y-105351473D02*
X127302942Y-105357058D01*
X127302942Y-105365314D02*
X126568256Y-106100000D01*
D39*
%TO.N,+12V*%
X98875000Y-91325000D02*
X97350000Y-92850000D01*
X97350000Y-94000000D02*
X97350000Y-94100000D01*
D38*
X143900000Y-102800000D02*
X143500000Y-102400000D01*
D39*
X101125000Y-105000000D02*
X101125000Y-103100000D01*
X98875000Y-104025000D02*
X100625000Y-104025000D01*
X100975000Y-97725000D02*
X102025000Y-97725000D01*
X103900000Y-99600000D02*
X103900000Y-101825000D01*
X97350000Y-92850000D02*
X97350000Y-94000000D01*
D38*
X143499000Y-102399000D02*
X143500000Y-102400000D01*
X143900000Y-105350000D02*
X143900000Y-102800000D01*
D39*
X108000000Y-95000000D02*
X108000000Y-94225000D01*
D38*
X143512500Y-105350000D02*
X143900000Y-105350000D01*
D39*
X104400000Y-91325000D02*
X98875000Y-91325000D01*
D38*
X143488500Y-102399000D02*
X143499000Y-102399000D01*
D39*
X103900000Y-101825000D02*
X102650000Y-103075000D01*
X100625000Y-104025000D02*
X101100000Y-103550000D01*
X102025000Y-97725000D02*
X103900000Y-99600000D01*
X106474156Y-92699156D02*
X105774156Y-92699156D01*
X105774156Y-92699156D02*
X104400000Y-91325000D01*
D40*
X101125000Y-103100000D02*
X101100000Y-103075000D01*
D39*
X101100000Y-103550000D02*
X101100000Y-103075000D01*
X108000000Y-94225000D02*
X106474156Y-92699156D01*
X97350000Y-94100000D02*
X100975000Y-97725000D01*
X102650000Y-103075000D02*
X101100000Y-103075000D01*
D38*
X143500000Y-100800000D02*
X144200000Y-100800000D01*
D39*
X98650000Y-103800000D02*
X98875000Y-104025000D01*
D38*
X144200000Y-100800000D02*
X150000000Y-95000000D01*
D39*
%TO.N,+3.3V*%
X156750000Y-107200000D02*
X156800000Y-107250000D01*
D37*
X156825000Y-109025000D02*
X156800000Y-109050000D01*
D39*
X156800000Y-107250000D02*
X156800000Y-109050000D01*
D40*
X124592893Y-103932893D02*
X124592893Y-103657107D01*
D39*
X129050000Y-112499000D02*
X131000000Y-112499000D01*
D37*
X125449478Y-103498008D02*
X126365319Y-104413849D01*
D39*
X156800000Y-109550000D02*
X156800000Y-111200000D01*
X95860000Y-104490000D02*
X97050000Y-105680000D01*
D37*
X128500000Y-107900000D02*
X128500000Y-112499000D01*
D39*
X131000000Y-112499000D02*
X155501000Y-112499000D01*
X95775000Y-103250000D02*
X95780000Y-103255000D01*
X96770000Y-99200000D02*
X95775000Y-100195000D01*
X95780000Y-104400000D02*
X95860000Y-104480000D01*
X156750000Y-103400000D02*
X154550000Y-103400000D01*
X98650000Y-99200000D02*
X96770000Y-99200000D01*
X156750000Y-103400000D02*
X158120000Y-103400000D01*
X97050000Y-105680000D02*
X97050000Y-106675000D01*
X156800000Y-109050000D02*
X156800000Y-109550000D01*
X165150000Y-104350000D02*
X165170000Y-104330000D01*
D40*
X125120000Y-104460000D02*
X124592893Y-103932893D01*
D39*
X97050000Y-107760000D02*
X101789000Y-112499000D01*
D37*
X128224265Y-107624265D02*
X128500000Y-107900000D01*
D39*
X162500000Y-111450000D02*
X162500000Y-106250000D01*
X97050000Y-106675000D02*
X97050000Y-107760000D01*
D37*
X124751992Y-103498008D02*
X125449478Y-103498008D01*
D38*
X127451471Y-106334315D02*
X127451471Y-106700000D01*
D37*
X158350000Y-109025000D02*
X156825000Y-109025000D01*
D39*
X155501000Y-112499000D02*
X161451000Y-112499000D01*
X161451000Y-112499000D02*
X162500000Y-111450000D01*
X165170000Y-104330000D02*
X168000000Y-104330000D01*
X95780000Y-103255000D02*
X95780000Y-104400000D01*
X164400000Y-104350000D02*
X165150000Y-104350000D01*
X156800000Y-111200000D02*
X155501000Y-112499000D01*
X156750000Y-103400000D02*
X156750000Y-107200000D01*
X162500000Y-106250000D02*
X164400000Y-104350000D01*
X101789000Y-112499000D02*
X131000000Y-112499000D01*
D38*
X127868628Y-105917158D02*
X127451471Y-106334315D01*
D39*
X95775000Y-100195000D02*
X95775000Y-103250000D01*
X95860000Y-104480000D02*
X95860000Y-104490000D01*
D38*
X126411470Y-104460000D02*
X126454414Y-104502944D01*
D39*
X128500000Y-112499000D02*
X129050000Y-112499000D01*
X158120000Y-103400000D02*
X158595000Y-102925000D01*
D38*
%TO.N,Net-(J6-Pin_1)*%
X162405000Y-91505000D02*
X162000000Y-91100000D01*
X129400000Y-101400000D02*
X154550000Y-101400000D01*
X162405000Y-97975000D02*
X162405000Y-91505000D01*
X158300000Y-92900000D02*
X158300000Y-94350000D01*
X162000000Y-91100000D02*
X158700000Y-91100000D01*
X128540379Y-102416979D02*
X128540379Y-102259621D01*
X154550000Y-98100000D02*
X157050000Y-95600000D01*
X154550000Y-101400000D02*
X154550000Y-98100000D01*
X128540379Y-102259621D02*
X129400000Y-101400000D01*
X158300000Y-91500000D02*
X158300000Y-92900000D01*
X158700000Y-91100000D02*
X158300000Y-91500000D01*
X158300000Y-94350000D02*
X157050000Y-95600000D01*
%TO.N,Net-(D2-A)*%
X127451000Y-92549000D02*
X128000000Y-92000000D01*
X135900000Y-92000000D02*
X136087500Y-92187500D01*
X126150000Y-96500000D02*
X127451000Y-95199000D01*
X127451000Y-95199000D02*
X127451000Y-92549000D01*
X122500000Y-96500000D02*
X126150000Y-96500000D01*
X137800000Y-96500000D02*
X142000000Y-96500000D01*
X136087500Y-94787500D02*
X137800000Y-96500000D01*
X128000000Y-92000000D02*
X135900000Y-92000000D01*
X136087500Y-92187500D02*
X136087500Y-94787500D01*
%TO.N,Net-(D4-A)*%
X135470000Y-94720000D02*
X134250000Y-93500000D01*
X134250000Y-93500000D02*
X128462500Y-93500000D01*
X135510000Y-96460000D02*
X135470000Y-96500000D01*
X135470000Y-96500000D02*
X135470000Y-94720000D01*
%TO.N,Net-(U1-L4)*%
X138798000Y-90698000D02*
X139850000Y-91750000D01*
X127585785Y-105634315D02*
X127585685Y-105634315D01*
D42*
X127585785Y-105634315D02*
X127585785Y-105668257D01*
D38*
X112600000Y-104500000D02*
X112600000Y-92800000D01*
X126125000Y-106699000D02*
X114799000Y-106699000D01*
X114702000Y-90698000D02*
X138798000Y-90698000D01*
X114799000Y-106699000D02*
X112600000Y-104500000D01*
X112600000Y-92800000D02*
X114702000Y-90698000D01*
X126324000Y-106700000D02*
X126126000Y-106700000D01*
D42*
X127585785Y-105668257D02*
X126554042Y-106700000D01*
D38*
X139850000Y-91750000D02*
X139850000Y-93500000D01*
X127585785Y-105634315D02*
X127565685Y-105634315D01*
D42*
X126554042Y-106700000D02*
X126324000Y-106700000D01*
D38*
X139662500Y-93500000D02*
X139662500Y-94005971D01*
X126126000Y-106700000D02*
X126125000Y-106699000D01*
D37*
%TO.N,Net-(U3-PA6)*%
X159865000Y-104465000D02*
X159865000Y-102925000D01*
X160400000Y-109050000D02*
X160400000Y-105000000D01*
X160400000Y-105000000D02*
X159865000Y-104465000D01*
%TO.N,Net-(D6-K)*%
X160375000Y-110900000D02*
X160400000Y-110875000D01*
X158350000Y-110900000D02*
X160375000Y-110900000D01*
D38*
%TO.N,Net-(J5-Pin_3)*%
X161135000Y-97975000D02*
X161135000Y-98949999D01*
X161135000Y-98949999D02*
X161435001Y-99250000D01*
X161435001Y-99250000D02*
X168000000Y-99250000D01*
%TD*%
%TA.AperFunction,Conductor*%
%TO.N,~*%
G36*
X129335522Y-102717145D02*
G01*
X129371584Y-102753207D01*
X129393258Y-102805533D01*
X129371584Y-102857859D01*
X129148448Y-103080995D01*
X129108886Y-103149519D01*
X129104948Y-103164217D01*
X129085796Y-103197388D01*
X128885095Y-103398089D01*
X128885095Y-103398090D01*
X128969155Y-103482150D01*
X128974028Y-103487527D01*
X128974962Y-103488665D01*
X129165746Y-103679447D01*
X129166867Y-103680367D01*
X129172250Y-103685245D01*
X129251997Y-103764992D01*
X129256868Y-103770365D01*
X129257804Y-103771506D01*
X129257810Y-103771514D01*
X129448586Y-103962288D01*
X129448589Y-103962290D01*
X129449715Y-103963214D01*
X129455097Y-103968092D01*
X129761135Y-104274130D01*
X129761135Y-104274129D01*
X129761136Y-104274130D01*
X130345207Y-103690058D01*
X130397532Y-103668385D01*
X130449856Y-103690058D01*
X130542875Y-103783076D01*
X130635892Y-103876094D01*
X130657566Y-103928420D01*
X130635892Y-103980746D01*
X130051822Y-104564815D01*
X130423760Y-104936753D01*
X130445434Y-104989079D01*
X130423760Y-105041405D01*
X129114197Y-106350967D01*
X129061871Y-106372641D01*
X129009546Y-106350967D01*
X127223392Y-104564815D01*
X126851454Y-104192877D01*
X126829780Y-104140551D01*
X126851453Y-104088226D01*
X128090306Y-102849373D01*
X128142631Y-102827700D01*
X128194955Y-102849373D01*
X128285865Y-102940282D01*
X128602252Y-103256668D01*
X128602252Y-103256667D01*
X128602253Y-103256668D01*
X128843048Y-103015872D01*
X128876219Y-102996722D01*
X128921789Y-102984511D01*
X128939210Y-102979843D01*
X129007733Y-102940282D01*
X129230870Y-102717145D01*
X129283196Y-102695471D01*
X129335522Y-102717145D01*
G37*
%TD.AperFunction*%
%TD*%
M02*
